<svg xmlns="http://www.w3.org/2000/svg" xmlns:xlink="http://www.w3.org/1999/xlink" version="1.1"><metadata>Created by FontForge 20170731 at Wed May 31 05:49:55 2017 By Aleksey,,, (c) 2015-2017 Apple Inc. All rights reserved.</metadata><defs><font id="SFProDisplay-MediumItalic" horiz-adv-x="0"><font-face x-height="1055" ascent="1638" bbox="-608 -511 2822 2150" cap-height="1443" descent="-410" font-family="SF Pro Display" font-stretch="normal" font-style="italic" font-weight="500" panose-1="0 0 6 0 0 0 0 0 0 0" slope="-12" underline-position="-681" underline-thickness="154" unicode-range="U+0020-FB02" units-per-em="2048"/><glyph d="M-70 -494l54 247h1847l-54 -247h-1847zM23 -55l54 247h1847l-54 -247h-1847zM116 385l54 247h1847l-54 -247h-1847zM208 825l55 246h1847l-54 -246h-1848zM301 1264l55 247h1847l-54 -247h-1848zM395 1703l54 247h1848l-55 -247h-1847z" glyph-name=".notdef" horiz-adv-x="2048"/><glyph glyph-name=".null"/><glyph glyph-name="nonmarkingreturn"/><glyph glyph-name="space" horiz-adv-x="478"/><glyph d="M414 1443h240l-226 -965h-199zM252 -17q-55 0 -93.5 39t-38.5 95q0 57 38 96t94 39q55 0 93.5 -39t38.5 -96q0 -56 -38.5 -95t-93.5 -39z" glyph-name="exclam" horiz-adv-x="587" unicode="!"/><glyph d="M468 908h-193l112 535h193zM840 908h-192l112 535h192z" glyph-name="quotedbl" horiz-adv-x="857" unicode="&quot;"/><glyph d="M624 0l130 392h-303l-130 -392h-171l129 392h-230l53 178h233l108 319h-241l54 177h242l126 377h170l-123 -377h301l127 377h171l-125 -377h244l-54 -177h-246l-110 -319h254l-53 -178h-255l-130 -392h-171zM497 560h315l113 339h-315z" glyph-name="numbersign" horiz-adv-x="1257" unicode="#"/><glyph d="M768 603l-92 -433q130 3 206 65t76 158q0 71 -45.5 119t-144.5 91zM689 869l85 403q-115 -2 -188 -61t-73 -147q0 -66 43.5 -112t132.5 -83zM814 820l28 -11q171 -67 257.5 -160.5t86.5 -227.5q0 -202 -149.5 -323.5t-386.5 -121.5h-15l-25 -116h-136l28 132 q-166 37 -272 147.5t-113 262.5h218q12 -82 66.5 -137.5t141.5 -79.5l99 467l-53 20q-147 56 -226 152t-79 222q0 185 142.5 303t374.5 118h15l27 128h136l-31 -146q153 -38 246.5 -147t95.5 -250h-215q-11 75 -54.5 126.5t-114.5 74.5z" glyph-name="dollar" horiz-adv-x="1270" unicode="$"/><glyph d="M211 1014q0 196 102 322.5t258 126.5q127 0 200.5 -75.5t73.5 -206.5q0 -195 -103.5 -322.5t-258.5 -127.5q-127 0 -199.5 76t-72.5 207zM486 881q65 0 116 95t51 218q0 56 -22.5 87.5t-62.5 31.5q-65 0 -115.5 -94.5t-50.5 -218.5q0 -56 22 -87.5t62 -31.5zM350 0h-212 l720 764l641 679h210l-700 -744zM1004 265q0 196 102.5 322t257.5 126q128 0 201.5 -75.5t73.5 -206.5q0 -195 -103.5 -322t-258.5 -127q-127 0 -200 75.5t-73 207.5zM1279 131q65 0 116 95.5t51 218.5q0 56 -22 87t-62 31q-65 0 -115.5 -94.5t-50.5 -218.5q0 -56 22 -87.5 t61 -31.5z" glyph-name="percent" horiz-adv-x="1673" unicode="%"/><glyph d="M585 1104q0 -82 99 -214q141 44 209.5 115t68.5 151q0 67 -48 107t-124 40q-85 0 -145 -58.5t-60 -140.5zM576 153q184 0 312 86l-300 443q-48 -16 -54 -19q-124 -45 -189.5 -115.5t-65.5 -157.5q0 -104 81 -170.5t216 -66.5zM1041 0l-58 87q-178 -114 -421 -114 q-137 0 -251 52t-179.5 143.5t-65.5 203.5q0 285 368 428l66 27q-116 168 -116 290q0 149 118 252t292 103q158 0 262.5 -84t104.5 -212q0 -131 -96.5 -239.5t-292.5 -177.5l264 -377q113 135 129 335l3 45h196l-5 -51q-24 -288 -217 -492l145 -219h-246z" glyph-name="ampersand" horiz-adv-x="1399" unicode="&amp;"/><glyph d="M468 908h-193l112 535h193z" glyph-name="quotesingle" horiz-adv-x="484" unicode="'"/><glyph d="M503 -309h-194q-51 109 -83 295.5t-32 366.5q0 314 120.5 601t326.5 489h234q-221 -218 -342 -505.5t-120 -612.5q0 -374 90 -634z" glyph-name="parenleft" horiz-adv-x="687" unicode="("/><glyph d="M295 1443h193q51 -109 83 -295t32 -367q0 -315 -120.5 -601.5t-325.5 -488.5h-234q221 218 342 505.5t120 612.5q0 374 -90 634z" glyph-name="parenright" horiz-adv-x="687" unicode=")"/><glyph d="M924 833l-216 183l-34 -288l-148 16l65 282l-268 -130l-52 143l278 98l-229 150l88 123l217 -186l36 294l149 -16l-65 -279l263 130l53 -145l-286 -100l237 -153z" glyph-name="asterisk" horiz-adv-x="986" unicode="*"/><glyph d="M763 470l-88 -417h-191l88 417h-422l41 207h423l92 433h191l-92 -433h427l-41 -207h-428z" glyph-name="plus" horiz-adv-x="1270" unicode="+"/><glyph d="M152 -301h-172l202 535h218z" glyph-name="comma" horiz-adv-x="539" unicode=","/><glyph d="M125 471l41 199h650l-41 -199h-650z" glyph-name="hyphen" horiz-adv-x="830" unicode="-"/><glyph d="M125 471l41 199h650l-41 -199h-650z" glyph-name="hyphen" horiz-adv-x="830" unicode="‑"/><glyph d="M230 -11q-55 0 -93 39.5t-38 97.5q0 57 38 96.5t93 39.5t93 -39.5t38 -96.5q0 -58 -38 -97.5t-93 -39.5z" glyph-name="period" horiz-adv-x="539" unicode="."/><glyph d="M64 -309h-195l865 1752h195z" glyph-name="slash" horiz-adv-x="687" unicode="/"/><glyph d="M660 -24q-224 0 -357 145t-133 390q0 276 84.5 494.5t235.5 340t342 121.5q224 0 357 -146t133 -391q0 -277 -84 -494.5t-235 -338.5t-343 -121zM399 516q0 -159 72.5 -251t197.5 -92q117 0 214 100t152.5 273t55.5 381q0 158 -72 250t-195 92q-117 0 -214.5 -100.5 t-154 -273.5t-56.5 -379z" glyph-name="zero" horiz-adv-x="1315" unicode="0"/><glyph d="M412 0l256 1193h-5l-431 -264l50 246l438 268h223l-307 -1443h-224z" glyph-name="one" horiz-adv-x="941" unicode="1"/><glyph d="M262 1029q19 195 163 316.5t356 121.5q194 0 321.5 -107t127.5 -270q0 -92 -35 -167.5t-118 -162.5t-248 -224l-410 -331l-1 -5h682l-40 -200h-998l35 179l596 487q188 156 250.5 236t62.5 164q0 91 -66.5 148t-171.5 57q-114 0 -192 -64.5t-99 -177.5h-215z" glyph-name="two" horiz-adv-x="1214" unicode="2"/><glyph d="M500 647l37 188h180q143 0 229.5 63.5t86.5 167.5q0 93 -69.5 150t-182.5 57q-110 0 -189 -56t-95 -147h-211q25 180 165.5 288t348.5 108q200 0 327.5 -104.5t127.5 -267.5q0 -136 -93.5 -236.5t-236.5 -120.5l-1 -5q116 -28 180 -108.5t64 -198.5q0 -195 -155 -322 t-391 -127q-235 0 -377.5 117.5t-137.5 308.5q0 4 2 20h212q2 -114 87 -182t226 -68q137 0 222.5 69.5t85.5 180.5q0 107 -70 166t-197 59h-175z" glyph-name="three" horiz-adv-x="1246" unicode="3"/><glyph d="M734 0l60 279h-717l35 218q83 110 224 277.5t251 293t331 375.5h339l-206 -964h199l-40 -200h-199l-61 -279h-216zM331 479l-1 -5h506l169 781h-4q-416 -459 -670 -776z" glyph-name="four" horiz-adv-x="1267" unicode="4"/><glyph d="M655 -24q-223 0 -367.5 122.5t-146.5 313.5v2l1 9h213q10 -110 95.5 -178.5t213.5 -68.5q139 0 227.5 89.5t88.5 229.5q0 124 -80 200.5t-206 76.5q-75 0 -147 -32.5t-119 -89.5h-222l244 793h844l-41 -199h-659l-130 -405h5q50 54 127 84t166 30q191 0 314.5 -124 t123.5 -321q0 -230 -154 -381t-391 -151z" glyph-name="five" horiz-adv-x="1224" unicode="5"/><glyph d="M1241 510q-8 -234 -163 -384t-393 -150q-51 0 -100 8.5t-100.5 29t-96 52.5t-84 81.5t-66.5 112.5t-41 149.5t-11 188.5q6 239 93.5 436.5t243 315t349.5 117.5q197 0 327.5 -114.5t142.5 -298.5h-224q-16 99 -86.5 156.5t-176.5 57.5q-153 0 -271 -138.5t-162 -367.5h6 q69 89 165.5 137.5t212.5 48.5q195 0 317.5 -123t117.5 -315zM740 763q-134 0 -230.5 -88t-100.5 -215q-4 -122 78.5 -204.5t209.5 -82.5q138 0 227 86t92 221q5 124 -73.5 203.5t-202.5 79.5z" glyph-name="six" horiz-adv-x="1269" unicode="6"/><glyph d="M80 0l903 1237l1 7h-719l41 199h958l-42 -203l-893 -1240h-249z" glyph-name="seven" horiz-adv-x="1106" unicode="7"/><glyph d="M1206 417q0 -191 -162.5 -317t-408.5 -126q-232 0 -381 110t-149 282q0 153 111.5 269.5t284.5 145.5l1 4q-89 37 -139.5 110t-50.5 164q0 113 67.5 206.5t185.5 147t261 53.5q204 0 337 -101t133 -256q0 -133 -90.5 -234.5t-236.5 -132.5l-1 -5q111 -38 174.5 -123.5 t63.5 -196.5zM678 658q-145 0 -241.5 -76.5t-96.5 -190.5q0 -101 85.5 -164t221.5 -63q142 0 237 76.5t95 191.5q0 100 -84 163t-217 63zM530 1039q0 -87 70.5 -143t180.5 -56q122 0 205 69.5t83 171.5q0 88 -71 143.5t-184 55.5q-121 0 -202.5 -69t-81.5 -172z" glyph-name="eight" horiz-adv-x="1276" unicode="8"/><glyph d="M748 679q134 0 228.5 85.5t98.5 211.5q4 125 -76 208.5t-210 83.5q-134 0 -223 -88t-93 -224q-4 -122 73.5 -199.5t201.5 -77.5zM250 937q7 233 163 381.5t392 148.5q68 0 134 -16.5t134.5 -59t118.5 -107t80.5 -170t26.5 -239.5q-7 -251 -93.5 -455t-240.5 -324 t-348 -120q-198 0 -330.5 114t-144.5 294h224q15 -96 86 -152t178 -56q155 0 274 137.5t161 365.5l-5 1q-139 -186 -372 -186q-192 0 -317 126.5t-121 316.5z" glyph-name="nine" horiz-adv-x="1268" unicode="9"/><glyph d="M230 -11q-55 0 -93 39.5t-38 97.5q0 57 38 96.5t93 39.5t93 -39.5t38 -96.5q0 -58 -38 -97.5t-93 -39.5zM386 719q-55 0 -93 40t-38 97t38 96.5t93 39.5t93 -39.5t38 -96.5t-38 -97t-93 -40z" glyph-name="colon" horiz-adv-x="539" unicode=":"/><glyph d="M386 719q-55 0 -93 40t-38 97t38 96.5t93 39.5t93 -39.5t38 -96.5t-38 -97t-93 -40zM152 -301h-172l202 535h218z" glyph-name="semicolon" horiz-adv-x="539" unicode=";"/><glyph d="M1069 222l-45 -229l-802 504l36 183l1017 501l-50 -241l-749 -357l-2 -12z" glyph-name="less" horiz-adv-x="1270" unicode="&lt;"/><glyph d="M1126 262h-998l41 200h998zM1214 685h-998l41 201h997z" glyph-name="equal" horiz-adv-x="1270" unicode="="/><glyph d="M321 951l44 229l802 -505l-36 -182l-1016 -501l49 241l749 357l3 11z" glyph-name="greater" horiz-adv-x="1270" unicode="&gt;"/><glyph d="M200 1073q31 174 156 278.5t321 104.5q193 0 313 -98t120 -245q0 -127 -78.5 -232.5t-209.5 -164.5q-109 -49 -155 -95t-60 -121l-11 -52h-212l16 74q25 126 83.5 193t178.5 121q115 53 166.5 114t51.5 142q0 72 -57.5 121.5t-158.5 49.5q-93 0 -160.5 -50.5 t-93.5 -139.5h-210zM422 -17q-55 0 -93.5 39t-38.5 95q0 57 38 96t94 39q55 0 93.5 -39t38.5 -96q0 -56 -38.5 -95t-93.5 -39z" glyph-name="question" horiz-adv-x="1000" unicode="?"/><glyph d="M1049 1440q223 0 397 -83.5t271 -234.5t97 -344q0 -266 -131 -436.5t-336 -170.5q-88 0 -148.5 39.5t-67.5 102.5v8l-17 -1q-38 -66 -105 -103t-148 -37q-137 0 -222.5 97t-85.5 253q0 208 116.5 348t289.5 140q88 0 156.5 -46t84.5 -116l17 -1l25 125h175l-116 -534 q-5 -21 -5 -42q0 -38 24 -60t65 -22q115 0 195.5 131t80.5 318q0 238 -172 382.5t-454 144.5q-208 0 -379 -99.5t-269 -273.5t-98 -386q0 -284 188 -460.5t491 -175.5q61 0 123 7t86 16l-29 -145q-92 -21 -206 -21q-176 0 -326.5 57.5t-256.5 159.5t-166 246.5t-60 313.5 q0 259 117.5 465t326.5 322t472 116zM1160 654q0 91 -49 145.5t-130 54.5q-104 0 -173 -89.5t-69 -222.5q0 -94 46 -148.5t125 -54.5q104 0 177 92.5t73 222.5z" glyph-name="at" horiz-adv-x="1804" unicode="@"/><glyph d="M859 1192l-346 -621h436l-85 621h-5zM1021 0l-50 383h-554l-217 -383h-243l828 1443h245l210 -1443h-219z" glyph-name="A" horiz-adv-x="1328" unicode="A"/><glyph d="M703 0h-634l307 1443h539q181 0 291.5 -87t110.5 -228q0 -136 -88.5 -237.5t-229.5 -137.5l-1 -5q117 -20 184 -99.5t67 -190.5q0 -201 -151.5 -329.5t-394.5 -128.5zM563 1259l-91 -422h276q151 0 245.5 68t94.5 176q0 87 -65.5 132.5t-190.5 45.5h-269zM333 191h346 q150 0 244 74t94 189q0 99 -69.5 150.5t-205.5 51.5h-308z" glyph-name="B" horiz-adv-x="1316" unicode="B"/><glyph d="M1267 950q0 2 -0.5 11.5t-0.5 16.5q-13 128 -109.5 204.5t-239.5 76.5q-151 0 -269.5 -83.5t-183.5 -231.5t-65 -335q0 -197 101 -310.5t277 -113.5q137 0 242.5 71t153.5 196h223q-55 -216 -226 -345.5t-400 -129.5q-276 0 -439 168.5t-163 452.5q0 248 96 446t270 310 t393 112q241 0 396.5 -131.5t166.5 -348.5q1 -23 0 -36h-223z" glyph-name="C" horiz-adv-x="1427" unicode="C"/><glyph d="M376 1443h452q282 0 443.5 -153.5t161.5 -425.5q0 -252 -97 -448.5t-273.5 -306t-403.5 -109.5h-589zM563 1241l-225 -1039h299q163 0 291.5 79.5t201 224t72.5 328.5q0 199 -106.5 303t-310.5 104h-222z" glyph-name="D" horiz-adv-x="1427" unicode="D"/><glyph d="M1027 204l-40 -204h-918l307 1443h918l-42 -204h-690l-90 -408h653l-40 -194h-652l-95 -433h689z" glyph-name="E" horiz-adv-x="1147" unicode="E"/><glyph d="M299 0h-230l307 1443h902l-42 -204h-671l-97 -443h614l-40 -198h-614z" glyph-name="F" horiz-adv-x="1099" unicode="F"/><glyph d="M1477 749l-43 -205q-55 -270 -230.5 -418.5t-431.5 -148.5q-280 0 -442 171.5t-162 453.5q0 128 29 250.5t91 234t149.5 195.5t213 134t273.5 50q253 0 409 -137.5t161 -349.5v-18h-222q-10 137 -103.5 218t-246.5 81q-107 0 -195.5 -38t-148.5 -101.5t-101.5 -148 t-60.5 -175.5t-19 -186q0 -196 100.5 -312.5t283.5 -116.5q160 0 276.5 92.5t148.5 244.5l9 42h-370l39 188h593z" glyph-name="G" horiz-adv-x="1469" unicode="G"/><glyph d="M1261 0h-229l136 634h-734l-136 -634h-229l307 1443h229l-130 -606h734l130 606h229z" glyph-name="H" horiz-adv-x="1460" unicode="H"/><glyph d="M296 0h-227l307 1443h227z" glyph-name="I" horiz-adv-x="496" unicode="I"/><glyph d="M60 355q0 25 1 34h222v-6q0 -89 55.5 -140.5t150.5 -51.5q192 0 244 242l215 1010h227l-224 -1052q-42 -200 -163.5 -307.5t-313.5 -107.5q-181 0 -297.5 107t-116.5 272z" glyph-name="J" horiz-adv-x="1068" unicode="J"/><glyph d="M296 0h-227l307 1443h227l-145 -674h5l737 674h282l-702 -654l436 -789h-256l-360 646l-204 -182z" glyph-name="K" horiz-adv-x="1295" unicode="K"/><glyph d="M1012 206l-41 -206h-902l307 1443h227l-265 -1237h674z" glyph-name="L" horiz-adv-x="1092" unicode="L"/><glyph d="M276 0h-207l307 1443h252l221 -1141h5l706 1141h279l-307 -1443h-207l231 1072h-7l-664 -1064h-169l-205 1064h-6z" glyph-name="M" horiz-adv-x="1732" unicode="M"/><glyph d="M293 0h-224l307 1443h208l508 -1082h5l234 1082h224l-307 -1443h-209l-507 1082h-5z" glyph-name="N" horiz-adv-x="1448" unicode="N"/><glyph d="M926 1260q-152 0 -274 -87t-188.5 -234.5t-66.5 -325.5q0 -197 104.5 -313.5t279.5 -116.5q152 0 273.5 87t188.5 235t67 326q0 196 -104.5 312.5t-279.5 116.5zM778 -23q-277 0 -443.5 172t-166.5 453q0 240 98 438t272 312t389 114q278 0 445 -172t167 -453 q0 -240 -98.5 -438t-273 -312t-389.5 -114z" glyph-name="O" horiz-adv-x="1530" unicode="O"/><glyph d="M376 1443h514q190 0 312.5 -111t122.5 -293q0 -169 -78 -295.5t-213.5 -192t-308.5 -65.5h-323l-105 -486h-228zM563 1245l-122 -562h275q174 0 276.5 89t102.5 246q0 108 -72 167.5t-198 59.5h-262z" glyph-name="P" horiz-adv-x="1248" unicode="P"/><glyph d="M1289 -153h-214l-83 162q-101 -32 -214 -32q-277 0 -443.5 172t-166.5 453q0 240 98 438t272 312t389 114q278 0 445 -172t167 -453q0 -236 -100 -433t-273 -312zM781 183q59 0 126 16l-122 243h207l78 -140q112 83 176 223t64 306q0 196 -104.5 312.5t-279.5 116.5 q-152 0 -274 -87t-188.5 -234.5t-66.5 -325.5q0 -197 104.5 -313.5t279.5 -116.5z" glyph-name="Q" horiz-adv-x="1530" unicode="Q"/><glyph d="M453 741h319q149 0 243 80.5t94 206.5q0 101 -62.5 159.5t-171.5 58.5h-312zM376 1443h531q205 0 319.5 -107t114.5 -286q0 -168 -102 -298t-278 -173l195 -579h-236l-180 550h-325l-118 -550h-228z" glyph-name="R" horiz-adv-x="1292" unicode="R"/><glyph d="M93 424h221q14 -111 109 -179.5t244 -68.5q134 0 219.5 57.5t85.5 157.5q0 83 -54.5 132.5t-184.5 89.5l-106 34q-182 56 -270 150t-88 238q0 193 144.5 312t373.5 119q234 0 379 -115t145 -312h-217q-5 103 -87 165.5t-220 62.5q-136 0 -212 -61t-76 -147 q0 -73 56 -122.5t179 -87.5l107 -34q185 -57 274.5 -149t89.5 -232q0 -93 -36 -175t-103 -145t-171 -100t-231 -37q-243 0 -403.5 120.5t-167.5 326.5z" glyph-name="S" horiz-adv-x="1255" unicode="S"/><glyph d="M663 0h-228l266 1239h-452l41 204h1131l-41 -204h-452z" glyph-name="T" horiz-adv-x="1228" unicode="T"/><glyph d="M701 -23q-245 0 -383.5 128t-139.5 329q-1 59 13 128l185 881h227l-183 -870q-15 -63 -13 -120q5 -124 87 -194.5t236 -70.5q150 0 255 86t139 239l199 930h227l-208 -980q-50 -232 -214 -359t-427 -127z" glyph-name="U" horiz-adv-x="1443" unicode="U"/><glyph d="M719 0h-245l-209 1443h228l152 -1160h5l637 1160h252z" glyph-name="V" horiz-adv-x="1321" unicode="V"/><glyph d="M1118 1069l-534 -1069h-218l-83 1443h217l43 -1103h5l542 1103h199l84 -1101h5l505 1101h234l-687 -1443h-217l-90 1069h-5z" glyph-name="W" horiz-adv-x="1917" unicode="W"/><glyph d="M-28 0l644 732l-327 711h250l245 -541h8l469 541h278l-644 -732l327 -711h-250l-246 543h-8l-470 -543h-276z" glyph-name="X" horiz-adv-x="1335" unicode="X"/><glyph d="M694 0h-228l125 588l-326 855h235l242 -640h4l507 640h253l-692 -874z" glyph-name="Y" horiz-adv-x="1288" unicode="Y"/><glyph d="M28 0l32 161l1001 1073l1 5h-745l42 204h1036l-32 -161l-999 -1073l-1 -5h785l-40 -204h-1080z" glyph-name="Z" horiz-adv-x="1266" unicode="Z"/><glyph d="M432 1443h478l-35 -174h-269l-304 -1405h269l-35 -173h-478z" glyph-name="bracketleft" horiz-adv-x="687" unicode="["/><glyph d="M331 -309l-52 1752h188l52 -1752h-188z" glyph-name="backslash" horiz-adv-x="687" unicode="\"/><glyph d="M365 -309h-478l35 174h270l304 1405h-270l35 173h478z" glyph-name="bracketright" horiz-adv-x="687" unicode="]"/><glyph d="M629 1244l-300 -430h-200l437 619h215l171 -619h-196l-110 430h-17z" glyph-name="asciicircum" horiz-adv-x="933" unicode="^"/><glyph d="M-142 -293l38 193h1059l-39 -193h-1058z" glyph-name="underscore" horiz-adv-x="1024" unicode="_"/><glyph d="M946 1224h-171l-185 305h207z" glyph-name="grave" horiz-adv-x="1086" unicode="`"/><glyph d="M461 159q104 0 184 59t101 151l24 106l-263 -13q-108 -5 -168.5 -47t-60.5 -113q0 -65 50.5 -104t132.5 -39zM390 -18q-137 0 -231 82.5t-94 209.5q0 156 115.5 245.5t323.5 98.5l298 14l14 64q4 17 4 46q0 70 -50.5 109.5t-143.5 39.5q-95 0 -153.5 -39.5t-73.5 -108.5 h-214q25 149 149 241t309 92q175 0 282.5 -85.5t107.5 -221.5q0 -48 -7 -88l-144 -681h-207l27 128h-3q-52 -68 -132.5 -107t-176.5 -39z" glyph-name="a" horiz-adv-x="1048" unicode="a"/><glyph d="M639 -18q-122 0 -217 64.5t-121 164.5h-6l-44 -211h-205l307 1443h213l-117 -549h4q45 80 132.5 129.5t187.5 49.5q177 0 281 -119t104 -328q0 -101 -23 -196t-68 -176t-107 -142t-144.5 -95.5t-176.5 -34.5zM618 174q143 0 233.5 125t90.5 308q0 129 -62.5 203.5 t-175.5 74.5q-147 0 -242.5 -129.5t-95.5 -314.5q0 -118 69.5 -192.5t182.5 -74.5z" glyph-name="b" horiz-adv-x="1172" unicode="b"/><glyph d="M658 1076q199 0 314 -108.5t115 -265.5q0 -13 -1 -18h-206q-3 86 -64 143t-164 57q-144 0 -235.5 -122t-91.5 -314q0 -128 63 -202.5t169 -74.5q94 0 162 50t98 136h209q-36 -164 -168 -270.5t-306 -106.5q-211 0 -327.5 126t-116.5 333q0 277 153.5 457t396.5 180z" glyph-name="c" horiz-adv-x="1061" unicode="c"/><glyph d="M491 -18q-176 0 -280 120t-104 322q0 183 69 332t190 233t268 84q122 0 213.5 -63t116.5 -160h5l129 593h214l-307 -1443h-213l35 163h-5q-50 -81 -139.5 -131t-191.5 -50zM559 171q146 0 243.5 127.5t97.5 316.5q0 118 -67.5 192t-179.5 74q-140 0 -234.5 -123 t-94.5 -312q0 -128 62.5 -201.5t172.5 -73.5z" glyph-name="d" horiz-adv-x="1182" unicode="d"/><glyph d="M343 633h524q1 8 1 29q0 99 -58 165.5t-172 66.5q-109 0 -187 -72.5t-108 -188.5zM553 -22q-212 0 -328.5 128.5t-116.5 341.5q0 174 67.5 317t190.5 227t277 84q200 0 317.5 -121t117.5 -327q0 -86 -11 -152h-749q-1 -12 -1 -35q0 -128 65.5 -203.5t175.5 -75.5 q96 0 165 45t101 123h207q-42 -154 -173 -253t-305 -99z" glyph-name="e" horiz-adv-x="1093" unicode="e"/><glyph d="M112 0l183 872h-172l37 179h169l21 109q30 155 122 227t259 72q63 0 142 -15l-33 -169q-40 10 -94 10q-156 0 -185 -144l-17 -90h235l-36 -179h-233l-183 -872h-215z" glyph-name="f" horiz-adv-x="653" unicode="f"/><glyph d="M471 -398q-194 0 -319 88.5t-125 230.5h216q10 -66 72.5 -105.5t159.5 -39.5q254 0 318 259l33 145h-6q-48 -79 -137 -126.5t-189 -47.5q-174 0 -280 118t-106 314q0 123 36 236.5t101.5 202.5t166.5 142.5t221 53.5q121 0 210 -64.5t117 -166.5h8l43 213h210l-214 -1023 q-45 -210 -186 -320t-350 -110zM561 185q151 0 244.5 125.5t93.5 304.5q0 117 -70.5 191.5t-175.5 74.5q-147 0 -238.5 -122.5t-91.5 -305.5q0 -122 62 -195t176 -73z" glyph-name="g" horiz-adv-x="1170" unicode="g"/><glyph d="M46 0l307 1443h214l-118 -551h5q49 81 137.5 131.5t202.5 50.5q148 0 241 -90t93 -220q0 -55 -14 -125l-139 -639h-214l131 602q12 53 12 94q0 85 -57 137t-155 52q-111 0 -192 -70.5t-106 -184.5l-133 -630h-215z" glyph-name="h" horiz-adv-x="1145" unicode="h"/><glyph d="M48 0l223 1055h216l-223 -1055h-216zM438 1204q-53 0 -89.5 37.5t-36.5 91.5t36.5 91.5t89.5 37.5t89.5 -37.5t36.5 -91.5t-36.5 -91.5t-89.5 -37.5z" glyph-name="i" horiz-adv-x="442" unicode="i"/><glyph d="M445 1204q-53 0 -89.5 37.5t-36.5 91.5t36.5 91.5t89.5 37.5q52 0 88.5 -37.5t36.5 -91.5t-36.5 -91.5t-88.5 -37.5zM488 1055l-241 -1129q-63 -293 -362 -295q-43 0 -96 7l39 181q40 -4 53 -4q68 0 103.5 32t52.5 106l235 1102h216z" glyph-name="j" horiz-adv-x="442" unicode="j"/><glyph d="M262 0h-216l307 1443h216l-176 -815h5l504 427h264l-514 -442l313 -613h-237l-249 485l-136 -108z" glyph-name="k" horiz-adv-x="1012" unicode="k"/><glyph d="M52 0l307 1443h216l-307 -1443h-216z" glyph-name="l" horiz-adv-x="452" unicode="l"/><glyph d="M41 0l224 1055h205l-36 -169h5q42 82 125.5 136t181.5 54q106 0 180 -55t94 -134h4q57 83 145.5 136t204.5 53q128 0 212 -81.5t84 -208.5q0 -59 -13 -123l-140 -663h-215l133 627q11 47 11 92q0 71 -45.5 118.5t-124.5 47.5q-87 0 -158.5 -63t-94.5 -168l-139 -654h-211 l133 627q12 58 12 92q0 71 -46 118.5t-125 47.5q-86 0 -158.5 -65t-93.5 -165l-139 -655h-215z" glyph-name="m" horiz-adv-x="1683" unicode="m"/><glyph d="M41 0l224 1055h205l-35 -163h5q54 87 142 135.5t199 48.5q143 0 237 -87t94 -221q0 -57 -14 -129l-135 -639h-215l128 602q12 57 12 98q0 85 -57 135t-151 50q-106 0 -185.5 -69.5t-104.5 -185.5l-134 -630h-215z" glyph-name="n" horiz-adv-x="1129" unicode="n"/><glyph d="M565 169q145 0 240 124t95 309q0 129 -65 207t-175 78q-145 0 -240 -124t-95 -310q0 -129 65 -206.5t175 -77.5zM664 1076q206 0 329.5 -128t123.5 -340q0 -132 -42.5 -248t-116 -199.5t-176.5 -132t-220 -48.5q-206 0 -330 128t-124 339q0 176 72 320t199.5 226.5 t284.5 82.5z" glyph-name="o" horiz-adv-x="1133" unicode="o"/><glyph d="M611 174q140 0 234.5 123t94.5 308q0 131 -62.5 205.5t-172.5 74.5q-101 0 -180 -62t-120 -163t-41 -219q0 -119 67.5 -193t179.5 -74zM179 -349h-212l298 1404h209l-35 -164h4q51 83 140.5 132.5t190.5 49.5q176 0 278 -119.5t102 -322.5q0 -184 -68 -332.5 t-187.5 -232.5t-266.5 -84q-119 0 -209 61.5t-121 161.5h-5z" glyph-name="p" horiz-adv-x="1169" unicode="p"/><glyph d="M558 171q146 0 244 127.5t98 316.5q0 118 -67 192t-179 74q-142 0 -236 -124t-94 -311q0 -128 62 -201.5t172 -73.5zM925 -349h-212l115 518h-4q-52 -85 -141.5 -136t-191.5 -51q-177 0 -280.5 119t-103.5 323q0 181 69 330t190 234t268 85q122 0 213.5 -63t119.5 -160h6 l43 205h208z" glyph-name="q" horiz-adv-x="1172" unicode="q"/><glyph d="M41 0l224 1055h205l-29 -143h4q104 159 288 159q75 0 125 -25l-43 -208q-56 26 -137 26q-124 0 -195.5 -67.5t-101.5 -202.5l-126 -594h-214z" glyph-name="r" horiz-adv-x="733" unicode="r"/><glyph d="M181 751q0 143 113 233.5t295 90.5q177 0 289 -92t114 -238h-200q-6 70 -63.5 115t-142.5 45q-90 0 -143.5 -37.5t-53.5 -96.5q0 -49 36.5 -79.5t130.5 -59.5l97 -31q143 -47 205.5 -113t62.5 -170q0 -148 -119.5 -243t-305.5 -95q-193 0 -312.5 94t-124.5 243h210 q11 -75 73 -120.5t163 -45.5q87 0 144.5 42.5t57.5 105.5q0 45 -33.5 71.5t-127.5 55.5l-91 29q-144 46 -209 116.5t-65 179.5z" glyph-name="s" horiz-adv-x="986" unicode="s"/><glyph d="M442 -10q-127 0 -203 56.5t-76 164.5q0 52 10 97l122 560h-156l36 179h157l53 260h215l-55 -260h221l-35 -179h-222l-111 -510q-11 -49 -11 -82q0 -104 134 -104q46 0 72 5l-36 -176q-62 -11 -115 -11z" glyph-name="t" horiz-adv-x="663" unicode="t"/><glyph d="M1179 1055l-223 -1055h-205l33 154h-4q-42 -72 -136 -123t-208 -51q-148 0 -236 84t-88 214q0 74 15 146l132 631h215l-127 -597q-12 -57 -12 -103q0 -181 197 -181q113 0 194 70.5t106 185.5l133 625h214z" glyph-name="u" horiz-adv-x="1128" unicode="u"/><glyph d="M172 1056h213l98 -824h4l435 824h233l-593 -1056h-238z" glyph-name="v" horiz-adv-x="1011" unicode="v"/><glyph d="M1642 1055l-507 -1055h-225l-51 785h-5l-376 -785h-231l-65 1055h200l31 -817h4l383 817h210l44 -817h5l367 817h216z" glyph-name="w" horiz-adv-x="1507" unicode="w"/><glyph d="M523 373h-5l-306 -373h-246l458 539l-236 516h226l163 -373h4l307 373h245l-457 -538l235 -517h-226z" glyph-name="x" horiz-adv-x="1007" unicode="x"/><glyph d="M97 -385q-81 0 -124 13l33 183q31 -12 96 -12q129 0 202 153q0 1 14 29l13 28l-159 1046h214l102 -838h4l435 838h233l-635 -1137q-92 -170 -190.5 -236.5t-237.5 -66.5z" glyph-name="y" horiz-adv-x="1017" unicode="y"/><glyph d="M15 0l30 145l716 723l2 5h-557l38 182h826l-33 -155l-703 -713l-1 -5h556l-38 -182h-836z" glyph-name="z" horiz-adv-x="996" unicode="z"/><glyph d="M224 243q11 52 11 87q0 68 -43.5 95t-140.5 27l46 228q119 0 178.5 46.5t84.5 164.5l47 209q39 184 144.5 263.5t292.5 79.5h66l-35 -175h-44q-101 0 -152.5 -49.5t-76.5 -167.5l-52 -239q-46 -216 -285 -238l-3 -17q101 -19 144.5 -63t43.5 -117q0 -32 -12 -87l-46 -209 q-11 -57 -11 -88q0 -63 34 -97.5t113 -34.5h44l-34 -171h-66q-59 0 -111.5 14.5t-96 44t-69 81t-25.5 119.5q0 46 12 108z" glyph-name="braceleft" horiz-adv-x="687" unicode="{"/><glyph d="M308 -309h-192l373 1752h192z" glyph-name="bar" horiz-adv-x="687" unicode="|"/><glyph d="M574 890q-11 -52 -11 -87q0 -68 43.5 -95t140.5 -27l-46 -228q-119 0 -178.5 -46.5t-84.5 -164.5l-47 -209q-39 -184 -145 -263.5t-292 -79.5h-67l36 175h44q101 0 152.5 49.5t76.5 167.5l52 239q46 216 285 238l3 17q-101 19 -144.5 63t-43.5 117q0 32 12 87l45 209 q12 53 12 89q0 131 -147 131h-45l35 171h66q59 0 111.5 -14.5t96 -44t69 -81t25.5 -119.5q0 -50 -13 -108z" glyph-name="braceright" horiz-adv-x="687" unicode="}"/><glyph d="M888 425q-57 0 -105 22t-81 54t-61.5 64t-59 54t-61.5 22q-53 0 -86 -39.5t-49 -123.5h-191q23 175 113 271t214 96q56 0 104 -22.5t80 -54.5t60.5 -63.5t59 -54t60.5 -22.5q105 0 136 164h192q-23 -175 -111.5 -271t-213.5 -96z" glyph-name="asciitilde" horiz-adv-x="1271" unicode="~"/><glyph glyph-name="nonbreakingspace" horiz-adv-x="478"/><glyph d="M276 -340h-240l226 965h199zM438 1120q55 0 93.5 -39t38.5 -95q0 -57 -38 -96t-94 -39q-55 0 -93 39t-38 96q0 56 38 95t93 39z" glyph-name="exclamdown" horiz-adv-x="587" unicode="¡"/><glyph d="M1170 513q-29 -147 -148.5 -245t-292.5 -111l-38 -180h-197l42 200q-142 42 -223.5 159t-81.5 283q0 182 68.5 330.5t192.5 238t281 101.5l32 156h197l-37 -176q113 -37 187 -119t89 -187q2 -13 4 -45h-212q-7 80 -73 130.5t-162 50.5q-150 0 -248.5 -131t-98.5 -326 q0 -138 67.5 -215.5t180.5 -77.5q93 0 160.5 43t95.5 121h215z" glyph-name="cent" horiz-adv-x="1270" unicode="¢"/><glyph d="M1169 202l-40 -200h-1084l39 198q152 15 264 125t115 257q0 6 -4 64h-311l35 175h261q-10 110 -10 164q0 235 152 360.5t417 125.5q103 0 204 -21t161 -50l-40 -195q-48 26 -137 45.5t-179 19.5q-157 0 -253.5 -72.5t-96.5 -206.5q0 -52 10 -170h413l-35 -175h-369 q2 -23 2 -48q-2 -143 -58.5 -242.5t-146.5 -149.5l-1 -4h692z" glyph-name="sterling" horiz-adv-x="1270" unicode="£"/><glyph d="M457 653q0 -103 74.5 -177t178.5 -74t179 74t75 177q0 102 -75 176t-179 74t-178.5 -74t-74.5 -176zM1302 1032l-225 -188q46 -90 46 -191q0 -143 -87 -257l104 -132l-151 -129l-106 137q-81 -39 -173 -39q-146 0 -259 94l-231 -192l-103 138l226 190q-45 88 -45 190 q0 144 87 256l-105 133l150 129l107 -138q83 39 173 39q145 0 259 -93l230 191z" glyph-name="currency" horiz-adv-x="1270" unicode="¤"/><glyph d="M1008 242h-271l-51 -242h-229l53 242h-275l31 150h276l32 152h-275l31 150h214l-287 749h233l245 -637h8l503 637h252l-594 -749h199l-31 -150h-272l-33 -152h272z" glyph-name="yen" horiz-adv-x="1270" unicode="¥"/><glyph d="M539 774h-192l142 669h192zM309 -309h-192l141 669h192z" glyph-name="brokenbar" horiz-adv-x="687" unicode="¦"/><glyph d="M476 430l97 -43q88 17 141 67t53 118q0 100 -118 146l-93 40q-91 -11 -151.5 -61.5t-60.5 -121.5q0 -93 132 -145zM431 -271q-171 0 -288 90t-124 233h204q15 -66 72 -107.5t142 -41.5q92 0 150.5 42.5t58.5 107.5q0 46 -26 78.5t-91 57.5l-153 64q-236 96 -236 292 q0 114 76.5 191t189.5 104v8q-81 50 -114 104t-33 133q0 146 112.5 237t287.5 91q168 0 274.5 -86t123.5 -229h-199q-11 64 -65.5 102.5t-135.5 38.5q-84 0 -138 -40.5t-54 -103.5q0 -85 129 -135l136 -60q124 -51 183.5 -118.5t59.5 -168.5q0 -114 -74 -194.5t-186 -110.5 l-1 -8q79 -51 111 -105t32 -132q0 -146 -119.5 -240t-304.5 -94z" glyph-name="section" horiz-adv-x="986" unicode="§"/><glyph d="M575 1225q-49 0 -83 34t-34 83t34 83t83 34t83 -34t34 -83t-34 -83t-83 -34zM955 1225q-49 0 -83 34t-34 83t34 83t83 34t83 -34t34 -83t-34 -83t-83 -34z" glyph-name="dieresis" horiz-adv-x="1086" unicode="¨"/><glyph d="M889 -153q-227 0 -405.5 96t-277.5 268t-99 391q0 172 62 325.5t168.5 263t255 173.5t316.5 64q228 0 406.5 -95.5t277.5 -267.5t99 -392q0 -173 -62 -326t-168.5 -263t-255.5 -173.5t-317 -63.5zM889 -4q137 0 258 52.5t207.5 142t137 215t50.5 266.5q0 271 -174.5 439 t-458.5 168q-136 0 -257 -52.5t-208 -142t-137.5 -215.5t-50.5 -267q0 -269 175.5 -437.5t457.5 -168.5zM1269 777h-152q-4 61 -54 100.5t-122 39.5q-109 0 -181 -94.5t-72 -236.5q0 -98 52.5 -157t140.5 -59q130 0 177 113h155q-28 -116 -119.5 -183t-222.5 -67 q-150 0 -244.5 95.5t-94.5 247.5q0 206 118.5 341.5t299.5 135.5q138 0 226.5 -76.5t92.5 -199.5z" glyph-name="copyright" horiz-adv-x="1660" unicode="©"/><glyph d="M512 1029q-72 0 -110 -28t-38 -72t40 -66.5t92 -22.5q65 0 114 36t62 94l13 59h-173zM189 906q0 105 77 170.5t224 65.5h218q1 2 5 23t4 22q5 22 5 31q0 44 -37 70.5t-98 26.5q-47 0 -83 -20.5t-52 -56.5h-164q24 102 107 159.5t201 57.5q135 0 217 -61.5t82 -161.5 q0 -26 -6 -54l-98 -465h-168l20 96l-5 1q-35 -47 -92.5 -74t-122.5 -27q-57 0 -108 19t-88.5 65.5t-37.5 112.5z" glyph-name="ordfeminine" horiz-adv-x="782" unicode="ª"/><glyph d="M667 148h-216l-270 411l3 18l408 406h237l-425 -421v-11zM1121 151h-217l-265 393l3 18l424 421h237l-441 -436v-11z" glyph-name="guillemotleft" horiz-adv-x="1313" unicode="«"/><glyph d="M1204 680l-121 -583h-186l82 387h-797l39 196h983z" glyph-name="logicalnot" horiz-adv-x="1270" unicode="¬"/><glyph d="M621 845h-105l97 456h222q61 0 101.5 -37.5t40.5 -91.5q0 -56 -37.5 -99t-94.5 -54l84 -174h-128l-71 163h-74zM700 1213l-27 -124h100q40 0 65 20.5t25 52.5q0 23 -16.5 37t-45.5 14h-101zM752 579q-135 0 -247.5 64t-177.5 176t-65 246q0 205 142 345.5t348 140.5 q207 0 349 -140.5t142 -345.5q0 -134 -65 -246t-178 -176t-248 -64zM752 692q156 0 263 108t107 265q0 158 -106.5 265.5t-263.5 107.5q-155 0 -262.5 -108t-107.5 -265t107.5 -265t262.5 -108z" glyph-name="registered" horiz-adv-x="1183" unicode="®"/><glyph d="M1088 1412l-27 -131h-597l26 131h598z" glyph-name="macron" horiz-adv-x="1086" unicode="¯"/><glyph d="M553 856q-125 0 -210.5 87t-85.5 214q0 126 85.5 213.5t210.5 87.5q124 0 210.5 -87.5t86.5 -213.5q0 -127 -86 -214t-211 -87zM553 1005q64 0 108.5 45t44.5 107q0 63 -44.5 107.5t-108.5 44.5q-61 0 -107 -45t-46 -107q0 -61 46 -106.5t107 -45.5z" glyph-name="degree" horiz-adv-x="743" unicode="°"/><glyph d="M1071 94h-961l36 182h961zM803 657l-58 -267h-187l58 267h-387l35 174h387l59 266h187l-59 -266h388l-35 -174h-388z" glyph-name="plusminus" horiz-adv-x="1270" unicode="±"/><glyph d="M629 1348l-120 -89h281l-30 -148h-530l29 136l246 182q102 79 133.5 112.5t31.5 66.5q0 30 -23.5 49t-60.5 19q-38 0 -66.5 -23.5t-35.5 -62.5v-4h-170q7 103 89 170t201 67q108 0 178.5 -56t70.5 -141q0 -68 -46 -124.5t-178 -153.5z" glyph-name="two.sups" horiz-adv-x="636" unicode="²"/><glyph d="M470 1401l26 130h86q50 0 79 21.5t29 58.5q0 31 -25 49.5t-66 18.5q-35 0 -62.5 -18t-36.5 -48h-169q19 98 95.5 154t187.5 56t182 -53.5t71 -136.5q0 -65 -46.5 -113.5t-116.5 -58.5v-4q54 -13 85.5 -53t31.5 -95q0 -94 -80.5 -155t-205.5 -61t-201 57.5t-76 153.5 q0 12 3 30h173q-5 -38 24 -63.5t77 -25.5q46 0 75.5 24t29.5 62q0 31 -25.5 50.5t-66.5 19.5h-78z" glyph-name="three.sups" horiz-adv-x="659" unicode="³"/><glyph d="M705 1224h-187l278 305h224z" glyph-name="acute" horiz-adv-x="1086" unicode="´"/><glyph d="M-30 -349l298 1404h215l-120 -564q-18 -86 -18 -121q0 -188 191 -188q106 0 193.5 81.5t113.5 203.5l125 588h214l-161 -756q-7 -37 -7 -55q0 -36 21.5 -51t69.5 -15q25 0 50 5l-36 -174q-49 -13 -104 -13q-106 0 -156 46.5t-49 141.5v1l-1 1h-4q-47 -91 -137 -144.5 t-190 -53.5q-64 0 -117.5 30.5t-76.5 82.5h-5l-97 -450h-212z" glyph-name="mugreek" horiz-adv-x="1193" unicode="µ"/><glyph d="M-30 -349l298 1404h215l-120 -564q-18 -86 -18 -121q0 -188 191 -188q106 0 193.5 81.5t113.5 203.5l125 588h214l-161 -756q-7 -37 -7 -55q0 -36 21.5 -51t69.5 -15q25 0 50 5l-36 -174q-49 -13 -104 -13q-106 0 -156 46.5t-49 141.5v1l-1 1h-4q-47 -91 -137 -144.5 t-190 -53.5q-64 0 -117.5 30.5t-76.5 82.5h-5l-97 -450h-212z" glyph-name="mugreek" horiz-adv-x="1193" unicode="μ"/><glyph d="M714 -237h-216l164 762q-183 7 -296.5 117t-113.5 278q0 229 162.5 374t424.5 149h232zM869 -237l357 1680h216l-357 -1680h-216z" glyph-name="paragraph" horiz-adv-x="1317" unicode="¶"/><glyph d="M316 391q-55 0 -93 39.5t-38 97.5q0 57 38 96.5t93 39.5t93 -39.5t38 -96.5q0 -58 -38 -97.5t-93 -39.5z" glyph-name="periodcentered" horiz-adv-x="539" unicode="·"/><glyph d="M284 -226l19 85l89 151h144l-1 -10l-76 -125q85 0 132 -38t47 -108q0 -92 -72 -149.5t-188 -57.5q-99 0 -170 26l26 125q61 -22 133 -22q123 0 123 64q0 31 -34.5 45t-112.5 14h-59z" glyph-name="cedilla" horiz-adv-x="1090" unicode="¸"/><glyph d="M386 1111l111 520h-3l-196 -114l35 170l200 117h188l-148 -693h-187z" glyph-name="one.sups" horiz-adv-x="513" unicode="¹"/><glyph d="M533 699q-150 0 -239.5 85t-89.5 229q0 191 113 317.5t283 126.5q150 0 239.5 -85.5t89.5 -231.5q0 -190 -113 -315.5t-283 -125.5zM753 1141q0 79 -42.5 124.5t-114.5 45.5q-91 0 -153 -86t-62 -211q0 -79 42 -124t114 -45q90 0 153 85.5t63 210.5z" glyph-name="ordmasculine" horiz-adv-x="805" unicode="º"/><glyph d="M755 983h216l269 -411l-2 -18l-408 -406h-237l425 421v11zM301 980h217l265 -393l-3 -18l-424 -421h-237l441 436v11z" glyph-name="guillemotright" horiz-adv-x="1313" unicode="»"/><glyph d="M309 750l111 520h-3l-196 -114l35 170l200 117h188l-148 -693h-187zM238 0h-211l719 764l642 679h210l-701 -744zM1146 0l24 106h-343l32 170q100 137 343 417h268l-93 -437h85l-31 -150h-85l-23 -106h-177zM1018 253v-5h186l67 309h-4q-124 -137 -249 -304z" glyph-name="onequarter" horiz-adv-x="1512" unicode="¼"/><glyph d="M420 1270h-3l-196 -114l35 170l200 117h188l-148 -693h-187zM1388 1443h210l-701 -744l-659 -699h-211l719 764zM1155 479v-4h-170q7 103 89 170t201 67q108 0 178.5 -56t70.5 -141q0 -68 -46 -124.5t-178 -153.5l-120 -89h281l-30 -148h-530l29 136l246 182 q102 79 133.5 112.5t31.5 66.5q0 30 -23.5 49t-60.5 19q-38 0 -66.5 -23.5t-35.5 -62.5z" glyph-name="onehalf" horiz-adv-x="1544" unicode="½"/><glyph d="M393 1040l26 130h86q50 0 79 21.5t29 58.5q0 31 -25 49.5t-66 18.5q-35 0 -62.5 -18t-36.5 -48h-169q19 98 95.5 154t187.5 56t182 -53.5t71 -136.5q0 -65 -46.5 -113.5t-116.5 -58.5v-4q54 -13 85.5 -53t31.5 -95q0 -94 -80.5 -155t-205.5 -61t-201 57.5t-76 153.5 q0 12 3 30h173q-5 -38 24 -63.5t77 -25.5q46 0 75.5 24t29.5 62q0 31 -25.5 50.5t-66.5 19.5h-78zM348 0h-211l719 764l642 679h210l-701 -744zM1256 0l24 106h-343l32 170q100 137 343 417h268l-93 -437h85l-31 -150h-85l-23 -106h-177zM1128 253v-5h186l67 309h-4 q-124 -137 -249 -304z" glyph-name="threequarters" horiz-adv-x="1622" unicode="¾"/><glyph d="M904 30q-32 -175 -156.5 -279t-320.5 -104q-193 0 -313 98t-120 245q0 127 78.5 232.5t209.5 164.5q109 49 155 95t60 121l10 52h212l-16 -74q-25 -126 -83 -193t-179 -121q-115 -53 -166 -114t-51 -142q0 -72 57.5 -121.5t158.5 -49.5q93 0 160.5 50.5t93.5 139.5h210z M682 1120q55 0 93 -39t38 -95q0 -57 -38 -96t-93 -39q-56 0 -94 39t-38 96q0 56 38.5 95t93.5 39z" glyph-name="questiondown" horiz-adv-x="1000" unicode="¿"/><glyph d="M859 1192l-346 -621h436l-85 621h-5zM1021 0l-50 383h-554l-217 -383h-243l828 1443h245l210 -1443h-219zM832 1559l-200 296h209l160 -296h-169z" glyph-name="Agrave" horiz-adv-x="1328" unicode="À"/><glyph d="M859 1192l-346 -621h436l-85 621h-5zM1021 0l-50 383h-554l-217 -383h-243l828 1443h245l210 -1443h-219zM1025 1559h-191l285 296h231z" glyph-name="Aacute" horiz-adv-x="1328" unicode="Á"/><glyph d="M859 1192l-346 -621h436l-85 621h-5zM1021 0l-50 383h-554l-217 -383h-243l828 1443h245l210 -1443h-219zM1066 1861l213 -307h-176l-131 192h-7l-213 -192h-195l342 307h167z" glyph-name="Acircumflex" horiz-adv-x="1328" unicode="Â"/><glyph d="M859 1192l-346 -621h436l-85 621h-5zM1021 0l-50 383h-554l-217 -383h-243l828 1443h245l210 -1443h-219zM1078 1546q-37 0 -68.5 15t-52.5 36t-39.5 42t-39 36t-41.5 15q-35 0 -62.5 -34.5t-39.5 -97.5h-134q22 123 87.5 193.5t155.5 70.5q39 0 71.5 -15t53.5 -36 t39 -42t37.5 -36t39.5 -15q32 0 59 34.5t42 99.5h133q-25 -122 -90.5 -194t-150.5 -72z" glyph-name="Atilde" horiz-adv-x="1328" unicode="Ã"/><glyph d="M859 1192l-346 -621h436l-85 621h-5zM1021 0l-50 383h-554l-217 -383h-243l828 1443h245l210 -1443h-219zM769 1604q-49 0 -83 34t-34 83t34 83t83 34t83 -34t34 -83t-34 -83t-83 -34zM1149 1604q-49 0 -83 34t-34 83t34 83t83 34t83 -34t34 -83t-34 -83t-83 -34z" glyph-name="Adieresis" horiz-adv-x="1328" unicode="Ä"/><glyph d="M859 1192l-346 -621h436l-85 621h-5zM1021 0l-50 383h-554l-217 -383h-243l828 1443h245l210 -1443h-219zM965 1560q-82 0 -139.5 54.5t-57.5 140.5q0 90 59 149t145 59q84 0 141.5 -54t56.5 -141q-1 -90 -59.5 -149t-145.5 -59zM965 1662q46 0 75 28.5t28 75.5 q-1 43 -27.5 69.5t-68.5 26.5q-45 0 -73.5 -28.5t-28.5 -76.5q0 -42 27 -68.5t68 -26.5z" glyph-name="Aring" horiz-adv-x="1328" unicode="Å"/><glyph d="M1143 1253h-140l-427 -647h427zM874 0l91 417h-501l-278 -417h-236l938 1443h1164l-42 -204h-652l-91 -415h615l-39 -195h-615l-95 -425h652l-40 -204h-871z" glyph-name="AE" horiz-adv-x="1908" unicode="Æ"/><glyph d="M1490 950h-223q0 2 -0.5 11.5t-0.5 16.5q-13 128 -109.5 204.5t-239.5 76.5q-151 0 -269.5 -83.5t-183.5 -231.5t-65 -335q0 -197 101 -310.5t277 -113.5q137 0 242.5 71t153.5 196h223q-52 -205 -209.5 -332.5t-371.5 -141.5l-63 -103q85 0 132 -38t47 -108 q0 -92 -72 -149.5t-188 -57.5q-99 0 -170 26l26 125q61 -22 133 -22q123 0 123 64q0 31 -34.5 45t-112.5 14h-59l19 85l73 124q-233 31 -367 195t-134 420q0 248 96 446t270 310t393 112q241 0 396.5 -131.5t166.5 -348.5q1 -23 0 -36z" glyph-name="Ccedilla" horiz-adv-x="1427" unicode="Ç"/><glyph d="M1027 204l-40 -204h-918l307 1443h918l-42 -204h-690l-90 -408h653l-40 -194h-652l-95 -433h689zM759 1559l-200 296h209l160 -296h-169z" glyph-name="Egrave" horiz-adv-x="1147" unicode="È"/><glyph d="M1027 204l-40 -204h-918l307 1443h918l-42 -204h-690l-90 -408h653l-40 -194h-652l-95 -433h689zM952 1559h-191l285 296h231z" glyph-name="Eacute" horiz-adv-x="1147" unicode="É"/><glyph d="M1027 204l-40 -204h-918l307 1443h918l-42 -204h-690l-90 -408h653l-40 -194h-652l-95 -433h689zM993 1861l213 -307h-176l-131 192h-7l-213 -192h-195l342 307h167z" glyph-name="Ecircumflex" horiz-adv-x="1147" unicode="Ê"/><glyph d="M1027 204l-40 -204h-918l307 1443h918l-42 -204h-690l-90 -408h653l-40 -194h-652l-95 -433h689zM696 1604q-49 0 -83 34t-34 83t34 83t83 34t83 -34t34 -83t-34 -83t-83 -34zM1076 1604q-49 0 -83 34t-34 83t34 83t83 34t83 -34t34 -83t-34 -83t-83 -34z" glyph-name="Edieresis" horiz-adv-x="1147" unicode="Ë"/><glyph d="M296 0h-227l307 1443h227zM419 1559l-200 296h209l160 -296h-169z" glyph-name="Igrave" horiz-adv-x="496" unicode="Ì"/><glyph d="M296 0h-227l307 1443h227zM612 1559h-191l285 296h231z" glyph-name="Iacute" horiz-adv-x="496" unicode="Í"/><glyph d="M296 0h-227l307 1443h227zM653 1861l213 -307h-176l-131 192h-7l-213 -192h-195l342 307h167z" glyph-name="Icircumflex" horiz-adv-x="496" unicode="Î"/><glyph d="M296 0h-227l307 1443h227zM356 1604q-49 0 -83 34t-34 83t34 83t83 34t83 -34t34 -83t-34 -83t-83 -34zM736 1604q-49 0 -83 34t-34 83t34 83t83 34t83 -34t34 -83t-34 -83t-83 -34z" glyph-name="Idieresis" horiz-adv-x="496" unicode="Ï"/><glyph d="M338 202h299q163 0 291.5 79.5t201 224t72.5 328.5q0 199 -106.5 303t-310.5 104h-222l-88 -405h300l-41 -204h-303zM376 1443h452q282 0 443.5 -153.5t161.5 -425.5q0 -252 -97 -448.5t-273.5 -306t-403.5 -109.5h-589l134 632h-134l41 204h136z" glyph-name="Eth" horiz-adv-x="1427" unicode="Ð"/><glyph d="M293 0h-224l307 1443h208l508 -1082h5l234 1082h224l-307 -1443h-209l-507 1082h-5zM1140 1546q-37 0 -68.5 15t-52.5 36t-39.5 42t-39 36t-41.5 15q-35 0 -62.5 -34.5t-39.5 -97.5h-134q22 123 87.5 193.5t155.5 70.5q39 0 71.5 -15t53.5 -36t39 -42t37.5 -36t39.5 -15 q32 0 59 34.5t42 99.5h133q-25 -122 -90.5 -194t-150.5 -72z" glyph-name="Ntilde" horiz-adv-x="1448" unicode="Ñ"/><glyph d="M926 1260q-152 0 -274 -87t-188.5 -234.5t-66.5 -325.5q0 -197 104.5 -313.5t279.5 -116.5q152 0 273.5 87t188.5 235t67 326q0 196 -104.5 312.5t-279.5 116.5zM778 -23q-277 0 -443.5 172t-166.5 453q0 240 98 438t272 312t389 114q278 0 445 -172t167 -453 q0 -240 -98.5 -438t-273 -312t-389.5 -114zM874 1559l-200 296h209l160 -296h-169z" glyph-name="Ograve" horiz-adv-x="1530" unicode="Ò"/><glyph d="M926 1260q-152 0 -274 -87t-188.5 -234.5t-66.5 -325.5q0 -197 104.5 -313.5t279.5 -116.5q152 0 273.5 87t188.5 235t67 326q0 196 -104.5 312.5t-279.5 116.5zM778 -23q-277 0 -443.5 172t-166.5 453q0 240 98 438t272 312t389 114q278 0 445 -172t167 -453 q0 -240 -98.5 -438t-273 -312t-389.5 -114zM1067 1559h-191l285 296h231z" glyph-name="Oacute" horiz-adv-x="1530" unicode="Ó"/><glyph d="M926 1260q-152 0 -274 -87t-188.5 -234.5t-66.5 -325.5q0 -197 104.5 -313.5t279.5 -116.5q152 0 273.5 87t188.5 235t67 326q0 196 -104.5 312.5t-279.5 116.5zM778 -23q-277 0 -443.5 172t-166.5 453q0 240 98 438t272 312t389 114q278 0 445 -172t167 -453 q0 -240 -98.5 -438t-273 -312t-389.5 -114zM1108 1861l213 -307h-176l-131 192h-7l-213 -192h-195l342 307h167z" glyph-name="Ocircumflex" horiz-adv-x="1530" unicode="Ô"/><glyph d="M926 1260q-152 0 -274 -87t-188.5 -234.5t-66.5 -325.5q0 -197 104.5 -313.5t279.5 -116.5q152 0 273.5 87t188.5 235t67 326q0 196 -104.5 312.5t-279.5 116.5zM778 -23q-277 0 -443.5 172t-166.5 453q0 240 98 438t272 312t389 114q278 0 445 -172t167 -453 q0 -240 -98.5 -438t-273 -312t-389.5 -114zM1120 1546q-37 0 -68.5 15t-52.5 36t-39.5 42t-39 36t-41.5 15q-35 0 -62.5 -34.5t-39.5 -97.5h-134q22 123 87.5 193.5t155.5 70.5q39 0 71.5 -15t53.5 -36t39 -42t37.5 -36t39.5 -15q32 0 59 34.5t42 99.5h133 q-25 -122 -90.5 -194t-150.5 -72z" glyph-name="Otilde" horiz-adv-x="1530" unicode="Õ"/><glyph d="M926 1260q-152 0 -274 -87t-188.5 -234.5t-66.5 -325.5q0 -197 104.5 -313.5t279.5 -116.5q152 0 273.5 87t188.5 235t67 326q0 196 -104.5 312.5t-279.5 116.5zM778 -23q-277 0 -443.5 172t-166.5 453q0 240 98 438t272 312t389 114q278 0 445 -172t167 -453 q0 -240 -98.5 -438t-273 -312t-389.5 -114zM811 1604q-49 0 -83 34t-34 83t34 83t83 34t83 -34t34 -83t-34 -83t-83 -34zM1191 1604q-49 0 -83 34t-34 83t34 83t83 34t83 -34t34 -83t-34 -83t-83 -34z" glyph-name="Odieresis" horiz-adv-x="1530" unicode="Ö"/><glyph d="M902 144l-230 301l-362 -290l-110 151l362 291l-233 305l153 125l233 -301l362 290l110 -152l-362 -291l231 -305z" glyph-name="multiply" horiz-adv-x="1270" unicode="×"/><glyph d="M1274 1031l-752 -753q101 -95 259 -95q152 0 273.5 87t188.5 235t67 326q0 113 -36 200zM432 412l753 753q-103 95 -259 95q-152 0 -274 -87t-188.5 -234.5t-66.5 -325.5q0 -113 35 -201zM1603 1360l-158 -159q94 -151 94 -360q0 -240 -98.5 -438t-273 -312t-389.5 -114 q-251 0 -414 144l-151 -152l-110 114l159 159q-94 153 -94 360q0 240 98 438t272 312t389 114q252 0 415 -144l152 152z" glyph-name="Oslash" horiz-adv-x="1530" unicode="Ø"/><glyph d="M701 -23q-245 0 -383.5 128t-139.5 329q-1 59 13 128l185 881h227l-183 -870q-15 -63 -13 -120q5 -124 87 -194.5t236 -70.5q150 0 255 86t139 239l199 930h227l-208 -980q-50 -232 -214 -359t-427 -127zM877 1559l-200 296h209l160 -296h-169z" glyph-name="Ugrave" horiz-adv-x="1443" unicode="Ù"/><glyph d="M701 -23q-245 0 -383.5 128t-139.5 329q-1 59 13 128l185 881h227l-183 -870q-15 -63 -13 -120q5 -124 87 -194.5t236 -70.5q150 0 255 86t139 239l199 930h227l-208 -980q-50 -232 -214 -359t-427 -127zM1070 1559h-191l285 296h231z" glyph-name="Uacute" horiz-adv-x="1443" unicode="Ú"/><glyph d="M701 -23q-245 0 -383.5 128t-139.5 329q-1 59 13 128l185 881h227l-183 -870q-15 -63 -13 -120q5 -124 87 -194.5t236 -70.5q150 0 255 86t139 239l199 930h227l-208 -980q-50 -232 -214 -359t-427 -127zM1111 1861l213 -307h-176l-131 192h-7l-213 -192h-195l342 307 h167z" glyph-name="Ucircumflex" horiz-adv-x="1443" unicode="Û"/><glyph d="M701 -23q-245 0 -383.5 128t-139.5 329q-1 59 13 128l185 881h227l-183 -870q-15 -63 -13 -120q5 -124 87 -194.5t236 -70.5q150 0 255 86t139 239l199 930h227l-208 -980q-50 -232 -214 -359t-427 -127zM814 1604q-49 0 -83 34t-34 83t34 83t83 34t83 -34t34 -83 t-34 -83t-83 -34zM1194 1604q-49 0 -83 34t-34 83t34 83t83 34t83 -34t34 -83t-34 -83t-83 -34z" glyph-name="Udieresis" horiz-adv-x="1443" unicode="Ü"/><glyph d="M694 0h-228l125 588l-326 855h235l242 -640h4l507 640h253l-692 -874zM1005 1559h-191l285 296h231z" glyph-name="Yacute" horiz-adv-x="1287" unicode="Ý"/><glyph d="M74 0l307 1443h223l-55 -251h310q177 0 289.5 -104.5t112.5 -269.5q0 -218 -156.5 -356.5t-406.5 -138.5h-331l-70 -323h-223zM509 993l-102 -472h274q164 0 257 73t93 201q0 94 -62.5 146t-182.5 52h-277z" glyph-name="Thorn" horiz-adv-x="1234" unicode="Þ"/><glyph d="M314 0h-217l234 1099q36 166 163 261t314 95q185 0 305.5 -97.5t120.5 -247.5q0 -135 -89 -230.5t-230 -111.5l-4 -19q142 -19 224 -100.5t82 -204.5q0 -195 -142 -318.5t-363 -123.5q-129 0 -224 37l39 188q78 -33 178 -33q125 0 211 73t86 180q0 95 -77 150t-207 55 h-72l41 203h77q105 0 179.5 63.5t74.5 154.5q0 85 -61 137t-159 52q-103 0 -172 -61.5t-94 -174.5z" glyph-name="germandbls" horiz-adv-x="1280" unicode="ß"/><glyph d="M461 159q104 0 184 59t101 151l24 106l-263 -13q-108 -5 -168.5 -47t-60.5 -113q0 -65 50.5 -104t132.5 -39zM390 -18q-137 0 -231 82.5t-94 209.5q0 156 115.5 245.5t323.5 98.5l298 14l14 64q4 17 4 46q0 70 -50.5 109.5t-143.5 39.5q-95 0 -153.5 -39.5t-73.5 -108.5 h-214q25 149 149 241t309 92q175 0 282.5 -85.5t107.5 -221.5q0 -48 -7 -88l-144 -681h-207l27 128h-3q-52 -68 -132.5 -107t-176.5 -39zM782 1224h-171l-185 305h207z" glyph-name="agrave" horiz-adv-x="1048" unicode="à"/><glyph d="M461 159q104 0 184 59t101 151l24 106l-263 -13q-108 -5 -168.5 -47t-60.5 -113q0 -65 50.5 -104t132.5 -39zM390 -18q-137 0 -231 82.5t-94 209.5q0 156 115.5 245.5t323.5 98.5l298 14l14 64q4 17 4 46q0 70 -50.5 109.5t-143.5 39.5q-95 0 -153.5 -39.5t-73.5 -108.5 h-214q25 149 149 241t309 92q175 0 282.5 -85.5t107.5 -221.5q0 -48 -7 -88l-144 -681h-207l27 128h-3q-52 -68 -132.5 -107t-176.5 -39zM792 1224h-187l278 305h224z" glyph-name="aacute" horiz-adv-x="1048" unicode="á"/><glyph d="M461 159q104 0 184 59t101 151l24 106l-263 -13q-108 -5 -168.5 -47t-60.5 -113q0 -65 50.5 -104t132.5 -39zM390 -18q-137 0 -231 82.5t-94 209.5q0 156 115.5 245.5t323.5 98.5l298 14l14 64q4 17 4 46q0 70 -50.5 109.5t-143.5 39.5q-95 0 -153.5 -39.5t-73.5 -108.5 h-214q25 149 149 241t309 92q175 0 282.5 -85.5t107.5 -221.5q0 -48 -7 -88l-144 -681h-207l27 128h-3q-52 -68 -132.5 -107t-176.5 -39zM844 1528l204 -308h-179l-123 189h-7l-205 -189h-191l335 308h166z" glyph-name="acircumflex" horiz-adv-x="1048" unicode="â"/><glyph d="M461 159q104 0 184 59t101 151l24 106l-263 -13q-108 -5 -168.5 -47t-60.5 -113q0 -65 50.5 -104t132.5 -39zM390 -18q-137 0 -231 82.5t-94 209.5q0 156 115.5 245.5t323.5 98.5l298 14l14 64q4 17 4 46q0 70 -50.5 109.5t-143.5 39.5q-95 0 -153.5 -39.5t-73.5 -108.5 h-214q25 149 149 241t309 92q175 0 282.5 -85.5t107.5 -221.5q0 -48 -7 -88l-144 -681h-207l27 128h-3q-52 -68 -132.5 -107t-176.5 -39zM839 1226q-37 0 -68.5 15t-52.5 36t-39.5 42t-39 36t-41.5 15q-35 0 -62.5 -34.5t-39.5 -97.5h-134q22 123 87.5 193.5t155.5 70.5 q39 0 71.5 -15t53.5 -36t39 -42t37.5 -36t39.5 -15q32 0 59 34.5t42 99.5h133q-25 -122 -90.5 -194t-150.5 -72z" glyph-name="atilde" horiz-adv-x="1048" unicode="ã"/><glyph d="M461 159q104 0 184 59t101 151l24 106l-263 -13q-108 -5 -168.5 -47t-60.5 -113q0 -65 50.5 -104t132.5 -39zM390 -18q-137 0 -231 82.5t-94 209.5q0 156 115.5 245.5t323.5 98.5l298 14l14 64q4 17 4 46q0 70 -50.5 109.5t-143.5 39.5q-95 0 -153.5 -39.5t-73.5 -108.5 h-214q25 149 149 241t309 92q175 0 282.5 -85.5t107.5 -221.5q0 -48 -7 -88l-144 -681h-207l27 128h-3q-52 -68 -132.5 -107t-176.5 -39zM526 1225q-49 0 -83 34t-34 83t34 83t83 34t83 -34t34 -83t-34 -83t-83 -34zM906 1225q-49 0 -83 34t-34 83t34 83t83 34t83 -34 t34 -83t-34 -83t-83 -34z" glyph-name="adieresis" horiz-adv-x="1048" unicode="ä"/><glyph d="M461 159q104 0 184 59t101 151l24 106l-263 -13q-108 -5 -168.5 -47t-60.5 -113q0 -65 50.5 -104t132.5 -39zM390 -18q-137 0 -231 82.5t-94 209.5q0 156 115.5 245.5t323.5 98.5l298 14l14 64q4 17 4 46q0 70 -50.5 109.5t-143.5 39.5q-95 0 -153.5 -39.5t-73.5 -108.5 h-214q25 149 149 241t309 92q175 0 282.5 -85.5t107.5 -221.5q0 -48 -7 -88l-144 -681h-207l27 128h-3q-52 -68 -132.5 -107t-176.5 -39zM718 1172q-82 0 -139.5 54.5t-57.5 140.5q0 90 59 149t145 59q84 0 141.5 -54t56.5 -141q-1 -90 -59.5 -149t-145.5 -59zM718 1274 q46 0 75 28.5t28 75.5q-1 43 -27.5 69.5t-68.5 26.5q-45 0 -73.5 -28.5t-28.5 -76.5q0 -42 27 -68.5t68 -26.5z" glyph-name="aring" horiz-adv-x="1048" unicode="å"/><glyph d="M1224 -20q-131 0 -225.5 59t-138.5 160h-7q-149 -219 -439 -219q-148 0 -246 84.5t-98 209.5q0 156 116 246.5t327 98.5l298 13l14 64q4 16 4 46q0 67 -53 108t-145 41q-95 0 -153 -40t-72 -108h-214q24 148 146.5 240.5t304.5 92.5q109 0 197.5 -41.5t132.5 -114.5h7 q136 156 348 156q190 0 304.5 -122.5t114.5 -325.5q0 -82 -10 -152h-748q-1 -7 -1 -30q0 -130 66 -207t179 -77q94 0 161.5 43.5t99.5 124.5h206q-41 -156 -172.5 -253t-303.5 -97zM1013 633h524q2 14 2 29q0 104 -60 168t-157 64q-114 0 -194.5 -70t-114.5 -191zM466 158 q108 0 189 59t101 150l24 106l-270 -12q-104 -5 -165.5 -49t-61.5 -112q0 -62 50 -102t133 -40z" glyph-name="ae" horiz-adv-x="1761" unicode="æ"/><glyph d="M1086 684h-206q-3 86 -64 143t-164 57q-144 0 -235.5 -122t-91.5 -314q0 -128 63 -202.5t169 -74.5q94 0 162 50t98 136h209q-32 -149 -145 -251.5t-267 -121.5l-66 -109q85 0 132 -38t47 -108q0 -92 -72 -149.5t-188 -57.5q-99 0 -170 26l26 125q61 -22 133 -22 q123 0 123 64q0 31 -34.5 45t-112.5 14h-59l19 85l75 127q-172 25 -265.5 146.5t-93.5 306.5q0 277 153.5 457t396.5 180q199 0 314 -108.5t115 -265.5q0 -13 -1 -18z" glyph-name="ccedilla" horiz-adv-x="1061" unicode="ç"/><glyph d="M343 633h524q1 8 1 29q0 99 -58 165.5t-172 66.5q-109 0 -187 -72.5t-108 -188.5zM553 -22q-212 0 -328.5 128.5t-116.5 341.5q0 174 67.5 317t190.5 227t277 84q200 0 317.5 -121t117.5 -327q0 -86 -11 -152h-749q-1 -12 -1 -35q0 -128 65.5 -203.5t175.5 -75.5 q96 0 165 45t101 123h207q-42 -154 -173 -253t-305 -99zM780 1224h-171l-185 305h207z" glyph-name="egrave" horiz-adv-x="1093" unicode="è"/><glyph d="M343 633h524q1 8 1 29q0 99 -58 165.5t-172 66.5q-109 0 -187 -72.5t-108 -188.5zM553 -22q-212 0 -328.5 128.5t-116.5 341.5q0 174 67.5 317t190.5 227t277 84q200 0 317.5 -121t117.5 -327q0 -86 -11 -152h-749q-1 -12 -1 -35q0 -128 65.5 -203.5t175.5 -75.5 q96 0 165 45t101 123h207q-42 -154 -173 -253t-305 -99zM790 1224h-187l278 305h224z" glyph-name="eacute" horiz-adv-x="1093" unicode="é"/><glyph d="M343 633h524q1 8 1 29q0 99 -58 165.5t-172 66.5q-109 0 -187 -72.5t-108 -188.5zM553 -22q-212 0 -328.5 128.5t-116.5 341.5q0 174 67.5 317t190.5 227t277 84q200 0 317.5 -121t117.5 -327q0 -86 -11 -152h-749q-1 -12 -1 -35q0 -128 65.5 -203.5t175.5 -75.5 q96 0 165 45t101 123h207q-42 -154 -173 -253t-305 -99zM842 1528l204 -308h-179l-123 189h-7l-205 -189h-191l335 308h166z" glyph-name="ecircumflex" horiz-adv-x="1093" unicode="ê"/><glyph d="M343 633h524q1 8 1 29q0 99 -58 165.5t-172 66.5q-109 0 -187 -72.5t-108 -188.5zM553 -22q-212 0 -328.5 128.5t-116.5 341.5q0 174 67.5 317t190.5 227t277 84q200 0 317.5 -121t117.5 -327q0 -86 -11 -152h-749q-1 -12 -1 -35q0 -128 65.5 -203.5t175.5 -75.5 q96 0 165 45t101 123h207q-42 -154 -173 -253t-305 -99zM524 1225q-49 0 -83 34t-34 83t34 83t83 34t83 -34t34 -83t-34 -83t-83 -34zM904 1225q-49 0 -83 34t-34 83t34 83t83 34t83 -34t34 -83t-34 -83t-83 -34z" glyph-name="edieresis" horiz-adv-x="1093" unicode="ë"/><glyph d="M51 0l224 1055h215l-223 -1055h-216zM509 1224h-171l-185 305h207z" glyph-name="igrave" horiz-adv-x="449" unicode="ì"/><glyph d="M51 0l224 1055h215l-223 -1055h-216zM519 1224h-187l278 305h224z" glyph-name="iacute" horiz-adv-x="449" unicode="í"/><glyph d="M51 0l224 1055h215l-223 -1055h-216zM571 1528l204 -308h-179l-123 189h-7l-205 -189h-191l335 308h166z" glyph-name="icircumflex" horiz-adv-x="449" unicode="î"/><glyph d="M51 0l224 1055h215l-223 -1055h-216zM253 1225q-49 0 -83 34t-34 83t34 83t83 34t83 -34t34 -83t-34 -83t-83 -34zM633 1225q-49 0 -83 34t-34 83t34 83t83 34t83 -34t34 -83t-34 -83t-83 -34z" glyph-name="idieresis" horiz-adv-x="449" unicode="ï"/><glyph d="M570 173q85 0 164 58t127.5 154t48.5 202q0 115 -72 187.5t-187 72.5q-138 0 -231 -111t-93 -284q0 -123 64.5 -201t178.5 -78zM1195 1309l-174 -52q123 -242 123 -492q0 -164 -39 -306q-62 -223 -208.5 -351t-342.5 -128q-204 0 -327 131t-123 324q0 128 40 240t109 190 t164 123t202 45q111 0 198.5 -50t124.5 -125l6 1q-8 161 -103 340l-329 -97l-12 137l266 79q-46 61 -129 147h237q47 -53 73 -89l230 71z" glyph-name="eth" horiz-adv-x="1152" unicode="ð"/><glyph d="M41 0l224 1055h205l-35 -163h5q54 87 142 135.5t199 48.5q143 0 237 -87t94 -221q0 -57 -14 -129l-135 -639h-215l128 602q12 57 12 98q0 85 -57 135t-151 50q-106 0 -185.5 -69.5t-104.5 -185.5l-134 -630h-215zM904 1226q-37 0 -68.5 15t-52.5 36t-39.5 42t-39 36 t-41.5 15q-35 0 -62.5 -34.5t-39.5 -97.5h-134q22 123 87.5 193.5t155.5 70.5q39 0 71.5 -15t53.5 -36t39 -42t37.5 -36t39.5 -15q32 0 59 34.5t42 99.5h133q-25 -122 -90.5 -194t-150.5 -72z" glyph-name="ntilde" horiz-adv-x="1129" unicode="ñ"/><glyph d="M565 169q145 0 240 124t95 309q0 129 -65 207t-175 78q-145 0 -240 -124t-95 -310q0 -129 65 -206.5t175 -77.5zM664 1076q206 0 329.5 -128t123.5 -340q0 -132 -42.5 -248t-116 -199.5t-176.5 -132t-220 -48.5q-206 0 -330 128t-124 339q0 176 72 320t199.5 226.5 t284.5 82.5zM796 1224h-171l-185 305h207z" glyph-name="ograve" horiz-adv-x="1133" unicode="ò"/><glyph d="M565 169q145 0 240 124t95 309q0 129 -65 207t-175 78q-145 0 -240 -124t-95 -310q0 -129 65 -206.5t175 -77.5zM664 1076q206 0 329.5 -128t123.5 -340q0 -132 -42.5 -248t-116 -199.5t-176.5 -132t-220 -48.5q-206 0 -330 128t-124 339q0 176 72 320t199.5 226.5 t284.5 82.5zM806 1224h-187l278 305h224z" glyph-name="oacute" horiz-adv-x="1133" unicode="ó"/><glyph d="M565 169q145 0 240 124t95 309q0 129 -65 207t-175 78q-145 0 -240 -124t-95 -310q0 -129 65 -206.5t175 -77.5zM664 1076q206 0 329.5 -128t123.5 -340q0 -132 -42.5 -248t-116 -199.5t-176.5 -132t-220 -48.5q-206 0 -330 128t-124 339q0 176 72 320t199.5 226.5 t284.5 82.5zM858 1528l204 -308h-179l-123 189h-7l-205 -189h-191l335 308h166z" glyph-name="ocircumflex" horiz-adv-x="1133" unicode="ô"/><glyph d="M565 169q145 0 240 124t95 309q0 129 -65 207t-175 78q-145 0 -240 -124t-95 -310q0 -129 65 -206.5t175 -77.5zM664 1076q206 0 329.5 -128t123.5 -340q0 -132 -42.5 -248t-116 -199.5t-176.5 -132t-220 -48.5q-206 0 -330 128t-124 339q0 176 72 320t199.5 226.5 t284.5 82.5zM853 1226q-37 0 -68.5 15t-52.5 36t-39.5 42t-39 36t-41.5 15q-35 0 -62.5 -34.5t-39.5 -97.5h-134q22 123 87.5 193.5t155.5 70.5q39 0 71.5 -15t53.5 -36t39 -42t37.5 -36t39.5 -15q32 0 59 34.5t42 99.5h133q-25 -122 -90.5 -194t-150.5 -72z" glyph-name="otilde" horiz-adv-x="1133" unicode="õ"/><glyph d="M565 169q145 0 240 124t95 309q0 129 -65 207t-175 78q-145 0 -240 -124t-95 -310q0 -129 65 -206.5t175 -77.5zM664 1076q206 0 329.5 -128t123.5 -340q0 -132 -42.5 -248t-116 -199.5t-176.5 -132t-220 -48.5q-206 0 -330 128t-124 339q0 176 72 320t199.5 226.5 t284.5 82.5zM540 1225q-49 0 -83 34t-34 83t34 83t83 34t83 -34t34 -83t-34 -83t-83 -34zM920 1225q-49 0 -83 34t-34 83t34 83t83 34t83 -34t34 -83t-34 -83t-83 -34z" glyph-name="odieresis" horiz-adv-x="1133" unicode="ö"/><glyph d="M1193 484h-1040l37 181h1040zM764 806q-60 0 -100 39.5t-40 101.5t40 101.5t100 39.5t100 -39.5t40 -101.5t-40 -101.5t-100 -39.5zM608 61q-61 0 -100.5 39.5t-39.5 101.5t39.5 101.5t100.5 39.5t100.5 -39.5t39.5 -101.5t-39.5 -101.5t-100.5 -39.5z" glyph-name="divide" horiz-adv-x="1270" unicode="÷"/><glyph d="M890 710l-485 -487q65 -60 159 -60q146 0 242.5 126t96.5 315q0 54 -13 106zM335 346l485 487q-65 60 -159 60q-147 0 -243 -126t-96 -316q0 -55 13 -105zM1169 991l-118 -119q66 -111 66 -264q0 -132 -42.5 -248t-116 -199.5t-176.5 -132t-220 -48.5q-180 0 -300 100 l-111 -112l-95 97l118 119q-66 111 -66 263q0 176 72 320t199.5 226.5t284.5 82.5q179 0 299 -100l111 112z" glyph-name="oslash" horiz-adv-x="1133" unicode="ø"/><glyph d="M1179 1055l-223 -1055h-205l33 154h-4q-42 -72 -136 -123t-208 -51q-148 0 -236 84t-88 214q0 74 15 146l132 631h215l-127 -597q-12 -57 -12 -103q0 -181 197 -181q113 0 194 70.5t106 185.5l133 625h214zM840 1224h-171l-185 305h207z" glyph-name="ugrave" horiz-adv-x="1128" unicode="ù"/><glyph d="M1179 1055l-223 -1055h-205l33 154h-4q-42 -72 -136 -123t-208 -51q-148 0 -236 84t-88 214q0 74 15 146l132 631h215l-127 -597q-12 -57 -12 -103q0 -181 197 -181q113 0 194 70.5t106 185.5l133 625h214zM850 1224h-187l278 305h224z" glyph-name="uacute" horiz-adv-x="1128" unicode="ú"/><glyph d="M1179 1055l-223 -1055h-205l33 154h-4q-42 -72 -136 -123t-208 -51q-148 0 -236 84t-88 214q0 74 15 146l132 631h215l-127 -597q-12 -57 -12 -103q0 -181 197 -181q113 0 194 70.5t106 185.5l133 625h214zM902 1528l204 -308h-179l-123 189h-7l-205 -189h-191l335 308 h166z" glyph-name="ucircumflex" horiz-adv-x="1128" unicode="û"/><glyph d="M1179 1055l-223 -1055h-205l33 154h-4q-42 -72 -136 -123t-208 -51q-148 0 -236 84t-88 214q0 74 15 146l132 631h215l-127 -597q-12 -57 -12 -103q0 -181 197 -181q113 0 194 70.5t106 185.5l133 625h214zM584 1225q-49 0 -83 34t-34 83t34 83t83 34t83 -34t34 -83 t-34 -83t-83 -34zM964 1225q-49 0 -83 34t-34 83t34 83t83 34t83 -34t34 -83t-34 -83t-83 -34z" glyph-name="udieresis" horiz-adv-x="1128" unicode="ü"/><glyph d="M97 -385q-81 0 -124 13l33 183q31 -12 96 -12q129 0 202 153q0 1 14 29l13 28l-159 1046h214l102 -838h4l435 838h233l-635 -1137q-92 -170 -190.5 -236.5t-237.5 -66.5zM791 1224h-187l278 305h224z" glyph-name="yacute" horiz-adv-x="1017" unicode="ý"/><glyph d="M611 174q141 0 235.5 123t94.5 308q0 131 -62.5 205.5t-172.5 74.5q-101 0 -180.5 -62.5t-120.5 -163t-41 -218.5q0 -119 67.5 -193t179.5 -74zM302 207l-117 -548h-213l381 1792h214l-122 -561h6q49 83 136 133t187 50q176 0 278.5 -120t102.5 -322q0 -184 -68.5 -332.5 t-188 -232.5t-266.5 -84q-118 0 -205.5 62.5t-117.5 162.5h-7z" glyph-name="thorn" horiz-adv-x="1172" unicode="þ"/><glyph d="M97 -385q-81 0 -124 13l33 183q31 -12 96 -12q129 0 202 153q0 1 14 29l13 28l-159 1046h214l102 -838h4l435 838h233l-635 -1137q-92 -170 -190.5 -236.5t-237.5 -66.5zM525 1225q-49 0 -83 34t-34 83t34 83t83 34t83 -34t34 -83t-34 -83t-83 -34zM905 1225 q-49 0 -83 34t-34 83t34 83t83 34t83 -34t34 -83t-34 -83t-83 -34z" glyph-name="ydieresis" horiz-adv-x="1017" unicode="ÿ"/><glyph d="M859 1192l-346 -621h436l-85 621h-5zM1021 0l-50 383h-554l-217 -383h-243l828 1443h245l210 -1443h-219zM1298 1759l-27 -132h-655l28 132h654z" glyph-name="Amacron" horiz-adv-x="1328" unicode="Ā"/><glyph d="M461 159q104 0 184 59t101 151l24 106l-263 -13q-108 -5 -168.5 -47t-60.5 -113q0 -65 50.5 -104t132.5 -39zM390 -18q-137 0 -231 82.5t-94 209.5q0 156 115.5 245.5t323.5 98.5l298 14l14 64q4 17 4 46q0 70 -50.5 109.5t-143.5 39.5q-95 0 -153.5 -39.5t-73.5 -108.5 h-214q25 149 149 241t309 92q175 0 282.5 -85.5t107.5 -221.5q0 -48 -7 -88l-144 -681h-207l27 128h-3q-52 -68 -132.5 -107t-176.5 -39zM1035 1412l-27 -131h-597l26 131h598z" glyph-name="amacron" horiz-adv-x="1048" unicode="ā"/><glyph d="M859 1192l-346 -621h436l-85 621h-5zM1021 0l-50 383h-554l-217 -383h-243l828 1443h245l210 -1443h-219zM656 1853h145q-7 -23 -7 -47q0 -65 41 -102t113 -37q84 0 147.5 50t82.5 136h147q-32 -145 -136.5 -228.5t-262.5 -83.5q-123 0 -201 67t-78 174q0 33 9 71z" glyph-name="Abreve" horiz-adv-x="1328" unicode="Ă"/><glyph d="M461 159q104 0 184 59t101 151l24 106l-263 -13q-108 -5 -168.5 -47t-60.5 -113q0 -65 50.5 -104t132.5 -39zM390 -18q-137 0 -231 82.5t-94 209.5q0 156 115.5 245.5t323.5 98.5l298 14l14 64q4 17 4 46q0 70 -50.5 109.5t-143.5 39.5q-95 0 -153.5 -39.5t-73.5 -108.5 h-214q25 149 149 241t309 92q175 0 282.5 -85.5t107.5 -221.5q0 -48 -7 -88l-144 -681h-207l27 128h-3q-52 -68 -132.5 -107t-176.5 -39zM423 1528h145q-7 -24 -7 -47q0 -66 41 -104t113 -38q84 0 147.5 51t82.5 138h147q-33 -148 -137.5 -232t-261.5 -84q-120 0 -199.5 69 t-79.5 177q0 30 9 70z" glyph-name="abreve" horiz-adv-x="1048" unicode="ă"/><glyph d="M1140 -285l-28 -136q-37 -22 -123 -22q-90 0 -145.5 44.5t-55.5 118.5q0 73 60.5 146.5t172.5 136.5l-53 380h-553l-215 -383h-243l826 1443h244l210 -1426l-23 -11q-120 -58 -182 -117.5t-62 -112.5q0 -35 25.5 -54t71.5 -19t73 12zM857 1192l-346 -621h436l-85 621h-5z" glyph-name="Aogonek" horiz-adv-x="1328" unicode="Ą"/><glyph d="M460 166q108 0 187.5 56t99.5 147l24 106l-267 -13q-106 -4 -166 -47t-60 -113q0 -61 50 -98.5t132 -37.5zM775 -408q-37 -22 -123 -22q-90 0 -145 45t-55 117q0 152 225 274l26 122h-4q-106 -139 -310 -139q-138 0 -230.5 81.5t-92.5 203.5q0 155 115 245t327 99l295 14 l14 64q4 19 4 46q0 67 -53.5 104.5t-146.5 37.5q-89 0 -147.5 -37t-74.5 -104h-213q25 148 148.5 237t303.5 89q176 0 286 -83t110 -217q0 -53 -8 -88l-145 -685l-14 -4q-102 -35 -168 -92t-66 -111q0 -34 26 -53.5t71 -19.5q43 0 73 12z" glyph-name="aogonek" horiz-adv-x="1048" unicode="ą"/><glyph d="M1267 950q0 2 -0.5 11.5t-0.5 16.5q-13 128 -109.5 204.5t-239.5 76.5q-151 0 -269.5 -83.5t-183.5 -231.5t-65 -335q0 -197 101 -310.5t277 -113.5q137 0 242.5 71t153.5 196h223q-55 -216 -226 -345.5t-400 -129.5q-276 0 -439 168.5t-163 452.5q0 248 96 446t270 310 t393 112q241 0 396.5 -131.5t166.5 -348.5q1 -23 0 -36h-223zM1047 1561h-191l285 296h231z" glyph-name="Cacute" horiz-adv-x="1427" unicode="Ć"/><glyph d="M658 1076q199 0 314 -108.5t115 -265.5q0 -13 -1 -18h-206q-3 86 -64 143t-164 57q-144 0 -235.5 -122t-91.5 -314q0 -128 63 -202.5t169 -74.5q94 0 162 50t98 136h209q-36 -164 -168 -270.5t-306 -106.5q-211 0 -327.5 126t-116.5 333q0 277 153.5 457t396.5 180z M804 1224h-187l278 305h224z" glyph-name="cacute" horiz-adv-x="1061" unicode="ć"/><glyph d="M1267 950q0 2 -0.5 11.5t-0.5 16.5q-13 128 -109.5 204.5t-239.5 76.5q-151 0 -269.5 -83.5t-183.5 -231.5t-65 -335q0 -197 101 -310.5t277 -113.5q137 0 242.5 71t153.5 196h223q-55 -216 -226 -345.5t-400 -129.5q-276 0 -439 168.5t-163 452.5q0 248 96 446t270 310 t393 112q241 0 396.5 -131.5t166.5 -348.5q1 -23 0 -36h-223zM1088 1863l213 -307h-176l-131 192h-7l-213 -192h-195l342 307h167z" glyph-name="Ccircumflex" horiz-adv-x="1427" unicode="Ĉ"/><glyph d="M658 1076q199 0 314 -108.5t115 -265.5q0 -13 -1 -18h-206q-3 86 -64 143t-164 57q-144 0 -235.5 -122t-91.5 -314q0 -128 63 -202.5t169 -74.5q94 0 162 50t98 136h209q-36 -164 -168 -270.5t-306 -106.5q-211 0 -327.5 126t-116.5 333q0 277 153.5 457t396.5 180z M856 1528l204 -308h-179l-123 189h-7l-205 -189h-191l335 308h166z" glyph-name="ccircumflex" horiz-adv-x="1061" unicode="ĉ"/><glyph d="M1267 950q0 2 -0.5 11.5t-0.5 16.5q-13 128 -109.5 204.5t-239.5 76.5q-151 0 -269.5 -83.5t-183.5 -231.5t-65 -335q0 -197 101 -310.5t277 -113.5q137 0 242.5 71t153.5 196h223q-55 -216 -226 -345.5t-400 -129.5q-276 0 -439 168.5t-163 452.5q0 248 96 446t270 310 t393 112q241 0 396.5 -131.5t166.5 -348.5q1 -23 0 -36h-223zM986 1611q-55 0 -94.5 40t-39.5 96t39.5 96t94.5 40t94 -40t39 -96t-39 -96t-94 -40z" glyph-name="Cdotaccent" horiz-adv-x="1427" unicode="Ċ"/><glyph d="M658 1076q199 0 314 -108.5t115 -265.5q0 -13 -1 -18h-206q-3 86 -64 143t-164 57q-144 0 -235.5 -122t-91.5 -314q0 -128 63 -202.5t169 -74.5q94 0 162 50t98 136h209q-36 -164 -168 -270.5t-306 -106.5q-211 0 -327.5 126t-116.5 333q0 277 153.5 457t396.5 180z M728 1221q-55 0 -94 40t-39 96t39 96t94 40t94.5 -40t39.5 -96t-39.5 -96t-94.5 -40z" glyph-name="cdotaccent" horiz-adv-x="1061" unicode="ċ"/><glyph d="M1267 950q0 2 -0.5 11.5t-0.5 16.5q-13 128 -109.5 204.5t-239.5 76.5q-151 0 -269.5 -83.5t-183.5 -231.5t-65 -335q0 -197 101 -310.5t277 -113.5q137 0 242.5 71t153.5 196h223q-55 -216 -226 -345.5t-400 -129.5q-276 0 -439 168.5t-163 452.5q0 248 96 446t270 310 t393 112q241 0 396.5 -131.5t166.5 -348.5q1 -23 0 -36h-223zM870 1556l-213 307h176l132 -192h6l213 192h195l-342 -307h-167z" glyph-name="Ccaron" horiz-adv-x="1427" unicode="Č"/><glyph d="M658 1076q199 0 314 -108.5t115 -265.5q0 -13 -1 -18h-206q-3 86 -64 143t-164 57q-144 0 -235.5 -122t-91.5 -314q0 -128 63 -202.5t169 -74.5q94 0 162 50t98 136h209q-36 -164 -168 -270.5t-306 -106.5q-211 0 -327.5 126t-116.5 333q0 277 153.5 457t396.5 180z M798 1220h-167l-203 308h173l123 -192h7l205 192h196z" glyph-name="ccaron" horiz-adv-x="1061" unicode="č"/><glyph d="M376 1443h452q282 0 443.5 -153.5t161.5 -425.5q0 -252 -97 -448.5t-273.5 -306t-403.5 -109.5h-589zM563 1241l-225 -1039h299q163 0 291.5 79.5t201 224t72.5 328.5q0 199 -106.5 303t-310.5 104h-222zM747 1554l-213 307h176l132 -192h6l213 192h195l-342 -307h-167z" glyph-name="Dcaron" horiz-adv-x="1427" unicode="Ď"/><glyph d="M1453 1443h198l-155 -495h-148zM491 -18q-176 0 -280 120t-104 322q0 183 69 332t190 233t268 84q122 0 213.5 -63t116.5 -160h5l129 593h214l-307 -1443h-213l35 163h-5q-50 -81 -139.5 -131t-191.5 -50zM559 171q146 0 243.5 127.5t97.5 316.5q0 118 -67.5 192 t-179.5 74q-140 0 -234.5 -123t-94.5 -312q0 -128 62.5 -201.5t172.5 -73.5z" glyph-name="dcaron" horiz-adv-x="1410" unicode="ď"/><glyph d="M338 202h299q163 0 291.5 79.5t201 224t72.5 328.5q0 199 -106.5 303t-310.5 104h-222l-88 -405h300l-41 -204h-303zM376 1443h452q282 0 443.5 -153.5t161.5 -425.5q0 -252 -97 -448.5t-273.5 -306t-403.5 -109.5h-589l134 632h-134l41 204h136z" glyph-name="Dcroat" horiz-adv-x="1427" unicode="Đ"/><glyph d="M559 171q146 0 243.5 127.5t97.5 316.5q0 118 -67.5 192t-179.5 74q-140 0 -234.5 -123t-94.5 -312q0 -128 62.5 -201.5t172.5 -73.5zM1401 1342l-31 -154h-112l-253 -1188h-213l35 163h-5q-50 -81 -139.5 -131t-191.5 -50q-176 0 -280 120t-104 322q0 183 69 332 t190 233t268 84q122 0 213.5 -63t116.5 -160h5l74 338h-239l33 154h239l22 101h214l-21 -101h110z" glyph-name="dcroat" horiz-adv-x="1182" unicode="đ"/><glyph d="M1027 204l-40 -204h-918l307 1443h918l-42 -204h-690l-90 -408h653l-40 -194h-652l-95 -433h689zM1225 1759l-27 -132h-655l28 132h654z" glyph-name="Emacron" horiz-adv-x="1147" unicode="Ē"/><glyph d="M343 633h524q1 8 1 29q0 99 -58 165.5t-172 66.5q-109 0 -187 -72.5t-108 -188.5zM553 -22q-212 0 -328.5 128.5t-116.5 341.5q0 174 67.5 317t190.5 227t277 84q200 0 317.5 -121t117.5 -327q0 -86 -11 -152h-749q-1 -12 -1 -35q0 -128 65.5 -203.5t175.5 -75.5 q96 0 165 45t101 123h207q-42 -154 -173 -253t-305 -99zM1033 1412l-27 -131h-597l26 131h598z" glyph-name="emacron" horiz-adv-x="1093" unicode="ē"/><glyph d="M1027 204l-40 -204h-918l307 1443h918l-42 -204h-690l-90 -408h653l-40 -194h-652l-95 -433h689zM583 1853h145q-7 -23 -7 -47q0 -65 41 -102t113 -37q84 0 147.5 50t82.5 136h147q-32 -145 -136.5 -228.5t-262.5 -83.5q-123 0 -201 67t-78 174q0 33 9 71z" glyph-name="Ebreve" horiz-adv-x="1147" unicode="Ĕ"/><glyph d="M343 633h524q1 8 1 29q0 99 -58 165.5t-172 66.5q-109 0 -187 -72.5t-108 -188.5zM553 -22q-212 0 -328.5 128.5t-116.5 341.5q0 174 67.5 317t190.5 227t277 84q200 0 317.5 -121t117.5 -327q0 -86 -11 -152h-749q-1 -12 -1 -35q0 -128 65.5 -203.5t175.5 -75.5 q96 0 165 45t101 123h207q-42 -154 -173 -253t-305 -99zM421 1528h145q-7 -24 -7 -47q0 -66 41 -104t113 -38q84 0 147.5 51t82.5 138h147q-33 -148 -137.5 -232t-261.5 -84q-120 0 -199.5 69t-79.5 177q0 30 9 70z" glyph-name="ebreve" horiz-adv-x="1093" unicode="ĕ"/><glyph d="M1027 204l-40 -204h-918l307 1443h918l-42 -204h-690l-90 -408h653l-40 -194h-652l-95 -433h689zM890 1609q-55 0 -94.5 40t-39.5 96t39.5 96t94.5 40t94 -40t39 -96t-39 -96t-94 -40z" glyph-name="Edotaccent" horiz-adv-x="1147" unicode="Ė"/><glyph d="M343 633h524q1 8 1 29q0 99 -58 165.5t-172 66.5q-109 0 -187 -72.5t-108 -188.5zM553 -22q-212 0 -328.5 128.5t-116.5 341.5q0 174 67.5 317t190.5 227t277 84q200 0 317.5 -121t117.5 -327q0 -86 -11 -152h-749q-1 -12 -1 -35q0 -128 65.5 -203.5t175.5 -75.5 q96 0 165 45t101 123h207q-42 -154 -173 -253t-305 -99zM714 1221q-55 0 -94 40t-39 96t39 96t94 40t94.5 -40t39.5 -96t-39.5 -96t-94.5 -40z" glyph-name="edotaccent" horiz-adv-x="1093" unicode="ė"/><glyph d="M69 0l307 1443h918l-42 -204h-690l-91 -408h654l-40 -194h-652l-96 -433h690l-38 -193l-24 -12q-108 -57 -166 -115t-58 -108q0 -35 25.5 -54t71.5 -19q44 0 73 12l-28 -136q-37 -22 -123 -22q-90 0 -145.5 45t-55.5 118t58 146t163 130l1 4h-712z" glyph-name="Eogonek" horiz-adv-x="1147" unicode="Ę"/><glyph d="M583 -430q-91 0 -146 45t-55 117q0 142 178 243v3h-7q-212 0 -328.5 128.5t-116.5 341.5q0 174 67.5 317t190.5 227t277 84q200 0 317.5 -121t117.5 -327q0 -86 -11 -152h-749q-1 -12 -1 -35q0 -128 65.5 -203.5t175.5 -75.5q96 0 165 45t101 123h207q-23 -82 -70 -150 t-112 -108q-285 -168 -285 -280q0 -35 26 -55.5t70 -20.5q48 0 73 12l-27 -136q-34 -22 -123 -22zM343 633h524q1 8 1 29q0 99 -58 165.5t-172 66.5q-109 0 -187 -72.5t-108 -188.5z" glyph-name="eogonek" horiz-adv-x="1093" unicode="ę"/><glyph d="M1027 204l-40 -204h-918l307 1443h918l-42 -204h-690l-90 -408h653l-40 -194h-652l-95 -433h689zM775 1554l-213 307h176l132 -192h6l213 192h195l-342 -307h-167z" glyph-name="Ecaron" horiz-adv-x="1147" unicode="Ě"/><glyph d="M343 633h524q1 8 1 29q0 99 -58 165.5t-172 66.5q-109 0 -187 -72.5t-108 -188.5zM553 -22q-212 0 -328.5 128.5t-116.5 341.5q0 174 67.5 317t190.5 227t277 84q200 0 317.5 -121t117.5 -327q0 -86 -11 -152h-749q-1 -12 -1 -35q0 -128 65.5 -203.5t175.5 -75.5 q96 0 165 45t101 123h207q-42 -154 -173 -253t-305 -99zM784 1220h-167l-203 308h173l123 -192h7l205 192h196z" glyph-name="ecaron" horiz-adv-x="1093" unicode="ě"/><glyph d="M1477 749l-43 -205q-55 -270 -230.5 -418.5t-431.5 -148.5q-280 0 -442 171.5t-162 453.5q0 128 29 250.5t91 234t149.5 195.5t213 134t273.5 50q253 0 409 -137.5t161 -349.5v-18h-222q-10 137 -103.5 218t-246.5 81q-107 0 -195.5 -38t-148.5 -101.5t-101.5 -148 t-60.5 -175.5t-19 -186q0 -196 100.5 -312.5t283.5 -116.5q160 0 276.5 92.5t148.5 244.5l9 42h-370l39 188h593zM1087 1861l213 -307h-176l-131 192h-7l-213 -192h-195l342 307h167z" glyph-name="Gcircumflex" horiz-adv-x="1469" unicode="Ĝ"/><glyph d="M471 -398q-194 0 -319 88.5t-125 230.5h216q10 -66 72.5 -105.5t159.5 -39.5q254 0 318 259l33 145h-6q-48 -79 -137 -126.5t-189 -47.5q-174 0 -280 118t-106 314q0 123 36 236.5t101.5 202.5t166.5 142.5t221 53.5q121 0 210 -64.5t117 -166.5h8l43 213h210l-214 -1023 q-45 -210 -186 -320t-350 -110zM561 185q151 0 244.5 125.5t93.5 304.5q0 117 -70.5 191.5t-175.5 74.5q-147 0 -238.5 -122.5t-91.5 -305.5q0 -122 62 -195t176 -73zM918 1528l204 -308h-179l-123 189h-7l-205 -189h-191l335 308h166z" glyph-name="gcircumflex" horiz-adv-x="1170" unicode="ĝ"/><glyph d="M1477 749l-43 -205q-55 -270 -230.5 -418.5t-431.5 -148.5q-280 0 -442 171.5t-162 453.5q0 128 29 250.5t91 234t149.5 195.5t213 134t273.5 50q253 0 409 -137.5t161 -349.5v-18h-222q-10 137 -103.5 218t-246.5 81q-107 0 -195.5 -38t-148.5 -101.5t-101.5 -148 t-60.5 -175.5t-19 -186q0 -196 100.5 -312.5t283.5 -116.5q160 0 276.5 92.5t148.5 244.5l9 42h-370l39 188h593zM677 1853h145q-7 -23 -7 -47q0 -65 41 -102t113 -37q84 0 147.5 50t82.5 136h147q-32 -145 -136.5 -228.5t-262.5 -83.5q-123 0 -201 67t-78 174q0 33 9 71z" glyph-name="Gbreve" horiz-adv-x="1469" unicode="Ğ"/><glyph d="M471 -398q-194 0 -319 88.5t-125 230.5h216q10 -66 72.5 -105.5t159.5 -39.5q254 0 318 259l33 145h-6q-48 -79 -137 -126.5t-189 -47.5q-174 0 -280 118t-106 314q0 123 36 236.5t101.5 202.5t166.5 142.5t221 53.5q121 0 210 -64.5t117 -166.5h8l43 213h210l-214 -1023 q-45 -210 -186 -320t-350 -110zM561 185q151 0 244.5 125.5t93.5 304.5q0 117 -70.5 191.5t-175.5 74.5q-147 0 -238.5 -122.5t-91.5 -305.5q0 -122 62 -195t176 -73zM497 1528h145q-7 -24 -7 -47q0 -66 41 -104t113 -38q84 0 147.5 51t82.5 138h147q-33 -148 -137.5 -232 t-261.5 -84q-120 0 -199.5 69t-79.5 177q0 30 9 70z" glyph-name="gbreve" horiz-adv-x="1170" unicode="ğ"/><glyph d="M1477 749l-43 -205q-55 -270 -230.5 -418.5t-431.5 -148.5q-280 0 -442 171.5t-162 453.5q0 128 29 250.5t91 234t149.5 195.5t213 134t273.5 50q253 0 409 -137.5t161 -349.5v-18h-222q-10 137 -103.5 218t-246.5 81q-107 0 -195.5 -38t-148.5 -101.5t-101.5 -148 t-60.5 -175.5t-19 -186q0 -196 100.5 -312.5t283.5 -116.5q160 0 276.5 92.5t148.5 244.5l9 42h-370l39 188h593zM985 1609q-55 0 -94.5 40t-39.5 96t39.5 96t94.5 40t94 -40t39 -96t-39 -96t-94 -40z" glyph-name="Gdotaccent" horiz-adv-x="1469" unicode="Ġ"/><glyph d="M471 -398q-194 0 -319 88.5t-125 230.5h216q10 -66 72.5 -105.5t159.5 -39.5q254 0 318 259l33 145h-6q-48 -79 -137 -126.5t-189 -47.5q-174 0 -280 118t-106 314q0 123 36 236.5t101.5 202.5t166.5 142.5t221 53.5q121 0 210 -64.5t117 -166.5h8l43 213h210l-214 -1023 q-45 -210 -186 -320t-350 -110zM561 185q151 0 244.5 125.5t93.5 304.5q0 117 -70.5 191.5t-175.5 74.5q-147 0 -238.5 -122.5t-91.5 -305.5q0 -122 62 -195t176 -73zM790 1221q-55 0 -94 40t-39 96t39 96t94 40t94.5 -40t39.5 -96t-39.5 -96t-94.5 -40z" glyph-name="gdotaccent" horiz-adv-x="1170" unicode="ġ"/><glyph d="M1477 749l-43 -205q-55 -270 -230.5 -418.5t-431.5 -148.5q-280 0 -442 171.5t-162 453.5q0 128 29 250.5t91 234t149.5 195.5t213 134t273.5 50q253 0 409 -137.5t161 -349.5v-18h-222q-10 137 -103.5 218t-246.5 81q-107 0 -195.5 -38t-148.5 -101.5t-101.5 -148 t-60.5 -175.5t-19 -186q0 -196 100.5 -312.5t283.5 -116.5q160 0 276.5 92.5t148.5 244.5l9 42h-370l39 188h593zM616 -476h-165l189 350h199z" glyph-name="Gcommaaccent" horiz-adv-x="1469" unicode="Ģ"/><glyph d="M471 -398q-194 0 -319 88.5t-125 230.5h216q10 -66 72.5 -105.5t159.5 -39.5q254 0 318 259l33 145h-6q-48 -79 -137 -126.5t-189 -47.5q-174 0 -280 118t-106 314q0 123 36 236.5t101.5 202.5t166.5 142.5t221 53.5q121 0 210 -64.5t117 -166.5h8l43 213h210l-214 -1023 q-45 -210 -186 -320t-350 -110zM561 185q151 0 244.5 125.5t93.5 304.5q0 117 -70.5 191.5t-175.5 74.5q-147 0 -238.5 -122.5t-91.5 -305.5q0 -122 62 -195t176 -73zM1013 1532h165l-189 -350h-199z" glyph-name="gcommaaccent" horiz-adv-x="1170" unicode="ģ"/><glyph d="M1261 0h-229l136 634h-734l-136 -634h-229l307 1443h229l-130 -606h734l130 606h229zM1128 1861l213 -307h-176l-131 192h-7l-213 -192h-195l342 307h167z" glyph-name="Hcircumflex" horiz-adv-x="1460" unicode="Ĥ"/><glyph d="M46 0l307 1443h214l-118 -551h5q49 81 137.5 131.5t202.5 50.5q148 0 241 -90t93 -220q0 -55 -14 -125l-139 -639h-214l131 602q12 53 12 94q0 85 -57 137t-155 52q-111 0 -192 -70.5t-106 -184.5l-133 -630h-215zM623 1861l213 -307h-176l-131 192h-7l-213 -192h-195 l342 307h167z" glyph-name="hcircumflex" horiz-adv-x="1145" unicode="ĥ"/><glyph d="M1209 837l47 217h-734l-47 -217h734zM1627 1241l-39 -187h-103l-224 -1054h-229l136 634h-734l-136 -634h-229l224 1054h-106l38 187h108l43 202h229l-43 -202h734l43 202h229l-43 -202h102z" glyph-name="Hbar" horiz-adv-x="1460" unicode="Ħ"/><glyph d="M449 892h5q49 81 137.5 131.5t202.5 50.5q148 0 241 -90t93 -220q0 -55 -14 -125l-139 -639h-214l131 602q12 53 12 94q0 85 -57 137t-155 52q-111 0 -192 -70.5t-106 -184.5l-133 -630h-215l254 1196h-111l29 138h112l23 109h214l-23 -109h234l-29 -138h-235z" glyph-name="hbar" horiz-adv-x="1145" unicode="ħ"/><glyph d="M296 0h-227l307 1443h227zM665 1546q-37 0 -68.5 15t-52.5 36t-39.5 42t-39 36t-41.5 15q-35 0 -62.5 -34.5t-39.5 -97.5h-134q22 123 87.5 193.5t155.5 70.5q39 0 71.5 -15t53.5 -36t39 -42t37.5 -36t39.5 -15q32 0 59 34.5t42 99.5h133q-25 -122 -90.5 -194t-150.5 -72 z" glyph-name="Itilde" horiz-adv-x="496" unicode="Ĩ"/><glyph d="M51 0l224 1055h215l-223 -1055h-216zM566 1226q-37 0 -68.5 15t-52.5 36t-39.5 42t-39 36t-41.5 15q-35 0 -62.5 -34.5t-39.5 -97.5h-134q22 123 87.5 193.5t155.5 70.5q39 0 71.5 -15t53.5 -36t39 -42t37.5 -36t39.5 -15q32 0 59 34.5t42 99.5h133q-25 -122 -90.5 -194 t-150.5 -72z" glyph-name="itilde" horiz-adv-x="449" unicode="ĩ"/><glyph d="M296 0h-227l307 1443h227zM885 1759l-27 -132h-655l28 132h654z" glyph-name="Imacron" horiz-adv-x="496" unicode="Ī"/><glyph d="M51 0l224 1055h215l-223 -1055h-216zM681 1412l-22 -131h-508l22 131h508z" glyph-name="imacron" horiz-adv-x="449" unicode="ī"/><glyph d="M296 0h-227l307 1443h227zM243 1853h145q-7 -23 -7 -47q0 -65 41 -102t113 -37q84 0 147.5 50t82.5 136h147q-32 -145 -136.5 -228.5t-262.5 -83.5q-123 0 -201 67t-78 174q0 33 9 71z" glyph-name="Ibreve" horiz-adv-x="496" unicode="Ĭ"/><glyph d="M51 0l224 1055h215l-223 -1055h-216zM150 1528h145q-7 -24 -7 -47q0 -66 41 -104t113 -38q84 0 147.5 51t82.5 138h147q-33 -148 -137.5 -232t-261.5 -84q-120 0 -199.5 69t-79.5 177q0 30 9 70z" glyph-name="ibreve" horiz-adv-x="449" unicode="ĭ"/><glyph d="M111 -443q-90 0 -145.5 45t-55.5 119q0 122 167 264l-11 1l310 1457h227l-304 -1429l-21 -13q-186 -114 -186 -221q0 -37 25.5 -57t71.5 -20q49 0 73 12l-28 -136q-37 -22 -123 -22z" glyph-name="Iogonek" horiz-adv-x="496" unicode="Į"/><glyph d="M196 -408q-37 -22 -123 -22q-90 0 -145 45t-55 117q0 70 41 131.5t124 123.5l227 1068h216l-223 -1048l-27 -14q-73 -38 -125 -96.5t-52 -107.5q0 -34 26 -53.5t71 -19.5q46 0 73 12zM431 1204q-53 0 -89.5 37.5t-36.5 91.5t36.5 91.5t89.5 37.5t89.5 -37.5t36.5 -91.5 t-36.5 -91.5t-89.5 -37.5z" glyph-name="iogonek" horiz-adv-x="429" unicode="į"/><glyph d="M296 0h-227l307 1443h227zM551 1609q-55 0 -94.5 40t-39.5 96t39.5 96t94.5 40t94 -40t39 -96t-39 -96t-94 -40z" glyph-name="Idotaccent" horiz-adv-x="496" unicode="İ"/><glyph d="M51 0l224 1055h215l-223 -1055h-216z" glyph-name="dotlessi" horiz-adv-x="449" unicode="ı"/><glyph d="M296 0h-227l307 1443h227zM556 355q0 25 1 34h222v-6q0 -89 55.5 -140.5t150.5 -51.5q192 0 244 242l215 1010h227l-224 -1052q-42 -200 -163.5 -307.5t-313.5 -107.5q-181 0 -297.5 107t-116.5 272z" glyph-name="IJ" horiz-adv-x="1564" unicode="Ĳ"/><glyph d="M48 0l223 1055h216l-223 -1055h-216zM438 1204q-53 0 -89.5 37.5t-36.5 91.5t36.5 91.5t89.5 37.5t89.5 -37.5t36.5 -91.5t-36.5 -91.5t-89.5 -37.5zM887 1204q-53 0 -89.5 37.5t-36.5 91.5t36.5 91.5t89.5 37.5q52 0 88.5 -37.5t36.5 -91.5t-36.5 -91.5t-88.5 -37.5z M930 1055l-241 -1129q-63 -293 -362 -295q-43 0 -96 7l39 181q40 -4 53 -4q68 0 103.5 32t52.5 106l235 1102h216z" glyph-name="ij" horiz-adv-x="884" unicode="ĳ"/><glyph d="M60 355q0 25 1 34h222v-6q0 -89 55.5 -140.5t150.5 -51.5q192 0 244 242l215 1010h227l-224 -1052q-42 -200 -163.5 -307.5t-313.5 -107.5q-181 0 -297.5 107t-116.5 272zM1225 1861l213 -307h-176l-131 192h-7l-213 -192h-195l342 307h167z" glyph-name="Jcircumflex" horiz-adv-x="1068" unicode="Ĵ"/><glyph d="M488 1055l-241 -1129q-63 -293 -362 -295q-43 0 -96 7l39 181q40 -4 53 -4q68 0 103.5 32t52.5 106l235 1102h216zM572 1528l204 -308h-179l-123 189h-7l-205 -189h-191l335 308h166z" glyph-name="jcircumflex" horiz-adv-x="442" unicode="ĵ"/><glyph d="M296 0h-227l307 1443h227l-145 -674h5l737 674h282l-702 -654l436 -789h-256l-360 646l-204 -182zM457 -476h-165l189 350h199z" glyph-name="Kcommaaccent" horiz-adv-x="1295" unicode="Ķ"/><glyph d="M262 0h-216l307 1443h216l-176 -815h5l504 427h264l-514 -442l313 -613h-237l-249 485l-136 -108zM339 -476h-165l189 350h199z" glyph-name="kcommaaccent" horiz-adv-x="1012" unicode="ķ"/><glyph d="M1012 206l-41 -206h-902l307 1443h227l-265 -1237h674zM611 1559h-191l285 296h231z" glyph-name="Lacute" horiz-adv-x="1092" unicode="Ĺ"/><glyph d="M52 0l307 1443h216l-307 -1443h-216zM590 1559h-191l285 296h231z" glyph-name="lacute" horiz-adv-x="451" unicode="ĺ"/><glyph d="M1012 206l-41 -206h-902l307 1443h227l-265 -1237h674zM370 -476h-165l189 350h199z" glyph-name="Lcommaaccent" horiz-adv-x="1092" unicode="Ļ"/><glyph d="M52 0l307 1443h216l-307 -1443h-216zM9 -476h-165l189 350h199z" glyph-name="lcommaaccent" horiz-adv-x="451" unicode="ļ"/><glyph d="M918 1443h197l-155 -495h-147zM1012 206l-41 -206h-902l307 1443h227l-265 -1237h674z" glyph-name="Lcaron" horiz-adv-x="1092" unicode="Ľ"/><glyph d="M720 1443h197l-155 -495h-147zM52 0l307 1443h216l-307 -1443h-216z" glyph-name="lcaron" horiz-adv-x="676" unicode="ľ"/><glyph d="M338 206h674l-41 -206h-902l112 529l-147 -70l40 199l150 71l152 714h227l-128 -596l326 154l-40 -199l-329 -155z" glyph-name="Lslash" horiz-adv-x="1092" unicode="Ł"/><glyph d="M575 1443l-119 -561l118 57l-42 -201l-119 -58l-145 -680h-216l120 564l-114 -55l42 201l115 55l144 678h216z" glyph-name="lslash" horiz-adv-x="451" unicode="ł"/><glyph d="M293 0h-224l307 1443h208l508 -1082h5l234 1082h224l-307 -1443h-209l-507 1082h-5zM1087 1559h-191l285 296h231z" glyph-name="Nacute" horiz-adv-x="1448" unicode="Ń"/><glyph d="M41 0l224 1055h205l-35 -163h5q54 87 142 135.5t199 48.5q143 0 237 -87t94 -221q0 -57 -14 -129l-135 -639h-215l128 602q12 57 12 98q0 85 -57 135t-151 50q-106 0 -185.5 -69.5t-104.5 -185.5l-134 -630h-215zM857 1224h-187l278 305h224z" glyph-name="nacute" horiz-adv-x="1129" unicode="ń"/><glyph d="M293 0h-224l307 1443h208l508 -1082h5l234 1082h224l-307 -1443h-209l-507 1082h-5zM512 -476h-165l189 350h199z" glyph-name="Ncommaaccent" horiz-adv-x="1448" unicode="Ņ"/><glyph d="M41 0l224 1055h205l-35 -163h5q54 87 142 135.5t199 48.5q143 0 237 -87t94 -221q0 -57 -14 -129l-135 -639h-215l128 602q12 57 12 98q0 85 -57 135t-151 50q-106 0 -185.5 -69.5t-104.5 -185.5l-134 -630h-215zM349 -476h-165l189 350h199z" glyph-name="ncommaaccent" horiz-adv-x="1129" unicode="ņ"/><glyph d="M293 0h-224l307 1443h208l508 -1082h5l234 1082h224l-307 -1443h-209l-507 1082h-5zM910 1554l-213 307h176l132 -192h6l213 192h195l-342 -307h-167z" glyph-name="Ncaron" horiz-adv-x="1448" unicode="Ň"/><glyph d="M41 0l224 1055h205l-35 -163h5q54 87 142 135.5t199 48.5q143 0 237 -87t94 -221q0 -57 -14 -129l-135 -639h-215l128 602q12 57 12 98q0 85 -57 135t-151 50q-106 0 -185.5 -69.5t-104.5 -185.5l-134 -630h-215zM851 1220h-167l-203 308h173l123 -192h7l205 192h196z" glyph-name="ncaron" horiz-adv-x="1129" unicode="ň"/><glyph d="M926 1260q-152 0 -274 -87t-188.5 -234.5t-66.5 -325.5q0 -197 104.5 -313.5t279.5 -116.5q152 0 273.5 87t188.5 235t67 326q0 196 -104.5 312.5t-279.5 116.5zM778 -23q-277 0 -443.5 172t-166.5 453q0 240 98 438t272 312t389 114q278 0 445 -172t167 -453 q0 -240 -98.5 -438t-273 -312t-389.5 -114zM1340 1759l-27 -132h-655l28 132h654z" glyph-name="Omacron" horiz-adv-x="1530" unicode="Ō"/><glyph d="M565 169q145 0 240 124t95 309q0 129 -65 207t-175 78q-145 0 -240 -124t-95 -310q0 -129 65 -206.5t175 -77.5zM664 1076q206 0 329.5 -128t123.5 -340q0 -132 -42.5 -248t-116 -199.5t-176.5 -132t-220 -48.5q-206 0 -330 128t-124 339q0 176 72 320t199.5 226.5 t284.5 82.5zM1049 1412l-27 -131h-597l26 131h598z" glyph-name="omacron" horiz-adv-x="1133" unicode="ō"/><glyph d="M926 1260q-152 0 -274 -87t-188.5 -234.5t-66.5 -325.5q0 -197 104.5 -313.5t279.5 -116.5q152 0 273.5 87t188.5 235t67 326q0 196 -104.5 312.5t-279.5 116.5zM778 -23q-277 0 -443.5 172t-166.5 453q0 240 98 438t272 312t389 114q278 0 445 -172t167 -453 q0 -240 -98.5 -438t-273 -312t-389.5 -114zM698 1853h145q-7 -23 -7 -47q0 -65 41 -102t113 -37q84 0 147.5 50t82.5 136h147q-32 -145 -136.5 -228.5t-262.5 -83.5q-123 0 -201 67t-78 174q0 33 9 71z" glyph-name="Obreve" horiz-adv-x="1530" unicode="Ŏ"/><glyph d="M565 169q145 0 240 124t95 309q0 129 -65 207t-175 78q-145 0 -240 -124t-95 -310q0 -129 65 -206.5t175 -77.5zM664 1076q206 0 329.5 -128t123.5 -340q0 -132 -42.5 -248t-116 -199.5t-176.5 -132t-220 -48.5q-206 0 -330 128t-124 339q0 176 72 320t199.5 226.5 t284.5 82.5zM437 1528h145q-7 -24 -7 -47q0 -66 41 -104t113 -38q84 0 147.5 51t82.5 138h147q-33 -148 -137.5 -232t-261.5 -84q-120 0 -199.5 69t-79.5 177q0 30 9 70z" glyph-name="obreve" horiz-adv-x="1133" unicode="ŏ"/><glyph d="M926 1260q-152 0 -274 -87t-188.5 -234.5t-66.5 -325.5q0 -197 104.5 -313.5t279.5 -116.5q152 0 273.5 87t188.5 235t67 326q0 196 -104.5 312.5t-279.5 116.5zM778 -23q-277 0 -443.5 172t-166.5 453q0 240 98 438t272 312t389 114q278 0 445 -172t167 -453 q0 -240 -98.5 -438t-273 -312t-389.5 -114zM1243 1559h-185l285 296h225zM887 1559h-185l285 296h225z" glyph-name="Ohungarumlaut" horiz-adv-x="1530" unicode="Ő"/><glyph d="M565 169q145 0 240 124t95 309q0 129 -65 207t-175 78q-145 0 -240 -124t-95 -310q0 -129 65 -206.5t175 -77.5zM664 1076q206 0 329.5 -128t123.5 -340q0 -132 -42.5 -248t-116 -199.5t-176.5 -132t-220 -48.5q-206 0 -330 128t-124 339q0 176 72 320t199.5 226.5 t284.5 82.5zM798 1224l259 305h213l-301 -305h-171zM461 1224l259 305h213l-302 -305h-170z" glyph-name="ohungarumlaut" horiz-adv-x="1133" unicode="ő"/><glyph d="M1180 0l34 159h-4q-86 -89 -201.5 -135.5t-244.5 -46.5q-268 0 -431 171.5t-163 454.5q0 178 57.5 337t157 275t241.5 183.5t304 67.5q170 0 297.5 -72t200.5 -208h4l55 257h898l-42 -204h-690l-91 -408h654l-39 -194h-654l-96 -433h692l-41 -204h-898zM1311 831 q0 196 -104 312.5t-280 116.5q-152 0 -273.5 -87.5t-188 -235t-66.5 -324.5q0 -196 104 -313t279 -117q152 0 274 87.5t188.5 235t66.5 325.5z" glyph-name="OE" horiz-adv-x="2244" unicode="Œ"/><glyph d="M1336 -20q-127 0 -224 56t-142 153h-7q-62 -99 -169 -154t-233 -55q-207 0 -330 127t-123 340q0 175 72 319t199.5 227t282.5 83q266 0 376 -208h6q59 92 166.5 150t227.5 58q193 0 307.5 -122t114.5 -326q0 -84 -11 -152h-748v-30q0 -130 65.5 -207t178.5 -77 q95 0 162.5 43.5t98.5 124.5h206q-41 -156 -172.5 -253t-303.5 -97zM1125 633h524q2 14 2 29q0 105 -60 168.5t-157 63.5q-114 0 -194.5 -70t-114.5 -191zM326 451q0 -130 64 -207t173 -77q144 0 239.5 125.5t95.5 311.5q0 130 -64 207t-173 77q-144 0 -239.5 -125.5 t-95.5 -311.5z" glyph-name="oe" horiz-adv-x="1874" unicode="œ"/><glyph d="M1242 1855l-325 -296h-191l285 296h231zM453 741h319q149 0 243 80.5t94 206.5q0 101 -62.5 159.5t-171.5 58.5h-312zM376 1443h531q205 0 319.5 -107t114.5 -286q0 -168 -102 -298t-278 -173l195 -579h-236l-180 550h-325l-118 -550h-228z" glyph-name="Racute" horiz-adv-x="1292" unicode="Ŕ"/><glyph d="M41 0l224 1055h205l-29 -143h4q104 159 288 159q75 0 125 -25l-43 -208q-56 26 -137 26q-124 0 -195.5 -67.5t-101.5 -202.5l-126 -594h-214zM670 1224h-187l278 305h224z" glyph-name="racute" horiz-adv-x="733" unicode="ŕ"/><glyph d="M290 -476l189 350h199l-223 -350h-165zM453 741h319q149 0 243 80.5t94 206.5q0 101 -62.5 159.5t-171.5 58.5h-312zM376 1443h531q205 0 319.5 -107t114.5 -286q0 -168 -102 -298t-278 -173l195 -579h-236l-180 550h-325l-118 -550h-228z" glyph-name="Rcommaaccent" horiz-adv-x="1292" unicode="Ŗ"/><glyph d="M41 0l224 1055h205l-29 -143h4q104 159 288 159q75 0 125 -25l-43 -208q-56 26 -137 26q-124 0 -195.5 -67.5t-101.5 -202.5l-126 -594h-214zM3 -476h-165l189 350h199z" glyph-name="rcommaaccent" horiz-adv-x="733" unicode="ŗ"/><glyph d="M907 1554h-167l-213 307h176l132 -192h6l213 192h195zM453 741h319q149 0 243 80.5t94 206.5q0 101 -62.5 159.5t-171.5 58.5h-312zM376 1443h531q205 0 319.5 -107t114.5 -286q0 -168 -102 -298t-278 -173l195 -579h-236l-180 550h-325l-118 -550h-228z" glyph-name="Rcaron" horiz-adv-x="1292" unicode="Ř"/><glyph d="M41 0l224 1055h205l-29 -143h4q104 159 288 159q75 0 125 -25l-43 -208q-56 26 -137 26q-124 0 -195.5 -67.5t-101.5 -202.5l-126 -594h-214zM664 1220h-167l-203 308h173l123 -192h7l205 192h196z" glyph-name="rcaron" horiz-adv-x="733" unicode="ř"/><glyph d="M93 424h221q14 -111 109 -179.5t244 -68.5q134 0 219.5 57.5t85.5 157.5q0 83 -54.5 132.5t-184.5 89.5l-106 34q-182 56 -270 150t-88 238q0 193 144.5 312t373.5 119q234 0 379 -115t145 -312h-217q-5 103 -87 165.5t-220 62.5q-136 0 -212 -61t-76 -147 q0 -73 56 -122.5t179 -87.5l107 -34q185 -57 274.5 -149t89.5 -232q0 -93 -36 -175t-103 -145t-171 -100t-231 -37q-243 0 -403.5 120.5t-167.5 326.5zM955 1559h-191l285 296h231z" glyph-name="Sacute" horiz-adv-x="1255" unicode="Ś"/><glyph d="M181 751q0 143 113 233.5t295 90.5q177 0 289 -92t114 -238h-200q-6 70 -63.5 115t-142.5 45q-90 0 -143.5 -37.5t-53.5 -96.5q0 -49 36.5 -79.5t130.5 -59.5l97 -31q143 -47 205.5 -113t62.5 -170q0 -148 -119.5 -243t-305.5 -95q-193 0 -312.5 94t-124.5 243h210 q11 -75 73 -120.5t163 -45.5q87 0 144.5 42.5t57.5 105.5q0 45 -33.5 71.5t-127.5 55.5l-91 29q-144 46 -209 116.5t-65 179.5zM728 1224h-187l278 305h224z" glyph-name="sacute" horiz-adv-x="986" unicode="ś"/><glyph d="M93 424h221q14 -111 109 -179.5t244 -68.5q134 0 219.5 57.5t85.5 157.5q0 83 -54.5 132.5t-184.5 89.5l-106 34q-182 56 -270 150t-88 238q0 193 144.5 312t373.5 119q234 0 379 -115t145 -312h-217q-5 103 -87 165.5t-220 62.5q-136 0 -212 -61t-76 -147 q0 -73 56 -122.5t179 -87.5l107 -34q185 -57 274.5 -149t89.5 -232q0 -93 -36 -175t-103 -145t-171 -100t-231 -37q-243 0 -403.5 120.5t-167.5 326.5zM996 1861l213 -307h-176l-131 192h-7l-213 -192h-195l342 307h167z" glyph-name="Scircumflex" horiz-adv-x="1255" unicode="Ŝ"/><glyph d="M181 751q0 143 113 233.5t295 90.5q177 0 289 -92t114 -238h-200q-6 70 -63.5 115t-142.5 45q-90 0 -143.5 -37.5t-53.5 -96.5q0 -49 36.5 -79.5t130.5 -59.5l97 -31q143 -47 205.5 -113t62.5 -170q0 -148 -119.5 -243t-305.5 -95q-193 0 -312.5 94t-124.5 243h210 q11 -75 73 -120.5t163 -45.5q87 0 144.5 42.5t57.5 105.5q0 45 -33.5 71.5t-127.5 55.5l-91 29q-144 46 -209 116.5t-65 179.5zM780 1528l204 -308h-179l-123 189h-7l-205 -189h-191l335 308h166z" glyph-name="scircumflex" horiz-adv-x="986" unicode="ŝ"/><glyph d="M734 849l107 -34q185 -57 274.5 -149t89.5 -232q0 -89 -33 -168.5t-94.5 -141.5t-157 -101t-212.5 -45l-63 -103q85 0 132 -38t47 -108q0 -92 -72 -149.5t-188 -57.5q-99 0 -170 26l26 125q61 -22 133 -22q123 0 123 64q0 31 -34.5 45t-112.5 14h-59l19 85l73 124 q-204 25 -333.5 141.5t-135.5 299.5h221q14 -111 109 -179.5t244 -68.5q134 0 219.5 57.5t85.5 157.5q0 83 -54.5 132.5t-184.5 89.5l-106 34q-182 56 -270 150t-88 238q0 193 144.5 312t373.5 119q234 0 379 -115t145 -312h-217q-5 103 -87 165.5t-220 62.5 q-136 0 -212 -61t-76 -147q0 -73 56 -122.5t179 -87.5z" glyph-name="Scedilla" horiz-adv-x="1255" unicode="Ş"/><glyph d="M556 632l97 -31q143 -47 205.5 -113t62.5 -170q0 -136 -102.5 -228.5t-266.5 -107.5l-65 -107q85 0 132 -38t47 -108q0 -92 -72 -149.5t-188 -57.5q-99 0 -170 26l26 125q61 -22 133 -22q123 0 123 64q0 31 -34.5 45t-112.5 14h-59l19 85l75 127q-156 22 -249.5 111.5 t-97.5 219.5h210q11 -75 73 -120.5t163 -45.5q87 0 144.5 42.5t57.5 105.5q0 45 -33.5 71.5t-127.5 55.5l-91 29q-144 46 -209 116.5t-65 179.5q0 143 113 233.5t295 90.5q177 0 289 -92t114 -238h-200q-6 70 -63.5 115t-142.5 45q-90 0 -143.5 -37.5t-53.5 -96.5 q0 -49 36.5 -79.5t130.5 -59.5z" glyph-name="scedilla" horiz-adv-x="986" unicode="ş"/><glyph d="M93 424h221q14 -111 109 -179.5t244 -68.5q134 0 219.5 57.5t85.5 157.5q0 83 -54.5 132.5t-184.5 89.5l-106 34q-182 56 -270 150t-88 238q0 193 144.5 312t373.5 119q234 0 379 -115t145 -312h-217q-5 103 -87 165.5t-220 62.5q-136 0 -212 -61t-76 -147 q0 -73 56 -122.5t179 -87.5l107 -34q185 -57 274.5 -149t89.5 -232q0 -93 -36 -175t-103 -145t-171 -100t-231 -37q-243 0 -403.5 120.5t-167.5 326.5zM778 1554l-213 307h176l132 -192h6l213 192h195l-342 -307h-167z" glyph-name="Scaron" horiz-adv-x="1255" unicode="Š"/><glyph d="M181 751q0 143 113 233.5t295 90.5q177 0 289 -92t114 -238h-200q-6 70 -63.5 115t-142.5 45q-90 0 -143.5 -37.5t-53.5 -96.5q0 -49 36.5 -79.5t130.5 -59.5l97 -31q143 -47 205.5 -113t62.5 -170q0 -148 -119.5 -243t-305.5 -95q-193 0 -312.5 94t-124.5 243h210 q11 -75 73 -120.5t163 -45.5q87 0 144.5 42.5t57.5 105.5q0 45 -33.5 71.5t-127.5 55.5l-91 29q-144 46 -209 116.5t-65 179.5zM722 1220h-167l-203 308h173l123 -192h7l205 192h196z" glyph-name="scaron" horiz-adv-x="986" unicode="š"/><glyph d="M290 1443h1131l-41 -204h-452l-265 -1239h-1l-76 -125q85 0 132 -38t47 -108q0 -92 -72 -149.5t-188 -57.5q-99 0 -170 26l26 125q61 -22 133 -22q123 0 123 64q0 31 -34.5 45t-112.5 14h-59l19 85l83 141h-78l266 1239h-452z" glyph-name="Tcedilla" horiz-adv-x="1228" unicode="Ţ"/><glyph d="M509 868l-111 -510q-11 -49 -11 -82q0 -104 134 -104q46 0 72 5l-36 -176q-60 -11 -110 -11l-70 -115q85 0 132 -38t47 -108q0 -92 -72 -149.5t-188 -57.5q-99 0 -170 26l26 125q61 -22 133 -22q123 0 123 64q0 31 -34.5 45t-112.5 14h-59l19 85l89 151q-70 23 -108.5 74 t-38.5 127q0 52 10 97l122 560h-156l36 179h157l53 260h215l-55 -260h221l-35 -179h-222z" glyph-name="tcedilla" horiz-adv-x="663" unicode="ţ"/><glyph d="M663 0h-228l266 1239h-452l41 204h1131l-41 -204h-452zM803 1554l-213 307h176l132 -192h6l213 192h195l-342 -307h-167z" glyph-name="Tcaron" horiz-adv-x="1228" unicode="Ť"/><glyph d="M835 1702h198l-155 -495h-148zM442 -10q-127 0 -203 56.5t-76 164.5q0 52 10 97l122 560h-156l36 179h157l53 260h215l-55 -260h221l-35 -179h-222l-111 -510q-11 -49 -11 -82q0 -104 134 -104q46 0 72 5l-36 -176q-62 -11 -115 -11z" glyph-name="tcaron" horiz-adv-x="791" unicode="ť"/><glyph d="M1380 1239h-452l-89 -414h354l-41 -204h-356l-133 -621h-228l133 621h-321l41 204h324l89 414h-452l41 204h1131z" glyph-name="Tbar" horiz-adv-x="1228" unicode="Ŧ"/><glyph d="M731 868h-222l-48 -220h234l-32 -152h-235l-30 -138q-11 -49 -11 -82q0 -104 134 -104q46 0 72 5l-36 -176q-62 -11 -115 -11q-127 0 -203 56.5t-76 164.5q0 52 10 97l41 188h-156l32 152h157l48 220h-156l36 179h157l53 260h215l-55 -260h221z" glyph-name="tbar" horiz-adv-x="663" unicode="ŧ"/><glyph d="M701 -23q-245 0 -383.5 128t-139.5 329q-1 59 13 128l185 881h227l-183 -870q-15 -63 -13 -120q5 -124 87 -194.5t236 -70.5q150 0 255 86t139 239l199 930h227l-208 -980q-50 -232 -214 -359t-427 -127zM1123 1546q-37 0 -68.5 15t-52.5 36t-39.5 42t-39 36t-41.5 15 q-35 0 -62.5 -34.5t-39.5 -97.5h-134q22 123 87.5 193.5t155.5 70.5q39 0 71.5 -15t53.5 -36t39 -42t37.5 -36t39.5 -15q32 0 59 34.5t42 99.5h133q-25 -122 -90.5 -194t-150.5 -72z" glyph-name="Utilde" horiz-adv-x="1443" unicode="Ũ"/><glyph d="M1179 1055l-223 -1055h-205l33 154h-4q-42 -72 -136 -123t-208 -51q-148 0 -236 84t-88 214q0 74 15 146l132 631h215l-127 -597q-12 -57 -12 -103q0 -181 197 -181q113 0 194 70.5t106 185.5l133 625h214zM897 1226q-37 0 -68.5 15t-52.5 36t-39.5 42t-39 36t-41.5 15 q-35 0 -62.5 -34.5t-39.5 -97.5h-134q22 123 87.5 193.5t155.5 70.5q39 0 71.5 -15t53.5 -36t39 -42t37.5 -36t39.5 -15q32 0 59 34.5t42 99.5h133q-25 -122 -90.5 -194t-150.5 -72z" glyph-name="utilde" horiz-adv-x="1128" unicode="ũ"/><glyph d="M701 -23q-245 0 -383.5 128t-139.5 329q-1 59 13 128l185 881h227l-183 -870q-15 -63 -13 -120q5 -124 87 -194.5t236 -70.5q150 0 255 86t139 239l199 930h227l-208 -980q-50 -232 -214 -359t-427 -127zM1343 1759l-27 -132h-655l28 132h654z" glyph-name="Umacron" horiz-adv-x="1443" unicode="Ū"/><glyph d="M1179 1055l-223 -1055h-205l33 154h-4q-42 -72 -136 -123t-208 -51q-148 0 -236 84t-88 214q0 74 15 146l132 631h215l-127 -597q-12 -57 -12 -103q0 -181 197 -181q113 0 194 70.5t106 185.5l133 625h214zM1093 1412l-27 -131h-597l26 131h598z" glyph-name="umacron" horiz-adv-x="1128" unicode="ū"/><glyph d="M701 -23q-245 0 -383.5 128t-139.5 329q-1 59 13 128l185 881h227l-183 -870q-15 -63 -13 -120q5 -124 87 -194.5t236 -70.5q150 0 255 86t139 239l199 930h227l-208 -980q-50 -232 -214 -359t-427 -127zM701 1853h145q-7 -23 -7 -47q0 -65 41 -102t113 -37 q84 0 147.5 50t82.5 136h147q-32 -145 -136.5 -228.5t-262.5 -83.5q-123 0 -201 67t-78 174q0 33 9 71z" glyph-name="Ubreve" horiz-adv-x="1443" unicode="Ŭ"/><glyph d="M1179 1055l-223 -1055h-205l33 154h-4q-42 -72 -136 -123t-208 -51q-148 0 -236 84t-88 214q0 74 15 146l132 631h215l-127 -597q-12 -57 -12 -103q0 -181 197 -181q113 0 194 70.5t106 185.5l133 625h214zM481 1528h145q-7 -24 -7 -47q0 -66 41 -104t113 -38 q84 0 147.5 51t82.5 138h147q-33 -148 -137.5 -232t-261.5 -84q-120 0 -199.5 69t-79.5 177q0 30 9 70z" glyph-name="ubreve" horiz-adv-x="1128" unicode="ŭ"/><glyph d="M701 -23q-245 0 -383.5 128t-139.5 329q-1 59 13 128l185 881h227l-183 -870q-15 -63 -13 -120q5 -124 87 -194.5t236 -70.5q150 0 255 86t139 239l199 930h227l-208 -980q-50 -232 -214 -359t-427 -127zM1010 1560q-82 0 -139.5 54.5t-57.5 140.5q0 90 59 149t145 59 q84 0 141.5 -54t56.5 -141q-1 -90 -59.5 -149t-145.5 -59zM1010 1662q46 0 75 28.5t28 75.5q-1 43 -27.5 69.5t-68.5 26.5q-45 0 -73.5 -28.5t-28.5 -76.5q0 -42 27 -68.5t68 -26.5z" glyph-name="Uring" horiz-adv-x="1443" unicode="Ů"/><glyph d="M1179 1055l-223 -1055h-205l33 154h-4q-42 -72 -136 -123t-208 -51q-148 0 -236 84t-88 214q0 74 15 146l132 631h215l-127 -597q-12 -57 -12 -103q0 -181 197 -181q113 0 194 70.5t106 185.5l133 625h214zM776 1172q-82 0 -139.5 54.5t-57.5 140.5q0 90 59 149t145 59 q84 0 141.5 -54t56.5 -141q-1 -90 -59.5 -149t-145.5 -59zM776 1274q46 0 75 28.5t28 75.5q-1 43 -27.5 69.5t-68.5 26.5q-45 0 -73.5 -28.5t-28.5 -76.5q0 -42 27 -68.5t68 -26.5z" glyph-name="uring" horiz-adv-x="1128" unicode="ů"/><glyph d="M701 -23q-245 0 -383.5 128t-139.5 329q-1 59 13 128l185 881h227l-183 -870q-15 -63 -13 -120q5 -124 87 -194.5t236 -70.5q150 0 255 86t139 239l199 930h227l-208 -980q-50 -232 -214 -359t-427 -127zM1247 1559h-185l285 296h225zM891 1559h-185l285 296h225z" glyph-name="Uhungarumlaut" horiz-adv-x="1443" unicode="Ű"/><glyph d="M1179 1055l-223 -1055h-205l33 154h-4q-42 -72 -136 -123t-208 -51q-148 0 -236 84t-88 214q0 74 15 146l132 631h215l-127 -597q-12 -57 -12 -103q0 -181 197 -181q113 0 194 70.5t106 185.5l133 625h214zM842 1224l259 305h213l-301 -305h-171zM505 1224l259 305h213 l-302 -305h-170z" glyph-name="uhungarumlaut" horiz-adv-x="1128" unicode="ű"/><glyph d="M903 -421q-37 -22 -123 -22q-90 0 -145.5 45t-55.5 119q0 141 190 254v4q-30 -3 -66 -3q-246 0 -385 128t-140 329q-1 58 13 129l185 881h227l-183 -871q-13 -56 -13 -120q5 -124 87 -194t236 -70q150 0 255 85.5t139 238.5l198 931h228l-208 -980q-62 -285 -320 -422 q-125 -66 -193.5 -135.5t-68.5 -128.5q0 -35 25.5 -54.5t72.5 -19.5q44 0 73 12z" glyph-name="Uogonek" horiz-adv-x="1443" unicode="Ų"/><glyph d="M851 -408q-39 -22 -123 -22q-91 0 -146 45t-55 117q0 152 225 273l32 149h-4q-42 -71 -136 -122.5t-208 -51.5q-147 0 -235.5 83.5t-88.5 214.5q0 69 15 146l132 632h215l-127 -598q-12 -57 -12 -103q0 -181 197 -181q113 0 194 70.5t106 185.5l133 626h214l-224 -1060 l-13 -5q-106 -41 -169.5 -96t-63.5 -106q0 -34 25.5 -53.5t70.5 -19.5q43 0 73 12z" glyph-name="uogonek" horiz-adv-x="1128" unicode="ų"/><glyph d="M1118 1069l-534 -1069h-218l-83 1443h217l43 -1103h5l542 1103h199l84 -1101h5l505 1101h234l-687 -1443h-217l-90 1069h-5zM1352 1861l213 -307h-176l-131 192h-7l-213 -192h-195l342 307h167z" glyph-name="Wcircumflex" horiz-adv-x="1917" unicode="Ŵ"/><glyph d="M1642 1055l-507 -1055h-225l-51 785h-5l-376 -785h-231l-65 1055h200l31 -817h4l383 817h210l44 -817h5l367 817h216zM1094 1528l204 -308h-179l-123 189h-7l-205 -189h-191l335 308h166z" glyph-name="wcircumflex" horiz-adv-x="1507" unicode="ŵ"/><glyph d="M694 0h-228l125 588l-326 855h235l242 -640h4l507 640h253l-692 -874zM1046 1861l213 -307h-176l-131 192h-7l-213 -192h-195l342 307h167z" glyph-name="Ycircumflex" horiz-adv-x="1287" unicode="Ŷ"/><glyph d="M97 -385q-81 0 -124 13l33 183q31 -12 96 -12q129 0 202 153q0 1 14 29l13 28l-159 1046h214l102 -838h4l435 838h233l-635 -1137q-92 -170 -190.5 -236.5t-237.5 -66.5zM843 1528l204 -308h-179l-123 189h-7l-205 -189h-191l335 308h166z" glyph-name="ycircumflex" horiz-adv-x="1017" unicode="ŷ"/><glyph d="M694 0h-228l125 588l-326 855h235l242 -640h4l507 640h253l-692 -874zM749 1604q-49 0 -83 34t-34 83t34 83t83 34t83 -34t34 -83t-34 -83t-83 -34zM1129 1604q-49 0 -83 34t-34 83t34 83t83 34t83 -34t34 -83t-34 -83t-83 -34z" glyph-name="Ydieresis" horiz-adv-x="1287" unicode="Ÿ"/><glyph d="M28 0l32 161l1001 1073l1 5h-745l42 204h1036l-32 -161l-999 -1073l-1 -5h785l-40 -204h-1080zM989 1559h-191l285 296h231z" glyph-name="Zacute" horiz-adv-x="1266" unicode="Ź"/><glyph d="M15 0l30 145l716 723l2 5h-557l38 182h826l-33 -155l-703 -713l-1 -5h556l-38 -182h-836zM792 1224h-187l278 305h224z" glyph-name="zacute" horiz-adv-x="996" unicode="ź"/><glyph d="M28 0l32 161l1001 1073l1 5h-745l42 204h1036l-32 -161l-999 -1073l-1 -5h785l-40 -204h-1080zM928 1609q-55 0 -94.5 40t-39.5 96t39.5 96t94.5 40t94 -40t39 -96t-39 -96t-94 -40z" glyph-name="Zdotaccent" horiz-adv-x="1266" unicode="Ż"/><glyph d="M15 0l30 145l716 723l2 5h-557l38 182h826l-33 -155l-703 -713l-1 -5h556l-38 -182h-836zM716 1221q-55 0 -94 40t-39 96t39 96t94 40t94.5 -40t39.5 -96t-39.5 -96t-94.5 -40z" glyph-name="zdotaccent" horiz-adv-x="996" unicode="ż"/><glyph d="M28 0l32 161l1001 1073l1 5h-745l42 204h1036l-32 -161l-999 -1073l-1 -5h785l-40 -204h-1080zM812 1554l-213 307h176l132 -192h6l213 192h195l-342 -307h-167z" glyph-name="Zcaron" horiz-adv-x="1266" unicode="Ž"/><glyph d="M15 0l30 145l716 723l2 5h-557l38 182h826l-33 -155l-703 -713l-1 -5h556l-38 -182h-836zM786 1220h-167l-203 308h173l123 -192h7l205 192h196z" glyph-name="zcaron" horiz-adv-x="996" unicode="ž"/><glyph d="M743 -23q-271 0 -425 156.5t-154 431.5q0 105 22 194h1065q8 51 8 79q4 195 -95.5 307.5t-276.5 112.5q-265 0 -385 -203h-239q76 191 245.5 301t387.5 110q275 0 432 -161.5t157 -445.5q0 -193 -54.5 -357.5t-151.5 -279.5t-235.5 -180t-300.5 -65zM753 184 q167 0 292 105.5t172 285.5h-820q-1 -9 -1 -40q0 -164 95 -257.5t262 -93.5z" glyph-name="uni04D8" horiz-adv-x="1488" unicode="Ə"/><glyph d="M743 -23q-271 0 -425 156.5t-154 431.5q0 105 22 194h1065q8 51 8 79q4 195 -95.5 307.5t-276.5 112.5q-265 0 -385 -203h-239q76 191 245.5 301t387.5 110q275 0 432 -161.5t157 -445.5q0 -193 -54.5 -357.5t-151.5 -279.5t-235.5 -180t-300.5 -65zM753 184 q167 0 292 105.5t172 285.5h-820q-1 -9 -1 -40q0 -164 95 -257.5t262 -93.5z" glyph-name="uni04D8" horiz-adv-x="1488" unicode="Ә"/><glyph d="M221 -13q-120 0 -228 41l42 196q85 -39 195 -39q97 0 156.5 44t97.5 150l122 322h-332l36 176h357l90 245q61 169 184 255t297 86q116 0 218 -33l-40 -189q-83 27 -184 27q-99 0 -170 -56.5t-107 -153.5l-68 -181h359l-36 -176h-384l-141 -381q-58 -165 -170.5 -249 t-293.5 -84z" glyph-name="florin" horiz-adv-x="1270" unicode="ƒ"/><glyph d="M1310 831q0 196 -104.5 312.5t-279.5 116.5q-152 0 -274 -87t-188.5 -234.5t-66.5 -325.5q0 -197 104.5 -313.5t279.5 -116.5q152 0 273.5 87t188.5 235t67 326zM1539 841q0 -240 -98.5 -438t-273 -312t-389.5 -114q-277 0 -443.5 172t-166.5 453q0 240 98 438t272 312 t389 114q87 0 159.5 -16t112 -36t86.5 -36t88 -16q51 0 77 20t36 67l39 188h187l-55 -260q-15 -79 -70.5 -123.5t-128.5 -44.5q-20 0 -25 5l-1 -5q107 -155 107 -368z" glyph-name="Ohorn" horiz-adv-x="1530" unicode="Ơ"/><glyph d="M1116 607q0 -174 -72.5 -318t-200 -226.5t-282.5 -82.5q-207 0 -330 127.5t-123 339.5q0 175 72.5 319t200.5 227t283 83q74 0 178 -28.5t143 -28.5q57 0 83.5 18.5t36.5 66.5l29 139h187l-45 -212q-16 -75 -68 -119t-120 -44h-37v-4q65 -107 65 -257zM326 451 q0 -130 64.5 -206.5t173.5 -76.5q143 0 238.5 125.5t95.5 310.5q0 130 -64 207t-173 77q-144 0 -239.5 -125.5t-95.5 -311.5z" glyph-name="ohorn" horiz-adv-x="1177" unicode="ơ"/><glyph d="M701 -24q-245 0 -384 128t-141 329q-1 60 13 129l185 881h228l-184 -871q-14 -64 -12 -120q5 -123 87 -193.5t236 -70.5q149 0 254.5 85.5t138.5 238.5l199 931h233q87 0 105 83l35 170h185l-44 -213q-19 -94 -86.5 -146.5t-165.5 -52.5h-67l-176 -821 q-50 -232 -212.5 -359.5t-426.5 -127.5z" glyph-name="Uhorn" horiz-adv-x="1616" unicode="Ư"/><glyph d="M780 154q-42 -72 -136 -123t-208 -51q-148 0 -236 84t-88 214q0 74 15 146l132 631h215l-127 -597q-12 -57 -12 -103q0 -181 197 -181q113 0 194 70.5t106 185.5l133 625h169q54 0 80 18t36 63l29 139h187l-45 -212q-16 -77 -70 -120t-127 -43h-76l-192 -900h-205l33 154 h-4z" glyph-name="uhorn" horiz-adv-x="1255" unicode="ư"/><glyph d="M376 1443h452q282 0 443.5 -153.5t161.5 -425.5q0 -252 -97 -448.5t-273.5 -306t-403.5 -109.5h-589zM563 1241l-225 -1039h299q163 0 291.5 79.5t201 224t72.5 328.5q0 199 -106.5 303t-310.5 104h-222zM1455 0l32 161l1001 1073l1 5h-745l42 204h1036l-32 -161 l-999 -1073l-1 -5h785l-40 -204h-1080zM2239 1554l-213 307h176l132 -192h6l213 192h195l-342 -307h-167z" glyph-name="uni01C4" horiz-adv-x="2693" unicode="Ǆ"/><glyph d="M376 1443h452q282 0 443.5 -153.5t161.5 -425.5q0 -252 -97 -448.5t-273.5 -306t-403.5 -109.5h-589zM563 1241l-225 -1039h299q163 0 291.5 79.5t201 224t72.5 328.5q0 199 -106.5 303t-310.5 104h-222zM1442 0l30 145l716 723l2 5h-557l38 182h826l-33 -155l-703 -713 l-1 -5h556l-38 -182h-836zM2213 1220h-167l-203 308h173l123 -192h7l205 192h196z" glyph-name="uni01C5" horiz-adv-x="2423" unicode="ǅ"/><glyph d="M491 -18q-176 0 -280 120t-104 322q0 183 69 332t190 233t268 84q122 0 213.5 -63t116.5 -160h5l129 593h214l-307 -1443h-213l35 163h-5q-50 -81 -139.5 -131t-191.5 -50zM559 171q146 0 243.5 127.5t97.5 316.5q0 118 -67.5 192t-179.5 74q-140 0 -234.5 -123 t-94.5 -312q0 -128 62.5 -201.5t172.5 -73.5zM1197 0l30 145l716 723l2 5h-557l38 182h826l-33 -155l-703 -713l-1 -5h556l-38 -182h-836zM1968 1220h-167l-203 308h173l123 -192h7l205 192h196z" glyph-name="uni01C6" horiz-adv-x="2178" unicode="ǆ"/><glyph d="M1012 206l-41 -206h-902l307 1443h227l-265 -1237h674zM1152 355q0 25 1 34h222v-6q0 -89 55.5 -140.5t150.5 -51.5q192 0 244 242l215 1010h227l-224 -1052q-42 -200 -163.5 -307.5t-313.5 -107.5q-181 0 -297.5 107t-116.5 272z" glyph-name="uni01C7" horiz-adv-x="2160" unicode="Ǉ"/><glyph d="M1012 206l-41 -206h-902l307 1443h227l-265 -1237h674zM1537 1204q-53 0 -89.5 37.5t-36.5 91.5t36.5 91.5t89.5 37.5q52 0 88.5 -37.5t36.5 -91.5t-36.5 -91.5t-88.5 -37.5zM1580 1055l-241 -1129q-63 -293 -362 -295q-43 0 -96 7l39 181q40 -4 53 -4q68 0 103.5 32 t52.5 106l235 1102h216z" glyph-name="uni01C8" horiz-adv-x="1534" unicode="ǈ"/><glyph d="M52 0l307 1443h216l-307 -1443h-216zM896 1204q-53 0 -89.5 37.5t-36.5 91.5t36.5 91.5t89.5 37.5q52 0 88.5 -37.5t36.5 -91.5t-36.5 -91.5t-88.5 -37.5zM939 1055l-241 -1129q-63 -293 -362 -295q-44 0 -96 7l39 181q40 -4 53 -4q68 0 103.5 32t52.5 106l235 1102h216z" glyph-name="uni01C9" horiz-adv-x="893" unicode="ǉ"/><glyph d="M293 0h-224l307 1443h208l508 -1082h5l234 1082h224l-307 -1443h-209l-507 1082h-5zM1508 355q0 25 1 34h222v-6q0 -89 55.5 -140.5t150.5 -51.5q192 0 244 242l215 1010h227l-224 -1052q-42 -200 -163.5 -307.5t-313.5 -107.5q-181 0 -297.5 107t-116.5 272z" glyph-name="uni01CA" horiz-adv-x="2516" unicode="Ǌ"/><glyph d="M293 0h-224l307 1443h208l508 -1082h5l234 1082h224l-307 -1443h-209l-507 1082h-5zM1893 1204q-53 0 -89.5 37.5t-36.5 91.5t36.5 91.5t89.5 37.5q52 0 88.5 -37.5t36.5 -91.5t-36.5 -91.5t-88.5 -37.5zM1936 1055l-241 -1129q-63 -293 -362 -295q-43 0 -96 7l39 181 q40 -4 53 -4q68 0 103.5 32t52.5 106l235 1102h216z" glyph-name="uni01CB" horiz-adv-x="1889" unicode="ǋ"/><glyph d="M41 0l224 1055h205l-35 -163h5q54 87 142 135.5t199 48.5q143 0 237 -87t94 -221q0 -57 -14 -129l-135 -639h-215l128 602q12 57 12 98q0 85 -57 135t-151 50q-106 0 -185.5 -69.5t-104.5 -185.5l-134 -630h-215zM1574 1204q-53 0 -89.5 37.5t-36.5 91.5t36.5 91.5 t89.5 37.5q52 0 88.5 -37.5t36.5 -91.5t-36.5 -91.5t-88.5 -37.5zM1617 1055l-241 -1129q-63 -293 -362 -295q-44 0 -96 7l39 181q40 -4 53 -4q68 0 103.5 32t52.5 106l235 1102h216z" glyph-name="uni01CC" horiz-adv-x="1570" unicode="ǌ"/><glyph d="M859 1192l-346 -621h436l-85 621h-5zM1021 0l-50 383h-554l-217 -383h-243l828 1443h245l210 -1443h-219zM848 1554l-213 307h176l132 -192h6l213 192h195l-342 -307h-167z" glyph-name="Acaron" horiz-adv-x="1328" unicode="Ǎ"/><glyph d="M461 159q104 0 184 59t101 151l24 106l-263 -13q-108 -5 -168.5 -47t-60.5 -113q0 -65 50.5 -104t132.5 -39zM390 -18q-137 0 -231 82.5t-94 209.5q0 156 115.5 245.5t323.5 98.5l298 14l14 64q4 17 4 46q0 70 -50.5 109.5t-143.5 39.5q-95 0 -153.5 -39.5t-73.5 -108.5 h-214q25 149 149 241t309 92q175 0 282.5 -85.5t107.5 -221.5q0 -48 -7 -88l-144 -681h-207l27 128h-3q-52 -68 -132.5 -107t-176.5 -39zM786 1220h-167l-203 308h173l123 -192h7l205 192h196z" glyph-name="acaron" horiz-adv-x="1048" unicode="ǎ"/><glyph d="M296 0h-227l307 1443h227zM435 1554l-213 307h176l132 -192h6l213 192h195l-342 -307h-167z" glyph-name="Icaron" horiz-adv-x="496" unicode="Ǐ"/><glyph d="M51 0l224 1055h215l-223 -1055h-216zM513 1220h-167l-203 308h173l123 -192h7l205 192h196z" glyph-name="icaron" horiz-adv-x="449" unicode="ǐ"/><glyph d="M926 1260q-152 0 -274 -87t-188.5 -234.5t-66.5 -325.5q0 -197 104.5 -313.5t279.5 -116.5q152 0 273.5 87t188.5 235t67 326q0 196 -104.5 312.5t-279.5 116.5zM778 -23q-277 0 -443.5 172t-166.5 453q0 240 98 438t272 312t389 114q278 0 445 -172t167 -453 q0 -240 -98.5 -438t-273 -312t-389.5 -114zM890 1554l-213 307h176l132 -192h6l213 192h195l-342 -307h-167z" glyph-name="Ocaron" horiz-adv-x="1530" unicode="Ǒ"/><glyph d="M565 169q145 0 240 124t95 309q0 129 -65 207t-175 78q-145 0 -240 -124t-95 -310q0 -129 65 -206.5t175 -77.5zM664 1076q206 0 329.5 -128t123.5 -340q0 -132 -42.5 -248t-116 -199.5t-176.5 -132t-220 -48.5q-206 0 -330 128t-124 339q0 176 72 320t199.5 226.5 t284.5 82.5zM800 1220h-167l-203 308h173l123 -192h7l205 192h196z" glyph-name="ocaron" horiz-adv-x="1133" unicode="ǒ"/><glyph d="M701 -23q-245 0 -383.5 128t-139.5 329q-1 59 13 128l185 881h227l-183 -870q-15 -63 -13 -120q5 -124 87 -194.5t236 -70.5q150 0 255 86t139 239l199 930h227l-208 -980q-50 -232 -214 -359t-427 -127zM893 1554l-213 307h176l132 -192h6l213 192h195l-342 -307h-167z" glyph-name="Ucaron" horiz-adv-x="1443" unicode="Ǔ"/><glyph d="M1179 1055l-223 -1055h-205l33 154h-4q-42 -72 -136 -123t-208 -51q-148 0 -236 84t-88 214q0 74 15 146l132 631h215l-127 -597q-12 -57 -12 -103q0 -181 197 -181q113 0 194 70.5t106 185.5l133 625h214zM844 1220h-167l-203 308h173l123 -192h7l205 192h196z" glyph-name="ucaron" horiz-adv-x="1128" unicode="ǔ"/><glyph d="M701 -23q-245 0 -383.5 128t-139.5 329q-1 59 13 128l185 881h227l-183 -870q-15 -63 -13 -120q5 -124 87 -194.5t236 -70.5q150 0 255 86t139 239l199 930h227l-208 -980q-50 -232 -214 -359t-427 -127zM811 1783q48 0 81 -34t33 -83q0 -48 -33 -82t-81 -34t-81 34 t-33 82q0 49 33 83t81 34zM1403 2048l-27 -132h-654l27 132h654zM1181 1783q49 0 82 -34t33 -83q0 -48 -33.5 -82t-81.5 -34q-47 0 -80 34t-33 82q0 49 33 83t80 34z" glyph-name="Udieresismacron" horiz-adv-x="1443" unicode="Ǖ"/><glyph d="M1179 1055l-223 -1055h-205l33 154h-4q-42 -72 -136 -123t-208 -51q-148 0 -236 84t-88 214q0 74 15 146l132 631h215l-127 -597q-12 -57 -12 -103q0 -181 197 -181q113 0 194 70.5t106 185.5l133 625h214zM582 1212q-49 0 -83 34t-34 83t34 83.5t83 34.5 q48 0 82.5 -34.5t34.5 -83.5t-34.5 -83t-82.5 -34zM962 1212q-49 0 -83 34t-34 83t34 83.5t83 34.5t83 -34.5t34 -83.5t-34 -83t-83 -34zM1160 1733l-27 -131h-597l26 131h598z" glyph-name="udieresismacron" horiz-adv-x="1128" unicode="ǖ"/><glyph d="M701 -23q-245 0 -383.5 128t-139.5 329q-1 59 13 128l185 881h227l-183 -870q-15 -63 -13 -120q5 -124 87 -194.5t236 -70.5q150 0 255 86t139 239l199 930h227l-208 -980q-50 -232 -214 -359t-427 -127zM927 1853l223 231h206l-248 -231h-181zM814 1555q-47 0 -80 33.5 t-33 81.5q0 47 33 80.5t80 33.5q46 0 79 -33.5t33 -80.5q0 -48 -32.5 -81.5t-79.5 -33.5zM1180 1555q-47 0 -79.5 33.5t-32.5 81.5q0 47 32.5 80.5t79.5 33.5t80 -33.5t33 -80.5q0 -48 -33 -81.5t-80 -33.5z" glyph-name="Udieresisacute" horiz-adv-x="1443" unicode="Ǘ"/><glyph d="M1179 1055l-223 -1055h-205l33 154h-4q-42 -72 -136 -123t-208 -51q-148 0 -236 84t-88 214q0 74 15 146l132 631h215l-127 -597q-12 -57 -12 -103q0 -181 197 -181q113 0 194 70.5t106 185.5l133 625h214zM717 1554l270 292h199l-294 -292h-175zM584 1212q-49 0 -83 34 t-34 83t34 83t83 34t83 -34t34 -83t-34 -83t-83 -34zM964 1212q-49 0 -83 34t-34 83t34 83t83 34t83 -34t34 -83t-34 -83t-83 -34z" glyph-name="udieresisacute" horiz-adv-x="1128" unicode="ǘ"/><glyph d="M701 -23q-245 0 -383.5 128t-139.5 329q-1 59 13 128l185 881h227l-183 -870q-15 -63 -13 -120q5 -124 87 -194.5t236 -70.5q150 0 255 86t139 239l199 930h227l-208 -980q-50 -232 -214 -359t-427 -127zM944 1842l-209 250h179l123 -146h9l184 146h202l-312 -250h-176z M811 1783q48 0 81 -34t33 -83q0 -48 -33 -82t-81 -34t-81 34t-33 82q0 49 33 83t81 34zM1181 1783q49 0 82 -34t33 -83q0 -48 -33.5 -82t-81.5 -34q-47 0 -80 34t-33 82q0 49 33 83t80 34z" glyph-name="Udieresiscaron" horiz-adv-x="1443" unicode="Ǚ"/><glyph d="M1179 1055l-223 -1055h-205l33 154h-4q-42 -72 -136 -123t-208 -51q-148 0 -236 84t-88 214q0 74 15 146l132 631h215l-127 -597q-12 -57 -12 -103q0 -181 197 -181q113 0 194 70.5t106 185.5l133 625h214zM582 1212q-49 0 -83 34t-34 83t34 83.5t83 34.5 q48 0 82.5 -34.5t34.5 -83.5t-34.5 -83t-82.5 -34zM962 1212q-49 0 -83 34t-34 83t34 83.5t83 34.5t83 -34.5t34 -83.5t-34 -83t-83 -34zM698 1527l-207 293h174l126 -178h6l203 178h197l-331 -293h-168z" glyph-name="udieresiscaron" horiz-adv-x="1128" unicode="ǚ"/><glyph d="M701 -23q-245 0 -383.5 128t-139.5 329q-1 59 13 128l185 881h227l-183 -870q-15 -63 -13 -120q5 -124 87 -194.5t236 -70.5q150 0 255 86t139 239l199 930h227l-208 -980q-50 -232 -214 -359t-427 -127zM1132 1853h-158l-152 231h185zM814 1555q-47 0 -80 33.5t-33 81.5 q0 47 33 80.5t80 33.5q46 0 79 -33.5t33 -80.5q0 -48 -32.5 -81.5t-79.5 -33.5zM1180 1555q-47 0 -79.5 33.5t-32.5 81.5q0 47 32.5 80.5t79.5 33.5t80 -33.5t33 -80.5q0 -48 -33 -81.5t-80 -33.5z" glyph-name="Udieresisgrave" horiz-adv-x="1443" unicode="Ǜ"/><glyph d="M1179 1055l-223 -1055h-205l33 154h-4q-42 -72 -136 -123t-208 -51q-148 0 -236 84t-88 214q0 74 15 146l132 631h215l-127 -597q-12 -57 -12 -103q0 -181 197 -181q113 0 194 70.5t106 185.5l133 625h214zM909 1553h-153l-169 293h183zM584 1212q-49 0 -83 34t-34 83 t34 83t83 34t83 -34t34 -83t-34 -83t-83 -34zM964 1212q-49 0 -83 34t-34 83t34 83t83 34t83 -34t34 -83t-34 -83t-83 -34z" glyph-name="udieresisgrave" horiz-adv-x="1128" unicode="ǜ"/><glyph d="M363 725h-206q41 154 171 252.5t303 98.5q213 0 330.5 -128t117.5 -340q0 -174 -67 -317.5t-189 -227t-275 -83.5q-203 0 -321 120.5t-118 326.5q0 86 11 152h748q1 12 1 35q0 126 -65 202.5t-177 76.5q-94 0 -163 -45t-101 -123zM551 161q107 0 184.5 72t108.5 188h-524 q-1 -8 -1 -28q0 -100 57.5 -166t174.5 -66z" glyph-name="uni04D9" horiz-adv-x="1095" unicode="ǝ"/><glyph d="M363 725h-206q41 154 171 252.5t303 98.5q213 0 330.5 -128t117.5 -340q0 -174 -67 -317.5t-189 -227t-275 -83.5q-203 0 -321 120.5t-118 326.5q0 86 11 152h748q1 12 1 35q0 126 -65 202.5t-177 76.5q-94 0 -163 -45t-101 -123zM551 161q107 0 184.5 72t108.5 188h-524 q-1 -8 -1 -28q0 -100 57.5 -166t174.5 -66z" glyph-name="uni04D9" horiz-adv-x="1095" unicode="ә"/><glyph d="M363 725h-206q41 154 171 252.5t303 98.5q213 0 330.5 -128t117.5 -340q0 -174 -67 -317.5t-189 -227t-275 -83.5q-203 0 -321 120.5t-118 326.5q0 86 11 152h748q1 12 1 35q0 126 -65 202.5t-177 76.5q-94 0 -163 -45t-101 -123zM551 161q107 0 184.5 72t108.5 188h-524 q-1 -8 -1 -28q0 -100 57.5 -166t174.5 -66z" glyph-name="uni04D9" horiz-adv-x="1095" unicode="ə"/><glyph d="M859 1192l-346 -621h436l-85 621h-5zM1021 0l-50 383h-554l-217 -383h-243l828 1443h245l210 -1443h-219zM766 1783q48 0 81 -34t33 -83q0 -48 -33 -82t-81 -34t-81 34t-33 82q0 49 33 83t81 34zM1358 2048l-27 -132h-654l27 132h654zM1136 1783q49 0 82 -34t33 -83 q0 -48 -33.5 -82t-81.5 -34q-47 0 -80 34t-33 82q0 49 33 83t80 34z" glyph-name="Adieresismacron" horiz-adv-x="1328" unicode="Ǟ"/><glyph d="M461 159q104 0 184 59t101 151l24 106l-263 -13q-108 -5 -168.5 -47t-60.5 -113q0 -65 50.5 -104t132.5 -39zM390 -18q-137 0 -231 82.5t-94 209.5q0 156 115.5 245.5t323.5 98.5l298 14l14 64q4 17 4 46q0 70 -50.5 109.5t-143.5 39.5q-95 0 -153.5 -39.5t-73.5 -108.5 h-214q25 149 149 241t309 92q175 0 282.5 -85.5t107.5 -221.5q0 -48 -7 -88l-144 -681h-207l27 128h-3q-52 -68 -132.5 -107t-176.5 -39zM524 1212q-49 0 -83 34t-34 83t34 83.5t83 34.5q48 0 82.5 -34.5t34.5 -83.5t-34.5 -83t-82.5 -34zM904 1212q-49 0 -83 34t-34 83 t34 83.5t83 34.5t83 -34.5t34 -83.5t-34 -83t-83 -34zM1102 1733l-27 -131h-597l26 131h598z" glyph-name="adieresismacron" horiz-adv-x="1048" unicode="ǟ"/><glyph d="M859 1192l-346 -621h436l-85 621h-5zM1021 0l-50 383h-554l-217 -383h-243l828 1443h245l210 -1443h-219zM956 1567q-52 0 -89 37t-37 90q0 52 37 89t89 37q53 0 89.5 -37t36.5 -89q0 -53 -36.5 -90t-89.5 -37zM1358 2048l-28 -132h-654l28 132h654z" glyph-name="Adotmacron" horiz-adv-x="1328" unicode="Ǡ"/><glyph d="M461 159q104 0 184 59t101 151l24 106l-263 -13q-108 -5 -168.5 -47t-60.5 -113q0 -65 50.5 -104t132.5 -39zM390 -18q-137 0 -231 82.5t-94 209.5q0 156 115.5 245.5t323.5 98.5l298 14l14 64q4 17 4 46q0 70 -50.5 109.5t-143.5 39.5q-95 0 -153.5 -39.5t-73.5 -108.5 h-214q25 149 149 241t309 92q175 0 282.5 -85.5t107.5 -221.5q0 -48 -7 -88l-144 -681h-207l27 128h-3q-52 -68 -132.5 -107t-176.5 -39zM715 1201q-55 0 -92.5 38.5t-37.5 93.5q0 56 37.5 94t92.5 38t92 -38t37 -94q0 -55 -37.5 -93.5t-91.5 -38.5zM1102 1733l-27 -131 h-597l26 131h598z" glyph-name="adotmacron" horiz-adv-x="1048" unicode="ǡ"/><glyph d="M1143 1253h-140l-427 -647h427zM874 0l91 417h-501l-278 -417h-236l938 1443h1164l-42 -204h-652l-91 -415h615l-39 -195h-615l-95 -425h652l-40 -204h-871zM1753 1759l-27 -132h-655l28 132h654z" glyph-name="AEmacron" horiz-adv-x="1908" unicode="Ǣ"/><glyph d="M1224 -20q-131 0 -225.5 59t-138.5 160h-7q-149 -219 -439 -219q-148 0 -246 84.5t-98 209.5q0 156 116 246.5t327 98.5l298 13l14 64q4 16 4 46q0 67 -53 108t-145 41q-95 0 -153 -40t-72 -108h-214q24 148 146.5 240.5t304.5 92.5q109 0 197.5 -41.5t132.5 -114.5h7 q136 156 348 156q190 0 304.5 -122.5t114.5 -325.5q0 -82 -10 -152h-748q-1 -7 -1 -30q0 -130 66 -207t179 -77q94 0 161.5 43.5t99.5 124.5h206q-41 -156 -172.5 -253t-303.5 -97zM1013 633h524q2 14 2 29q0 104 -60 168t-157 64q-114 0 -194.5 -70t-114.5 -191zM466 158 q108 0 189 59t101 150l24 106l-270 -12q-104 -5 -165.5 -49t-61.5 -112q0 -62 50 -102t133 -40zM1394 1412l-27 -131h-597l26 131h598z" glyph-name="aemacron" horiz-adv-x="1761" unicode="ǣ"/><glyph d="M1477 749l-43 -205q-55 -270 -230.5 -418.5t-431.5 -148.5q-280 0 -442 171.5t-162 453.5q0 128 29 250.5t91 234t149.5 195.5t213 134t273.5 50q253 0 409 -137.5t161 -349.5v-18h-222q-10 137 -103.5 218t-246.5 81q-107 0 -195.5 -38t-148.5 -101.5t-101.5 -148 t-60.5 -175.5t-19 -186q0 -196 100.5 -312.5t283.5 -116.5q160 0 276.5 92.5t148.5 244.5l9 42h-370l39 188h593zM869 1554l-213 307h176l132 -192h6l213 192h195l-342 -307h-167z" glyph-name="Gcaron" horiz-adv-x="1469" unicode="Ǧ"/><glyph d="M471 -398q-194 0 -319 88.5t-125 230.5h216q10 -66 72.5 -105.5t159.5 -39.5q254 0 318 259l33 145h-6q-48 -79 -137 -126.5t-189 -47.5q-174 0 -280 118t-106 314q0 123 36 236.5t101.5 202.5t166.5 142.5t221 53.5q121 0 210 -64.5t117 -166.5h8l43 213h210l-214 -1023 q-45 -210 -186 -320t-350 -110zM561 185q151 0 244.5 125.5t93.5 304.5q0 117 -70.5 191.5t-175.5 74.5q-147 0 -238.5 -122.5t-91.5 -305.5q0 -122 62 -195t176 -73zM860 1220h-167l-203 308h173l123 -192h7l205 192h196z" glyph-name="gcaron" horiz-adv-x="1170" unicode="ǧ"/><glyph d="M296 0h-227l307 1443h227l-145 -674h5l737 674h282l-702 -654l436 -789h-256l-360 646l-204 -182zM809 1554l-213 307h176l132 -192h6l213 192h195l-342 -307h-167z" glyph-name="Kcaron" horiz-adv-x="1295" unicode="Ǩ"/><glyph d="M262 0h-216l307 1443h216l-176 -815h5l504 427h264l-514 -442l313 -613h-237l-249 485l-136 -108zM405 1554l-213 307h176l132 -192h6l213 192h195l-342 -307h-167z" glyph-name="kcaron" horiz-adv-x="1012" unicode="ǩ"/><glyph d="M956 -421q-36 -22 -123 -22q-90 0 -145.5 45t-55.5 119q0 140 190 253v5q-28 -2 -44 -2q-277 0 -443.5 172t-166.5 453q0 240 98 438t272 312t389 114q278 0 445 -172t167 -453q0 -263 -127 -470t-336 -328q-262 -162 -262 -266q0 -35 25.5 -54.5t71.5 -19.5t73 12z M1310 831q0 196 -104.5 312.5t-279.5 116.5q-152 0 -274 -87t-188.5 -234.5t-66.5 -325.5q0 -197 104.5 -313.5t279.5 -116.5q152 0 273.5 87t188.5 235t67 326z" glyph-name="Oogonek" horiz-adv-x="1530" unicode="Ǫ"/><glyph d="M703 -408q-34 -22 -123 -22q-90 0 -145 45t-55 117q0 145 185 245v3h-4q-207 0 -330 127.5t-123 339.5q0 174 72.5 318.5t200.5 227.5t283 83q207 0 329.5 -128t122.5 -341q0 -185 -87.5 -333t-232.5 -236q-235 -144 -235 -246q0 -35 26 -55.5t71 -20.5q46 0 73 12z M326 451q0 -130 64.5 -206.5t173.5 -76.5q143 0 238.5 125.5t95.5 310.5q0 130 -64 207t-173 77q-144 0 -239.5 -125.5t-95.5 -311.5z" glyph-name="oogonek" horiz-adv-x="1132" unicode="ǫ"/><glyph d="M956 -421q-36 -22 -123 -22q-90 0 -145.5 45t-55.5 119q0 140 190 253v5q-28 -2 -44 -2q-277 0 -443.5 172t-166.5 453q0 240 98 438t272 312t389 114q278 0 445 -172t167 -453q0 -263 -127 -470t-336 -328q-262 -162 -262 -266q0 -35 25.5 -54.5t71.5 -19.5t73 12z M1310 831q0 196 -104.5 312.5t-279.5 116.5q-152 0 -274 -87t-188.5 -234.5t-66.5 -325.5q0 -197 104.5 -313.5t279.5 -116.5q152 0 273.5 87t188.5 235t67 326zM1340 1759l-27 -132h-655l28 132h654z" glyph-name="Oogonekmacron" horiz-adv-x="1530" unicode="Ǭ"/><glyph d="M703 -408q-34 -22 -123 -22q-90 0 -145 45t-55 117q0 145 185 245v3h-4q-207 0 -330 127.5t-123 339.5q0 174 72.5 318.5t200.5 227.5t283 83q207 0 329.5 -128t122.5 -341q0 -185 -87.5 -333t-232.5 -236q-235 -144 -235 -246q0 -35 26 -55.5t71 -20.5q46 0 73 12z M326 451q0 -130 64.5 -206.5t173.5 -76.5q143 0 238.5 125.5t95.5 310.5q0 130 -64 207t-173 77q-144 0 -239.5 -125.5t-95.5 -311.5zM1056 1412l-27 -131h-597l26 131h598z" glyph-name="oogonekmacron" horiz-adv-x="1132" unicode="ǭ"/><glyph d="M376 1443h452q282 0 443.5 -153.5t161.5 -425.5q0 -252 -97 -448.5t-273.5 -306t-403.5 -109.5h-589zM563 1241l-225 -1039h299q163 0 291.5 79.5t201 224t72.5 328.5q0 199 -106.5 303t-310.5 104h-222zM1455 0l32 161l1001 1073l1 5h-745l42 204h1036l-32 -161 l-999 -1073l-1 -5h785l-40 -204h-1080z" glyph-name="uni01F1" horiz-adv-x="2693" unicode="Ǳ"/><glyph d="M376 1443h452q282 0 443.5 -153.5t161.5 -425.5q0 -252 -97 -448.5t-273.5 -306t-403.5 -109.5h-589zM563 1241l-225 -1039h299q163 0 291.5 79.5t201 224t72.5 328.5q0 199 -106.5 303t-310.5 104h-222zM1442 0l30 145l716 723l2 5h-557l38 182h826l-33 -155l-703 -713 l-1 -5h556l-38 -182h-836z" glyph-name="uni01F2" horiz-adv-x="2423" unicode="ǲ"/><glyph d="M491 -18q-176 0 -280 120t-104 322q0 183 69 332t190 233t268 84q122 0 213.5 -63t116.5 -160h5l129 593h214l-307 -1443h-213l35 163h-5q-50 -81 -139.5 -131t-191.5 -50zM559 171q146 0 243.5 127.5t97.5 316.5q0 118 -67.5 192t-179.5 74q-140 0 -234.5 -123 t-94.5 -312q0 -128 62.5 -201.5t172.5 -73.5zM1197 0l30 145l716 723l2 5h-557l38 182h826l-33 -155l-703 -713l-1 -5h556l-38 -182h-836z" glyph-name="uni01F3" horiz-adv-x="2178" unicode="ǳ"/><glyph d="M1477 749l-43 -205q-55 -270 -230.5 -418.5t-431.5 -148.5q-280 0 -442 171.5t-162 453.5q0 128 29 250.5t91 234t149.5 195.5t213 134t273.5 50q253 0 409 -137.5t161 -349.5v-18h-222q-10 137 -103.5 218t-246.5 81q-107 0 -195.5 -38t-148.5 -101.5t-101.5 -148 t-60.5 -175.5t-19 -186q0 -196 100.5 -312.5t283.5 -116.5q160 0 276.5 92.5t148.5 244.5l9 42h-370l39 188h593zM1046 1559h-191l285 296h231z" glyph-name="Gacute" horiz-adv-x="1469" unicode="Ǵ"/><glyph d="M471 -398q-194 0 -319 88.5t-125 230.5h216q10 -66 72.5 -105.5t159.5 -39.5q254 0 318 259l33 145h-6q-48 -79 -137 -126.5t-189 -47.5q-174 0 -280 118t-106 314q0 123 36 236.5t101.5 202.5t166.5 142.5t221 53.5q121 0 210 -64.5t117 -166.5h8l43 213h210l-214 -1023 q-45 -210 -186 -320t-350 -110zM561 185q151 0 244.5 125.5t93.5 304.5q0 117 -70.5 191.5t-175.5 74.5q-147 0 -238.5 -122.5t-91.5 -305.5q0 -122 62 -195t176 -73zM866 1224h-187l278 305h224z" glyph-name="gacute" horiz-adv-x="1170" unicode="ǵ"/><glyph d="M293 0h-224l307 1443h208l508 -1082h5l234 1082h224l-307 -1443h-209l-507 1082h-5zM894 1559l-200 296h209l160 -296h-169z" glyph-name="Ngrave" horiz-adv-x="1448" unicode="Ǹ"/><glyph d="M41 0l224 1055h205l-35 -163h5q54 87 142 135.5t199 48.5q143 0 237 -87t94 -221q0 -57 -14 -129l-135 -639h-215l128 602q12 57 12 98q0 85 -57 135t-151 50q-106 0 -185.5 -69.5t-104.5 -185.5l-134 -630h-215zM847 1224h-171l-185 305h207z" glyph-name="ngrave" horiz-adv-x="1129" unicode="ǹ"/><glyph d="M859 1192l-346 -621h436l-85 621h-5zM1021 0l-50 383h-554l-217 -383h-243l828 1443h245l210 -1443h-219zM952 1510q-80 0 -134 49.5t-54 130.5q0 84 55.5 138.5t139.5 54.5q81 0 135 -49.5t53 -130.5q-1 -85 -56 -139t-139 -54zM952 1607q43 0 69.5 25.5t25.5 68.5 q0 38 -24.5 61t-63.5 23q-42 0 -68.5 -25.5t-26.5 -67.5q0 -39 24.5 -62t63.5 -23zM1080 2125h193l-174 -178h-169z" glyph-name="Aringacute" horiz-adv-x="1328" unicode="Ǻ"/><glyph d="M461 159q104 0 184 59t101 151l24 106l-263 -13q-108 -5 -168.5 -47t-60.5 -113q0 -65 50.5 -104t132.5 -39zM390 -18q-137 0 -231 82.5t-94 209.5q0 156 115.5 245.5t323.5 98.5l298 14l14 64q4 17 4 46q0 70 -50.5 109.5t-143.5 39.5q-95 0 -153.5 -39.5t-73.5 -108.5 h-214q25 149 149 241t309 92q175 0 282.5 -85.5t107.5 -221.5q0 -48 -7 -88l-144 -681h-207l27 128h-3q-52 -68 -132.5 -107t-176.5 -39zM701 1659l169 204h191l-192 -204h-168zM719 1182q-84 0 -140 53t-56 140q0 91 57.5 149t145.5 58q84 0 140.5 -53t55.5 -140 q0 -90 -57.5 -148.5t-145.5 -58.5zM625 1378q0 -42 26.5 -68t67.5 -26q46 0 74 28t27 75q-1 43 -27 68.5t-67 25.5q-45 0 -73 -28t-28 -75z" glyph-name="aringacute" horiz-adv-x="1048" unicode="ǻ"/><glyph d="M1143 1253h-140l-427 -647h427zM874 0l91 417h-501l-278 -417h-236l938 1443h1164l-42 -204h-652l-91 -415h615l-39 -195h-615l-95 -425h652l-40 -204h-871zM1480 1559h-191l285 296h231z" glyph-name="AEacute" horiz-adv-x="1908" unicode="Ǽ"/><glyph d="M1224 -20q-131 0 -225.5 59t-138.5 160h-7q-149 -219 -439 -219q-148 0 -246 84.5t-98 209.5q0 156 116 246.5t327 98.5l298 13l14 64q4 16 4 46q0 67 -53 108t-145 41q-95 0 -153 -40t-72 -108h-214q24 148 146.5 240.5t304.5 92.5q109 0 197.5 -41.5t132.5 -114.5h7 q136 156 348 156q190 0 304.5 -122.5t114.5 -325.5q0 -82 -10 -152h-748q-1 -7 -1 -30q0 -130 66 -207t179 -77q94 0 161.5 43.5t99.5 124.5h206q-41 -156 -172.5 -253t-303.5 -97zM1013 633h524q2 14 2 29q0 104 -60 168t-157 64q-114 0 -194.5 -70t-114.5 -191zM466 158 q108 0 189 59t101 150l24 106l-270 -12q-104 -5 -165.5 -49t-61.5 -112q0 -62 50 -102t133 -40zM1151 1224h-187l278 305h224z" glyph-name="aeacute" horiz-adv-x="1761" unicode="ǽ"/><glyph d="M1392 1855l-325 -296h-191l285 296h231zM1274 1031l-752 -753q101 -95 259 -95q152 0 273.5 87t188.5 235t67 326q0 113 -36 200zM432 412l753 753q-103 95 -259 95q-152 0 -274 -87t-188.5 -234.5t-66.5 -325.5q0 -113 35 -201zM1603 1360l-158 -159q94 -151 94 -360 q0 -240 -98.5 -438t-273 -312t-389.5 -114q-251 0 -414 144l-151 -152l-110 114l159 159q-94 153 -94 360q0 240 98 438t272 312t389 114q252 0 415 -144l152 152z" glyph-name="Oslashacute" horiz-adv-x="1530" unicode="Ǿ"/><glyph d="M1121 1529l-315 -305h-187l278 305h224zM890 710l-485 -487q65 -60 159 -60q146 0 242.5 126t96.5 315q0 54 -13 106zM335 346l485 487q-65 60 -159 60q-147 0 -243 -126t-96 -316q0 -55 13 -105zM1169 991l-118 -119q66 -111 66 -264q0 -132 -42.5 -248t-116 -199.5 t-176.5 -132t-220 -48.5q-180 0 -300 100l-111 -112l-95 97l118 119q-66 111 -66 263q0 176 72 320t199.5 226.5t284.5 82.5q179 0 299 -100l111 112z" glyph-name="oslashacute" horiz-adv-x="1133" unicode="ǿ"/><glyph d="M859 1192l-346 -621h436l-85 621h-5zM1021 0l-50 383h-554l-217 -383h-243l828 1443h245l210 -1443h-219zM681 1559l-201 296h209l160 -296h-168zM1028 1559l-201 296h209l160 -296h-168z" glyph-name="Adblgrave" horiz-adv-x="1328" unicode="Ȁ"/><glyph d="M461 159q104 0 184 59t101 151l24 106l-263 -13q-108 -5 -168.5 -47t-60.5 -113q0 -65 50.5 -104t132.5 -39zM390 -18q-137 0 -231 82.5t-94 209.5q0 156 115.5 245.5t323.5 98.5l298 14l14 64q4 17 4 46q0 70 -50.5 109.5t-143.5 39.5q-95 0 -153.5 -39.5t-73.5 -108.5 h-214q25 149 149 241t309 92q175 0 282.5 -85.5t107.5 -221.5q0 -48 -7 -88l-144 -681h-207l27 128h-3q-52 -68 -132.5 -107t-176.5 -39zM617 1224h-154l-184 305h197zM953 1224h-155l-183 305h197z" glyph-name="adblgrave" horiz-adv-x="1048" unicode="ȁ"/><glyph d="M859 1192l-346 -621h436l-85 621h-5zM1021 0l-50 383h-554l-217 -383h-243l828 1443h245l210 -1443h-219zM1258 1541h-145q8 20 8 43q0 66 -41.5 104.5t-113.5 38.5q-84 0 -147 -51t-83 -135h-146q32 143 137 227.5t261 84.5q122 0 200.5 -68.5t78.5 -175.5q0 -41 -9 -68 z" glyph-name="Ainvertedbreve" horiz-adv-x="1328" unicode="Ȃ"/><glyph d="M461 159q104 0 184 59t101 151l24 106l-263 -13q-108 -5 -168.5 -47t-60.5 -113q0 -65 50.5 -104t132.5 -39zM390 -18q-137 0 -231 82.5t-94 209.5q0 156 115.5 245.5t323.5 98.5l298 14l14 64q4 17 4 46q0 70 -50.5 109.5t-143.5 39.5q-95 0 -153.5 -39.5t-73.5 -108.5 h-214q25 149 149 241t309 92q175 0 282.5 -85.5t107.5 -221.5q0 -48 -7 -88l-144 -681h-207l27 128h-3q-52 -68 -132.5 -107t-176.5 -39zM1021 1207h-145q7 23 7 47q0 66 -41.5 104t-112.5 38q-84 0 -147.5 -51t-82.5 -138h-147q33 148 137.5 232t261.5 84q120 0 199.5 -69 t79.5 -178q0 -38 -9 -69z" glyph-name="ainvertedbreve" horiz-adv-x="1048" unicode="ȃ"/><glyph d="M1027 204l-40 -204h-918l307 1443h918l-42 -204h-690l-90 -408h653l-40 -194h-652l-95 -433h689zM608 1559l-201 296h209l160 -296h-168zM955 1559l-201 296h209l160 -296h-168z" glyph-name="Edblgrave" horiz-adv-x="1147" unicode="Ȅ"/><glyph d="M343 633h524q1 8 1 29q0 99 -58 165.5t-172 66.5q-109 0 -187 -72.5t-108 -188.5zM553 -22q-212 0 -328.5 128.5t-116.5 341.5q0 174 67.5 317t190.5 227t277 84q200 0 317.5 -121t117.5 -327q0 -86 -11 -152h-749q-1 -12 -1 -35q0 -128 65.5 -203.5t175.5 -75.5 q96 0 165 45t101 123h207q-42 -154 -173 -253t-305 -99zM615 1224h-154l-184 305h197zM951 1224h-155l-183 305h197z" glyph-name="edblgrave" horiz-adv-x="1093" unicode="ȅ"/><glyph d="M1027 204l-40 -204h-918l307 1443h918l-42 -204h-690l-90 -408h653l-40 -194h-652l-95 -433h689zM1185 1541h-145q8 20 8 43q0 66 -41.5 104.5t-113.5 38.5q-84 0 -147 -51t-83 -135h-146q32 143 137 227.5t261 84.5q122 0 200.5 -68.5t78.5 -175.5q0 -41 -9 -68z" glyph-name="Einvertedbreve" horiz-adv-x="1147" unicode="Ȇ"/><glyph d="M343 633h524q1 8 1 29q0 99 -58 165.5t-172 66.5q-109 0 -187 -72.5t-108 -188.5zM553 -22q-212 0 -328.5 128.5t-116.5 341.5q0 174 67.5 317t190.5 227t277 84q200 0 317.5 -121t117.5 -327q0 -86 -11 -152h-749q-1 -12 -1 -35q0 -128 65.5 -203.5t175.5 -75.5 q96 0 165 45t101 123h207q-42 -154 -173 -253t-305 -99zM1019 1207h-145q7 23 7 47q0 66 -41.5 104t-112.5 38q-84 0 -147.5 -51t-82.5 -138h-147q33 148 137.5 232t261.5 84q120 0 199.5 -69t79.5 -178q0 -38 -9 -69z" glyph-name="einvertedbreve" horiz-adv-x="1093" unicode="ȇ"/><glyph d="M296 0h-227l307 1443h227zM268 1559l-201 296h209l160 -296h-168zM615 1559l-201 296h209l160 -296h-168z" glyph-name="Idblgrave" horiz-adv-x="496" unicode="Ȉ"/><glyph d="M51 0l224 1055h215l-223 -1055h-216zM344 1224h-154l-184 305h197zM680 1224h-155l-183 305h197z" glyph-name="idblgrave" horiz-adv-x="449" unicode="ȉ"/><glyph d="M296 0h-227l307 1443h227zM845 1541h-145q8 20 8 43q0 66 -41.5 104.5t-113.5 38.5q-84 0 -147 -51t-83 -135h-146q32 143 137 227.5t261 84.5q122 0 200.5 -68.5t78.5 -175.5q0 -41 -9 -68z" glyph-name="Iinvertedbreve" horiz-adv-x="496" unicode="Ȋ"/><glyph d="M51 0l224 1055h215l-223 -1055h-216zM749 1207h-145q7 23 7 47q0 66 -41.5 104t-112.5 38q-84 0 -147.5 -51t-82.5 -138h-147q33 148 137.5 232t261.5 84q120 0 199.5 -69t79.5 -178q0 -38 -9 -69z" glyph-name="iinvertedbreve" horiz-adv-x="449" unicode="ȋ"/><glyph d="M926 1260q-152 0 -274 -87t-188.5 -234.5t-66.5 -325.5q0 -197 104.5 -313.5t279.5 -116.5q152 0 273.5 87t188.5 235t67 326q0 196 -104.5 312.5t-279.5 116.5zM778 -23q-277 0 -443.5 172t-166.5 453q0 240 98 438t272 312t389 114q278 0 445 -172t167 -453 q0 -240 -98.5 -438t-273 -312t-389.5 -114zM723 1559l-201 296h209l160 -296h-168zM1070 1559l-201 296h209l160 -296h-168z" glyph-name="Odblgrave" horiz-adv-x="1530" unicode="Ȍ"/><glyph d="M565 169q145 0 240 124t95 309q0 129 -65 207t-175 78q-145 0 -240 -124t-95 -310q0 -129 65 -206.5t175 -77.5zM664 1076q206 0 329.5 -128t123.5 -340q0 -132 -42.5 -248t-116 -199.5t-176.5 -132t-220 -48.5q-206 0 -330 128t-124 339q0 176 72 320t199.5 226.5 t284.5 82.5zM631 1224h-154l-184 305h197zM967 1224h-155l-183 305h197z" glyph-name="odblgrave" horiz-adv-x="1133" unicode="ȍ"/><glyph d="M926 1260q-152 0 -274 -87t-188.5 -234.5t-66.5 -325.5q0 -197 104.5 -313.5t279.5 -116.5q152 0 273.5 87t188.5 235t67 326q0 196 -104.5 312.5t-279.5 116.5zM778 -23q-277 0 -443.5 172t-166.5 453q0 240 98 438t272 312t389 114q278 0 445 -172t167 -453 q0 -240 -98.5 -438t-273 -312t-389.5 -114zM1300 1541h-145q8 20 8 43q0 66 -41.5 104.5t-113.5 38.5q-84 0 -147 -51t-83 -135h-146q32 143 137 227.5t261 84.5q122 0 200.5 -68.5t78.5 -175.5q0 -41 -9 -68z" glyph-name="Oinvertedbreve" horiz-adv-x="1530" unicode="Ȏ"/><glyph d="M565 169q145 0 240 124t95 309q0 129 -65 207t-175 78q-145 0 -240 -124t-95 -310q0 -129 65 -206.5t175 -77.5zM664 1076q206 0 329.5 -128t123.5 -340q0 -132 -42.5 -248t-116 -199.5t-176.5 -132t-220 -48.5q-206 0 -330 128t-124 339q0 176 72 320t199.5 226.5 t284.5 82.5zM1035 1207h-145q7 23 7 47q0 66 -41.5 104t-112.5 38q-84 0 -147.5 -51t-82.5 -138h-147q33 148 137.5 232t261.5 84q120 0 199.5 -69t79.5 -178q0 -38 -9 -69z" glyph-name="oinvertedbreve" horiz-adv-x="1133" unicode="ȏ"/><glyph d="M1088 1559h-168l-201 296h209zM741 1559h-168l-201 296h209zM453 741h319q149 0 243 80.5t94 206.5q0 101 -62.5 159.5t-171.5 58.5h-312zM376 1443h531q205 0 319.5 -107t114.5 -286q0 -168 -102 -298t-278 -173l195 -579h-236l-180 550h-325l-118 -550h-228z" glyph-name="Rdblgrave" horiz-adv-x="1292" unicode="Ȑ"/><glyph d="M41 0l224 1055h205l-29 -143h4q104 159 288 159q75 0 125 -25l-43 -208q-56 26 -137 26q-124 0 -195.5 -67.5t-101.5 -202.5l-126 -594h-214zM495 1224h-154l-184 305h197zM831 1224h-155l-183 305h197z" glyph-name="rdblgrave" horiz-adv-x="733" unicode="ȑ"/><glyph d="M1150 1541h-145q8 20 8 43q0 66 -41.5 104.5t-113.5 38.5q-84 0 -147 -51t-83 -135h-146q32 143 137 227.5t261 84.5q122 0 200.5 -68.5t78.5 -175.5q0 -41 -9 -68zM453 741h319q149 0 243 80.5t94 206.5q0 101 -62.5 159.5t-171.5 58.5h-312zM376 1443h531 q205 0 319.5 -107t114.5 -286q0 -168 -102 -298t-278 -173l195 -579h-236l-180 550h-325l-118 -550h-228z" glyph-name="Rinvertedbreve" horiz-adv-x="1292" unicode="Ȓ"/><glyph d="M41 0l224 1055h205l-29 -143h4q104 159 288 159q75 0 125 -25l-43 -208q-56 26 -137 26q-124 0 -195.5 -67.5t-101.5 -202.5l-126 -594h-214zM900 1207h-145q7 23 7 47q0 66 -41.5 104t-112.5 38q-84 0 -147.5 -51t-82.5 -138h-147q33 148 137.5 232t261.5 84 q120 0 199.5 -69t79.5 -178q0 -38 -9 -69z" glyph-name="rinvertedbreve" horiz-adv-x="733" unicode="ȓ"/><glyph d="M701 -23q-245 0 -383.5 128t-139.5 329q-1 59 13 128l185 881h227l-183 -870q-15 -63 -13 -120q5 -124 87 -194.5t236 -70.5q150 0 255 86t139 239l199 930h227l-208 -980q-50 -232 -214 -359t-427 -127zM726 1559l-201 296h209l160 -296h-168zM1073 1559l-201 296h209 l160 -296h-168z" glyph-name="Udblgrave" horiz-adv-x="1443" unicode="Ȕ"/><glyph d="M1179 1055l-223 -1055h-205l33 154h-4q-42 -72 -136 -123t-208 -51q-148 0 -236 84t-88 214q0 74 15 146l132 631h215l-127 -597q-12 -57 -12 -103q0 -181 197 -181q113 0 194 70.5t106 185.5l133 625h214zM675 1224h-154l-184 305h197zM1011 1224h-155l-183 305h197z" glyph-name="udblgrave" horiz-adv-x="1128" unicode="ȕ"/><glyph d="M701 -23q-245 0 -383.5 128t-139.5 329q-1 59 13 128l185 881h227l-183 -870q-15 -63 -13 -120q5 -124 87 -194.5t236 -70.5q150 0 255 86t139 239l199 930h227l-208 -980q-50 -232 -214 -359t-427 -127zM1303 1541h-145q8 20 8 43q0 66 -41.5 104.5t-113.5 38.5 q-84 0 -147 -51t-83 -135h-146q32 143 137 227.5t261 84.5q122 0 200.5 -68.5t78.5 -175.5q0 -41 -9 -68z" glyph-name="Uinvertedbreve" horiz-adv-x="1443" unicode="Ȗ"/><glyph d="M1179 1055l-223 -1055h-205l33 154h-4q-42 -72 -136 -123t-208 -51q-148 0 -236 84t-88 214q0 74 15 146l132 631h215l-127 -597q-12 -57 -12 -103q0 -181 197 -181q113 0 194 70.5t106 185.5l133 625h214zM1079 1207h-145q7 23 7 47q0 66 -41.5 104t-112.5 38 q-84 0 -147.5 -51t-82.5 -138h-147q33 148 137.5 232t261.5 84q120 0 199.5 -69t79.5 -178q0 -38 -9 -69z" glyph-name="uinvertedbreve" horiz-adv-x="1128" unicode="ȗ"/><glyph d="M93 424h221q14 -111 109 -179.5t244 -68.5q134 0 219.5 57.5t85.5 157.5q0 83 -54.5 132.5t-184.5 89.5l-106 34q-182 56 -270 150t-88 238q0 193 144.5 312t373.5 119q234 0 379 -115t145 -312h-217q-5 103 -87 165.5t-220 62.5q-136 0 -212 -61t-76 -147 q0 -73 56 -122.5t179 -87.5l107 -34q185 -57 274.5 -149t89.5 -232q0 -93 -36 -175t-103 -145t-171 -100t-231 -37q-243 0 -403.5 120.5t-167.5 326.5zM494 -476h-165l189 350h199z" glyph-name="Scommaaccent" horiz-adv-x="1255" unicode="Ș"/><glyph d="M181 751q0 143 113 233.5t295 90.5q177 0 289 -92t114 -238h-200q-6 70 -63.5 115t-142.5 45q-90 0 -143.5 -37.5t-53.5 -96.5q0 -49 36.5 -79.5t130.5 -59.5l97 -31q143 -47 205.5 -113t62.5 -170q0 -148 -119.5 -243t-305.5 -95q-193 0 -312.5 94t-124.5 243h210 q11 -75 73 -120.5t163 -45.5q87 0 144.5 42.5t57.5 105.5q0 45 -33.5 71.5t-127.5 55.5l-91 29q-144 46 -209 116.5t-65 179.5zM336 -476h-165l189 350h199z" glyph-name="scommaaccent" horiz-adv-x="986" unicode="ș"/><glyph d="M663 0h-228l266 1239h-452l41 204h1131l-41 -204h-452zM400 -476h-165l189 350h199z" glyph-name="Tcommaaccent" horiz-adv-x="1228" unicode="Ț"/><glyph d="M442 -10q-127 0 -203 56.5t-76 164.5q0 52 10 97l122 560h-156l36 179h157l53 260h215l-55 -260h221l-35 -179h-222l-111 -510q-11 -49 -11 -82q0 -104 134 -104q46 0 72 5l-36 -176q-62 -11 -115 -11zM226 -476h-165l189 350h199z" glyph-name="tcommaaccent" horiz-adv-x="663" unicode="ț"/><glyph d="M1261 0h-229l136 634h-734l-136 -634h-229l307 1443h229l-130 -606h734l130 606h229zM910 1554l-213 307h176l132 -192h6l213 192h195l-342 -307h-167z" glyph-name="Hcaron" horiz-adv-x="1460" unicode="Ȟ"/><glyph d="M46 0l307 1443h214l-118 -551h5q49 81 137.5 131.5t202.5 50.5q148 0 241 -90t93 -220q0 -55 -14 -125l-139 -639h-214l131 602q12 53 12 94q0 85 -57 137t-155 52q-111 0 -192 -70.5t-106 -184.5l-133 -630h-215zM405 1554l-213 307h176l132 -192h6l213 192h195 l-342 -307h-167z" glyph-name="hcaron" horiz-adv-x="1145" unicode="ȟ"/><glyph d="M859 1192l-346 -621h436l-85 621h-5zM1021 0l-50 383h-554l-217 -383h-243l828 1443h245l210 -1443h-219zM964 1609q-55 0 -94.5 40t-39.5 96t39.5 96t94.5 40t94 -40t39 -96t-39 -96t-94 -40z" glyph-name="Adotaccent" horiz-adv-x="1328" unicode="Ȧ"/><glyph d="M461 159q104 0 184 59t101 151l24 106l-263 -13q-108 -5 -168.5 -47t-60.5 -113q0 -65 50.5 -104t132.5 -39zM390 -18q-137 0 -231 82.5t-94 209.5q0 156 115.5 245.5t323.5 98.5l298 14l14 64q4 17 4 46q0 70 -50.5 109.5t-143.5 39.5q-95 0 -153.5 -39.5t-73.5 -108.5 h-214q25 149 149 241t309 92q175 0 282.5 -85.5t107.5 -221.5q0 -48 -7 -88l-144 -681h-207l27 128h-3q-52 -68 -132.5 -107t-176.5 -39zM716 1221q-55 0 -94 40t-39 96t39 96t94 40t94.5 -40t39.5 -96t-39.5 -96t-94.5 -40z" glyph-name="adotaccent" horiz-adv-x="1048" unicode="ȧ"/><glyph d="M1252 1239h-690l-90 -408h653l-40 -194h-652l-95 -433h689l-40 -204h-363l-76 -125q85 0 132 -38t47 -108q0 -92 -72 -149.5t-188 -57.5q-99 0 -170 26l26 125q61 -22 133 -22q123 0 123 64q0 31 -34.5 45t-112.5 14h-59l19 85l83 141h-406l307 1443h918z" glyph-name="Ecedilla" horiz-adv-x="1147" unicode="Ȩ"/><glyph d="M343 633h524q1 8 1 29q0 99 -58 165.5t-172 66.5q-109 0 -187 -72.5t-108 -188.5zM1067 476h-749q-1 -12 -1 -35q0 -128 65.5 -203.5t175.5 -75.5q96 0 165 45t101 123h207q-38 -140 -150 -235t-265 -113l-65 -107q85 0 132 -38t47 -108q0 -92 -72 -149.5t-188 -57.5 q-99 0 -170 26l26 125q61 -22 133 -22q123 0 123 64q0 31 -34.5 45t-112.5 14h-59l19 85l74 125q-173 25 -267 149.5t-94 314.5q0 174 67.5 317t190.5 227t277 84q200 0 317.5 -121t117.5 -327q0 -86 -11 -152z" glyph-name="ecedilla" horiz-adv-x="1093" unicode="ȩ"/><glyph d="M926 1260q-152 0 -274 -87t-188.5 -234.5t-66.5 -325.5q0 -197 104.5 -313.5t279.5 -116.5q152 0 273.5 87t188.5 235t67 326q0 196 -104.5 312.5t-279.5 116.5zM778 -23q-277 0 -443.5 172t-166.5 453q0 240 98 438t272 312t389 114q278 0 445 -172t167 -453 q0 -240 -98.5 -438t-273 -312t-389.5 -114zM808 1783q48 0 81 -34t33 -83q0 -48 -33 -82t-81 -34t-81 34t-33 82q0 49 33 83t81 34zM1400 2048l-27 -132h-654l27 132h654zM1178 1783q49 0 82 -34t33 -83q0 -48 -33.5 -82t-81.5 -34q-47 0 -80 34t-33 82q0 49 33 83t80 34z" glyph-name="Odieresismacron" horiz-adv-x="1530" unicode="Ȫ"/><glyph d="M565 169q145 0 240 124t95 309q0 129 -65 207t-175 78q-145 0 -240 -124t-95 -310q0 -129 65 -206.5t175 -77.5zM664 1076q206 0 329.5 -128t123.5 -340q0 -132 -42.5 -248t-116 -199.5t-176.5 -132t-220 -48.5q-206 0 -330 128t-124 339q0 176 72 320t199.5 226.5 t284.5 82.5zM538 1212q-49 0 -83 34t-34 83t34 83.5t83 34.5q48 0 82.5 -34.5t34.5 -83.5t-34.5 -83t-82.5 -34zM918 1212q-49 0 -83 34t-34 83t34 83.5t83 34.5t83 -34.5t34 -83.5t-34 -83t-83 -34zM1116 1733l-27 -131h-597l26 131h598z" glyph-name="odieresismacron" horiz-adv-x="1133" unicode="ȫ"/><glyph d="M926 1260q-152 0 -274 -87t-188.5 -234.5t-66.5 -325.5q0 -197 104.5 -313.5t279.5 -116.5q152 0 273.5 87t188.5 235t67 326q0 196 -104.5 312.5t-279.5 116.5zM778 -23q-277 0 -443.5 172t-166.5 453q0 240 98 438t272 312t389 114q278 0 445 -172t167 -453 q0 -240 -98.5 -438t-273 -312t-389.5 -114zM1400 2048l-28 -132h-654l28 132h654zM1111 1540q-38 0 -70 14.5t-53.5 35.5t-40.5 42t-39 35.5t-41 14.5q-34 0 -60.5 -33t-36.5 -90h-132q22 119 86.5 186t155.5 67q45 0 83 -22.5t59.5 -49t48 -49t51.5 -22.5q33 0 58.5 32.5 t38.5 92.5h132q-22 -116 -88 -185t-152 -69z" glyph-name="Otildemacron" horiz-adv-x="1530" unicode="Ȭ"/><glyph d="M565 169q145 0 240 124t95 309q0 129 -65 207t-175 78q-145 0 -240 -124t-95 -310q0 -129 65 -206.5t175 -77.5zM664 1076q206 0 329.5 -128t123.5 -340q0 -132 -42.5 -248t-116 -199.5t-176.5 -132t-220 -48.5q-206 0 -330 128t-124 339q0 176 72 320t199.5 226.5 t284.5 82.5zM851 1181q-37 0 -68.5 15t-52.5 36t-39.5 42t-39 36t-41.5 15q-35 0 -62.5 -34.5t-39.5 -97.5h-134q22 123 87.5 193.5t155.5 70.5q39 0 71.5 -15t53.5 -36t39 -42t37.5 -36t39.5 -15q32 0 59 34.5t42 99.5h133q-25 -122 -90.5 -194t-150.5 -72zM1116 1733 l-27 -131h-597l26 131h598z" glyph-name="otildemacron" horiz-adv-x="1133" unicode="ȭ"/><glyph d="M926 1260q-152 0 -274 -87t-188.5 -234.5t-66.5 -325.5q0 -197 104.5 -313.5t279.5 -116.5q152 0 273.5 87t188.5 235t67 326q0 196 -104.5 312.5t-279.5 116.5zM778 -23q-277 0 -443.5 172t-166.5 453q0 240 98 438t272 312t389 114q278 0 445 -172t167 -453 q0 -240 -98.5 -438t-273 -312t-389.5 -114zM1006 1609q-55 0 -94.5 40t-39.5 96t39.5 96t94.5 40t94 -40t39 -96t-39 -96t-94 -40z" glyph-name="Odotaccent" horiz-adv-x="1530" unicode="Ȯ"/><glyph d="M565 169q145 0 240 124t95 309q0 129 -65 207t-175 78q-145 0 -240 -124t-95 -310q0 -129 65 -206.5t175 -77.5zM664 1076q206 0 329.5 -128t123.5 -340q0 -132 -42.5 -248t-116 -199.5t-176.5 -132t-220 -48.5q-206 0 -330 128t-124 339q0 176 72 320t199.5 226.5 t284.5 82.5zM730 1221q-55 0 -94 40t-39 96t39 96t94 40t94.5 -40t39.5 -96t-39.5 -96t-94.5 -40z" glyph-name="odotaccent" horiz-adv-x="1133" unicode="ȯ"/><glyph d="M926 1260q-152 0 -274 -87t-188.5 -234.5t-66.5 -325.5q0 -197 104.5 -313.5t279.5 -116.5q152 0 273.5 87t188.5 235t67 326q0 196 -104.5 312.5t-279.5 116.5zM778 -23q-277 0 -443.5 172t-166.5 453q0 240 98 438t272 312t389 114q278 0 445 -172t167 -453 q0 -240 -98.5 -438t-273 -312t-389.5 -114zM998 1567q-52 0 -89 37t-37 90q0 52 37 89t89 37q53 0 89.5 -37t36.5 -89q0 -53 -36.5 -90t-89.5 -37zM1400 2048l-28 -132h-654l28 132h654z" glyph-name="Odotaccentmacron" horiz-adv-x="1530" unicode="Ȱ"/><glyph d="M565 169q145 0 240 124t95 309q0 129 -65 207t-175 78q-145 0 -240 -124t-95 -310q0 -129 65 -206.5t175 -77.5zM664 1076q206 0 329.5 -128t123.5 -340q0 -132 -42.5 -248t-116 -199.5t-176.5 -132t-220 -48.5q-206 0 -330 128t-124 339q0 176 72 320t199.5 226.5 t284.5 82.5zM729 1201q-55 0 -92.5 38.5t-37.5 93.5q0 56 37.5 94t92.5 38t92 -38t37 -94q0 -55 -37.5 -93.5t-91.5 -38.5zM1116 1733l-27 -131h-597l26 131h598z" glyph-name="odotaccentmacron" horiz-adv-x="1133" unicode="ȱ"/><glyph d="M694 0h-228l125 588l-326 855h235l242 -640h4l507 640h253l-692 -874zM1278 1759l-27 -132h-655l28 132h654z" glyph-name="Ymacron" horiz-adv-x="1287" unicode="Ȳ"/><glyph d="M97 -385q-81 0 -124 13l33 183q31 -12 96 -12q129 0 202 153q0 1 14 29l13 28l-159 1046h214l102 -838h4l435 838h233l-635 -1137q-92 -170 -190.5 -236.5t-237.5 -66.5zM1034 1412l-27 -131h-597l26 131h598z" glyph-name="ymacron" horiz-adv-x="1017" unicode="ȳ"/><glyph d="M488 1055l-241 -1129q-63 -293 -362 -295q-43 0 -96 7l39 181q40 -4 53 -4q68 0 103.5 32t52.5 106l235 1102h216z" glyph-name="dotlessj" horiz-adv-x="442" unicode="ȷ"/><glyph d="M426 908h-172l202 535h218z" glyph-name="quoteright" horiz-adv-x="558" unicode="ʼ"/><glyph d="M426 908h-172l202 535h218z" glyph-name="quoteright" horiz-adv-x="558" unicode="’"/><glyph d="M884 1528l204 -308h-179l-123 189h-7l-205 -189h-191l335 308h166z" glyph-name="circumflex" horiz-adv-x="1086" unicode="ˆ"/><glyph d="M818 1220h-167l-203 308h173l123 -192h7l205 192h196z" glyph-name="caron" horiz-adv-x="1086" unicode="ˇ"/><glyph d="M467 1528h145q-7 -24 -7 -47q0 -66 41 -104t113 -38q84 0 147.5 51t82.5 138h147q-33 -148 -137.5 -232t-261.5 -84q-120 0 -199.5 69t-79.5 177q0 30 9 70z" glyph-name="breve" horiz-adv-x="1086" unicode="˘"/><glyph d="M764 1221q-55 0 -94 40t-39 96t39 96t94 40t94.5 -40t39.5 -96t-39.5 -96t-94.5 -40z" glyph-name="dotaccent" horiz-adv-x="1085" unicode="˙"/><glyph d="M764 1172q-82 0 -139.5 54.5t-57.5 140.5q0 90 59 149t145 59q84 0 141.5 -54t56.5 -141q-1 -90 -59.5 -149t-145.5 -59zM764 1274q46 0 75 28.5t28 75.5q-1 43 -27.5 69.5t-68.5 26.5q-45 0 -73.5 -28.5t-28.5 -76.5q0 -42 27 -68.5t68 -26.5z" glyph-name="ring" horiz-adv-x="1087" unicode="˚"/><glyph d="M602 -292l-28 -139q-28 -11 -88 -11q-111 0 -174 53t-63 144q0 84 64 162t171 129l136 -30q-187 -96 -187 -215q0 -95 125 -95q26 0 44 2z" glyph-name="ogonek" horiz-adv-x="1086" unicode="˛"/><glyph d="M884 1226q-37 0 -68.5 15t-52.5 36t-39.5 42t-39 36t-41.5 15q-35 0 -62.5 -34.5t-39.5 -97.5h-134q22 123 87.5 193.5t155.5 70.5q39 0 71.5 -15t53.5 -36t39 -42t37.5 -36t39.5 -15q32 0 59 34.5t42 99.5h133q-25 -122 -90.5 -194t-150.5 -72z" glyph-name="tilde" horiz-adv-x="1086" unicode="˜"/><glyph d="M701 1224l259 305h213l-301 -305h-171zM364 1224l259 305h213l-302 -305h-170z" glyph-name="hungarumlaut" horiz-adv-x="1086" unicode="˝"/><glyph d="M284 1224h-171l-185 305h207z" glyph-name="gravecmb" unicode="̀"/><glyph d="M294 1224h-187l278 305h224z" glyph-name="acutecmb" unicode="́"/><glyph d="M346 1528l204 -308h-179l-123 189h-7l-205 -189h-191l335 308h166z" glyph-name="circumflexcmb" unicode="̂"/><glyph d="M341 1226q-37 0 -68.5 15t-52.5 36t-39.5 42t-39 36t-41.5 15q-35 0 -62.5 -34.5t-39.5 -97.5h-134q22 123 87.5 193.5t155.5 70.5q39 0 71.5 -15t53.5 -36t39 -42t37.5 -36t39.5 -15q32 0 59 34.5t42 99.5h133q-25 -122 -90.5 -194t-150.5 -72z" glyph-name="tildecmb" unicode="̃"/><glyph d="M537 1412l-27 -131h-597l26 131h598z" glyph-name="macroncmb" unicode="̄"/><glyph d="M-75 1528h145q-7 -24 -7 -47q0 -66 41 -104t113 -38q84 0 147.5 51t82.5 138h147q-33 -148 -137.5 -232t-261.5 -84q-120 0 -199.5 69t-79.5 177q0 30 9 70z" glyph-name="brevecmb" unicode="̆"/><glyph d="M218 1221q-55 0 -94 40t-39 96t39 96t94 40t94.5 -40t39.5 -96t-39.5 -96t-94.5 -40z" glyph-name="dotaccentcmb" unicode="̇"/><glyph d="M28 1225q-49 0 -83 34t-34 83t34 83t83 34t83 -34t34 -83t-34 -83t-83 -34zM408 1225q-49 0 -83 34t-34 83t34 83t83 34t83 -34t34 -83t-34 -83t-83 -34z" glyph-name="dieresiscmb" unicode="̈"/><glyph d="M78 1455l25 121q51 24 127 24q78 0 130 -44.5t52 -111.5q0 -83 -59 -150.5t-157 -97.5l-51 98q116 39 116 118q0 28 -23 46.5t-57 18.5q-60 0 -103 -22z" glyph-name="hookabovecmb" unicode="̉"/><glyph d="M220 1172q-82 0 -139.5 54.5t-57.5 140.5q0 90 59 149t145 59q84 0 141.5 -54t56.5 -141q-1 -90 -59.5 -149t-145.5 -59zM220 1274q46 0 75 28.5t28 75.5q-1 43 -27.5 69.5t-68.5 26.5q-45 0 -73.5 -28.5t-28.5 -76.5q0 -42 27 -68.5t68 -26.5z" glyph-name="ringcmb" unicode="̊"/><glyph d="M286 1224l259 305h213l-301 -305h-171zM-51 1224l259 305h213l-302 -305h-170z" glyph-name="hungarumlautcmb" unicode="̋"/><glyph d="M288 1220h-167l-203 308h173l123 -192h7l205 192h196z" glyph-name="caroncmb" unicode="̌"/><glyph d="M119 1224h-154l-184 305h197zM455 1224h-155l-183 305h197z" glyph-name="dblgravecmb" unicode="̏"/><glyph d="M524 1212h-145q7 23 7 47q0 66 -41.5 104t-112.5 38q-84 0 -147.5 -51t-82.5 -138h-147q33 148 137.5 232t261.5 84q120 0 199.5 -69t79.5 -178q0 -37 -9 -69z" glyph-name="invertedbrevecmb" unicode="̑"/><glyph d="M-62 938l34 169q29 -34 88 -34q56 0 87 30.5t47 105.5l37 173h184l-48 -224q-27 -128 -104.5 -192.5t-192.5 -64.5q-89 0 -132 37z" glyph-name="horncmb" unicode="̛"/><glyph d="M-134 -445q-55 0 -94.5 40t-39.5 96t39.5 96t94.5 40t94 -40t39 -96t-39 -96t-94 -40z" glyph-name="dotbelowcmb" unicode="̣"/><glyph d="M-322 -426q-48 0 -82.5 34t-34.5 83t34.5 83t82.5 34q49 0 83 -34t34 -83t-34 -83t-83 -34zM59 -426q-49 0 -83 34t-34 83t34 83t83 34q48 0 82.5 -34t34.5 -83t-34.5 -83t-82.5 -34z" glyph-name="dieresisbelowcmb" unicode="̤"/><glyph d="M-136 -511q-82 0 -139.5 54.5t-57.5 140.5q0 90 59 149t145 59q84 0 141.5 -54t56.5 -141q-1 -90 -59.5 -149t-145.5 -59zM-136 -409q46 0 75 28.5t28 75.5q-1 43 -27.5 69.5t-68.5 26.5q-45 0 -73.5 -28.5t-28.5 -76.5q0 -42 27 -68.5t68 -26.5z" glyph-name="ringbelowcmb" unicode="̥"/><glyph d="M-218 -476h-165l189 350h199z" glyph-name="commabelowcmb" unicode="̦"/><glyph d="M-242 -226l19 85l89 151h144l-1 -10l-76 -125q85 0 132 -38t47 -108q0 -92 -72 -149.5t-188 -57.5q-99 0 -170 26l26 125q61 -22 133 -22q123 0 123 64q0 31 -34.5 45t-112.5 14h-59z" glyph-name="cedillacmb" unicode="̧"/><glyph d="M45 -292l-28 -139q-28 -11 -88 -11q-111 0 -174 53t-63 144q0 84 64 162t171 129l136 -30q-187 -96 -187 -215q0 -95 125 -95q26 0 44 2z" glyph-name="ogonekcmb" unicode="̨"/><glyph d="M-27 -165l213 -307h-176l-131 192h-6l-213 -192h-196l343 307h166z" glyph-name="circumflexbelowcmb" unicode="̭"/><glyph d="M-432 -153h145q-8 -26 -8 -47q0 -65 41.5 -102t113.5 -37q84 0 147 50t83 136h146q-32 -145 -136 -228.5t-262 -83.5q-122 0 -200.5 67.5t-78.5 173.5q0 40 9 71z" glyph-name="brevebelowcmb" unicode="̮"/><glyph d="M-7 -448q-37 0 -68.5 15t-52.5 36t-39.5 42t-39 36t-41.5 15q-35 0 -62.5 -34.5t-39.5 -97.5h-134q22 123 87.5 193.5t155.5 70.5q39 0 71.5 -15t53.5 -36t39 -42t37.5 -36t39.5 -15q32 0 59 34.5t42 99.5h133q-25 -122 -90.5 -194t-150.5 -72z" glyph-name="tildebelowcmb" unicode="̰"/><glyph d="M211 -243l-27 -132h-655l28 132h654z" glyph-name="macronbelowcmb" unicode="̱"/><glyph d="M211 -243l-27 -132h-655l28 132h654z" glyph-name="macronbelowcmb" unicode="̲"/><glyph d="M386 719q-55 0 -93 40t-38 97t38 96.5t93 39.5t93 -39.5t38 -96.5t-38 -97t-93 -40zM152 -301h-172l202 535h218z" glyph-name="greekquestionmark" horiz-adv-x="539" unicode=";"/><glyph d="M454 1211l141 309h252l-219 -309h-174z" glyph-name="tonosgreek" horiz-adv-x="833" unicode="΄"/><glyph d="M907 1221h-155l96 317h240zM1198 1224q-50 0 -85 35.5t-35 85.5q-1 50 34 86t85 36q51 0 86 -35.5t35 -86.5q0 -50 -35 -85.5t-85 -35.5zM594 1224q-49 0 -84.5 35.5t-35.5 85.5q-1 50 34 86t85 36q51 0 86 -35.5t35 -86.5q0 -50 -34.5 -85.5t-85.5 -35.5z" glyph-name="dieresistonosgreek" horiz-adv-x="1388" unicode="΅"/><glyph d="M859 1192l-346 -621h436l-85 621h-5zM1021 0l-50 383h-554l-217 -383h-243l828 1443h245l210 -1443h-219zM242 1134l141 309h252l-218 -309h-175z" glyph-name="Alphatonosgreek" horiz-adv-x="1328" unicode="Ά"/><glyph d="M330 480q-55 0 -93 39.5t-38 97.5q0 57 38 96.5t93 39.5t93 -39.5t38 -96.5q0 -58 -38 -97.5t-93 -39.5z" glyph-name="anoteleia" horiz-adv-x="539" unicode="·"/><glyph d="M176 1134l141 309h252l-218 -309h-175zM1332 204l-40 -204h-918l307 1443h918l-42 -204h-690l-90 -408h653l-40 -194h-652l-95 -433h689z" glyph-name="Epsilontonosgreek" horiz-adv-x="1452" unicode="Έ"/><glyph d="M176 1134l141 309h252l-218 -309h-175zM1566 0h-229l136 634h-734l-136 -634h-229l307 1443h229l-130 -606h734l130 606h229z" glyph-name="Etatonosgreek" horiz-adv-x="1766" unicode="Ή"/><glyph d="M176 1134l141 309h252l-218 -309h-175zM601 0h-227l307 1443h227z" glyph-name="Iotatonosgreek" horiz-adv-x="801" unicode="Ί"/><glyph d="M176 1134l141 309h252l-218 -309h-175zM1134 1260q-152 0 -274 -87t-188.5 -234.5t-66.5 -325.5q0 -197 104.5 -313.5t279.5 -116.5q152 0 273.5 87t188.5 235t67 326q0 196 -104.5 312.5t-279.5 116.5zM986 -23q-277 0 -443.5 172t-166.5 453q0 240 98 438t272 312 t389 114q278 0 445 -172t167 -453q0 -240 -98.5 -438t-273 -312t-389.5 -114z" glyph-name="Omicrontonosgreek" horiz-adv-x="1738" unicode="Ό"/><glyph d="M277 1134l141 309h252l-218 -309h-175zM1161 0h-228l125 588l-326 855h235l242 -640h4l507 640h253l-692 -874z" glyph-name="Upsilontonosgreek" horiz-adv-x="1754" unicode="Ύ"/><glyph d="M176 1134l141 309h252l-218 -309h-175zM1123 0l48 241q201 106 306 265t105 363q0 177 -108.5 284.5t-293.5 107.5q-235 0 -378.5 -159t-143.5 -419q0 -291 258 -442l-49 -241h-547l40 199h305v7q-113 82 -174 204t-61 272q0 233 98.5 412t275 276t403.5 97 q275 0 438 -157.5t163 -416.5q0 -210 -108 -395.5t-291 -290.5v-8h307l-40 -199h-553z" glyph-name="Omegatonosgreek" horiz-adv-x="1796" unicode="Ώ"/><glyph d="M464 1055l-148 -697q-11 -49 -11 -82q0 -104 134 -104q49 0 72 5l-36 -176q-64 -11 -115 -11q-131 0 -205 58t-74 163q0 51 10 97l159 747h214zM468 1215h-155l96 317h240zM759 1218q-50 0 -85 35.5t-35 85.5q-1 50 34 86t85 36q51 0 86 -35.5t35 -86.5q0 -50 -35 -85.5 t-85 -35.5zM155 1218q-49 0 -84.5 35.5t-35.5 85.5q-1 50 34 86t85 36q51 0 86 -35.5t35 -86.5q0 -50 -34.5 -85.5t-85.5 -35.5z" glyph-name="iotadieresistonosgreek" horiz-adv-x="558" unicode="ΐ"/><glyph d="M859 1192l-346 -621h436l-85 621h-5zM1021 0l-50 383h-554l-217 -383h-243l828 1443h245l210 -1443h-219z" glyph-name="Alphagreek" horiz-adv-x="1328" unicode="Α"/><glyph d="M703 0h-634l307 1443h539q181 0 291.5 -87t110.5 -228q0 -136 -88.5 -237.5t-229.5 -137.5l-1 -5q117 -20 184 -99.5t67 -190.5q0 -201 -151.5 -329.5t-394.5 -128.5zM563 1259l-91 -422h276q151 0 245.5 68t94.5 176q0 87 -65.5 132.5t-190.5 45.5h-269zM333 191h346 q150 0 244 74t94 189q0 99 -69.5 150.5t-205.5 51.5h-308z" glyph-name="Betagreek" horiz-adv-x="1316" unicode="Β"/><glyph d="M300 0h-231l307 1443h882l-42 -204h-651z" glyph-name="Gammagreek" horiz-adv-x="1080" unicode="Γ"/><glyph d="M1220 0h-1221l31 148l766 1295h244l211 -1296zM869 1199l-574 -990l-1 -5h734l1 3l-155 992h-5z" glyph-name="Deltagreek" horiz-adv-x="1349" unicode="Δ"/><glyph d="M1220 0h-1221l31 148l766 1295h244l211 -1296zM869 1199l-574 -990l-1 -5h734l1 3l-155 992h-5z" glyph-name="Deltagreek" horiz-adv-x="1349" unicode="∆"/><glyph d="M1027 204l-40 -204h-918l307 1443h918l-42 -204h-690l-90 -408h653l-40 -194h-652l-95 -433h689z" glyph-name="Epsilongreek" horiz-adv-x="1147" unicode="Ε"/><glyph d="M28 0l32 161l1001 1073l1 5h-745l42 204h1036l-32 -161l-999 -1073l-1 -5h785l-40 -204h-1080z" glyph-name="Zetagreek" horiz-adv-x="1266" unicode="Ζ"/><glyph d="M1261 0h-229l136 634h-734l-136 -634h-229l307 1443h229l-130 -606h734l130 606h229z" glyph-name="Etagreek" horiz-adv-x="1460" unicode="Η"/><glyph d="M1131 618h-575l40 198h575zM786 -23q-280 0 -449 171.5t-169 457.5q0 179 58.5 337.5t160 273.5t246 182t310.5 67q280 0 449.5 -171.5t169.5 -457.5q0 -179 -58.5 -337.5t-160 -273.5t-246.5 -182t-311 -67zM1334 830q0 198 -107.5 315t-288.5 117q-117 0 -218.5 -51 t-172.5 -138.5t-111.5 -207t-40.5 -253.5q0 -198 108 -314.5t289 -116.5q156 0 280.5 87t193 235.5t68.5 326.5z" glyph-name="Thetagreek" horiz-adv-x="1553" unicode="Θ"/><glyph d="M296 0h-227l307 1443h227z" glyph-name="Iotagreek" horiz-adv-x="496" unicode="Ι"/><glyph d="M296 0h-227l307 1443h227l-145 -674h5l737 674h282l-702 -654l436 -789h-256l-360 646l-204 -182z" glyph-name="Kappagreek" horiz-adv-x="1295" unicode="Κ"/><glyph d="M849 1192l-639 -1192h-243l808 1443h245l190 -1443h-218l-138 1192h-5z" glyph-name="Lambdagreek" horiz-adv-x="1307" unicode="Λ"/><glyph d="M276 0h-207l307 1443h252l221 -1141h5l706 1141h279l-307 -1443h-207l231 1072h-7l-664 -1064h-169l-205 1064h-6z" glyph-name="Mugreek" horiz-adv-x="1732" unicode="Μ"/><glyph d="M293 0h-224l307 1443h208l508 -1082h5l234 1082h224l-307 -1443h-209l-507 1082h-5z" glyph-name="Nugreek" horiz-adv-x="1448" unicode="Ν"/><glyph d="M338 1443h1069l-42 -210h-1069zM1149 631h-896l42 201h895zM73 210h1070l-42 -210h-1070z" glyph-name="Xigreek" horiz-adv-x="1261" unicode="Ξ"/><glyph d="M926 1260q-152 0 -274 -87t-188.5 -234.5t-66.5 -325.5q0 -197 104.5 -313.5t279.5 -116.5q152 0 273.5 87t188.5 235t67 326q0 196 -104.5 312.5t-279.5 116.5zM778 -23q-277 0 -443.5 172t-166.5 453q0 240 98 438t272 312t389 114q278 0 445 -172t167 -453 q0 -240 -98.5 -438t-273 -312t-389.5 -114z" glyph-name="Omicrongreek" horiz-adv-x="1530" unicode="Ο"/><glyph d="M1241 0h-230l267 1239h-715l-266 -1239h-228l307 1443h1172z" glyph-name="Pigreek" horiz-adv-x="1440" unicode="Π"/><glyph d="M376 1443h514q190 0 312.5 -111t122.5 -293q0 -169 -78 -295.5t-213.5 -192t-308.5 -65.5h-323l-105 -486h-228zM563 1245l-122 -562h275q174 0 276.5 89t102.5 246q0 108 -72 167.5t-198 59.5h-262z" glyph-name="Rhogreek" horiz-adv-x="1248" unicode="Ρ"/><glyph d="M357 208l-2 -4h796l-40 -204h-1084l31 155l519 587l-249 531l34 170h1036l-41 -204h-757l-2 -5l222 -483l-5 -18z" glyph-name="Sigmagreek" horiz-adv-x="1269" unicode="Σ"/><glyph d="M663 0h-228l266 1239h-452l41 204h1131l-41 -204h-452z" glyph-name="Taugreek" horiz-adv-x="1228" unicode="Τ"/><glyph d="M694 0h-228l125 588l-326 855h235l242 -640h4l507 640h253l-692 -874z" glyph-name="Upsilongreek" horiz-adv-x="1287" unicode="Υ"/><glyph d="M657 -81l31 146q-255 28 -395 173t-140 377q0 319 224 529.5t585 223.5l32 147h218l-31 -150q255 -27 394.5 -171.5t139.5 -379.5q0 -157 -59 -293.5t-164 -235t-256 -157.5t-330 -65l-30 -144h-219zM728 264l194 905q-244 -8 -393.5 -155.5t-149.5 -385.5 q0 -160 91 -254.5t258 -109.5zM947 262q245 8 394 155.5t149 385.5q0 160 -91 254.5t-258 108.5z" glyph-name="Phigreek" horiz-adv-x="1696" unicode="Φ"/><glyph d="M-28 0l644 732l-327 711h250l245 -541h8l469 541h278l-644 -732l327 -711h-250l-246 543h-8l-470 -543h-276z" glyph-name="Chigreek" horiz-adv-x="1335" unicode="Χ"/><glyph d="M861 0h-222l69 324q-479 47 -479 433q0 57 14 127l116 559h222l-114 -543q-16 -77 -16 -132q0 -116 74.5 -173.5t224.5 -65.5l196 914h222l-197 -918q193 4 299.5 95.5t143.5 265.5l117 557h222l-120 -574q-38 -178 -117.5 -292.5t-223.5 -179.5t-362 -76z" glyph-name="Psigreek" horiz-adv-x="1631" unicode="Ψ"/><glyph d="M864 0l48 241q201 106 306 265t105 363q0 177 -108.5 284.5t-293.5 107.5q-235 0 -378.5 -159t-143.5 -419q0 -291 258 -442l-49 -241h-547l40 199h305v7q-113 82 -174 204t-61 272q0 233 98.5 412t275 276t403.5 97q275 0 438 -157.5t163 -416.5q0 -210 -108 -395.5 t-291 -290.5v-8h307l-40 -199h-553z" glyph-name="Omegagreek" horiz-adv-x="1537" unicode="Ω"/><glyph d="M864 0l48 241q201 106 306 265t105 363q0 177 -108.5 284.5t-293.5 107.5q-235 0 -378.5 -159t-143.5 -419q0 -291 258 -442l-49 -241h-547l40 199h305v7q-113 82 -174 204t-61 272q0 233 98.5 412t275 276t403.5 97q275 0 438 -157.5t163 -416.5q0 -210 -108 -395.5 t-291 -290.5v-8h307l-40 -199h-553z" glyph-name="Omegagreek" horiz-adv-x="1537" unicode="Ω"/><glyph d="M296 0h-227l307 1443h227zM356 1604q-49 0 -83 34t-34 83t34 83t83 34t83 -34t34 -83t-34 -83t-83 -34zM736 1604q-49 0 -83 34t-34 83t34 83t83 34t83 -34t34 -83t-34 -83t-83 -34z" glyph-name="Iotadieresisgreek" horiz-adv-x="496" unicode="Ϊ"/><glyph d="M694 0h-228l125 588l-326 855h235l242 -640h4l507 640h253l-692 -874zM749 1604q-49 0 -83 34t-34 83t34 83t83 34t83 -34t34 -83t-34 -83t-83 -34zM1129 1604q-49 0 -83 34t-34 83t34 83t83 34t83 -34t34 -83t-34 -83t-83 -34z" glyph-name="Upsilondieresisgreek" horiz-adv-x="1287" unicode="Ϋ"/><glyph d="M454 -18q-167 0 -266.5 118t-99.5 319q0 185 67.5 335t186.5 234.5t266 84.5q128 0 210 -64.5t110 -164.5h6l45 211h207l-156 -734q-13 -52 -13 -79q0 -34 19.5 -49t62.5 -15q26 0 49 5l-35 -174q-49 -13 -100 -13q-111 0 -162 41.5t-51 140.5v6h-5q-53 -92 -144.5 -147 t-196.5 -55zM527 170q90 0 167 59t122.5 161.5t45.5 223.5q0 124 -66.5 196t-170.5 72q-143 0 -232 -124.5t-89 -315.5q0 -125 62 -198.5t161 -73.5zM608 1211l141 309h252l-219 -309h-174z" glyph-name="alphatonosgreek" horiz-adv-x="1211" unicode="ά"/><glyph d="M499 -14q-192 0 -304.5 72.5t-112.5 210.5q0 100 65.5 171.5t172.5 98.5v6q-66 26 -102.5 77t-36.5 117q0 152 127.5 241.5t330.5 89.5q121 0 210.5 -28t141.5 -78t77 -112t27 -138h-210q-5 40 -18 68.5t-40 53t-75 37t-117 12.5q-110 0 -173 -41t-63 -107 q0 -118 190 -118h154l-36 -175h-179q-106 0 -163 -39t-57 -105q0 -62 58 -95.5t163 -33.5q114 0 197 46t112 127h220q-39 -164 -187.5 -261t-371.5 -97zM622 1211l141 309h252l-219 -309h-174z" glyph-name="epsilontonosgreek" horiz-adv-x="1073" unicode="έ"/><glyph d="M797 -349l205 951q10 47 10 84q0 89 -57.5 140.5t-150.5 51.5q-113 0 -194.5 -69.5t-109.5 -193.5l-129 -615h-214l160 751q7 34 7 57q0 37 -19.5 54t-63.5 17q-25 0 -52 -5l36 174q43 13 104 13q98 0 146 -38t57 -122l1 -4l4 -21h4q57 94 151 143.5t210 49.5 q144 0 239 -87t95 -232q0 -47 -16 -125l-209 -974h-214zM729 1211l141 309h252l-219 -309h-174z" glyph-name="etatonosgreek" horiz-adv-x="1255" unicode="ή"/><glyph d="M464 1055l-148 -697q-11 -49 -11 -82q0 -104 134 -104q49 0 72 5l-36 -176q-64 -11 -115 -11q-131 0 -205 58t-74 163q0 51 10 97l159 747h214zM309 1211l141 309h252l-219 -309h-174z" glyph-name="iotatonosgreek" horiz-adv-x="558" unicode="ί"/><glyph d="M859 1055h207q17 -74 17 -182q0 -271 -74.5 -473t-214.5 -311t-328 -109q-171 0 -267 86.5t-96 235.5q0 64 19 167l124 586h210l-108 -518q-30 -130 -30 -202q0 -162 174 -162q113 0 199 89.5t133 251.5t47 373q0 57 -12 168zM747 1215h-155l96 317h240zM1038 1218 q-50 0 -85 35.5t-35 85.5q-1 50 34 86t85 36q51 0 86 -35.5t35 -86.5q0 -50 -35 -85.5t-85 -35.5zM434 1218q-49 0 -84.5 35.5t-35.5 85.5q-1 50 34 86t85 36q51 0 86 -35.5t35 -86.5q0 -50 -34.5 -85.5t-85.5 -35.5z" glyph-name="upsilondieresistonosgreek" horiz-adv-x="1070" unicode="ΰ"/><glyph d="M454 -18q-167 0 -266.5 118t-99.5 319q0 185 67.5 335t186.5 234.5t266 84.5q128 0 210 -64.5t110 -164.5h6l45 211h207l-156 -734q-13 -52 -13 -79q0 -34 19.5 -49t62.5 -15q26 0 49 5l-35 -174q-49 -13 -100 -13q-111 0 -162 41.5t-51 140.5v6h-5q-53 -92 -144.5 -147 t-196.5 -55zM527 170q90 0 167 59t122.5 161.5t45.5 223.5q0 124 -66.5 196t-170.5 72q-143 0 -232 -124.5t-89 -315.5q0 -125 62 -198.5t161 -73.5z" glyph-name="alphagreek" horiz-adv-x="1211" unicode="α"/><glyph d="M251 1007q48 234 168 345t328 111q181 0 292 -92t111 -244q0 -124 -63.5 -214t-188.5 -131v-4q250 -66 250 -325q0 -94 -32.5 -178t-93.5 -150t-157 -104.5t-215 -38.5q-125 0 -222 63t-129 167h-6l-120 -561h-212zM547 679l37 182h94q122 0 195 64t73 172 q0 81 -56.5 130t-157.5 49q-97 0 -168.5 -66t-100.5 -200l-104 -484q-15 -66 -15 -103q0 -112 83.5 -181t212.5 -69q119 0 207 78t88 194q0 111 -73 172.5t-206 61.5h-109z" glyph-name="betagreek" horiz-adv-x="1170" unicode="β"/><glyph d="M920 1056h209q-7 -74 -25 -164q-46 -221 -175 -426.5t-410 -497.5l-66 -310h-211l65 303l-137 1095h213l93 -869q187 202 285 366.5t135 337.5q17 89 24 165z" glyph-name="gammagreek" horiz-adv-x="1062" unicode="γ"/><glyph d="M530 -20q-201 0 -326 118.5t-125 313.5q0 214 122 356.5t339 172.5v1l1 2q-155 86 -155 230q0 131 106.5 207t291.5 76q112 0 211 -26t152 -70l-43 -176q-153 92 -335 92q-80 0 -122.5 -28t-42.5 -80q0 -37 30.5 -67.5t123.5 -81.5q186 -111 261.5 -219t75.5 -249 q0 -114 -37 -216.5t-106 -182t-178 -126.5t-244 -47zM547 157q143 0 235.5 110.5t92.5 284.5q0 118 -66.5 187.5t-177.5 69.5q-143 0 -239 -105t-96 -281q0 -119 71 -192.5t180 -73.5z" glyph-name="deltagreek" horiz-adv-x="1100" unicode="δ"/><glyph d="M499 -14q-192 0 -304.5 72.5t-112.5 210.5q0 100 65.5 171.5t172.5 98.5v6q-66 26 -102.5 77t-36.5 117q0 152 127.5 241.5t330.5 89.5q121 0 210.5 -28t141.5 -78t77 -112t27 -138h-210q-5 40 -18 68.5t-40 53t-75 37t-117 12.5q-110 0 -173 -41t-63 -107 q0 -118 190 -118h154l-36 -175h-179q-106 0 -163 -39t-57 -105q0 -62 58 -95.5t163 -33.5q114 0 197 46t112 127h220q-39 -164 -187.5 -261t-371.5 -97z" glyph-name="epsilongreek" horiz-adv-x="1073" unicode="ε"/><glyph d="M706 -374l-154 60q57 68 78 106.5t21 85.5q0 46 -32 72.5t-125 65.5q-216 91 -305.5 193.5t-89.5 261.5q0 220 166 410.5t494 367.5l2 6h-454l39 188h745l9 -170q-380 -192 -580 -381.5t-200 -388.5q0 -104 52.5 -162t198.5 -120q176 -76 234.5 -135.5t58.5 -156.5 q0 -81 -39 -153t-119 -150z" glyph-name="zetagreek" horiz-adv-x="891" unicode="ζ"/><glyph d="M797 -349l205 951q10 47 10 84q0 89 -57.5 140.5t-150.5 51.5q-113 0 -194.5 -69.5t-109.5 -193.5l-129 -615h-214l160 751q7 34 7 57q0 37 -19.5 54t-63.5 17q-25 0 -52 -5l36 174q43 13 104 13q98 0 146 -38t57 -122l1 -4l4 -21h4q57 94 151 143.5t210 49.5 q144 0 239 -87t95 -232q0 -47 -16 -125l-209 -974h-214z" glyph-name="etagreek" horiz-adv-x="1255" unicode="η"/><glyph d="M538 -20q-205 0 -312.5 131.5t-107.5 377.5q0 123 24 256q62 352 219.5 535t394.5 183q204 0 311.5 -130t107.5 -376q0 -104 -25 -250q-62 -353 -220 -540t-392 -187zM547 159q139 0 230 118t144 366h-577q-14 -92 -14 -177q0 -140 53.5 -223.5t163.5 -83.5zM375 823h575 q11 81 11 144q0 315 -224 315q-132 0 -221.5 -113t-140.5 -346z" glyph-name="thetagreek" horiz-adv-x="1156" unicode="θ"/><glyph d="M464 1055l-148 -697q-11 -49 -11 -82q0 -104 134 -104q49 0 72 5l-36 -176q-64 -11 -115 -11q-131 0 -205 58t-74 163q0 51 10 97l159 747h214z" glyph-name="iotagreek" horiz-adv-x="558" unicode="ι"/><glyph d="M1036 1061q67 0 107 -13l-37 -174q-26 5 -56 5q-38 0 -68.5 -18t-78.5 -65l-183 -178l271 -618h-213l-208 483l-275 -260l-47 -223h-212l224 1056h213l-114 -520h4l366 358q103 103 161.5 135t145.5 32z" glyph-name="kappagreek" horiz-adv-x="1088" unicode="κ"/><glyph d="M1018 178q24 0 49 5l-36 -174q-45 -13 -105 -13q-109 0 -160 52t-68 177l-64 468h-3l-420 -693h-237l622 991l-10 57q-17 97 -40.5 147t-52 65t-78.5 15q-19 0 -51 -6l36 175q45 13 98 13q88 0 141.5 -31.5t89.5 -115.5t57 -238l111 -783q8 -62 35 -86.5t86 -24.5z" glyph-name="lambdagreek" horiz-adv-x="1051" unicode="λ"/><glyph d="M1129 1056q-8 -82 -25 -163q-32 -153 -101 -292.5t-175 -277.5t-280 -323h-245l-133 1056h213l93 -872h5q178 192 277 357.5t138 350.5q18 91 24 164h209z" glyph-name="nugreek" horiz-adv-x="1062" unicode="ν"/><glyph d="M708 -374l-154 60q57 70 77.5 109.5t20.5 79.5q0 47 -31 73.5t-128 65.5q-224 94 -317 183.5t-93 214.5q0 131 91.5 212t267.5 108l1 2q-87 32 -136 97.5t-49 148.5q0 97 59.5 164t182.5 109v2h-198l38 188h723l10 -171l-139 -13q-227 -20 -346 -79t-119 -153 q0 -89 87.5 -138t246.5 -49h113l-38 -184h-128q-440 0 -440 -205q0 -68 58 -120t204 -114q175 -76 233.5 -133t58.5 -154q0 -158 -156 -304z" glyph-name="xigreek" horiz-adv-x="906" unicode="ξ"/><glyph d="M565 169q145 0 240 124t95 309q0 129 -65 207t-175 78q-145 0 -240 -124t-95 -310q0 -129 65 -206.5t175 -77.5zM664 1076q206 0 329.5 -128t123.5 -340q0 -132 -42.5 -248t-116 -199.5t-176.5 -132t-220 -48.5q-206 0 -330 128t-124 339q0 176 72 320t199.5 226.5 t284.5 82.5z" glyph-name="omicrongreek" horiz-adv-x="1133" unicode="ο"/><glyph d="M811 290l125 580h-394l-185 -870h-205l185 870h-189l38 185h1206l-38 -185h-213l-122 -561q-10 -47 -10 -66q0 -38 19.5 -54t69.5 -16q32 0 54 6l-36 -174q-46 -13 -100 -13q-108 0 -164.5 49t-56.5 136q0 35 16 113z" glyph-name="pigreek" horiz-adv-x="1280" unicode="π"/><glyph d="M584 173q134 0 231 118.5t97 319.5q0 132 -69.5 205t-183.5 73q-143 0 -232.5 -126t-89.5 -321q0 -126 68 -197.5t179 -71.5zM671 1076q211 0 333 -125t122 -330q0 -177 -68 -323.5t-188 -231t-267 -84.5q-135 0 -218.5 67t-108.5 163h-5l-121 -561h-211l189 888 q113 537 543 537z" glyph-name="rhogreek" horiz-adv-x="1115" unicode="ρ"/><glyph d="M862 -68q0 -83 -37.5 -153.5t-120.5 -152.5l-154 60q55 67 77 106t22 83q0 46 -30 74t-124 66q-204 86 -301 208t-97 291q0 115 36 216.5t103 179t172.5 122t235.5 44.5q96 0 178 -32.5t137 -86t87 -123.5t34 -145h-208q-13 91 -76 145.5t-168 54.5q-74 0 -134 -29.5 t-97.5 -80t-57 -113.5t-19.5 -133q0 -106 62.5 -182t189.5 -131q174 -76 232 -135t58 -153z" glyph-name="sigmafinalgreek" horiz-adv-x="1016" unicode="ς"/><glyph d="M524 -20q-200 0 -319.5 127.5t-119.5 329.5q0 175 68 314t201 221.5t311 82.5h622l-38 -187h-282v-3q108 -95 108 -263t-69 -310t-196.5 -227t-285.5 -85zM526 165q151 0 242 122t91 305q0 133 -59 202.5t-165 69.5q-141 0 -237.5 -118.5t-96.5 -305.5q0 -129 59 -202 t166 -73z" glyph-name="sigmagreek" horiz-adv-x="1156" unicode="σ"/><glyph d="M754 177l-37 -176q-48 -11 -125 -11q-138 0 -217 56t-79 165q0 45 10 98l122 562h-325l36 184h925l-37 -184h-385l-111 -513q-10 -50 -10 -82q0 -55 38 -79.5t121 -24.5q49 0 74 5z" glyph-name="taugreek" horiz-adv-x="945" unicode="τ"/><glyph d="M859 1055h207q17 -74 17 -182q0 -271 -74.5 -473t-214.5 -311t-328 -109q-171 0 -267 86.5t-96 235.5q0 64 19 167l124 586h210l-108 -518q-30 -130 -30 -202q0 -162 174 -162q113 0 199 89.5t133 251.5t47 373q0 57 -12 168z" glyph-name="upsilongreek" horiz-adv-x="1070" unicode="υ"/><glyph d="M473 -349l71 335q-212 21 -334.5 141.5t-122.5 307.5q0 140 51 258.5t141 200.5t217 129t277 48l51 236h203l-51 -239q208 -20 331 -141.5t123 -307.5q0 -184 -87.5 -329t-243.5 -225.5t-353 -80.5l-70 -333h-203zM581 165l159 727q-200 -5 -321 -123.5t-121 -311.5 q0 -123 73.5 -198.5t209.5 -93.5zM779 163q202 10 320.5 126.5t118.5 309.5q0 121 -73.5 197t-206.5 93z" glyph-name="phigreek" horiz-adv-x="1424" unicode="φ"/><glyph d="M854 -347q-92 0 -142 37t-76 124l-104 337h-15l-365 -494h-221l539 710l-127 397q-21 67 -47 91t-81 24q-28 0 -55 -5l36 174q48 13 105 13q91 0 143.5 -39t80.5 -132l104 -336h14l367 502h221l-538 -717l120 -385q21 -68 50.5 -93.5t85.5 -25.5q25 0 52 5l-35 -174 q-46 -13 -112 -13z" glyph-name="chigreek" horiz-adv-x="1108" unicode="χ"/><glyph d="M662 -349h-207l72 335q-424 12 -424 324q0 63 22 166l121 579h210l-123 -574q-15 -71 -15 -128q0 -84 57.5 -125.5t190.5 -47.5l241 1127h207l-241 -1126q114 0 198.5 54.5t134 153.5t73.5 223.5t24 277.5q0 45 -12 165h207q17 -77 17 -180q0 -101 -9.5 -192.5 t-32 -182.5t-57 -166.5t-88.5 -141t-123.5 -110.5t-163.5 -70.5t-207 -25.5z" glyph-name="psigreek" horiz-adv-x="1397" unicode="ψ"/><glyph d="M1476 622q0 -178 -62.5 -325.5t-171.5 -232t-240 -84.5q-112 0 -183.5 57.5t-87.5 176.5h-3q-111 -234 -310 -234q-159 0 -243 101.5t-84 288.5q0 190 80.5 375.5t218.5 309.5h224q-151 -144 -231 -318.5t-80 -359.5q0 -91 40 -147.5t108 -56.5q79 0 135 57.5t78 158.5 l78 365h203l-66 -318q-11 -58 -11 -91q0 -83 37 -127.5t107 -44.5q112 0 182 127t70 333q0 211 -79 422h222q69 -183 69 -433z" glyph-name="omegagreek" horiz-adv-x="1510" unicode="ω"/><glyph d="M464 1055l-148 -697q-11 -49 -11 -82q0 -104 134 -104q49 0 72 5l-36 -176q-64 -11 -115 -11q-131 0 -205 58t-74 163q0 51 10 97l159 747h214zM245 1225q-49 0 -83 34t-34 83t34 83t83 34t83 -34t34 -83t-34 -83t-83 -34zM625 1225q-49 0 -83 34t-34 83t34 83t83 34 t83 -34t34 -83t-34 -83t-83 -34z" glyph-name="iotadieresisgreek" horiz-adv-x="558" unicode="ϊ"/><glyph d="M859 1055h207q17 -74 17 -182q0 -271 -74.5 -473t-214.5 -311t-328 -109q-171 0 -267 86.5t-96 235.5q0 64 19 167l124 586h210l-108 -518q-30 -130 -30 -202q0 -162 174 -162q113 0 199 89.5t133 251.5t47 373q0 57 -12 168zM523 1225q-49 0 -83 34t-34 83t34 83t83 34 t83 -34t34 -83t-34 -83t-83 -34zM903 1225q-49 0 -83 34t-34 83t34 83t83 34t83 -34t34 -83t-34 -83t-83 -34z" glyph-name="upsilondieresisgreek" horiz-adv-x="1070" unicode="ϋ"/><glyph d="M565 169q145 0 240 124t95 309q0 129 -65 207t-175 78q-145 0 -240 -124t-95 -310q0 -129 65 -206.5t175 -77.5zM664 1076q206 0 329.5 -128t123.5 -340q0 -132 -42.5 -248t-116 -199.5t-176.5 -132t-220 -48.5q-206 0 -330 128t-124 339q0 176 72 320t199.5 226.5 t284.5 82.5zM604 1211l141 309h252l-219 -309h-174z" glyph-name="omicrontonosgreek" horiz-adv-x="1133" unicode="ό"/><glyph d="M859 1055h207q17 -74 17 -182q0 -271 -74.5 -473t-214.5 -311t-328 -109q-171 0 -267 86.5t-96 235.5q0 64 19 167l124 586h210l-108 -518q-30 -130 -30 -202q0 -162 174 -162q113 0 199 89.5t133 251.5t47 373q0 57 -12 168zM587 1211l141 309h252l-219 -309h-174z" glyph-name="upsilontonosgreek" horiz-adv-x="1070" unicode="ύ"/><glyph d="M1476 622q0 -178 -62.5 -325.5t-171.5 -232t-240 -84.5q-112 0 -183.5 57.5t-87.5 176.5h-3q-111 -234 -310 -234q-159 0 -243 101.5t-84 288.5q0 190 80.5 375.5t218.5 309.5h224q-151 -144 -231 -318.5t-80 -359.5q0 -91 40 -147.5t108 -56.5q79 0 135 57.5t78 158.5 l78 365h203l-66 -318q-11 -58 -11 -91q0 -83 37 -127.5t107 -44.5q112 0 182 127t70 333q0 211 -79 422h222q69 -183 69 -433zM847 1211l141 309h252l-219 -309h-174z" glyph-name="omegatonosgreek" horiz-adv-x="1510" unicode="ώ"/><glyph d="M1032 204l-40 -204h-918l307 1443h918l-42 -204h-690l-90 -408h653l-40 -194h-652l-95 -433h689zM764 1559l-200 296h209l160 -296h-169z" glyph-name="uni0400" horiz-adv-x="1157" unicode="Ѐ"/><glyph d="M1032 204l-40 -204h-918l307 1443h918l-42 -204h-690l-90 -408h653l-40 -194h-652l-95 -433h689zM701 1604q-49 0 -83 34t-34 83t34 83t83 34t83 -34t34 -83t-34 -83t-83 -34zM1081 1604q-49 0 -83 34t-34 83t34 83t83 34t83 -34t34 -83t-34 -83t-83 -34z" glyph-name="Iocyrillic" horiz-adv-x="1157" unicode="Ё"/><glyph d="M440 0l266 1239h-448l41 204h1124l-42 -204h-448l-102 -466h14q59 61 150.5 97.5t190.5 36.5q206 0 322.5 -114t116.5 -309q0 -232 -148.5 -378t-390.5 -146q-124 0 -173 17l41 198q39 -15 132 -15q134 0 221 82.5t87 209.5q0 117 -67 182t-187 65q-101 0 -203 -53 t-159 -134l-110 -512h-228z" glyph-name="Djecyrillic" horiz-adv-x="1692" unicode="Ђ"/><glyph d="M301 0h-227l307 1443h892l-42 -204h-665zM929 1559h-191l285 296h231z" glyph-name="Gjecyrillic" horiz-adv-x="1092" unicode="Ѓ"/><glyph d="M1372 435q-66 -217 -238 -343.5t-404 -126.5q-148 0 -262.5 53t-186.5 154t-95.5 248.5t11.5 336.5q53 325 254 523t502 198q143 0 264.5 -59.5t195.5 -169t77 -247.5v-19h-225q-7 130 -99.5 207.5t-233.5 77.5q-176 0 -309 -118.5t-187 -316.5h623l-39 -196h-614 q-22 -216 71 -339.5t277 -123.5q136 0 240.5 73t153.5 188h224z" glyph-name="Ecyrillic" horiz-adv-x="1430" unicode="Є"/><glyph d="M98 424h221q14 -111 109 -179.5t244 -68.5q134 0 219.5 57.5t85.5 157.5q0 83 -54.5 132.5t-184.5 89.5l-106 34q-182 56 -270 150t-88 238q0 193 144.5 312t373.5 119q234 0 379 -115t145 -312h-217q-5 103 -87 165.5t-220 62.5q-136 0 -212 -61t-76 -147 q0 -73 56 -122.5t179 -87.5l107 -34q185 -57 274.5 -149t89.5 -232q0 -93 -36 -175t-103 -145t-171 -100t-231 -37q-243 0 -403.5 120.5t-167.5 326.5z" glyph-name="Dzecyrillic" horiz-adv-x="1265" unicode="Ѕ"/><glyph d="M301 0h-227l307 1443h227z" glyph-name="Icyrillic" horiz-adv-x="506" unicode="І"/><glyph d="M301 0h-227l307 1443h227zM361 1604q-49 0 -83 34t-34 83t34 83t83 34t83 -34t34 -83t-34 -83t-83 -34zM741 1604q-49 0 -83 34t-34 83t34 83t83 34t83 -34t34 -83t-34 -83t-83 -34z" glyph-name="Yicyrillic" horiz-adv-x="506" unicode="Ї"/><glyph d="M65 355q0 25 1 34h222v-6q0 -89 55.5 -140.5t150.5 -51.5q192 0 244 242l215 1010h227l-224 -1052q-42 -200 -163.5 -307.5t-313.5 -107.5q-181 0 -297.5 107t-116.5 272z" glyph-name="Jecyrillic" horiz-adv-x="1078" unicode="Ј"/><glyph d="M530 554q-30 -113 -61.5 -196.5t-75 -156t-95.5 -117.5t-122 -70t-157 -25q-48 0 -82 12l42 209q28 -7 57 -7q56 0 101 26t78.5 78.5t57.5 113.5t48 147l236 875h915l-106 -491h252q213 0 343 -114t130 -307q0 -105 -42 -201.5t-115.5 -169.5t-182 -116.5t-233.5 -43.5 h-580l266 1239h-484zM1572 754h-245l-122 -557h299q152 0 254.5 88t102.5 217q0 125 -77.5 188.5t-211.5 63.5z" glyph-name="Ljecyrillic" horiz-adv-x="2115" unicode="Љ"/><glyph d="M968 0l137 641h-663l-138 -641h-226l307 1443h227l-129 -601h663l129 601h227l-129 -601h276q201 0 323.5 -100.5t122.5 -268.5q0 -95 -38.5 -180.5t-108 -150.5t-173 -103.5t-226.5 -38.5h-581zM1235 197h301q150 0 239.5 70.5t89.5 180.5q0 98 -70.5 148t-190.5 50 h-271z" glyph-name="Njecyrillic" horiz-adv-x="2120" unicode="Њ"/><glyph d="M1143 699q-107 0 -206 -53t-159 -134l-110 -512h-228l266 1239h-448l41 204h1124l-42 -204h-448l-102 -465h15q161 133 356 133q231 0 338 -142.5t56 -384.5l-82 -380h-227l82 385q32 148 -27 231t-199 83z" glyph-name="Tshecyrillic" horiz-adv-x="1698" unicode="Ћ"/><glyph d="M1311 1855l-325 -296h-191l285 296h231zM1497 1443l-814 -717l533 -726h-265l-496 662h-11l-143 -662h-227l307 1443h227l-137 -644h10l728 644h288z" glyph-name="Kjecyrillic" horiz-adv-x="1307" unicode="Ќ"/><glyph d="M1041 0l229 1057h-17l-957 -1057h-222l307 1443h224l-230 -1060h16l958 1060h222l-307 -1443h-223zM904 1559l-200 296h209l160 -296h-169z" glyph-name="uni040D" horiz-adv-x="1469" unicode="Ѝ"/><glyph d="M245 -11q-65 0 -91 13l40 203q27 -9 80 -9q151 0 254 129l-248 1118h235l172 -867h17l535 867h250l-682 -1061q-65 -102 -120.5 -169.5t-122.5 -121t-145 -78t-174 -24.5zM602 1849h169q-16 -78 24.5 -124t119.5 -46q81 0 141.5 46t76.5 124h170q-30 -142 -136 -223 t-263 -81q-162 0 -246 82t-56 222z" glyph-name="Ushortcyrillic" horiz-adv-x="1284" unicode="Ў"/><glyph d="M1244 0h-458l-61 -285h-198l61 285h-514l307 1443h224l-266 -1238h720l265 1238h227z" glyph-name="Dzhecyrillic" horiz-adv-x="1448" unicode="Џ"/><glyph d="M864 1192l-346 -621h436l-85 621h-5zM1026 0l-50 383h-554l-217 -383h-243l828 1443h245l210 -1443h-219z" glyph-name="Acyrillic" horiz-adv-x="1338" unicode="А"/><glyph d="M654 0h-580l307 1443h894l-42 -204h-666l-78 -355h265q213 0 343 -104t130 -281q0 -99 -42 -189.5t-115.5 -159t-182 -109.5t-233.5 -41zM341 197h299q152 0 254.5 79.5t102.5 194.5q0 109 -76.5 164t-209.5 55h-262z" glyph-name="Becyrillic" horiz-adv-x="1265" unicode="Б"/><glyph d="M708 0h-634l307 1443h539q181 0 291.5 -87t110.5 -228q0 -136 -88.5 -237.5t-229.5 -137.5l-1 -5q117 -20 184 -99.5t67 -190.5q0 -201 -151.5 -329.5t-394.5 -128.5zM568 1259l-91 -422h276q151 0 245.5 68t94.5 176q0 87 -65.5 132.5t-190.5 45.5h-269zM338 191h346 q150 0 244 74t94 189q0 99 -69.5 150.5t-205.5 51.5h-308z" glyph-name="Vecyrillic" horiz-adv-x="1326" unicode="В"/><glyph d="M301 0h-227l307 1443h892l-42 -204h-665z" glyph-name="Gecyrillic" horiz-adv-x="1092" unicode="Г"/><glyph d="M518 567q-37 -131 -75 -211.5t-97 -137.5l-3 -14h660l225 1035h-520zM139 0l-61 -285h-206l102 489h105q84 45 137 134.5t93 240.5l240 864h948l-266 -1239h180l-102 -489h-206l61 285h-1025z" glyph-name="Decyrillic" horiz-adv-x="1463" unicode="Д"/><glyph d="M1032 204l-40 -204h-918l307 1443h918l-42 -204h-690l-90 -408h653l-40 -194h-652l-95 -433h689z" glyph-name="Iecyrillic" horiz-adv-x="1157" unicode="Е"/><glyph d="M986 664l-737 -664h-289l835 764l-447 679h243l421 -643h11l138 643h222l-139 -645h12l698 645h269l-776 -725l481 -718h-246l-451 663h-12l-143 -663h-222l143 664h-11z" glyph-name="Zhecyrillic" horiz-adv-x="2027" unicode="Ж"/><glyph d="M460 645l38 193h198q145 0 235 63t90 165q0 92 -73 149.5t-188 57.5q-113 0 -195.5 -58t-98.5 -149h-212q24 179 169 289.5t356 110.5q202 0 332.5 -104.5t130.5 -267.5q0 -134 -96 -236t-241 -121l-1 -5q118 -28 185 -109.5t67 -197.5q0 -195 -159 -322t-403 -127 q-242 0 -388 124.5t-128 315.5h212q-1 -110 85.5 -177t230.5 -67q141 0 233 71t92 179q0 105 -74.5 164t-207.5 59h-189z" glyph-name="Zecyrillic" horiz-adv-x="1214" unicode="З"/><glyph d="M1041 0l229 1057h-17l-957 -1057h-222l307 1443h224l-230 -1060h16l958 1060h222l-307 -1443h-223z" glyph-name="Iicyrillic" horiz-adv-x="1469" unicode="И"/><glyph d="M1041 0l229 1057h-17l-957 -1057h-222l307 1443h224l-230 -1060h16l958 1060h222l-307 -1443h-223zM704 1849h169q-16 -78 24.5 -124t119.5 -46q81 0 141.5 46t76.5 124h170q-30 -142 -136 -223t-263 -81q-162 0 -246 82t-56 222z" glyph-name="Iishortcyrillic" horiz-adv-x="1469" unicode="Й"/><glyph d="M1497 1443l-814 -717l533 -726h-265l-496 662h-11l-143 -662h-227l307 1443h227l-137 -644h10l728 644h288z" glyph-name="Kacyrillic" horiz-adv-x="1307" unicode="К"/><glyph d="M1173 0h-227l265 1239h-491l-190 -685q-30 -112 -61.5 -195.5t-74.5 -156t-95.5 -117.5t-122.5 -70.5t-157 -25.5q-48 0 -82 12l42 209q28 -7 57 -7q56 0 100.5 26t78 78t58 113.5t48.5 147.5l236 875h923z" glyph-name="Elcyrillic" horiz-adv-x="1378" unicode="Л"/><glyph d="M281 0h-207l307 1443h252l221 -1141h5l706 1141h279l-307 -1443h-207l231 1072h-7l-664 -1064h-169l-205 1064h-6z" glyph-name="Emcyrillic" horiz-adv-x="1742" unicode="М"/><glyph d="M1266 0h-229l136 634h-734l-136 -634h-229l307 1443h229l-130 -606h734l130 606h229z" glyph-name="Encyrillic" horiz-adv-x="1470" unicode="Н"/><glyph d="M931 1260q-152 0 -274 -87t-188.5 -234.5t-66.5 -325.5q0 -197 104.5 -313.5t279.5 -116.5q152 0 273.5 87t188.5 235t67 326q0 196 -104.5 312.5t-279.5 116.5zM783 -23q-277 0 -443.5 172t-166.5 453q0 240 98 438t272 312t389 114q278 0 445 -172t167 -453 q0 -240 -98.5 -438t-273 -312t-389.5 -114z" glyph-name="Ocyrillic" horiz-adv-x="1540" unicode="О"/><glyph d="M1244 0h-224l265 1238h-719l-266 -1238h-226l307 1443h1170z" glyph-name="Pecyrillic" horiz-adv-x="1448" unicode="П"/><glyph d="M381 1443h514q190 0 312.5 -111t122.5 -293q0 -169 -78 -295.5t-213.5 -192t-308.5 -65.5h-323l-105 -486h-228zM568 1245l-122 -562h275q174 0 276.5 89t102.5 246q0 108 -72 167.5t-198 59.5h-262z" glyph-name="Ercyrillic" horiz-adv-x="1258" unicode="Р"/><glyph d="M1272 950q0 2 -0.5 11.5t-0.5 16.5q-13 128 -109.5 204.5t-239.5 76.5q-151 0 -269.5 -83.5t-183.5 -231.5t-65 -335q0 -197 101 -310.5t277 -113.5q137 0 242.5 71t153.5 196h223q-55 -216 -226 -345.5t-400 -129.5q-276 0 -439 168.5t-163 452.5q0 248 96 446t270 310 t393 112q241 0 396.5 -131.5t166.5 -348.5q1 -23 0 -36h-223z" glyph-name="Escyrillic" horiz-adv-x="1437" unicode="С"/><glyph d="M668 0h-228l266 1239h-452l41 204h1131l-41 -204h-452z" glyph-name="Tecyrillic" horiz-adv-x="1238" unicode="Т"/><glyph d="M245 -11q-65 0 -91 13l40 203q27 -9 80 -9q151 0 254 129l-248 1118h235l172 -867h17l535 867h250l-682 -1061q-65 -102 -120.5 -169.5t-122.5 -121t-145 -78t-174 -24.5z" glyph-name="Ucyrillic" horiz-adv-x="1284" unicode="У"/><glyph d="M879 -25h-222l32 153q-247 10 -389.5 144.5t-142.5 356.5q0 194 100 350t279.5 246.5t406.5 97.5l31 145h221l-30 -145q247 -10 389.5 -145t142.5 -357q0 -194 -100 -349.5t-279.5 -246t-406.5 -97.5zM385 636q0 -138 91.5 -220t253.5 -88l174 795q-225 -10 -372 -147.5 t-147 -339.5zM1469 812q0 140 -91.5 222.5t-253.5 88.5l-174 -795q226 10 372.5 147t146.5 337z" glyph-name="Efcyrillic" horiz-adv-x="1677" unicode="Ф"/><glyph d="M-23 0l644 732l-327 711h250l245 -541h8l469 541h278l-644 -732l327 -711h-250l-246 543h-8l-470 -543h-276z" glyph-name="Xacyrillic" horiz-adv-x="1345" unicode="Х"/><glyph d="M1368 -285h-205l61 285h-1146l309 1443h227l-266 -1238h713l266 1238h229l-266 -1239h180z" glyph-name="Tsecyrillic" horiz-adv-x="1550" unicode="Ц"/><glyph d="M1158 0h-228l134 623h-14q-150 -105 -368 -105q-163 0 -272 73t-148 199t-6 285l78 368h227l-79 -371q-33 -156 32 -250t228 -94q116 0 213.5 34t154.5 85l127 596h228z" glyph-name="Checyrillic" horiz-adv-x="1362" unicode="Ч"/><glyph d="M74 0l307 1443h227l-266 -1239h478l266 1239h228l-267 -1239h479l266 1239h227l-307 -1443h-1638z" glyph-name="Shacyrillic" horiz-adv-x="1917" unicode="Ш"/><glyph d="M1831 -285h-205l61 285h-1613l307 1443h227l-266 -1239h478l266 1239h228l-267 -1239h479l266 1239h227l-266 -1239h180z" glyph-name="Shchacyrillic" horiz-adv-x="1986" unicode="Щ"/><glyph d="M870 0h-580l266 1239h-332l42 204h558l-109 -506h252q214 0 343 -112t129 -306q0 -230 -162 -374.5t-407 -144.5zM921 739h-246l-118 -542h299q152 0 252.5 86t100.5 220q0 116 -77.5 176t-210.5 60z" glyph-name="Hardsigncyrillic" horiz-adv-x="1464" unicode="Ъ"/><glyph d="M705 739h-246l-118 -542h299q152 0 252.5 86t100.5 220q0 116 -77.5 176t-210.5 60zM74 0l307 1443h227l-109 -506h252q214 0 343.5 -112t129.5 -306q0 -152 -75 -271.5t-204.5 -183.5t-290.5 -64h-580zM1544 0h-227l307 1443h227z" glyph-name="Yericyrillic" horiz-adv-x="1743" unicode="Ы"/><glyph d="M705 739h-246l-118 -542h299q152 0 252.5 86t100.5 220q0 116 -77.5 176t-210.5 60zM74 0l307 1443h227l-109 -506h252q214 0 343.5 -112t129.5 -306q0 -152 -75 -271.5t-204.5 -183.5t-290.5 -64h-580z" glyph-name="Softsigncyrillic" horiz-adv-x="1248" unicode="Ь"/><glyph d="M664 -23q-223 0 -375 131t-162 333h226q22 -119 110.5 -186.5t221.5 -67.5q178 0 305 119t177 332h-611l39 193h598q7 196 -85.5 310t-258.5 114q-130 0 -234.5 -73t-161.5 -205h-224q64 230 234 359.5t408 129.5q196 0 329.5 -97t185.5 -274t11 -408 q-52 -331 -247 -520.5t-486 -189.5z" glyph-name="Ereversedcyrillic" horiz-adv-x="1409" unicode="Э"/><glyph d="M1302 183q150 0 270.5 87t186.5 235t66 326q0 196 -102.5 312.5t-275.5 116.5q-150 0 -270.5 -87t-186.5 -234.5t-66 -325.5q0 -196 102.5 -313t275.5 -117zM478 837h245q64 280 261.5 454.5t464.5 174.5q275 0 440 -172t165 -453q0 -240 -97.5 -438t-270.5 -312 t-386 -114q-275 0 -439 172t-164 453v31h-261l-136 -633h-226l307 1443h227z" glyph-name="IUcyrillic" horiz-adv-x="2051" unicode="Ю"/><glyph d="M767 714h255l115 530h-302q-152 0 -254.5 -83t-102.5 -205q0 -119 78 -180.5t211 -61.5zM751 523l-481 -523h-281l515 563q-120 45 -188.5 142.5t-68.5 230.5q0 100 41.5 192.5t115 162t182 111t233.5 41.5h584l-307 -1443h-227l112 523h-230z" glyph-name="IAcyrillic" horiz-adv-x="1301" unicode="Я"/><glyph d="M461 159q104 0 184 59t101 151l24 106l-263 -13q-108 -5 -168.5 -47t-60.5 -113q0 -65 50.5 -104t132.5 -39zM390 -18q-137 0 -231 82.5t-94 209.5q0 156 115.5 245.5t323.5 98.5l298 14l14 64q4 17 4 46q0 70 -50.5 109.5t-143.5 39.5q-95 0 -153.5 -39.5t-73.5 -108.5 h-214q25 149 149 241t309 92q175 0 282.5 -85.5t107.5 -221.5q0 -48 -7 -88l-144 -681h-207l27 128h-3q-52 -68 -132.5 -107t-176.5 -39z" glyph-name="acyrillic" horiz-adv-x="1048" unicode="а"/><glyph d="M726 1039q178 0 287.5 -121.5t107.5 -317.5q-2 -280 -152 -450t-398 -170q-210 0 -332.5 146t-121.5 395q2 175 52 343q84 277 236.5 407.5t408.5 145.5q7 0 39.5 1.5t62.5 3.5l30 1q203 12 292 52l-40 -196q-72 -40 -281 -50l-12 -1q-12 0 -30 -1t-36.5 -2t-34.5 -1.5 t-21 -0.5q-163 -8 -261.5 -94.5t-160.5 -275.5h16q70 96 154.5 141t194.5 45zM584 169q130 0 223 115.5t94 277.5q0 138 -62 215.5t-175 77.5q-147 0 -239.5 -112t-93.5 -290q-1 -125 69 -204.5t184 -79.5z" glyph-name="becyrillic" horiz-adv-x="1144" unicode="б"/><glyph d="M46 0l224 1055h442q146 0 228.5 -64t82.5 -177q0 -93 -65 -162.5t-168 -87.5l-3 -15q89 -12 141.5 -66t52.5 -136q0 -157 -122 -252t-322 -95h-491zM577 467h-217l-66 -303h245q100 0 160 47t60 125q0 67 -44.5 99t-137.5 32zM659 892h-208l-58 -269h200q95 0 153 44 t58 116q0 109 -145 109z" glyph-name="vecyrillic" horiz-adv-x="1047" unicode="в"/><glyph d="M920 877h-467l-188 -877h-215l223 1055h682z" glyph-name="gecyrillic" horiz-adv-x="860" unicode="г"/><glyph d="M783 179l151 698h-370q0 -3 -29 -102t-58.5 -198t-27.5 -93q-57 -199 -141 -288l-3 -17h478zM1183 1055l-186 -876h163l-96 -455h-196l58 276h-785l-59 -276h-196l95 455h86q54 32 105 115.5t83 198.5q-1 -2 10.5 38.5t29 103t38 134t39 136.5t30 105.5t12.5 44.5h769z" glyph-name="decyrillic" horiz-adv-x="1198" unicode="д"/><glyph d="M348 633h524q1 8 1 29q0 99 -58 165.5t-172 66.5q-109 0 -187 -72.5t-108 -188.5zM558 -22q-212 0 -328.5 128.5t-116.5 341.5q0 174 67.5 317t190.5 227t277 84q200 0 317.5 -121t117.5 -327q0 -86 -11 -152h-749q-1 -12 -1 -35q0 -128 65.5 -203.5t175.5 -75.5 q96 0 165 45t101 123h207q-42 -154 -173 -253t-305 -99z" glyph-name="iecyrillic" horiz-adv-x="1103" unicode="е"/><glyph d="M1685 1055l-543 -512l338 -543h-237l-310 483h-9l-104 -483h-214l104 483h-8l-499 -483h-272l584 577l-309 478h234l286 -448h8l96 448h214l-96 -448h9l475 448h253z" glyph-name="zhecyrillic" horiz-adv-x="1542" unicode="ж"/><glyph d="M939 329q-2 -151 -131 -250t-326 -99q-181 0 -294 101t-113 261h206q1 -74 62 -125t152 -51q98 0 162.5 48.5t65.5 119.5q1 59 -45.5 91t-131.5 32h-148l34 162h148q82 0 136 39.5t55 99.5q1 57 -48.5 94.5t-130.5 37.5q-89 0 -151.5 -46t-79.5 -123h-207 q32 165 153.5 259.5t303.5 94.5q168 0 274 -79.5t104 -201.5q-2 -86 -60 -155.5t-144 -85.5l-2 -8q75 -22 116 -79t40 -137z" glyph-name="zecyrillic" horiz-adv-x="1013" unicode="з"/><glyph d="M261 0h-215l224 1055h214l-157 -720h11l643 720h214l-223 -1055h-214l157 726h-11z" glyph-name="iicyrillic" horiz-adv-x="1149" unicode="и"/><glyph d="M261 0h-215l224 1055h214l-157 -720h11l643 720h214l-223 -1055h-214l157 726h-11zM488 1545h164q-17 -84 20 -141.5t119 -57.5q85 0 145.5 57t79.5 142h169q-30 -150 -137.5 -241.5t-276.5 -91.5q-154 0 -233 94t-50 239z" glyph-name="iishortcyrillic" horiz-adv-x="1149" unicode="й"/><glyph d="M1145 1055l-557 -511l354 -544h-254l-316 482h-7l-103 -482h-216l224 1055h215l-96 -447h8l482 447h266z" glyph-name="kacyrillic" horiz-adv-x="1013" unicode="к"/><glyph d="M445 478q-77 -275 -170.5 -382t-256.5 -107q-42 0 -78 12l40 198q21 -7 54 -7q68 0 120 72t95 226q6 21 82 291.5t76 273.5h727l-223 -1055h-214l188 877h-325q-1 -5 -56.5 -197.5t-58.5 -201.5z" glyph-name="elcyrillic" horiz-adv-x="1093" unicode="л"/><glyph d="M256 0h-210l224 1055h267l167 -749h9l505 749h270l-223 -1055h-210l153 721h-10l-463 -678h-148l-167 678h-10z" glyph-name="emcyrillic" horiz-adv-x="1442" unicode="м"/><glyph d="M46 0l224 1055h216l-90 -421h471l89 421h217l-224 -1055h-215l97 456h-471l-97 -456h-217z" glyph-name="encyrillic" horiz-adv-x="1126" unicode="н"/><glyph d="M570 169q145 0 240 124t95 309q0 129 -65 207t-175 78q-145 0 -240 -124t-95 -310q0 -129 65 -206.5t175 -77.5zM669 1076q206 0 329.5 -128t123.5 -340q0 -132 -42.5 -248t-116 -199.5t-176.5 -132t-220 -48.5q-206 0 -330 128t-124 339q0 176 72 320t199.5 226.5 t284.5 82.5z" glyph-name="ocyrillic" horiz-adv-x="1143" unicode="о"/><glyph d="M725 0l187 877h-462l-188 -877h-216l224 1055h894l-224 -1055h-215z" glyph-name="pecyrillic" horiz-adv-x="1117" unicode="п"/><glyph d="M616 174q140 0 234.5 123t94.5 308q0 131 -62.5 205.5t-172.5 74.5q-101 0 -180 -62t-120 -163t-41 -219q0 -119 67.5 -193t179.5 -74zM184 -349h-212l298 1404h209l-35 -164h4q51 83 140.5 132.5t190.5 49.5q176 0 278 -119.5t102 -322.5q0 -184 -68 -332.5 t-187.5 -232.5t-266.5 -84q-119 0 -209 61.5t-121 161.5h-5z" glyph-name="ercyrillic" horiz-adv-x="1179" unicode="р"/><glyph d="M663 1076q199 0 314 -108.5t115 -265.5q0 -13 -1 -18h-206q-3 86 -64 143t-164 57q-144 0 -235.5 -122t-91.5 -314q0 -128 63 -202.5t169 -74.5q94 0 162 50t98 136h209q-36 -164 -168 -270.5t-306 -106.5q-211 0 -327.5 126t-116.5 333q0 277 153.5 457t396.5 180z" glyph-name="escyrillic" horiz-adv-x="1071" unicode="с"/><glyph d="M1039 1055l-36 -178h-324l-187 -877h-216l188 877h-324l35 178h864z" glyph-name="tecyrillic" horiz-adv-x="897" unicode="т"/><glyph d="M102 -385q-81 0 -124 13l33 183q31 -12 96 -12q129 0 202 153q0 1 13 29l14 28l-159 1046h214l102 -838h4l435 838h233l-635 -1137q-92 -170 -190.5 -236.5t-237.5 -66.5z" glyph-name="ucyrillic" horiz-adv-x="1027" unicode="у"/><glyph d="M713 -348h-211l71 333q-208 8 -334 131.5t-126 319.5q0 284 190.5 460.5t500.5 180.5l70 326h211l-70 -329q207 -8 333.5 -132t126.5 -319q0 -187 -86 -332t-243.5 -226t-361.5 -83zM1255 600q0 133 -74 210.5t-204 81.5l-157 -728q193 7 314 128.5t121 307.5zM333 459 q0 -133 73.5 -210.5t203.5 -81.5l158 728q-193 -7 -314 -128.5t-121 -307.5z" glyph-name="efcyrillic" horiz-adv-x="1495" unicode="ф"/><glyph d="M528 373h-5l-306 -373h-246l458 539l-236 516h226l163 -373h4l307 373h245l-457 -538l235 -517h-226z" glyph-name="hacyrillic" horiz-adv-x="1017" unicode="х"/><glyph d="M1045 -276h-196l59 276h-862l224 1055h215l-187 -876h462l188 876h216l-188 -876h163z" glyph-name="tsecyrillic" horiz-adv-x="1178" unicode="ц"/><glyph d="M897 0h-216l94 448h-14q-113 -92 -268 -92q-171 0 -251.5 113.5t-41.5 301.5l59 284h216l-61 -287q-23 -108 16.5 -164t139.5 -56q67 0 132.5 25t113.5 68l89 414h215z" glyph-name="checyrillic" horiz-adv-x="1074" unicode="ч"/><glyph d="M46 0l224 1055h216l-187 -876h352l186 876h216l-187 -876h352l187 876h215l-223 -1055h-1351z" glyph-name="shacyrillic" horiz-adv-x="1574" unicode="ш"/><glyph d="M1502 -276h-197l59 276h-1318l224 1055h216l-187 -876h352l186 876h216l-187 -876h352l187 876h215l-186 -876h163z" glyph-name="shchacyrillic" horiz-adv-x="1635" unicode="щ"/><glyph d="M628 0h-413l186 877h-275l36 178h491l-68 -321h190q157 0 248.5 -82.5t91.5 -213.5q0 -191 -135 -314.5t-352 -123.5zM731 557h-182l-83 -378h183q111 0 180.5 67.5t69.5 165.5q0 67 -45 106t-123 39z" glyph-name="hardsigncyrillic" horiz-adv-x="1144" unicode="ъ"/><glyph d="M998 0l223 1055h216l-223 -1055h-216zM559 557h-178l-83 -378h178q112 0 182 67.5t70 165.5q0 67 -45 106t-124 39zM46 0l224 1055h215l-68 -321h187q156 0 248 -82.5t92 -213.5q0 -191 -135.5 -314.5t-352.5 -123.5h-410z" glyph-name="yericyrillic" horiz-adv-x="1400" unicode="ы"/><glyph d="M559 557h-178l-83 -378h178q112 0 182 67.5t70 165.5q0 67 -45 106t-124 39zM46 0l224 1055h215l-68 -321h187q156 0 248 -82.5t92 -213.5q0 -191 -135.5 -314.5t-352.5 -123.5h-410z" glyph-name="softsigncyrillic" horiz-adv-x="973" unicode="ь"/><glyph d="M144 714q54 170 180.5 266t307.5 96q199 0 318 -121t119 -326q0 -182 -66 -328t-196 -233.5t-303 -87.5q-193 0 -301 100t-113 258h208q6 -74 63.5 -121.5t148.5 -47.5q126 0 212 80t111 211h-444l34 165h429v-3q2 122 -62.5 193t-180.5 71q-87 0 -153 -44.5t-105 -127.5 h-207z" glyph-name="ereversedcyrillic" horiz-adv-x="1088" unicode="э"/><glyph d="M1007 -20q-205 0 -326.5 124.5t-125.5 336.5v15h-191l-98 -456h-215l223 1056h216l-90 -422h177q52 198 193.5 320t334.5 122q207 0 329.5 -128t122.5 -340q0 -179 -70 -322.5t-196 -224.5t-284 -81zM1010 166q140 0 235 126.5t95 313.5q0 128 -64.5 205.5t-174.5 77.5 q-140 0 -234.5 -126t-94.5 -314q0 -129 64 -206t174 -77z" glyph-name="iucyrillic" horiz-adv-x="1577" unicode="ю"/><glyph d="M732 531l76 346h-186q-107 0 -172.5 -53.5t-65.5 -139.5q0 -70 46.5 -111.5t123.5 -41.5h178zM638 1055h421l-224 -1055h-215l76 359h-136l-331 -359h-264l374 402q-81 34 -128 106.5t-47 164.5q0 173 130 277.5t344 104.5z" glyph-name="iacyrillic" horiz-adv-x="1012" unicode="я"/><glyph d="M348 633h524q1 8 1 29q0 99 -58 165.5t-172 66.5q-109 0 -187 -72.5t-108 -188.5zM558 -22q-212 0 -328.5 128.5t-116.5 341.5q0 174 67.5 317t190.5 227t277 84q200 0 317.5 -121t117.5 -327q0 -86 -11 -152h-749q-1 -12 -1 -35q0 -128 65.5 -203.5t175.5 -75.5 q96 0 165 45t101 123h207q-42 -154 -173 -253t-305 -99zM785 1224h-171l-185 305h207z" glyph-name="uni0450" horiz-adv-x="1103" unicode="ѐ"/><glyph d="M348 633h524q1 8 1 29q0 99 -58 165.5t-172 66.5q-109 0 -187 -72.5t-108 -188.5zM558 -22q-212 0 -328.5 128.5t-116.5 341.5q0 174 67.5 317t190.5 227t277 84q200 0 317.5 -121t117.5 -327q0 -86 -11 -152h-749q-1 -12 -1 -35q0 -128 65.5 -203.5t175.5 -75.5 q96 0 165 45t101 123h207q-42 -154 -173 -253t-305 -99zM529 1225q-49 0 -83 34t-34 83t34 83t83 34t83 -34t34 -83t-34 -83t-83 -34zM909 1225q-49 0 -83 34t-34 83t34 83t83 34t83 -34t34 -83t-34 -83t-83 -34z" glyph-name="iocyrillic" horiz-adv-x="1103" unicode="ё"/><glyph d="M449 893h5q55 83 146.5 132t194.5 49q143 0 238 -88.5t95 -221.5q0 -60 -14 -125l-153 -706q-35 -157 -118 -230t-229 -74q-46 0 -108 2l41 189h54q121 2 149 132l143 650q12 58 12 94q0 86 -58 137.5t-154 51.5q-108 0 -190 -68.5t-106 -179.5l-136 -637h-214l257 1209 h-143l27 135h144l23 107h214l-23 -107h216l-28 -135h-217z" glyph-name="djecyrillic" horiz-adv-x="1150" unicode="ђ"/><glyph d="M920 877h-467l-188 -877h-215l223 1055h682zM732 1224h-187l278 305h224z" glyph-name="gjecyrillic" horiz-adv-x="860" unicode="ѓ"/><glyph d="M1022 341q-40 -161 -168.5 -261t-297.5 -100q-216 0 -331.5 126.5t-115.5 338.5q0 176 68.5 320t194 227.5t283.5 83.5q198 0 310 -102t121 -261h-206q-12 77 -72 126t-157 49q-108 0 -189 -71.5t-114 -188.5h439l-33 -164h-429q-1 -7 -1 -21q0 -127 63.5 -201t173.5 -74 q89 0 157 47t99 126h205z" glyph-name="ecyrillic" horiz-adv-x="1061" unicode="є"/><glyph d="M186 751q0 143 113 233.5t295 90.5q177 0 289 -92t114 -238h-200q-6 70 -63.5 115t-142.5 45q-90 0 -143.5 -37.5t-53.5 -96.5q0 -49 36.5 -79.5t130.5 -59.5l97 -31q143 -47 205.5 -113t62.5 -170q0 -148 -119.5 -243t-305.5 -95q-193 0 -312.5 94t-124.5 243h210 q11 -75 73 -120.5t163 -45.5q87 0 144.5 42.5t57.5 105.5q0 45 -33.5 71.5t-127.5 55.5l-91 29q-144 46 -209 116.5t-65 179.5z" glyph-name="dzecyrillic" horiz-adv-x="996" unicode="ѕ"/><glyph d="M53 0l223 1055h216l-223 -1055h-216zM443 1204q-53 0 -89.5 37.5t-36.5 91.5t36.5 91.5t89.5 37.5t89.5 -37.5t36.5 -91.5t-36.5 -91.5t-89.5 -37.5z" glyph-name="icyrillic" horiz-adv-x="452" unicode="і"/><glyph d="M260 1205q-49 0 -83.5 35.5t-34.5 86.5q0 50 34.5 85.5t83.5 35.5t84 -35.5t35 -85.5q0 -51 -34.5 -86.5t-84.5 -35.5zM634 1205q-50 0 -84.5 35.5t-34.5 86.5q0 50 35 85.5t84 35.5t83.5 -35.5t34.5 -85.5q0 -51 -34.5 -86.5t-83.5 -35.5zM53 0l224 1055h215l-223 -1055 h-216z" glyph-name="yicyrillic" horiz-adv-x="433" unicode="ї"/><glyph d="M450 1204q-53 0 -89.5 37.5t-36.5 91.5t36.5 91.5t89.5 37.5q52 0 88.5 -37.5t36.5 -91.5t-36.5 -91.5t-88.5 -37.5zM493 1055l-241 -1129q-63 -293 -362 -295q-44 0 -96 7l39 181q40 -4 53 -4q68 0 103.5 32t52.5 106l235 1102h216z" glyph-name="jecyrillic" horiz-adv-x="452" unicode="ј"/><glyph d="M948 179h177q111 0 181 67.5t70 165.5q0 67 -45 106t-124 39h-177zM1065 734h186q157 0 249 -82.5t92 -213.5q0 -191 -135.5 -314.5t-352.5 -123.5h-409l186 877h-321q0 3 -29 -96.5t-58.5 -200.5t-29.5 -102q-77 -278 -171.5 -383.5t-262.5 -105.5q-36 0 -69 12l40 198 q21 -7 54 -7q67 0 119 71.5t95 223.5q-1 -4 38.5 136.5t79.5 285t41 146.5h727z" glyph-name="ljecyrillic" horiz-adv-x="1621" unicode="љ"/><glyph d="M985 177h206q97 0 156.5 49.5t59.5 129.5q0 65 -40 100t-116 35h-197zM262 0h-215l223 1055h216l-83 -389h471l83 389h216l-83 -388h197q151 0 243.5 -78.5t92.5 -205.5q0 -172 -125.5 -277.5t-330.5 -105.5h-434l105 489h-471z" glyph-name="njecyrillic" horiz-adv-x="1652" unicode="њ"/><glyph d="M449 892h5q49 81 137.5 131.5t202.5 50.5q148 0 241 -90t93 -220q0 -55 -14 -125l-139 -639h-214l131 602q12 53 12 94q0 85 -57 137t-155 52q-111 0 -192 -70.5t-106 -184.5l-133 -630h-215l254 1196h-111l29 138h112l23 109h214l-23 -109h234l-29 -138h-235z" glyph-name="tshecyrillic" horiz-adv-x="1145" unicode="ћ"/><glyph d="M1109 1529l-315 -305h-187l278 305h224zM1145 1055l-557 -511l354 -544h-254l-316 482h-7l-103 -482h-216l224 1055h215l-96 -447h8l482 447h266z" glyph-name="kjecyrillic" horiz-adv-x="1013" unicode="ќ"/><glyph d="M261 0h-215l224 1055h214l-157 -720h11l643 720h214l-223 -1055h-214l157 726h-11zM856 1224h-171l-185 305h207z" glyph-name="uni045D" horiz-adv-x="1149" unicode="ѝ"/><glyph d="M102 -385q-81 0 -124 13l33 183q31 -12 96 -12q129 0 202 153q0 1 13 29l14 28l-159 1046h214l102 -838h4l435 838h233l-635 -1137q-92 -170 -190.5 -236.5t-237.5 -66.5zM417 1545h164q-17 -84 20 -141.5t119 -57.5q85 0 145.5 57t79.5 142h169q-30 -150 -137.5 -241.5 t-276.5 -91.5q-154 0 -233 94t-50 239z" glyph-name="ushortcyrillic" horiz-adv-x="1027" unicode="ў"/><glyph d="M940 0h-348l-60 -276h-196l59 276h-349l224 1055h215l-187 -876h462l188 876h216z" glyph-name="dzhecyrillic" horiz-adv-x="1117" unicode="џ"/><glyph d="M497 197h299q152 0 252 84.5t100 215.5q0 113 -78 171t-211 58h-246zM652 923h253q214 0 344 -110t130 -299q0 -228 -162 -371t-407 -143h-580l240 1135h-286l36 178h288l42 201h227l-43 -201h377l-37 -178h-377z" glyph-name="uni0462" horiz-adv-x="1403" unicode="Ѣ"/><glyph d="M825 323q0 52 11 110l35 156q12 55 12 103q0 85 -55 136.5t-147 51.5q-103 0 -181.5 -71t-103.5 -184l-134 -625h-217l224 1055h208l-35 -167h5q56 87 143.5 136t193.5 49q140 0 232.5 -88.5t92.5 -223.5v-17h192q166 0 260.5 -84t94.5 -230q0 -202 -123 -325.5 t-317 -123.5q-186 0 -288.5 93.5t-102.5 248.5zM1041 337q0 -73 51 -120.5t134 -47.5q96 0 156 65.5t60 171.5q0 76 -49.5 117.5t-138.5 41.5h-171l-36 -164q-6 -26 -6 -64z" glyph-name="uni0463" horiz-adv-x="1740" unicode="ѣ"/><glyph d="M786 183q191 0 329 132.5t182 343.5q-97 -79 -232 -78q-75 0 -144 17t-112.5 37t-102 36.5t-114.5 16.5q-119 0 -191 -56v-19q0 -197 104.5 -313.5t280.5 -116.5zM931 1260q-185 0 -322 -126t-185 -327q90 65 211 65q72 0 140 -16.5t112 -36.5t104 -36.5t119 -16.5 q133 0 205 67q-1 196 -105 311.5t-279 115.5zM932 1466q278 0 445 -172t167 -453q0 -240 -98.5 -438t-273 -312t-389.5 -114q-277 0 -443.5 172t-166.5 453q0 240 98 438t272 312t389 114z" glyph-name="uni0472" horiz-adv-x="1540" unicode="Ѳ"/><glyph d="M569 166q117 0 204.5 82.5t120.5 216.5q-64 -56 -163 -56q-64 0 -146.5 31.5t-139.5 31.5q-36 0 -70 -12t-50 -30q5 -120 71 -192t173 -72zM666 889q-122 0 -212 -90t-118 -235q68 71 171 73q63 0 146 -31.5t144 -31.5q74 0 114 35q-1 127 -67.5 203.5t-177.5 76.5z M669 1076q206 0 329.5 -128t123.5 -340q0 -132 -42.5 -248t-116 -199.5t-176.5 -132t-220 -48.5q-206 0 -330 128t-124 339q0 176 72 320t199.5 226.5t284.5 82.5z" glyph-name="uni0473" horiz-adv-x="1143" unicode="ѳ"/><glyph d="M731 0h-249l-208 1443h232l152 -1160h7l504 894q80 165 168 230q80 58 191 58q121 0 195 -49l-101 -192q-49 19 -83 19q-53 0 -91 -33q-37 -31 -95 -128z" glyph-name="uni0474" horiz-adv-x="1494" unicode="Ѵ"/><glyph d="M1310 1027l-91 -180q-37 17 -74 17q-49 0 -84 -29q-33 -27 -83 -111l-411 -724h-238l-152 1055h213l98 -823h4l301 554q83 169 163 228q76 56 188 56q93 0 166 -43z" glyph-name="uni0475" horiz-adv-x="1035" unicode="ѵ"/><glyph d="M1235 1849h170q-30 -142 -136 -223t-263 -81q-162 0 -246 82t-56 222h169q-16 -78 24.5 -124t119.5 -46q81 0 141.5 46t76.5 124zM1571 1443l-264 -1239h186l-11 -57l-207 -432h-206l140 285h-168l40 204h4l185 853h-17l-957 -1057h-222l307 1443h224l-230 -1060h16 l958 1060h222z" glyph-name="uni048A" horiz-adv-x="1564" unicode="Ҋ"/><glyph d="M1016 1545h169q-30 -150 -137.5 -241.5t-276.5 -91.5q-154 0 -233 94t-50 239h164q-17 -84 20 -141.5t119 -57.5q85 0 145.5 57t79.5 142zM1195 1055l-184 -870h172l-12 -59l-186 -400h-200l131 274h-158l38 185h2l117 541h-11l-643 -726h-215l224 1055h214l-157 -720h11 l643 720h214z" glyph-name="uni048B" horiz-adv-x="1248" unicode="ҋ"/><glyph d="M497 197h299q152 0 252 84.5t100 215.5q0 113 -78 171t-211 58h-246zM652 923h253q214 0 344 -110t130 -299q0 -228 -162 -371t-407 -143h-580l240 1135h-286l36 178h288l42 201h227l-43 -201h377l-37 -178h-377z" glyph-name="uni048C" horiz-adv-x="1403" unicode="Ҍ"/><glyph d="M475 179h178q107 0 179.5 65t72.5 160q0 71 -45.5 112t-125.5 41h-176zM594 734h184q155 0 249 -83.5t94 -220.5q0 -190 -130.5 -310t-341.5 -120h-426l194 907h-271l32 148h270l83 388h215l-83 -388h403l-31 -148h-404z" glyph-name="uni048D" horiz-adv-x="1150" unicode="ҍ"/><glyph d="M827 957l102 -230q81 40 125.5 114.5t44.5 176.5q0 108 -72 167.5t-198 59.5h-261l-122 -562h275q24 0 36 1l-87 205zM380 1443h515q190 0 312.5 -111t122.5 -293q0 -174 -81.5 -301.5t-225.5 -192.5l88 -195l-190 -90l-96 232q-47 -6 -96 -6h-323l-104 -486h-228z" glyph-name="uni048E" horiz-adv-x="1258" unicode="Ҏ"/><glyph d="M707 467l98 -219q65 57 102.5 150.5t37.5 206.5q0 131 -62.5 205.5t-172.5 74.5q-101 0 -180 -62t-120 -163t-41 -219q0 -119 67.5 -193t179.5 -74q12 0 34 2l-95 218zM444 891h4q51 83 140.5 132.5t190.5 49.5q176 0 278 -119.5t102 -322.5q0 -185 -69 -334t-189 -232 l78 -177l-183 -90l-80 191q-35 -7 -79 -7q-119 0 -209 61.5t-121 161.5h-5l-118 -554h-212l298 1404h209z" glyph-name="uni048F" horiz-adv-x="1179" unicode="ҏ"/><glyph d="M567 1239l-265 -1239h-228l307 1443h683l60 285h209l-101 -489h-665z" glyph-name="Geupturncyrillic" horiz-adv-x="1093" unicode="Ґ"/><glyph d="M916 877h-466l-188 -877h-216l224 1055h485l59 277h197z" glyph-name="geupturncyrillic" horiz-adv-x="859" unicode="ґ"/><glyph d="M1231 1239h-665l-95 -446h477l-36 -180h-480l-131 -613h-227l130 613h-138l36 180h141l138 650h892z" glyph-name="uni0492" horiz-adv-x="1092" unicode="Ғ"/><glyph d="M920 877h-467l-56 -261h342l-35 -172h-344l-95 -444h-215l94 444h-113l34 172h115l93 439h682z" glyph-name="uni0493" horiz-adv-x="860" unicode="ғ"/><glyph d="M1222 1443l-42 -204h-617l-101 -466h16q157 134 380 134q184 0 291.5 -102.5t107.5 -274.5q0 -151 -66.5 -279.5t-195.5 -209.5t-295 -81q-111 0 -155 17l41 198q41 -15 121 -15q97 0 171.5 49.5t111.5 124t37 158.5q0 96 -63.5 151.5t-176.5 55.5q-111 0 -216.5 -52.5 t-162.5 -134.5l-110 -512h-224l307 1443h841z" glyph-name="uni0494" horiz-adv-x="1324" unicode="Ҕ"/><glyph d="M367 504h6q125 105 298 105q160 0 254 -100.5t94 -268.5q0 -244 -159.5 -400.5t-409.5 -156.5q-106 0 -146 16l36 180q37 -8 121 -8q145 0 238 94t93 236q0 99 -50 153.5t-139 54.5q-85 0 -159 -38.5t-126 -107.5l-57 -263h-215l224 1055h707l-36 -180h-493z" glyph-name="uni0495" horiz-adv-x="1101" unicode="ҕ"/><glyph d="M1447 718l344 -514h236l-102 -489h-205l61 285h-99l-451 663h-12l-143 -663h-222l143 664h-11l-737 -664h-289l835 764l-447 679h243l421 -643h11l138 643h222l-139 -645h12l698 645h269z" glyph-name="uni0496" horiz-adv-x="2107" unicode="Җ"/><glyph d="M1142 543l222 -357h252l-97 -460h-203l59 274h-132h-1v1l-309 482h-9l-104 -483h-214l104 483h-8l-499 -483h-272l584 577l-309 478h234l286 -448h8l96 448h214l-96 -448h9l475 448h253z" glyph-name="uni0497" horiz-adv-x="1716" unicode="җ"/><glyph d="M905 737l-1 -5q118 -28 185 -109.5t67 -197.5q0 -172 -126.5 -293.5t-329.5 -148.5l-57 -268h-197l57 266q-205 24 -323 143.5t-102 291.5h212q-1 -110 85.5 -177t230.5 -67q141 0 233 71t92 179q0 105 -74.5 164t-207.5 59h-189l38 193h198q145 0 235 63t90 165 q0 92 -73 149.5t-188 57.5q-113 0 -195.5 -58t-98.5 -149h-212q24 179 169 289.5t356 110.5q202 0 332.5 -104.5t130.5 -267.5q0 -134 -96 -236t-241 -121z" glyph-name="uni0498" horiz-adv-x="1214" unicode="Ҙ"/><glyph d="M361 721h-207q32 165 153.5 259.5t303.5 94.5q168 0 274 -79.5t104 -201.5q-2 -86 -60 -155.5t-144 -85.5l-2 -8q75 -22 116 -79t40 -137q-2 -131 -100.5 -224t-257.5 -118l-58 -272h-199l58 274q-141 26 -224 121.5t-83 231.5h206q1 -74 62 -125t152 -51 q98 0 162.5 48.5t65.5 119.5q1 59 -45.5 91t-131.5 32h-148l34 162h148q82 0 136 39.5t55 99.5q1 57 -48.5 94.5t-130.5 37.5q-89 0 -151.5 -46t-79.5 -123z" glyph-name="uni0499" horiz-adv-x="1013" unicode="ҙ"/><glyph d="M683 726l383 -522h230l-102 -489h-205l61 285h-99l-496 662h-11l-143 -662h-227l307 1443h227l-137 -644h10l728 644h288z" glyph-name="uni049A" horiz-adv-x="1376" unicode="Қ"/><glyph d="M588 544l233 -358h239l-96 -460h-204l60 274h-132h-1v1l-315 481h-7l-103 -482h-216l224 1055h215l-96 -447h8l482 447h266z" glyph-name="uni049B" horiz-adv-x="1161" unicode="қ"/><glyph d="M1614 1443l-654 -728l363 -715h-254l-328 635h-37l-67 -315h-160l67 315h-110l-136 -635h-224l307 1443h224l-134 -627h111l64 304h160l-64 -304h36l565 627h271z" glyph-name="uni049C" horiz-adv-x="1437" unicode="Ҝ"/><glyph d="M1327 1055l-471 -505l268 -550h-237l-223 459h-51l-52 -249h-149l53 249h-106l-98 -459h-215l224 1055h215l-91 -426h107l54 255h148l-54 -255h31l386 426h261z" glyph-name="uni049D" horiz-adv-x="1213" unicode="ҝ"/><glyph d="M1497 1443l-814 -717l533 -726h-265l-496 662h-11l-143 -662h-227l242 1138h-147l35 172h149l28 133h227l-28 -133h226l-35 -172h-228l-72 -339h10l728 644h288z" glyph-name="uni049E" horiz-adv-x="1307" unicode="Ҟ"/><glyph d="M1166 1055l-514 -442l313 -613h-237l-249 485l-136 -108l-81 -377h-216l253 1191h-116l30 148h118l22 104h216l-22 -104h236l-30 -148h-238l-122 -563h5l504 427h264z" glyph-name="uni049F" horiz-adv-x="1012" unicode="ҟ"/><glyph d="M2043 1443l-814 -717l533 -726h-265l-496 662h-11l-143 -662h-227l264 1239h-635l41 204h637h227l-41 -204h-2l-94 -440h10l728 644h288z" glyph-name="uni04A0" horiz-adv-x="1854" unicode="Ҡ"/><glyph d="M1506 1055l-557 -511l354 -544h-254l-316 482h-7l-103 -482h-216l186 876h-454l36 179h456h215l-36 -179h-2l-58 -268h8l482 447h266z" glyph-name="uni04A1" horiz-adv-x="1373" unicode="ҡ"/><glyph d="M1573 1443l-264 -1239h175l-102 -489h-205l61 285h-201l136 634h-734l-136 -634h-229l307 1443h229l-130 -606h734l130 606h229z" glyph-name="uni04A2" horiz-adv-x="1577" unicode="Ң"/><glyph d="M1173 1055l-185 -870h168l-97 -459h-203l59 274h-181l97 456h-471l-97 -456h-217l224 1055h216l-90 -421h471l89 421h217z" glyph-name="uni04A3" horiz-adv-x="1231" unicode="ң"/><glyph d="M2190 1443l-41 -204h-619l-264 -1239h-229l136 634h-734l-136 -634h-229l307 1443h229l-130 -606h734l130 606h229h617z" glyph-name="uni04A4" horiz-adv-x="2010" unicode="Ҥ"/><glyph d="M1570 1055l-35 -179h-400l-186 -876h-215l97 456h-471l-97 -456h-217l224 1055h216l-90 -421h471l89 421h217h397z" glyph-name="uni04A5" horiz-adv-x="1475" unicode="ҥ"/></font>
</defs>
</svg>
