<?xml version="1.0" standalone="no"?>
<!DOCTYPE svg PUBLIC "-//W3C//DTD SVG 1.1//EN" "http://www.w3.org/Graphics/SVG/1.1/DTD/svg11.dtd" >
<svg xmlns="http://www.w3.org/2000/svg" xmlns:xlink="http://www.w3.org/1999/xlink" version="1.1">
<metadata>
Created by FontForge 20170731 at Wed May 31 05:50:26 2017
 By Aleksey,,,
(c) 2015-2017 Apple Inc. All rights reserved.
</metadata>
<defs>
<font id="SFProDisplay-Thin" horiz-adv-x="1666" >
  <font-face
    font-family="SF Pro Display"
    font-weight="200"
    font-stretch="normal"
    units-per-em="2048"
    panose-1="0 0 3 0 0 0 0 0 0 0"
    ascent="1638"
    descent="-410"
    x-height="1040"
    cap-height="1443"
    bbox="-477 -494 2434 2129"
    underline-thickness="61"
    underline-position="-489"
    unicode-range="U+0020-1F189"
  />
<missing-glyph horiz-adv-x="2048"
d="M100 -494v339h1848v-339h-1848zM100 -73v339h1848v-339h-1848zM100 348v339h1848v-339h-1848zM100 769v339h1848v-339h-1848zM100 1190v339h1848v-339h-1848zM100 1611v339h1848v-339h-1848z" />
    <glyph glyph-name="uni2460" unicode="&#x31;&#x20dd;"
d="M889 374h-65v613h-4l-176 -115v66l180 119h65v-683zM833 23q135 0 257.5 53t211 142.5t141 213t52.5 259.5q0 181 -88.5 335t-241 244t-332.5 90t-333 -90t-241.5 -244t-88.5 -335q0 -136 52.5 -259.5t141 -213t211.5 -142.5t258 -53zM833 -41q-148 0 -283.5 58.5
t-234 156.5t-156.5 233.5t-58 283.5t58 284t156.5 234t234 156.5t283.5 58.5t283.5 -58.5t233.5 -156.5t156.5 -234t58.5 -284t-58.5 -283.5t-156.5 -233.5t-233.5 -156.5t-283.5 -58.5z" />
    <glyph glyph-name="uni2461" unicode="&#x32;&#x20dd;"
d="M675 872h-65v3q0 82 62.5 139t160.5 57q97 0 155.5 -51t58.5 -134q0 -51 -26 -96.5t-89 -114.5l-219 -241v-4h354v-56h-447v46l276 301q44 49 64 86t20 77q0 59 -40.5 95t-106.5 36q-69 0 -113.5 -40t-44.5 -100v-3zM833 23q135 0 257.5 53t211 142.5t141 213t52.5 259.5
q0 181 -88.5 335t-241 244t-332.5 90t-333 -90t-241.5 -244t-88.5 -335q0 -136 52.5 -259.5t141 -213t211.5 -142.5t258 -53zM833 -41q-148 0 -283.5 58.5t-234 156.5t-156.5 233.5t-58 283.5t58 284t156.5 234t234 156.5t283.5 58.5t283.5 -58.5t233.5 -156.5t156.5 -234
t58.5 -284t-58.5 -283.5t-156.5 -233.5t-233.5 -156.5t-283.5 -58.5z" />
    <glyph glyph-name="uni2462" unicode="&#x33;&#x20dd;"
d="M759 700v54h77q63 0 106 39t43 95q-1 57 -43 92.5t-109 35.5q-61 0 -104.5 -33t-47.5 -81h-63q3 72 63.5 120.5t152.5 48.5q95 0 155.5 -49t61.5 -125q0 -62 -40.5 -108t-96.5 -57v-4q67 -7 113.5 -54t47.5 -115q1 -88 -68 -144t-174 -56q-97 0 -161 50t-69 123h62
q4 -48 53 -83t115 -35q79 0 127.5 40.5t48.5 105.5q-1 60 -48 100t-119 40h-83zM833 23q135 0 257.5 53t211 142.5t141 213t52.5 259.5q0 181 -88.5 335t-241 244t-332.5 90t-333 -90t-241.5 -244t-88.5 -335q0 -136 52.5 -259.5t141 -213t211.5 -142.5t258 -53zM833 -41
q-148 0 -283.5 58.5t-234 156.5t-156.5 233.5t-58 283.5t58 284t156.5 234t234 156.5t283.5 58.5t283.5 -58.5t233.5 -156.5t156.5 -234t58.5 -284t-58.5 -283.5t-156.5 -233.5t-233.5 -156.5t-283.5 -58.5z" />
    <glyph glyph-name="uni2463" unicode="&#x34;&#x20dd;"
d="M862 1057h101v-475h104v-56h-104v-152h-63v152h-347v60q30 50 84.5 134t135.5 204.5t89 132.5zM621 582h279v421h-6q-182 -265 -273 -417v-4zM833 23q135 0 257.5 53t211 142.5t141 213t52.5 259.5q0 181 -88.5 335t-241 244t-332.5 90t-333 -90t-241.5 -244t-88.5 -335
q0 -136 52.5 -259.5t141 -213t211.5 -142.5t258 -53zM833 -41q-148 0 -283.5 58.5t-234 156.5t-156.5 233.5t-58 283.5t58 284t156.5 234t234 156.5t283.5 58.5t283.5 -58.5t233.5 -156.5t156.5 -234t58.5 -284t-58.5 -283.5t-156.5 -233.5t-233.5 -156.5t-283.5 -58.5z" />
    <glyph glyph-name="uni2464" unicode="&#x35;&#x20dd;"
d="M601 532h62q10 -51 57.5 -84t108.5 -33q76 0 127 49.5t51 126.5q0 74 -48.5 121t-122.5 47q-97 0 -161 -88h-60l30 386h393v-56h-336l-23 -264h5q25 34 69 55.5t95 21.5q97 0 161 -62t64 -160q0 -103 -69 -167.5t-179 -64.5q-90 0 -153.5 49t-70.5 123zM833 23
q135 0 257.5 53t211 142.5t141 213t52.5 259.5q0 181 -88.5 335t-241 244t-332.5 90t-333 -90t-241.5 -244t-88.5 -335q0 -136 52.5 -259.5t141 -213t211.5 -142.5t258 -53zM833 -41q-148 0 -283.5 58.5t-234 156.5t-156.5 233.5t-58 283.5t58 284t156.5 234t234 156.5
t283.5 58.5t283.5 -58.5t233.5 -156.5t156.5 -234t58.5 -284t-58.5 -283.5t-156.5 -233.5t-233.5 -156.5t-283.5 -58.5z" />
    <glyph glyph-name="uni2465" unicode="&#x36;&#x20dd;"
d="M1057 920h-64q-13 40 -54.5 66.5t-95.5 26.5q-93 0 -147 -84t-53 -232v-7h4q57 121 205 121q94 0 158 -61t64 -158q0 -105 -67 -168.5t-175 -63.5q-68 0 -123 30t-87 86q-43 76 -43 217q0 180 70.5 278t194.5 98q80 0 140.5 -44.5t72.5 -104.5zM656 589q0 -76 50.5 -125
t126.5 -49q79 0 127.5 47t48.5 126q0 76 -49 122.5t-126 46.5t-127.5 -47.5t-50.5 -120.5zM833 23q135 0 257.5 53t211 142.5t141 213t52.5 259.5q0 181 -88.5 335t-241 244t-332.5 90t-333 -90t-241.5 -244t-88.5 -335q0 -136 52.5 -259.5t141 -213t211.5 -142.5t258 -53z
M833 -41q-148 0 -283.5 58.5t-234 156.5t-156.5 233.5t-58 283.5t58 284t156.5 234t234 156.5t283.5 58.5t283.5 -58.5t233.5 -156.5t156.5 -234t58.5 -284t-58.5 -283.5t-156.5 -233.5t-233.5 -156.5t-283.5 -58.5z" />
    <glyph glyph-name="uni2466" unicode="&#x37;&#x20dd;"
d="M617 1054h449v-58l-296 -625h-73l301 622v5h-381v56zM833 23q135 0 257.5 53t211 142.5t141 213t52.5 259.5q0 181 -88.5 335t-241 244t-332.5 90t-333 -90t-241.5 -244t-88.5 -335q0 -136 52.5 -259.5t141 -213t211.5 -142.5t258 -53zM833 -41q-148 0 -283.5 58.5
t-234 156.5t-156.5 233.5t-58 283.5t58 284t156.5 234t234 156.5t283.5 58.5t283.5 -58.5t233.5 -156.5t156.5 -234t58.5 -284t-58.5 -283.5t-156.5 -233.5t-233.5 -156.5t-283.5 -58.5z" />
    <glyph glyph-name="uni2467" unicode="&#x38;&#x20dd;"
d="M834 413q81 0 133.5 42t52.5 107q0 64 -52.5 105t-133.5 41t-133.5 -41.5t-52.5 -104.5q0 -65 52.5 -107t133.5 -42zM834 758q68 0 113 37t45 93q0 57 -44.5 93.5t-113.5 36.5t-113 -36.5t-44 -93.5q0 -56 44.5 -93t112.5 -37zM834 360q-110 0 -180 56t-70 145
q0 62 42 110.5t107 61.5v4q-55 16 -88.5 58.5t-33.5 95.5q0 79 63 129.5t160 50.5q98 0 160.5 -50.5t62.5 -129.5q0 -53 -33.5 -95.5t-87.5 -58.5v-4q65 -13 107 -61.5t42 -110.5q0 -88 -70.5 -144.5t-180.5 -56.5zM833 23q135 0 257.5 53t211 142.5t141 213t52.5 259.5
q0 181 -88.5 335t-241 244t-332.5 90t-333 -90t-241.5 -244t-88.5 -335q0 -136 52.5 -259.5t141 -213t211.5 -142.5t258 -53zM833 -41q-148 0 -283.5 58.5t-234 156.5t-156.5 233.5t-58 283.5t58 284t156.5 234t234 156.5t283.5 58.5t283.5 -58.5t233.5 -156.5t156.5 -234
t58.5 -284t-58.5 -283.5t-156.5 -233.5t-233.5 -156.5t-283.5 -58.5z" />
    <glyph glyph-name="uni2468" unicode="&#x39;&#x20dd;"
d="M591 839q0 102 69 166t175 64q114 0 182.5 -79t68.5 -241q0 -192 -68 -290.5t-196 -98.5q-81 0 -141 43t-72 104h65q13 -40 54.5 -66t94.5 -26q97 0 149.5 85.5t50.5 237.5h-3q-25 -58 -77.5 -91t-126.5 -33q-96 0 -160.5 63.5t-64.5 161.5zM1009 840q0 76 -51 125
t-126 49q-76 0 -125.5 -48t-49.5 -124q0 -77 49 -125.5t126 -48.5q76 0 126.5 48.5t50.5 123.5zM833 23q135 0 257.5 53t211 142.5t141 213t52.5 259.5q0 181 -88.5 335t-241 244t-332.5 90t-333 -90t-241.5 -244t-88.5 -335q0 -136 52.5 -259.5t141 -213t211.5 -142.5
t258 -53zM833 -41q-148 0 -283.5 58.5t-234 156.5t-156.5 233.5t-58 283.5t58 284t156.5 234t234 156.5t283.5 58.5t283.5 -58.5t233.5 -156.5t156.5 -234t58.5 -284t-58.5 -283.5t-156.5 -233.5t-233.5 -156.5t-283.5 -58.5z" />
    <glyph glyph-name="uni24B6" unicode="A&#x20dd;"
d="M704 654h258l-126 345h-5zM606 384h-68l255 683h80l255 -683h-68l-79 216h-296zM833 23q135 0 257.5 53t211 142.5t141 213t52.5 259.5q0 181 -88.5 335t-241 244t-332.5 90t-333 -90t-241.5 -244t-88.5 -335q0 -136 52.5 -259.5t141 -213t211.5 -142.5t258 -53zM833 -41
q-148 0 -283.5 58.5t-234 156.5t-156.5 233.5t-58 283.5t58 284t156.5 234t234 156.5t283.5 58.5t283.5 -58.5t233.5 -156.5t156.5 -234t58.5 -284t-58.5 -283.5t-156.5 -233.5t-233.5 -156.5t-283.5 -58.5z" />
    <glyph glyph-name="uni24B7" unicode="B&#x20dd;"
d="M612 371v683h255q90 0 144.5 -47.5t54.5 -120.5q0 -59 -32 -100.5t-81 -52.5v-4q68 -9 110.5 -53t42.5 -115q0 -89 -64 -139.5t-173 -50.5h-257zM677 1000v-251h161q75 0 118.5 35.5t43.5 90.5q0 58 -38 91.5t-108 33.5h-177zM677 696v-270h163q198 0 198 135
q0 62 -43 98.5t-118 36.5h-200zM833 23q135 0 257.5 53t211 142.5t141 213t52.5 259.5q0 181 -88.5 335t-241 244t-332.5 90t-333 -90t-241.5 -244t-88.5 -335q0 -136 52.5 -259.5t141 -213t211.5 -142.5t258 -53zM833 -41q-148 0 -283.5 58.5t-234 156.5t-156.5 233.5
t-58 283.5t58 284t156.5 234t234 156.5t283.5 58.5t283.5 -58.5t233.5 -156.5t156.5 -234t58.5 -284t-58.5 -283.5t-156.5 -233.5t-233.5 -156.5t-283.5 -58.5z" />
    <glyph glyph-name="uni24B8" unicode="C&#x20dd;"
d="M1048 564h65q-11 -94 -86.5 -154.5t-187.5 -60.5q-137 0 -222 98.5t-85 257.5t85 258t222 99q113 0 190.5 -63.5t84.5 -161.5h-65q-7 74 -66 121t-144 47q-107 0 -174 -83.5t-67 -216.5t67 -216t174 -83q85 0 141.5 44t67.5 114zM833 23q135 0 257.5 53t211 142.5
t141 213t52.5 259.5q0 181 -88.5 335t-241 244t-332.5 90t-333 -90t-241.5 -244t-88.5 -335q0 -136 52.5 -259.5t141 -213t211.5 -142.5t258 -53zM833 -41q-148 0 -283.5 58.5t-234 156.5t-156.5 233.5t-58 283.5t58 284t156.5 234t234 156.5t283.5 58.5t283.5 -58.5
t233.5 -156.5t156.5 -234t58.5 -284t-58.5 -283.5t-156.5 -233.5t-233.5 -156.5t-283.5 -58.5z" />
    <glyph glyph-name="uni24B9" unicode="D&#x20dd;"
d="M613 1038h215q144 0 225.5 -88t81.5 -242q0 -159 -81 -246.5t-226 -87.5h-215v664zM678 982v-552h141q117 0 181.5 71t64.5 206q0 130 -65.5 202.5t-180.5 72.5h-141zM833 23q135 0 257.5 53t211 142.5t141 213t52.5 259.5q0 181 -88.5 335t-241 244t-332.5 90t-333 -90
t-241.5 -244t-88.5 -335q0 -136 52.5 -259.5t141 -213t211.5 -142.5t258 -53zM833 -41q-148 0 -283.5 58.5t-234 156.5t-156.5 233.5t-58 283.5t58 284t156.5 234t234 156.5t283.5 58.5t283.5 -58.5t233.5 -156.5t156.5 -234t58.5 -284t-58.5 -283.5t-156.5 -233.5
t-233.5 -156.5t-283.5 -58.5z" />
    <glyph glyph-name="uni24BA" unicode="E&#x20dd;"
d="M1048 420v-56h-424v683h424v-56h-359v-251h341v-54h-341v-266h359zM833 23q135 0 257.5 53t211 142.5t141 213t52.5 259.5q0 181 -88.5 335t-241 244t-332.5 90t-333 -90t-241.5 -244t-88.5 -335q0 -136 52.5 -259.5t141 -213t211.5 -142.5t258 -53zM833 -41
q-148 0 -283.5 58.5t-234 156.5t-156.5 233.5t-58 283.5t58 284t156.5 234t234 156.5t283.5 58.5t283.5 -58.5t233.5 -156.5t156.5 -234t58.5 -284t-58.5 -283.5t-156.5 -233.5t-233.5 -156.5t-283.5 -58.5z" />
    <glyph glyph-name="uni24BB" unicode="F&#x20dd;"
d="M712 364h-65v683h419v-56h-354v-261h326v-56h-326v-310zM833 23q135 0 257.5 53t211 142.5t141 213t52.5 259.5q0 181 -88.5 335t-241 244t-332.5 90t-333 -90t-241.5 -244t-88.5 -335q0 -136 52.5 -259.5t141 -213t211.5 -142.5t258 -53zM833 -41q-148 0 -283.5 58.5
t-234 156.5t-156.5 233.5t-58 283.5t58 284t156.5 234t234 156.5t283.5 58.5t283.5 -58.5t233.5 -156.5t156.5 -234t58.5 -284t-58.5 -283.5t-156.5 -233.5t-233.5 -156.5t-283.5 -58.5z" />
    <glyph glyph-name="uni24BC" unicode="G&#x20dd;"
d="M1049 613v44h-212v54h275v-89q0 -124 -73.5 -198.5t-199.5 -74.5q-137 0 -222 98.5t-85 257.5t85 258t222 99q112 0 187.5 -60.5t86.5 -154.5h-64q-12 69 -68.5 113.5t-140.5 44.5q-107 0 -174.5 -83.5t-67.5 -216.5t67.5 -216t174.5 -83q98 0 153.5 55.5t55.5 151.5z
M833 23q135 0 257.5 53t211 142.5t141 213t52.5 259.5q0 181 -88.5 335t-241 244t-332.5 90t-333 -90t-241.5 -244t-88.5 -335q0 -136 52.5 -259.5t141 -213t211.5 -142.5t258 -53zM833 -41q-148 0 -283.5 58.5t-234 156.5t-156.5 233.5t-58 283.5t58 284t156.5 234
t234 156.5t283.5 58.5t283.5 -58.5t233.5 -156.5t156.5 -234t58.5 -284t-58.5 -283.5t-156.5 -233.5t-233.5 -156.5t-283.5 -58.5z" />
    <glyph glyph-name="uni24BD" unicode="H&#x20dd;"
d="M1099 364h-65v327h-402v-327h-65v683h65v-300h402v300h65v-683zM833 23q135 0 257.5 53t211 142.5t141 213t52.5 259.5q0 181 -88.5 335t-241 244t-332.5 90t-333 -90t-241.5 -244t-88.5 -335q0 -136 52.5 -259.5t141 -213t211.5 -142.5t258 -53zM833 -41
q-148 0 -283.5 58.5t-234 156.5t-156.5 233.5t-58 283.5t58 284t156.5 234t234 156.5t283.5 58.5t283.5 -58.5t233.5 -156.5t156.5 -234t58.5 -284t-58.5 -283.5t-156.5 -233.5t-233.5 -156.5t-283.5 -58.5z" />
    <glyph glyph-name="uni24BE" unicode="I&#x20dd;"
d="M866 364h-66v683h66v-683zM833 23q135 0 257.5 53t211 142.5t141 213t52.5 259.5q0 181 -88.5 335t-241 244t-332.5 90t-333 -90t-241.5 -244t-88.5 -335q0 -136 52.5 -259.5t141 -213t211.5 -142.5t258 -53zM833 -41q-148 0 -283.5 58.5t-234 156.5t-156.5 233.5
t-58 283.5t58 284t156.5 234t234 156.5t283.5 58.5t283.5 -58.5t233.5 -156.5t156.5 -234t58.5 -284t-58.5 -283.5t-156.5 -233.5t-233.5 -156.5t-283.5 -58.5z" />
    <glyph glyph-name="uni24BF" unicode="J&#x20dd;"
d="M603 533h63q1 -54 41.5 -88.5t98.5 -34.5q63 0 98 40t35 107v490h65v-489q0 -95 -53.5 -150.5t-144.5 -55.5q-88 0 -145 51t-58 130zM833 23q135 0 257.5 53t211 142.5t141 213t52.5 259.5q0 181 -88.5 335t-241 244t-332.5 90t-333 -90t-241.5 -244t-88.5 -335
q0 -136 52.5 -259.5t141 -213t211.5 -142.5t258 -53zM833 -41q-148 0 -283.5 58.5t-234 156.5t-156.5 233.5t-58 283.5t58 284t156.5 234t234 156.5t283.5 58.5t283.5 -58.5t233.5 -156.5t156.5 -234t58.5 -284t-58.5 -283.5t-156.5 -233.5t-233.5 -156.5t-283.5 -58.5z" />
    <glyph glyph-name="uni24C0" unicode="K&#x20dd;"
d="M1090 1047l-280 -291l299 -392h-85l-263 346l-98 -100v-246h-66v683h66v-354h3l343 354h81zM833 23q135 0 257.5 53t211 142.5t141 213t52.5 259.5q0 181 -88.5 335t-241 244t-332.5 90t-333 -90t-241.5 -244t-88.5 -335q0 -136 52.5 -259.5t141 -213t211.5 -142.5
t258 -53zM833 -41q-148 0 -283.5 58.5t-234 156.5t-156.5 233.5t-58 283.5t58 284t156.5 234t234 156.5t283.5 58.5t283.5 -58.5t233.5 -156.5t156.5 -234t58.5 -284t-58.5 -283.5t-156.5 -233.5t-233.5 -156.5t-283.5 -58.5z" />
    <glyph glyph-name="uni24C1" unicode="L&#x20dd;"
d="M1074 422v-58h-416v683h65v-625h351zM833 23q135 0 257.5 53t211 142.5t141 213t52.5 259.5q0 181 -88.5 335t-241 244t-332.5 90t-333 -90t-241.5 -244t-88.5 -335q0 -136 52.5 -259.5t141 -213t211.5 -142.5t258 -53zM833 -41q-148 0 -283.5 58.5t-234 156.5
t-156.5 233.5t-58 283.5t58 284t156.5 234t234 156.5t283.5 58.5t283.5 -58.5t233.5 -156.5t156.5 -234t58.5 -284t-58.5 -283.5t-156.5 -233.5t-233.5 -156.5t-283.5 -58.5z" />
    <glyph glyph-name="uni24C2" unicode="M&#x20dd;"
d="M569 364h-60v683h80l242 -606h4l243 606h79v-683h-60v585h-4l-229 -579h-61l-229 579h-5v-585zM833 23q135 0 257.5 53t211 142.5t141 213t52.5 259.5q0 181 -88.5 335t-241 244t-332.5 90t-333 -90t-241.5 -244t-88.5 -335q0 -136 52.5 -259.5t141 -213t211.5 -142.5
t258 -53zM833 -41q-148 0 -283.5 58.5t-234 156.5t-156.5 233.5t-58 283.5t58 284t156.5 234t234 156.5t283.5 58.5t283.5 -58.5t233.5 -156.5t156.5 -234t58.5 -284t-58.5 -283.5t-156.5 -233.5t-233.5 -156.5t-283.5 -58.5z" />
    <glyph glyph-name="uni24C3" unicode="N&#x20dd;"
d="M632 364h-64v683h73l390 -588h3v588h64v-683h-73l-390 589h-3v-589zM833 23q135 0 257.5 53t211 142.5t141 213t52.5 259.5q0 181 -88.5 335t-241 244t-332.5 90t-333 -90t-241.5 -244t-88.5 -335q0 -136 52.5 -259.5t141 -213t211.5 -142.5t258 -53zM833 -41
q-148 0 -283.5 58.5t-234 156.5t-156.5 233.5t-58 283.5t58 284t156.5 234t234 156.5t283.5 58.5t283.5 -58.5t233.5 -156.5t156.5 -234t58.5 -284t-58.5 -283.5t-156.5 -233.5t-233.5 -156.5t-283.5 -58.5z" />
    <glyph glyph-name="uni24C4" unicode="O&#x20dd;"
d="M833 406q111 0 180 82.5t69 216.5t-69 217t-180 83t-180 -83t-69 -217t69 -216.5t180 -82.5zM833 349q-140 0 -227.5 97.5t-87.5 258.5q0 162 87.5 259.5t227.5 97.5t227 -97.5t87 -259.5q0 -161 -87 -258.5t-227 -97.5zM833 23q135 0 257.5 53t211 142.5t141 213
t52.5 259.5q0 181 -88.5 335t-241 244t-332.5 90t-333 -90t-241.5 -244t-88.5 -335q0 -136 52.5 -259.5t141 -213t211.5 -142.5t258 -53zM833 -41q-148 0 -283.5 58.5t-234 156.5t-156.5 233.5t-58 283.5t58 284t156.5 234t234 156.5t283.5 58.5t283.5 -58.5t233.5 -156.5
t156.5 -234t58.5 -284t-58.5 -283.5t-156.5 -233.5t-233.5 -156.5t-283.5 -58.5z" />
    <glyph glyph-name="uni24C5" unicode="P&#x20dd;"
d="M882 1047q97 0 157.5 -59t60.5 -151t-60.5 -151t-157.5 -59h-182v-263h-64v683h246zM1033 837q0 69 -43.5 112t-112.5 43h-177v-310h177q69 0 112.5 43t43.5 112zM833 23q135 0 257.5 53t211 142.5t141 213t52.5 259.5q0 181 -88.5 335t-241 244t-332.5 90t-333 -90
t-241.5 -244t-88.5 -335q0 -136 52.5 -259.5t141 -213t211.5 -142.5t258 -53zM833 -41q-148 0 -283.5 58.5t-234 156.5t-156.5 233.5t-58 283.5t58 284t156.5 234t234 156.5t283.5 58.5t283.5 -58.5t233.5 -156.5t156.5 -234t58.5 -284t-58.5 -283.5t-156.5 -233.5
t-233.5 -156.5t-283.5 -58.5z" />
    <glyph glyph-name="uni24C6" unicode="Q&#x20dd;"
d="M1099 281h-69l-68 95q-57 -27 -129 -27q-140 0 -227.5 97.5t-87.5 258.5q0 162 87.5 259.5t227.5 97.5t227 -97.5t87 -259.5q0 -101 -35.5 -179t-100.5 -123zM833 406q51 0 93 18l-94 131h69l73 -102q51 39 79.5 104t28.5 148q0 134 -69 217t-180 83t-180 -83t-69 -217
t69 -216.5t180 -82.5zM833 23q135 0 257.5 53t211 142.5t141 213t52.5 259.5q0 181 -88.5 335t-241 244t-332.5 90t-333 -90t-241.5 -244t-88.5 -335q0 -136 52.5 -259.5t141 -213t211.5 -142.5t258 -53zM833 -41q-148 0 -283.5 58.5t-234 156.5t-156.5 233.5t-58 283.5
t58 284t156.5 234t234 156.5t283.5 58.5t283.5 -58.5t233.5 -156.5t156.5 -234t58.5 -284t-58.5 -283.5t-156.5 -233.5t-233.5 -156.5t-283.5 -58.5z" />
    <glyph glyph-name="uni24C7" unicode="R&#x20dd;"
d="M855 1047q99 0 159.5 -56.5t60.5 -146.5q0 -74 -42 -126.5t-111 -67.5l162 -286h-74l-154 278h-182v-278h-65v683h246zM674 696h177q71 0 114 40t43 107t-43 108t-113 41h-178v-296zM833 23q135 0 257.5 53t211 142.5t141 213t52.5 259.5q0 181 -88.5 335t-241 244
t-332.5 90t-333 -90t-241.5 -244t-88.5 -335q0 -136 52.5 -259.5t141 -213t211.5 -142.5t258 -53zM833 -41q-148 0 -283.5 58.5t-234 156.5t-156.5 233.5t-58 283.5t58 284t156.5 234t234 156.5t283.5 58.5t283.5 -58.5t233.5 -156.5t156.5 -234t58.5 -284t-58.5 -283.5
t-156.5 -233.5t-233.5 -156.5t-283.5 -58.5z" />
    <glyph glyph-name="uni24C8" unicode="S&#x20dd;"
d="M569 546h68q4 -58 61.5 -99.5t133.5 -41.5q78 0 133.5 41t55.5 98q0 89 -151 127l-111 28q-168 42 -168 171q0 85 68 139t175 54t173.5 -52t67.5 -136h-65q-4 55 -55.5 94t-121.5 39q-72 0 -124.5 -40.5t-52.5 -95.5q0 -39 35.5 -70.5t95.5 -45.5l110 -27
q102 -26 145.5 -67t43.5 -112q0 -91 -71 -145.5t-190 -54.5q-112 0 -182 54t-74 142zM833 23q135 0 257.5 53t211 142.5t141 213t52.5 259.5q0 181 -88.5 335t-241 244t-332.5 90t-333 -90t-241.5 -244t-88.5 -335q0 -136 52.5 -259.5t141 -213t211.5 -142.5t258 -53z
M833 -41q-148 0 -283.5 58.5t-234 156.5t-156.5 233.5t-58 283.5t58 284t156.5 234t234 156.5t283.5 58.5t283.5 -58.5t233.5 -156.5t156.5 -234t58.5 -284t-58.5 -283.5t-156.5 -233.5t-233.5 -156.5t-283.5 -58.5z" />
    <glyph glyph-name="uni24C9" unicode="T&#x20dd;"
d="M866 344h-65v626h-231v57h527v-57h-231v-626zM833 23q135 0 257.5 53t211 142.5t141 213t52.5 259.5q0 181 -88.5 335t-241 244t-332.5 90t-333 -90t-241.5 -244t-88.5 -335q0 -136 52.5 -259.5t141 -213t211.5 -142.5t258 -53zM833 -41q-148 0 -283.5 58.5t-234 156.5
t-156.5 233.5t-58 283.5t58 284t156.5 234t234 156.5t283.5 58.5t283.5 -58.5t233.5 -156.5t156.5 -234t58.5 -284t-58.5 -283.5t-156.5 -233.5t-233.5 -156.5t-283.5 -58.5z" />
    <glyph glyph-name="uni24CA" unicode="U&#x20dd;"
d="M833 383q88 0 145 52.5t57 138.5v449h66v-452q0 -111 -75 -178.5t-193 -67.5t-193 67.5t-75 178.5v452h65v-449q0 -86 57.5 -138.5t145.5 -52.5zM833 23q135 0 257.5 53t211 142.5t141 213t52.5 259.5q0 181 -88.5 335t-241 244t-332.5 90t-333 -90t-241.5 -244
t-88.5 -335q0 -136 52.5 -259.5t141 -213t211.5 -142.5t258 -53zM833 -41q-148 0 -283.5 58.5t-234 156.5t-156.5 233.5t-58 283.5t58 284t156.5 234t234 156.5t283.5 58.5t283.5 -58.5t233.5 -156.5t156.5 -234t58.5 -284t-58.5 -283.5t-156.5 -233.5t-233.5 -156.5
t-283.5 -58.5z" />
    <glyph glyph-name="uni24CB" unicode="V&#x20dd;"
d="M789 339l-257 683h76l223 -614h4l223 614h75l-257 -683h-87zM833 23q135 0 257.5 53t211 142.5t141 213t52.5 259.5q0 181 -88.5 335t-241 244t-332.5 90t-333 -90t-241.5 -244t-88.5 -335q0 -136 52.5 -259.5t141 -213t211.5 -142.5t258 -53zM833 -41
q-148 0 -283.5 58.5t-234 156.5t-156.5 233.5t-58 283.5t58 284t156.5 234t234 156.5t283.5 58.5t283.5 -58.5t233.5 -156.5t156.5 -234t58.5 -284t-58.5 -283.5t-156.5 -233.5t-233.5 -156.5t-283.5 -58.5z" />
    <glyph glyph-name="uni24CC" unicode="W&#x20dd;"
d="M836 928l-158 -589h-77l-177 683h71l145 -601h4l161 601h65l161 -601h5l145 601h70l-177 -683h-76l-158 589h-4zM833 23q135 0 257.5 53t211 142.5t141 213t52.5 259.5q0 181 -88.5 335t-241 244t-332.5 90t-333 -90t-241.5 -244t-88.5 -335q0 -136 52.5 -259.5t141 -213
t211.5 -142.5t258 -53zM833 -41q-148 0 -283.5 58.5t-234 156.5t-156.5 233.5t-58 283.5t58 284t156.5 234t234 156.5t283.5 58.5t283.5 -58.5t233.5 -156.5t156.5 -234t58.5 -284t-58.5 -283.5t-156.5 -233.5t-233.5 -156.5t-283.5 -58.5z" />
    <glyph glyph-name="uni24CD" unicode="X&#x20dd;"
d="M1084 1057l-229 -343l225 -340h-77l-187 288h-5l-190 -288h-73l226 341l-225 342h78l188 -292h4l190 292h75zM833 23q135 0 257.5 53t211 142.5t141 213t52.5 259.5q0 181 -88.5 335t-241 244t-332.5 90t-333 -90t-241.5 -244t-88.5 -335q0 -136 52.5 -259.5t141 -213
t211.5 -142.5t258 -53zM833 -41q-148 0 -283.5 58.5t-234 156.5t-156.5 233.5t-58 283.5t58 284t156.5 234t234 156.5t283.5 58.5t283.5 -58.5t233.5 -156.5t156.5 -234t58.5 -284t-58.5 -283.5t-156.5 -233.5t-233.5 -156.5t-283.5 -58.5z" />
    <glyph glyph-name="uni24CE" unicode="Y&#x20dd;"
d="M866 372h-66v293l-262 390h76l217 -324h4l217 324h76l-262 -389v-294zM833 23q135 0 257.5 53t211 142.5t141 213t52.5 259.5q0 181 -88.5 335t-241 244t-332.5 90t-333 -90t-241.5 -244t-88.5 -335q0 -136 52.5 -259.5t141 -213t211.5 -142.5t258 -53zM833 -41
q-148 0 -283.5 58.5t-234 156.5t-156.5 233.5t-58 283.5t58 284t156.5 234t234 156.5t283.5 58.5t283.5 -58.5t233.5 -156.5t156.5 -234t58.5 -284t-58.5 -283.5t-156.5 -233.5t-233.5 -156.5t-283.5 -58.5z" />
    <glyph glyph-name="uni24CF" unicode="Z&#x20dd;"
d="M574 374v54l421 567v5h-408v57h485v-55l-419 -567v-5h426v-56h-505zM833 23q135 0 257.5 53t211 142.5t141 213t52.5 259.5q0 181 -88.5 335t-241 244t-332.5 90t-333 -90t-241.5 -244t-88.5 -335q0 -136 52.5 -259.5t141 -213t211.5 -142.5t258 -53zM833 -41
q-148 0 -283.5 58.5t-234 156.5t-156.5 233.5t-58 283.5t58 284t156.5 234t234 156.5t283.5 58.5t283.5 -58.5t233.5 -156.5t156.5 -234t58.5 -284t-58.5 -283.5t-156.5 -233.5t-233.5 -156.5t-283.5 -58.5z" />
    <glyph glyph-name="uni24EA" unicode="&#x23;&#x20dd;"
d="M833 408q82 0 133 81.5t51 215.5t-51 216t-133 82q-83 0 -134 -81.5t-51 -216.5q0 -134 51 -215.5t134 -81.5zM833 349q-111 0 -179.5 97.5t-68.5 258.5q0 162 68.5 259.5t179.5 97.5q110 0 179 -97.5t69 -259.5q0 -161 -69 -258.5t-179 -97.5zM833 23q135 0 257.5 53
t211 142.5t141 213t52.5 259.5q0 181 -88.5 335t-241 244t-332.5 90t-333 -90t-241.5 -244t-88.5 -335q0 -136 52.5 -259.5t141 -213t211.5 -142.5t258 -53zM833 -41q-148 0 -283.5 58.5t-234 156.5t-156.5 233.5t-58 283.5t58 284t156.5 234t234 156.5t283.5 58.5
t283.5 -58.5t233.5 -156.5t156.5 -234t58.5 -284t-58.5 -283.5t-156.5 -233.5t-233.5 -156.5t-283.5 -58.5z" />
    <glyph glyph-name="uni24FF" unicode="&#x30;&#x20dd;&#x25cf;"
d="M832 394q-85 0 -136 85.5t-51 225.5q0 141 51 226.5t136 85.5t136 -85.5t51 -226.5q0 -140 -51 -225.5t-136 -85.5zM832 324q120 0 193.5 104t73.5 277t-73.5 277.5t-193.5 104.5q-121 0 -194.5 -104t-73.5 -278q0 -173 73.5 -277t194.5 -104zM833 -41q-148 0 -283.5 58
t-234 156.5t-156.5 234t-58 283.5t58 283.5t156.5 233.5t234 156.5t283.5 58.5t283.5 -58.5t233.5 -156.5t156.5 -233.5t58.5 -283.5t-58.5 -283.5t-156.5 -234t-233.5 -156.5t-283.5 -58z" />
    <glyph glyph-name="uni278A" unicode="&#x31;&#x20dd;&#x25cf;"
d="M900 349v732h-78l-189 -127v-79l185 124h3v-650h79zM833 -41q-148 0 -283.5 58t-234 156.5t-156.5 234t-58 283.5t58 283.5t156.5 233.5t234 156.5t283.5 58.5t283.5 -58.5t233.5 -156.5t156.5 -233.5t58.5 -283.5t-58.5 -283.5t-156.5 -234t-233.5 -156.5t-283.5 -58z
" />
    <glyph glyph-name="uni278B" unicode="&#x32;&#x20dd;&#x25cf;"
d="M670 881v4q2 63 46.5 103.5t113.5 40.5q64 0 108 -36.5t44 -97.5q0 -43 -19.5 -81t-65.5 -89l-295 -322v-55h481v69h-369v4l233 254q64 70 89.5 118.5t25.5 103.5q0 88 -65.5 143.5t-166.5 55.5q-106 0 -171 -61t-67 -150v-4h78zM833 -41q-148 0 -283.5 58t-234 156.5
t-156.5 234t-58 283.5t58 283.5t156.5 233.5t234 156.5t283.5 58.5t283.5 -58.5t233.5 -156.5t156.5 -233.5t58.5 -283.5t-58.5 -283.5t-156.5 -234t-233.5 -156.5t-283.5 -58z" />
    <glyph glyph-name="uni278C" unicode="&#x33;&#x20dd;&#x25cf;"
d="M750 694h93q73 0 122 -41t49 -103q0 -68 -50 -108.5t-132 -40.5q-70 1 -119 36.5t-57 84.5h-75q7 -82 76.5 -135t174.5 -53q113 0 188 60t74 155q-1 74 -49 123.5t-115 57.5v3q57 13 97.5 61t40.5 116q-1 79 -67.5 133t-168.5 54q-98 0 -162 -51t-72 -132h76q9 51 52 83
t105 32q71 0 114.5 -36.5t43.5 -92.5q0 -60 -42.5 -99t-108.5 -39h-88v-68zM833 -41q-148 0 -283.5 58t-234 156.5t-156.5 234t-58 283.5t58 283.5t156.5 233.5t234 156.5t283.5 58.5t283.5 -58.5t233.5 -156.5t156.5 -233.5t58.5 -283.5t-58.5 -283.5t-156.5 -234
t-233.5 -156.5t-283.5 -58z" />
    <glyph glyph-name="uni278D" unicode="&#x34;&#x20dd;&#x25cf;"
d="M858 1081q-255 -380 -325 -499v-70h366v-163h76v163h110v68h-110v501h-117zM616 580v4q107 179 279 428h4v-432h-283zM833 -41q-148 0 -283.5 58t-234 156.5t-156.5 234t-58 283.5t58 283.5t156.5 233.5t234 156.5t283.5 58.5t283.5 -58.5t233.5 -156.5t156.5 -233.5
t58.5 -283.5t-58.5 -283.5t-156.5 -234t-233.5 -156.5t-283.5 -58z" />
    <glyph glyph-name="uni278E" unicode="&#x35;&#x20dd;&#x25cf;"
d="M581 521q6 -78 76.5 -132t167.5 -54q117 0 190.5 69t73.5 181q0 104 -68.5 171t-172.5 67q-55 0 -100 -22t-69 -57h-3l22 271h350v68h-418l-33 -416h73q66 89 165 89q76 0 125.5 -48.5t49.5 -124.5q0 -79 -52 -129.5t-128 -50.5q-62 0 -112.5 33.5t-60.5 84.5h-76z
M833 -41q-148 0 -283.5 58t-234 156.5t-156.5 234t-58 283.5t58 283.5t156.5 233.5t234 156.5t283.5 58.5t283.5 -58.5t233.5 -156.5t156.5 -233.5t58.5 -283.5t-58.5 -283.5t-156.5 -234t-233.5 -156.5t-283.5 -58z" />
    <glyph glyph-name="uni278F" unicode="&#x36;&#x20dd;&#x25cf;"
d="M1092 585q0 102 -70.5 169t-169.5 67q-148 0 -214 -131l-3 -1v7q0 153 56 241.5t150 88.5q54 0 97 -27t58 -66h77q-12 65 -77 113.5t-152 48.5q-133 0 -208.5 -106t-75.5 -297q0 -177 69 -264q70 -94 203 -94q114 0 187 70t73 181zM651 580q0 76 51.5 124.5t131.5 48.5
q77 0 128 -48t51 -126q0 -79 -51 -128t-130 -49q-76 0 -128.5 50.5t-52.5 127.5zM833 -41q-148 0 -283.5 58t-234 156.5t-156.5 234t-58 283.5t58 283.5t156.5 233.5t234 156.5t283.5 58.5t283.5 -58.5t233.5 -156.5t156.5 -233.5t58.5 -283.5t-58.5 -283.5t-156.5 -234
t-233.5 -156.5t-283.5 -58z" />
    <glyph glyph-name="uni2790" unicode="&#x37;&#x20dd;&#x25cf;"
d="M599 1078v-69h399v-3l-322 -659h88l318 662v69h-483zM833 -41q-148 0 -283.5 58t-234 156.5t-156.5 234t-58 283.5t58 283.5t156.5 233.5t234 156.5t283.5 58.5t283.5 -58.5t233.5 -156.5t156.5 -233.5t58.5 -283.5t-58.5 -283.5t-156.5 -234t-233.5 -156.5t-283.5 -58z
" />
    <glyph glyph-name="uni2791" unicode="&#x38;&#x20dd;&#x25cf;"
d="M833 765q-70 0 -116 38t-46 96t45.5 95t116.5 37t116.5 -37t45.5 -95t-46 -96t-116 -38zM833 400q-82 0 -136 43.5t-54 110.5q0 65 54 107t136 42t136 -42t54 -107q0 -67 -53.5 -110.5t-136.5 -43.5zM833 334q118 0 193.5 61t75.5 156q0 66 -44 117.5t-114 66.5v2
q59 18 94 63.5t35 103.5q0 85 -67.5 139t-172.5 54t-172 -54t-67 -139q0 -58 34.5 -103t93.5 -64v-2q-69 -15 -113.5 -66.5t-44.5 -117.5q0 -95 75.5 -156t193.5 -61zM833 -41q-148 0 -283.5 58t-234 156.5t-156.5 234t-58 283.5t58 283.5t156.5 233.5t234 156.5t283.5 58.5
t283.5 -58.5t233.5 -156.5t156.5 -233.5t58.5 -283.5t-58.5 -283.5t-156.5 -234t-233.5 -156.5t-283.5 -58z" />
    <glyph glyph-name="uni2792" unicode="&#x39;&#x20dd;&#x25cf;"
d="M1003 849q0 -77 -52.5 -125.5t-130.5 -48.5q-77 0 -127.5 49.5t-50.5 127.5t51 126.5t129 48.5q77 0 129 -50.5t52 -127.5zM582 494q13 -66 77.5 -112.5t150.5 -46.5q136 0 210.5 104.5t74.5 294.5q0 185 -73.5 273t-197.5 88q-115 0 -188 -68.5t-73 -178.5
q0 -104 69.5 -172.5t170.5 -68.5q149 0 214 130h2q1 -155 -54 -244.5t-152 -89.5q-53 0 -96 26.5t-57 64.5h-78zM833 -41q-148 0 -283.5 58t-234 156.5t-156.5 234t-58 283.5t58 283.5t156.5 233.5t234 156.5t283.5 58.5t283.5 -58.5t233.5 -156.5t156.5 -233.5t58.5 -283.5
t-58.5 -283.5t-156.5 -234t-233.5 -156.5t-283.5 -58z" />
    <glyph glyph-name="uni1F130" unicode="A&#x20de;"
d="M704 649h258l-126 344h-5zM606 379h-68l255 683h80l255 -683h-68l-79 216h-296zM337 1406h992q94 0 153.5 -59.5t59.5 -152.5v-999q0 -93 -59.5 -152t-153.5 -59h-992q-94 0 -154 59t-60 152v999q0 93 60 152.5t154 59.5zM1477 1194q0 71 -40.5 111t-111.5 40h-985
q-71 0 -111.5 -40t-40.5 -111v-998q0 -71 40.5 -111.5t111.5 -40.5h985q71 0 111.5 40.5t40.5 111.5v998z" />
    <glyph glyph-name="uni1F131" unicode="B&#x20de;"
d="M612 371v683h255q90 0 144.5 -47.5t54.5 -120.5q0 -59 -32 -100.5t-81 -52.5v-4q68 -9 110.5 -53t42.5 -115q0 -89 -64 -139.5t-173 -50.5h-257zM677 1000v-251h161q75 0 118.5 35.5t43.5 90.5q0 58 -38 91.5t-108 33.5h-177zM677 696v-270h163q198 0 198 135
q0 62 -43 98.5t-118 36.5h-200zM337 1406h992q94 0 153.5 -59.5t59.5 -152.5v-999q0 -93 -59.5 -152t-153.5 -59h-992q-94 0 -154 59t-60 152v999q0 93 60 152.5t154 59.5zM1477 1194q0 71 -40.5 111t-111.5 40h-985q-71 0 -111.5 -40t-40.5 -111v-998q0 -71 40.5 -111.5
t111.5 -40.5h985q71 0 111.5 40.5t40.5 111.5v998z" />
    <glyph glyph-name="uni1F132" unicode="C&#x20de;"
d="M1048 564h65q-11 -94 -86.5 -154.5t-187.5 -60.5q-137 0 -222 98.5t-85 257.5t85 258t222 99q113 0 190.5 -63.5t84.5 -161.5h-65q-7 74 -66 121t-144 47q-107 0 -174 -83.5t-67 -216.5t67 -216t174 -83q85 0 141.5 44t67.5 114zM337 1406h992q94 0 153.5 -59.5
t59.5 -152.5v-999q0 -93 -59.5 -152t-153.5 -59h-992q-94 0 -154 59t-60 152v999q0 93 60 152.5t154 59.5zM1477 1194q0 71 -40.5 111t-111.5 40h-985q-71 0 -111.5 -40t-40.5 -111v-998q0 -71 40.5 -111.5t111.5 -40.5h985q71 0 111.5 40.5t40.5 111.5v998z" />
    <glyph glyph-name="uni1F133" unicode="D&#x20de;"
d="M607 1038h214q145 0 226 -88t81 -242q0 -159 -80.5 -246.5t-226.5 -87.5h-214v664zM672 982v-552h141q116 0 180.5 71t64.5 206q0 130 -65 202.5t-180 72.5h-141zM337 1406h992q94 0 153.5 -59.5t59.5 -152.5v-999q0 -93 -59.5 -152t-153.5 -59h-992q-94 0 -154 59
t-60 152v999q0 93 60 152.5t154 59.5zM1477 1194q0 71 -40.5 111t-111.5 40h-985q-71 0 -111.5 -40t-40.5 -111v-998q0 -71 40.5 -111.5t111.5 -40.5h985q71 0 111.5 40.5t40.5 111.5v998z" />
    <glyph glyph-name="uni1F134" unicode="E&#x20de;"
d="M1048 420v-56h-424v683h424v-56h-359v-251h341v-54h-341v-266h359zM337 1406h992q94 0 153.5 -59.5t59.5 -152.5v-999q0 -93 -59.5 -152t-153.5 -59h-992q-94 0 -154 59t-60 152v999q0 93 60 152.5t154 59.5zM1477 1194q0 71 -40.5 111t-111.5 40h-985q-71 0 -111.5 -40
t-40.5 -111v-998q0 -71 40.5 -111.5t111.5 -40.5h985q71 0 111.5 40.5t40.5 111.5v998z" />
    <glyph glyph-name="uni1F135" unicode="F&#x20de;"
d="M712 364h-65v683h419v-56h-354v-261h326v-56h-326v-310zM337 1406h992q94 0 153.5 -59.5t59.5 -152.5v-999q0 -93 -59.5 -152t-153.5 -59h-992q-94 0 -154 59t-60 152v999q0 93 60 152.5t154 59.5zM1477 1194q0 71 -40.5 111t-111.5 40h-985q-71 0 -111.5 -40t-40.5 -111
v-998q0 -71 40.5 -111.5t111.5 -40.5h985q71 0 111.5 40.5t40.5 111.5v998z" />
    <glyph glyph-name="uni1F136" unicode="G&#x20de;"
d="M1049 613v44h-212v54h275v-89q0 -124 -73.5 -198.5t-199.5 -74.5q-137 0 -222 98.5t-85 257.5t85 258t222 99q112 0 187.5 -60.5t86.5 -154.5h-64q-12 69 -68.5 113.5t-140.5 44.5q-107 0 -174.5 -83.5t-67.5 -216.5t67.5 -216t174.5 -83q98 0 153.5 55.5t55.5 151.5z
M337 1406h992q94 0 153.5 -59.5t59.5 -152.5v-999q0 -93 -59.5 -152t-153.5 -59h-992q-94 0 -154 59t-60 152v999q0 93 60 152.5t154 59.5zM1477 1194q0 71 -40.5 111t-111.5 40h-985q-71 0 -111.5 -40t-40.5 -111v-998q0 -71 40.5 -111.5t111.5 -40.5h985q71 0 111.5 40.5
t40.5 111.5v998z" />
    <glyph glyph-name="uni1F137" unicode="H&#x20de;"
d="M1099 364h-65v327h-402v-327h-65v683h65v-300h402v300h65v-683zM337 1406h992q94 0 153.5 -59.5t59.5 -152.5v-999q0 -93 -59.5 -152t-153.5 -59h-992q-94 0 -154 59t-60 152v999q0 93 60 152.5t154 59.5zM1477 1194q0 71 -40.5 111t-111.5 40h-985q-71 0 -111.5 -40
t-40.5 -111v-998q0 -71 40.5 -111.5t111.5 -40.5h985q71 0 111.5 40.5t40.5 111.5v998z" />
    <glyph glyph-name="uni1F138" unicode="I&#x20de;"
d="M866 364h-66v683h66v-683zM337 1406h992q94 0 153.5 -59.5t59.5 -152.5v-999q0 -93 -59.5 -152t-153.5 -59h-992q-94 0 -154 59t-60 152v999q0 93 60 152.5t154 59.5zM1477 1194q0 71 -40.5 111t-111.5 40h-985q-71 0 -111.5 -40t-40.5 -111v-998q0 -71 40.5 -111.5
t111.5 -40.5h985q71 0 111.5 40.5t40.5 111.5v998z" />
    <glyph glyph-name="uni1F139" unicode="J&#x20de;"
d="M603 533h63q1 -54 41.5 -88.5t98.5 -34.5q63 0 98 40t35 107v490h65v-489q0 -95 -53.5 -150.5t-144.5 -55.5q-88 0 -145 51t-58 130zM337 1406h992q94 0 153.5 -59.5t59.5 -152.5v-999q0 -93 -59.5 -152t-153.5 -59h-992q-94 0 -154 59t-60 152v999q0 93 60 152.5
t154 59.5zM1477 1194q0 71 -40.5 111t-111.5 40h-985q-71 0 -111.5 -40t-40.5 -111v-998q0 -71 40.5 -111.5t111.5 -40.5h985q71 0 111.5 40.5t40.5 111.5v998z" />
    <glyph glyph-name="uni1F13A" unicode="K&#x20de;"
d="M1090 1047l-280 -291l299 -392h-85l-263 346l-98 -100v-246h-66v683h66v-354h3l343 354h81zM337 1406h992q94 0 153.5 -59.5t59.5 -152.5v-999q0 -93 -59.5 -152t-153.5 -59h-992q-94 0 -154 59t-60 152v999q0 93 60 152.5t154 59.5zM1477 1194q0 71 -40.5 111t-111.5 40
h-985q-71 0 -111.5 -40t-40.5 -111v-998q0 -71 40.5 -111.5t111.5 -40.5h985q71 0 111.5 40.5t40.5 111.5v998z" />
    <glyph glyph-name="uni1F13B" unicode="L&#x20de;"
d="M1077 422v-58h-417v683h66v-625h351zM337 1406h992q94 0 153.5 -59.5t59.5 -152.5v-999q0 -93 -59.5 -152t-153.5 -59h-992q-94 0 -154 59t-60 152v999q0 93 60 152.5t154 59.5zM1477 1194q0 71 -40.5 111t-111.5 40h-985q-71 0 -111.5 -40t-40.5 -111v-998
q0 -71 40.5 -111.5t111.5 -40.5h985q71 0 111.5 40.5t40.5 111.5v998z" />
    <glyph glyph-name="uni1F13C" unicode="M&#x20de;"
d="M569 364h-60v683h80l242 -606h4l243 606h79v-683h-60v585h-4l-229 -579h-61l-229 579h-5v-585zM337 1406h992q94 0 153.5 -59.5t59.5 -152.5v-999q0 -93 -59.5 -152t-153.5 -59h-992q-94 0 -154 59t-60 152v999q0 93 60 152.5t154 59.5zM1477 1194q0 71 -40.5 111
t-111.5 40h-985q-71 0 -111.5 -40t-40.5 -111v-998q0 -71 40.5 -111.5t111.5 -40.5h985q71 0 111.5 40.5t40.5 111.5v998z" />
    <glyph glyph-name="uni1F13D" unicode="N&#x20de;"
d="M632 364h-64v683h73l390 -588h3v588h64v-683h-73l-390 589h-3v-589zM337 1406h992q94 0 153.5 -59.5t59.5 -152.5v-999q0 -93 -59.5 -152t-153.5 -59h-992q-94 0 -154 59t-60 152v999q0 93 60 152.5t154 59.5zM1477 1194q0 71 -40.5 111t-111.5 40h-985q-71 0 -111.5 -40
t-40.5 -111v-998q0 -71 40.5 -111.5t111.5 -40.5h985q71 0 111.5 40.5t40.5 111.5v998z" />
    <glyph glyph-name="uni1F13E" unicode="O&#x20de;"
d="M833 406q111 0 180 82.5t69 216.5t-69 217t-180 83t-180 -83t-69 -217t69 -216.5t180 -82.5zM833 349q-140 0 -227.5 97.5t-87.5 258.5q0 162 87.5 259.5t227.5 97.5t227 -97.5t87 -259.5q0 -161 -87 -258.5t-227 -97.5zM337 1406h992q94 0 153.5 -59.5t59.5 -152.5v-999
q0 -93 -59.5 -152t-153.5 -59h-992q-94 0 -154 59t-60 152v999q0 93 60 152.5t154 59.5zM1477 1194q0 71 -40.5 111t-111.5 40h-985q-71 0 -111.5 -40t-40.5 -111v-998q0 -71 40.5 -111.5t111.5 -40.5h985q71 0 111.5 40.5t40.5 111.5v998z" />
    <glyph glyph-name="uni1F13F" unicode="P&#x20de;"
d="M882 1047q97 0 157.5 -59t60.5 -151t-60.5 -151t-157.5 -59h-182v-263h-64v683h246zM1033 837q0 69 -43.5 112t-112.5 43h-177v-310h177q69 0 112.5 43t43.5 112zM337 1406h992q94 0 153.5 -59.5t59.5 -152.5v-999q0 -93 -59.5 -152t-153.5 -59h-992q-94 0 -154 59
t-60 152v999q0 93 60 152.5t154 59.5zM1477 1194q0 71 -40.5 111t-111.5 40h-985q-71 0 -111.5 -40t-40.5 -111v-998q0 -71 40.5 -111.5t111.5 -40.5h985q71 0 111.5 40.5t40.5 111.5v998z" />
    <glyph glyph-name="uni1F140" unicode="Q&#x20de;"
d="M1099 281h-69l-68 95q-57 -27 -129 -27q-140 0 -227.5 97.5t-87.5 258.5q0 162 87.5 259.5t227.5 97.5t227 -97.5t87 -259.5q0 -101 -35.5 -179t-100.5 -123zM833 406q51 0 93 18l-94 131h69l73 -102q51 39 79.5 104t28.5 148q0 134 -69 217t-180 83t-180 -83t-69 -217
t69 -216.5t180 -82.5zM337 1406h992q94 0 153.5 -59.5t59.5 -152.5v-999q0 -93 -59.5 -152t-153.5 -59h-992q-94 0 -154 59t-60 152v999q0 93 60 152.5t154 59.5zM1477 1194q0 71 -40.5 111t-111.5 40h-985q-71 0 -111.5 -40t-40.5 -111v-998q0 -71 40.5 -111.5t111.5 -40.5
h985q71 0 111.5 40.5t40.5 111.5v998z" />
    <glyph glyph-name="uni1F141" unicode="R&#x20de;"
d="M855 1047q99 0 159.5 -56.5t60.5 -146.5q0 -74 -42 -126.5t-111 -67.5l162 -286h-74l-154 278h-182v-278h-65v683h246zM674 696h177q71 0 114 40t43 107t-43 108t-113 41h-178v-296zM337 1406h992q94 0 153.5 -59.5t59.5 -152.5v-999q0 -93 -59.5 -152t-153.5 -59h-992
q-94 0 -154 59t-60 152v999q0 93 60 152.5t154 59.5zM1477 1194q0 71 -40.5 111t-111.5 40h-985q-71 0 -111.5 -40t-40.5 -111v-998q0 -71 40.5 -111.5t111.5 -40.5h985q71 0 111.5 40.5t40.5 111.5v998z" />
    <glyph glyph-name="uni1F142" unicode="S&#x20de;"
d="M569 546h68q4 -58 61.5 -99.5t133.5 -41.5q78 0 133.5 41t55.5 98q0 89 -151 127l-111 28q-168 42 -168 171q0 85 68 139t175 54t173.5 -52t67.5 -136h-65q-4 55 -55.5 94t-121.5 39q-72 0 -124.5 -40.5t-52.5 -95.5q0 -39 35.5 -70.5t95.5 -45.5l110 -27
q102 -26 145.5 -67t43.5 -112q0 -91 -71 -145.5t-190 -54.5q-112 0 -182 54t-74 142zM337 1406h992q94 0 153.5 -59.5t59.5 -152.5v-999q0 -93 -59.5 -152t-153.5 -59h-992q-94 0 -154 59t-60 152v999q0 93 60 152.5t154 59.5zM1477 1194q0 71 -40.5 111t-111.5 40h-985
q-71 0 -111.5 -40t-40.5 -111v-998q0 -71 40.5 -111.5t111.5 -40.5h985q71 0 111.5 40.5t40.5 111.5v998z" />
    <glyph glyph-name="uni1F143" unicode="T&#x20de;"
d="M866 350h-65v626h-231v57h527v-57h-231v-626zM337 1406h992q94 0 153.5 -59.5t59.5 -152.5v-999q0 -93 -59.5 -152t-153.5 -59h-992q-94 0 -154 59t-60 152v999q0 93 60 152.5t154 59.5zM1477 1194q0 71 -40.5 111t-111.5 40h-985q-71 0 -111.5 -40t-40.5 -111v-998
q0 -71 40.5 -111.5t111.5 -40.5h985q71 0 111.5 40.5t40.5 111.5v998z" />
    <glyph glyph-name="uni1F144" unicode="U&#x20de;"
d="M833 388q88 0 145 52.5t57 139.5v448h66v-451q0 -112 -74.5 -179t-193.5 -67t-193.5 67t-74.5 179v451h65v-448q0 -86 57.5 -139t145.5 -53zM337 1406h992q94 0 153.5 -59.5t59.5 -152.5v-999q0 -93 -59.5 -152t-153.5 -59h-992q-94 0 -154 59t-60 152v999q0 93 60 152.5
t154 59.5zM1477 1194q0 71 -40.5 111t-111.5 40h-985q-71 0 -111.5 -40t-40.5 -111v-998q0 -71 40.5 -111.5t111.5 -40.5h985q71 0 111.5 40.5t40.5 111.5v998z" />
    <glyph glyph-name="uni1F145" unicode="V&#x20de;"
d="M789 345l-257 683h76l223 -614h4l223 614h75l-257 -683h-87zM337 1406h992q94 0 153.5 -59.5t59.5 -152.5v-999q0 -93 -59.5 -152t-153.5 -59h-992q-94 0 -154 59t-60 152v999q0 93 60 152.5t154 59.5zM1477 1194q0 71 -40.5 111t-111.5 40h-985q-71 0 -111.5 -40
t-40.5 -111v-998q0 -71 40.5 -111.5t111.5 -40.5h985q71 0 111.5 40.5t40.5 111.5v998z" />
    <glyph glyph-name="uni1F146" unicode="W&#x20de;"
d="M836 934l-158 -589h-77l-177 683h71l145 -601h4l161 601h65l161 -601h5l145 601h70l-177 -683h-76l-158 589h-4zM337 1406h992q94 0 153.5 -59.5t59.5 -152.5v-999q0 -93 -59.5 -152t-153.5 -59h-992q-94 0 -154 59t-60 152v999q0 93 60 152.5t154 59.5zM1477 1194
q0 71 -40.5 111t-111.5 40h-985q-71 0 -111.5 -40t-40.5 -111v-998q0 -71 40.5 -111.5t111.5 -40.5h985q71 0 111.5 40.5t40.5 111.5v998z" />
    <glyph glyph-name="uni1F147" unicode="X&#x20de;"
d="M1084 1057l-229 -343l225 -340h-77l-187 288h-5l-190 -288h-73l226 341l-225 342h78l188 -292h4l190 292h75zM337 1406h992q94 0 153.5 -59.5t59.5 -152.5v-999q0 -93 -59.5 -152t-153.5 -59h-992q-94 0 -154 59t-60 152v999q0 93 60 152.5t154 59.5zM1477 1194
q0 71 -40.5 111t-111.5 40h-985q-71 0 -111.5 -40t-40.5 -111v-998q0 -71 40.5 -111.5t111.5 -40.5h985q71 0 111.5 40.5t40.5 111.5v998z" />
    <glyph glyph-name="uni1F148" unicode="Y&#x20de;"
d="M866 374h-66v293l-262 390h76l217 -325h4l217 325h76l-262 -390v-293zM337 1406h992q94 0 153.5 -59.5t59.5 -152.5v-999q0 -93 -59.5 -152t-153.5 -59h-992q-94 0 -154 59t-60 152v999q0 93 60 152.5t154 59.5zM1477 1194q0 71 -40.5 111t-111.5 40h-985
q-71 0 -111.5 -40t-40.5 -111v-998q0 -71 40.5 -111.5t111.5 -40.5h985q71 0 111.5 40.5t40.5 111.5v998z" />
    <glyph glyph-name="uni1F149" unicode="Z&#x20de;"
d="M574 374v54l421 567v5h-408v57h485v-55l-419 -567v-5h426v-56h-505zM337 1406h992q94 0 153.5 -59.5t59.5 -152.5v-999q0 -93 -59.5 -152t-153.5 -59h-992q-94 0 -154 59t-60 152v999q0 93 60 152.5t154 59.5zM1477 1194q0 71 -40.5 111t-111.5 40h-985q-71 0 -111.5 -40
t-40.5 -111v-998q0 -71 40.5 -111.5t111.5 -40.5h985q71 0 111.5 40.5t40.5 111.5v998z" />
    <glyph glyph-name="uni1F150" unicode="A&#x20dd;&#x25cf;"
d="M965 654h-265l131 360h4zM595 360l83 228h310l83 -228h85l-273 732h-100l-273 -732h85zM833 -41q-148 0 -283.5 58t-234 156.5t-156.5 234t-58 283.5t58 283.5t156.5 233.5t234 156.5t283.5 58.5t283.5 -58.5t233.5 -156.5t156.5 -233.5t58.5 -283.5t-58.5 -283.5
t-156.5 -234t-233.5 -156.5t-283.5 -58z" />
    <glyph glyph-name="uni1F151" unicode="B&#x20dd;&#x25cf;"
d="M592 348h276q119 0 187.5 54t68.5 149q0 74 -44.5 122t-117.5 59v2q53 13 86.5 57.5t33.5 107.5q0 79 -59 130t-157 51h-274v-732zM670 1013h182q71 0 111 -34t40 -94q0 -56 -45.5 -92t-122.5 -36h-165v256zM670 692h206q78 0 122 -37.5t44 -101.5q0 -139 -204 -139h-168
v278zM833 -41q-148 0 -283.5 58t-234 156.5t-156.5 234t-58 283.5t58 283.5t156.5 233.5t234 156.5t283.5 58.5t283.5 -58.5t233.5 -156.5t156.5 -233.5t58.5 -283.5t-58.5 -283.5t-156.5 -234t-233.5 -156.5t-283.5 -58z" />
    <glyph glyph-name="uni1F152" unicode="C&#x20dd;&#x25cf;"
d="M1061 553q-15 -69 -74.5 -113t-146.5 -44q-109 0 -182 86.5t-73 222.5t73 223t182 87q84 0 146 -48.5t76 -119.5h79q-13 104 -96.5 172t-204.5 68q-149 0 -242.5 -106t-93.5 -276t93.5 -275.5t242.5 -105.5q122 0 202.5 63t97.5 166h-79zM833 -41q-148 0 -283.5 58
t-234 156.5t-156.5 234t-58 283.5t58 283.5t156.5 233.5t234 156.5t283.5 58.5t283.5 -58.5t233.5 -156.5t156.5 -233.5t58.5 -283.5t-58.5 -283.5t-156.5 -234t-233.5 -156.5t-283.5 -58z" />
    <glyph glyph-name="uni1F153" unicode="D&#x20dd;&#x25cf;"
d="M590 1063v-713h234q155 0 242 93.5t87 264.5q0 167 -87.5 261t-241.5 94h-234zM668 993h146q121 0 189.5 -74.5t68.5 -211.5q0 -142 -68 -215t-190 -73h-146v574zM833 -41q-148 0 -283.5 58t-234 156.5t-156.5 234t-58 283.5t58 283.5t156.5 233.5t234 156.5t283.5 58.5
t283.5 -58.5t233.5 -156.5t156.5 -233.5t58.5 -283.5t-58.5 -283.5t-156.5 -234t-233.5 -156.5t-283.5 -58z" />
    <glyph glyph-name="uni1F154" unicode="E&#x20dd;&#x25cf;"
d="M1064 409h-379v270h359v68h-359v256h379v69h-457v-732h457v69zM833 -41q-148 0 -283.5 58t-234 156.5t-156.5 234t-58 283.5t58 283.5t156.5 233.5t234 156.5t283.5 58.5t283.5 -58.5t233.5 -156.5t156.5 -233.5t58.5 -283.5t-58.5 -283.5t-156.5 -234t-233.5 -156.5
t-283.5 -58z" />
    <glyph glyph-name="uni1F155" unicode="F&#x20dd;&#x25cf;"
d="M709 340v327h342v69h-342v267h372v69h-451v-732h79zM833 -41q-148 0 -283.5 58t-234 156.5t-156.5 234t-58 283.5t58 283.5t156.5 233.5t234 156.5t283.5 58.5t283.5 -58.5t233.5 -156.5t156.5 -233.5t58.5 -283.5t-58.5 -283.5t-156.5 -234t-233.5 -156.5t-283.5 -58z
" />
    <glyph glyph-name="uni1F156" unicode="G&#x20dd;&#x25cf;"
d="M1065 614q0 -97 -58.5 -156.5t-165.5 -59.5q-110 0 -183 85.5t-73 221.5q0 137 73 222.5t183 85.5q89 0 149 -44t71 -109h80q-13 97 -96.5 162t-203.5 65q-150 0 -244 -106t-94 -276t94 -275.5t243 -105.5q139 0 221.5 81.5t82.5 214.5v99h-295v-70h216v-35zM833 -41
q-148 0 -283.5 58t-234 156.5t-156.5 234t-58 283.5t58 283.5t156.5 233.5t234 156.5t283.5 58.5t283.5 -58.5t233.5 -156.5t156.5 -233.5t58.5 -283.5t-58.5 -283.5t-156.5 -234t-233.5 -156.5t-283.5 -58z" />
    <glyph glyph-name="uni1F157" unicode="H&#x20dd;&#x25cf;"
d="M1122 340v732h-78v-317h-422v317h-78v-732h78v345h422v-345h78zM833 -41q-148 0 -283.5 58t-234 156.5t-156.5 234t-58 283.5t58 283.5t156.5 233.5t234 156.5t283.5 58.5t283.5 -58.5t233.5 -156.5t156.5 -233.5t58.5 -283.5t-58.5 -283.5t-156.5 -234t-233.5 -156.5
t-283.5 -58z" />
    <glyph glyph-name="uni1F158" unicode="I&#x20dd;&#x25cf;"
d="M872 340v732h-78v-732h78zM833 -41q-148 0 -283.5 58t-234 156.5t-156.5 234t-58 283.5t58 283.5t156.5 233.5t234 156.5t283.5 58.5t283.5 -58.5t233.5 -156.5t156.5 -233.5t58.5 -283.5t-58.5 -283.5t-156.5 -234t-233.5 -156.5t-283.5 -58z" />
    <glyph glyph-name="uni1F159" unicode="J&#x20dd;&#x25cf;"
d="M586 524q1 -88 61.5 -142.5t156.5 -54.5q99 0 157 59.5t58 162.5v524h-79v-525q0 -71 -35.5 -110.5t-100.5 -39.5q-60 0 -99.5 35.5t-41.5 90.5h-77zM833 -41q-148 0 -283.5 58t-234 156.5t-156.5 234t-58 283.5t58 283.5t156.5 233.5t234 156.5t283.5 58.5t283.5 -58.5
t233.5 -156.5t156.5 -233.5t58.5 -283.5t-58.5 -283.5t-156.5 -234t-233.5 -156.5t-283.5 -58z" />
    <glyph glyph-name="uni1F15A" unicode="K&#x20dd;&#x25cf;"
d="M1109 1072h-95l-357 -372h-2v372h-78v-732h78v263l99 102l277 -365h98l-320 418zM833 -41q-148 0 -283.5 58t-234 156.5t-156.5 234t-58 283.5t58 283.5t156.5 233.5t234 156.5t283.5 58.5t283.5 -58.5t233.5 -156.5t156.5 -233.5t58.5 -283.5t-58.5 -283.5t-156.5 -234
t-233.5 -156.5t-283.5 -58z" />
    <glyph glyph-name="uni1F15B" unicode="L&#x20dd;&#x25cf;"
d="M1089 410h-369v662h-79v-732h448v70zM833 -41q-148 0 -283.5 58t-234 156.5t-156.5 234t-58 283.5t58 283.5t156.5 233.5t234 156.5t283.5 58.5t283.5 -58.5t233.5 -156.5t156.5 -233.5t58.5 -283.5t-58.5 -283.5t-156.5 -234t-233.5 -156.5t-283.5 -58z" />
    <glyph glyph-name="uni1F15C" unicode="M&#x20dd;&#x25cf;"
d="M558 340v618h3l236 -610h72l236 609h3v-617h74v732h-99l-249 -643h-3l-247 643h-99v-732h73zM833 -41q-148 0 -283.5 58t-234 156.5t-156.5 234t-58 283.5t58 283.5t156.5 233.5t234 156.5t283.5 58.5t283.5 -58.5t233.5 -156.5t156.5 -233.5t58.5 -283.5t-58.5 -283.5
t-156.5 -234t-233.5 -156.5t-283.5 -58z" />
    <glyph glyph-name="uni1F15D" unicode="N&#x20dd;&#x25cf;"
d="M626 340v619h2l402 -619h88v732h-77v-619h-2l-403 619h-87v-732h77zM833 -41q-148 0 -283.5 58t-234 156.5t-156.5 234t-58 283.5t58 283.5t156.5 233.5t234 156.5t283.5 58.5t283.5 -58.5t233.5 -156.5t156.5 -233.5t58.5 -283.5t-58.5 -283.5t-156.5 -234
t-233.5 -156.5t-283.5 -58z" />
    <glyph glyph-name="uni1F15E" unicode="O&#x20dd;&#x25cf;"
d="M833 394q-114 0 -185.5 85.5t-71.5 225.5t71.5 225.5t185.5 85.5t185.5 -86t71.5 -225t-71.5 -225t-185.5 -86zM833 324q150 0 243.5 104t93.5 277t-93.5 277.5t-243.5 104.5t-244 -104.5t-94 -277.5q0 -172 94 -276.5t244 -104.5zM833 -41q-148 0 -283.5 58t-234 156.5
t-156.5 234t-58 283.5t58 283.5t156.5 233.5t234 156.5t283.5 58.5t283.5 -58.5t233.5 -156.5t156.5 -233.5t58.5 -283.5t-58.5 -283.5t-156.5 -234t-233.5 -156.5t-283.5 -58z" />
    <glyph glyph-name="uni1F15F" unicode="P&#x20dd;&#x25cf;"
d="M882 1072h-265v-732h79v281h186q104 0 169.5 62.5t65.5 162.5q0 99 -66 162.5t-169 63.5zM1036 846q0 -71 -44 -114.5t-115 -43.5h-181v316h181q71 0 115 -43.5t44 -114.5zM833 -41q-148 0 -283.5 58t-234 156.5t-156.5 234t-58 283.5t58 283.5t156.5 233.5t234 156.5
t283.5 58.5t283.5 -58.5t233.5 -156.5t156.5 -233.5t58.5 -283.5t-58.5 -283.5t-156.5 -234t-233.5 -156.5t-283.5 -58z" />
    <glyph glyph-name="uni1F160" unicode="Q&#x20dd;&#x25cf;"
d="M1125 253l-96 132q67 49 104 131.5t37 188.5q0 173 -93.5 277.5t-243.5 104.5t-244 -104.5t-94 -277.5q0 -172 94 -276.5t244 -104.5q73 0 134 26l70 -97h88zM833 394q-114 0 -185.5 85.5t-71.5 225.5t71.5 225.5t185.5 85.5t185.5 -86t71.5 -225q0 -172 -106 -257
l-73 102h-86l98 -138q-44 -18 -90 -18zM833 -41q-148 0 -283.5 58t-234 156.5t-156.5 234t-58 283.5t58 283.5t156.5 233.5t234 156.5t283.5 58.5t283.5 -58.5t233.5 -156.5t156.5 -233.5t58.5 -283.5t-58.5 -283.5t-156.5 -234t-233.5 -156.5t-283.5 -58z" />
    <glyph glyph-name="uni1F161" unicode="R&#x20dd;&#x25cf;"
d="M668 703v301h183q71 0 115.5 -42t44.5 -109t-44.5 -108.5t-116.5 -41.5h-182zM854 1072h-264v-732h78v297h180l165 -297h89l-174 306q75 17 119.5 73t44.5 135q0 98 -65.5 158t-172.5 60zM833 -41q-148 0 -283.5 58t-234 156.5t-156.5 234t-58 283.5t58 283.5
t156.5 233.5t234 156.5t283.5 58.5t283.5 -58.5t233.5 -156.5t156.5 -233.5t58.5 -283.5t-58.5 -283.5t-156.5 -234t-233.5 -156.5t-283.5 -58z" />
    <glyph glyph-name="uni1F162" unicode="S&#x20dd;&#x25cf;"
d="M547 537q4 -95 83 -153.5t195 -58.5q125 0 203 59t78 156q0 74 -50 121.5t-155 73.5l-117 28q-62 16 -96.5 48t-34.5 73q0 61 50 99.5t130 38.5q75 0 128 -39t57 -97h76q-2 85 -75 144.5t-185 59.5q-116 0 -188.5 -58.5t-72.5 -150.5q0 -141 181 -186l119 -30
q81 -21 117 -52t36 -79q0 -63 -55 -102t-140 -39q-83 0 -142 42t-63 102h-79zM833 -41q-148 0 -283.5 58t-234 156.5t-156.5 234t-58 283.5t58 283.5t156.5 233.5t234 156.5t283.5 58.5t283.5 -58.5t233.5 -156.5t156.5 -233.5t58.5 -283.5t-58.5 -283.5t-156.5 -234
t-233.5 -156.5t-283.5 -58z" />
    <glyph glyph-name="uni1F163" unicode="T&#x20dd;&#x25cf;"
d="M874 320v663h241v69h-565v-69h244v-663h80zM833 -41q-148 0 -283.5 58t-234 156.5t-156.5 234t-58 283.5t58 283.5t156.5 233.5t234 156.5t283.5 58.5t283.5 -58.5t233.5 -156.5t156.5 -233.5t58.5 -283.5t-58.5 -283.5t-156.5 -234t-233.5 -156.5t-283.5 -58z" />
    <glyph glyph-name="uni1F164" unicode="U&#x20dd;&#x25cf;"
d="M833 371q-94 0 -152 53.5t-58 144.5v480h-79v-484q0 -119 81 -191.5t208 -72.5t207.5 72.5t80.5 191.5v484h-79v-480q0 -91 -58 -144.5t-151 -53.5zM833 -41q-148 0 -283.5 58t-234 156.5t-156.5 234t-58 283.5t58 283.5t156.5 233.5t234 156.5t283.5 58.5t283.5 -58.5
t233.5 -156.5t156.5 -233.5t58.5 -283.5t-58.5 -283.5t-156.5 -234t-233.5 -156.5t-283.5 -58z" />
    <glyph glyph-name="uni1F165" unicode="V&#x20dd;&#x25cf;"
d="M883 315l274 732h-90l-232 -651h-4l-232 651h-90l274 -732h100zM833 -41q-148 0 -283.5 58t-234 156.5t-156.5 234t-58 283.5t58 283.5t156.5 233.5t234 156.5t283.5 58.5t283.5 -58.5t233.5 -156.5t156.5 -233.5t58.5 -283.5t-58.5 -283.5t-156.5 -234t-233.5 -156.5
t-283.5 -58z" />
    <glyph glyph-name="uni1F166" unicode="W&#x20dd;&#x25cf;"
d="M836 935h4l165 -620h92l188 732h-87l-148 -635h-4l-169 635h-79l-168 -635h-4l-148 635h-87l188 -732h91zM833 -41q-148 0 -283.5 58t-234 156.5t-156.5 234t-58 283.5t58 283.5t156.5 233.5t234 156.5t283.5 58.5t283.5 -58.5t233.5 -156.5t156.5 -233.5t58.5 -283.5
t-58.5 -283.5t-156.5 -234t-233.5 -156.5t-283.5 -58z" />
    <glyph glyph-name="uni1F167" unicode="X&#x20dd;&#x25cf;"
d="M1113 1082h-92l-201 -312h-4l-201 312h-94l242 -366l-244 -366h91l201 309h4l200 -309h93l-242 364zM833 -41q-148 0 -283.5 58t-234 156.5t-156.5 234t-58 283.5t58 283.5t156.5 233.5t234 156.5t283.5 58.5t283.5 -58.5t233.5 -156.5t156.5 -233.5t58.5 -283.5
t-58.5 -283.5t-156.5 -234t-233.5 -156.5t-283.5 -58z" />
    <glyph glyph-name="uni1F168" unicode="Y&#x20dd;&#x25cf;"
d="M794 348h78v312l279 420h-93l-223 -344h-4l-224 344h-92l279 -420v-312zM833 -41q-148 0 -283.5 58t-234 156.5t-156.5 234t-58 283.5t58 283.5t156.5 233.5t234 156.5t283.5 58.5t283.5 -58.5t233.5 -156.5t156.5 -233.5t58.5 -283.5t-58.5 -283.5t-156.5 -234
t-233.5 -156.5t-283.5 -58z" />
    <glyph glyph-name="uni1F169" unicode="Z&#x20dd;&#x25cf;"
d="M554 350h544v69h-451v3l444 593v67h-522v-69h431v-4l-446 -593v-66zM833 -41q-148 0 -283.5 58t-234 156.5t-156.5 234t-58 283.5t58 283.5t156.5 233.5t234 156.5t283.5 58.5t283.5 -58.5t233.5 -156.5t156.5 -233.5t58.5 -283.5t-58.5 -283.5t-156.5 -234
t-233.5 -156.5t-283.5 -58z" />
    <glyph glyph-name="uni1F170" unicode="A&#x20de;&#x25a0;"
d="M965 648h-265l131 360h4zM595 355l83 227h310l83 -227h85l-273 732h-100l-273 -732h85zM337 1406h992q94 0 153.5 -59.5t59.5 -152.5v-999q0 -93 -59.5 -152t-153.5 -59h-992q-94 0 -154 59t-60 152v999q0 93 60 152.5t154 59.5z" />
    <glyph glyph-name="uni1F171" unicode="B&#x20de;&#x25a0;"
d="M592 348h276q118 0 187 54t69 149q0 75 -45 123t-117 58v2q52 13 86 57.5t34 107.5q0 79 -59 130t-157 51h-274v-732zM670 1013h182q71 0 111 -34t40 -94q0 -57 -45.5 -92.5t-122.5 -35.5h-165v256zM670 692h206q78 0 122 -37.5t44 -101.5q0 -139 -204 -139h-168v278z
M337 1406h992q94 0 153.5 -59.5t59.5 -152.5v-999q0 -93 -59.5 -152t-153.5 -59h-992q-94 0 -154 59t-60 152v999q0 93 60 152.5t154 59.5z" />
    <glyph glyph-name="uni1F172" unicode="C&#x20de;&#x25a0;"
d="M1061 553q-15 -69 -74.5 -113t-146.5 -44q-109 0 -182 86.5t-73 222.5t73 223t182 87q84 0 146 -48.5t76 -119.5h79q-13 104 -96.5 172t-204.5 68q-149 0 -242.5 -106t-93.5 -276t93.5 -275.5t242.5 -105.5q122 0 202.5 63t97.5 166h-79zM337 1406h992q94 0 153.5 -59.5
t59.5 -152.5v-999q0 -93 -59.5 -152t-153.5 -59h-992q-94 0 -154 59t-60 152v999q0 93 60 152.5t154 59.5z" />
    <glyph glyph-name="uni1F173" unicode="D&#x20de;&#x25a0;"
d="M583 1063v-713h234q157 0 243.5 93.5t86.5 264.5q0 166 -87.5 260.5t-242.5 94.5h-234zM662 993h146q121 0 189.5 -74.5t68.5 -211.5q0 -141 -68 -214.5t-190 -73.5h-146v574zM337 1406h992q94 0 153.5 -59.5t59.5 -152.5v-999q0 -93 -59.5 -152t-153.5 -59h-992
q-94 0 -154 59t-60 152v999q0 93 60 152.5t154 59.5z" />
    <glyph glyph-name="uni1F174" unicode="E&#x20de;&#x25a0;"
d="M1064 409h-379v270h359v68h-359v256h379v69h-457v-732h457v69zM337 1406h992q94 0 153.5 -59.5t59.5 -152.5v-999q0 -93 -59.5 -152t-153.5 -59h-992q-94 0 -154 59t-60 152v999q0 93 60 152.5t154 59.5z" />
    <glyph glyph-name="uni1F175" unicode="F&#x20de;&#x25a0;"
d="M709 340v327h342v69h-342v267h372v69h-451v-732h79zM337 1406h992q94 0 153.5 -59.5t59.5 -152.5v-999q0 -93 -59.5 -152t-153.5 -59h-992q-94 0 -154 59t-60 152v999q0 93 60 152.5t154 59.5z" />
    <glyph glyph-name="uni1F176" unicode="G&#x20de;&#x25a0;"
d="M1065 614q0 -97 -58.5 -156.5t-165.5 -59.5q-110 0 -183 85.5t-73 221.5q0 137 73 222.5t183 85.5q89 0 149 -44t71 -109h80q-13 97 -96.5 162t-203.5 65q-150 0 -244 -106t-94 -276t94 -275.5t243 -105.5q139 0 221.5 81.5t82.5 214.5v99h-295v-70h216v-35zM337 1406
h992q94 0 153.5 -59.5t59.5 -152.5v-999q0 -93 -59.5 -152t-153.5 -59h-992q-94 0 -154 59t-60 152v999q0 93 60 152.5t154 59.5z" />
    <glyph glyph-name="uni1F177" unicode="H&#x20de;&#x25a0;"
d="M1122 340v732h-78v-317h-422v317h-78v-732h78v345h422v-345h78zM337 1406h992q94 0 153.5 -59.5t59.5 -152.5v-999q0 -93 -59.5 -152t-153.5 -59h-992q-94 0 -154 59t-60 152v999q0 93 60 152.5t154 59.5z" />
    <glyph glyph-name="uni1F178" unicode="I&#x20de;&#x25a0;"
d="M872 340v732h-78v-732h78zM337 1406h992q94 0 153.5 -59.5t59.5 -152.5v-999q0 -93 -59.5 -152t-153.5 -59h-992q-94 0 -154 59t-60 152v999q0 93 60 152.5t154 59.5z" />
    <glyph glyph-name="uni1F179" unicode="J&#x20de;&#x25a0;"
d="M586 524q2 -87 61.5 -142t156.5 -55q99 0 157 59t58 163v524h-79v-525q0 -70 -35.5 -110t-100.5 -40q-60 0 -99.5 35.5t-41.5 90.5h-77zM337 1406h992q94 0 153.5 -59.5t59.5 -152.5v-999q0 -93 -59.5 -152t-153.5 -59h-992q-94 0 -154 59t-60 152v999q0 93 60 152.5
t154 59.5z" />
    <glyph glyph-name="uni1F17A" unicode="K&#x20de;&#x25a0;"
d="M1109 1072h-95l-357 -372h-2v372h-78v-732h78v263l99 102l277 -365h98q-14 21 -160.5 210.5t-159.5 207.5zM337 1406h992q94 0 153.5 -59.5t59.5 -152.5v-999q0 -93 -59.5 -152t-153.5 -59h-992q-94 0 -154 59t-60 152v999q0 93 60 152.5t154 59.5z" />
    <glyph glyph-name="uni1F17B" unicode="L&#x20de;&#x25a0;"
d="M1092 410h-369v662h-79v-732h448v70zM337 1406h992q94 0 153.5 -59.5t59.5 -152.5v-999q0 -93 -59.5 -152t-153.5 -59h-992q-94 0 -154 59t-60 152v999q0 93 60 152.5t154 59.5z" />
    <glyph glyph-name="uni1F17C" unicode="M&#x20de;&#x25a0;"
d="M558 340v618h3l236 -610h72l236 609h3v-617h74v732h-99l-249 -643h-3l-247 643h-99v-732h73zM337 1406h992q94 0 153.5 -59.5t59.5 -152.5v-999q0 -93 -59.5 -152t-153.5 -59h-992q-94 0 -154 59t-60 152v999q0 93 60 152.5t154 59.5z" />
    <glyph glyph-name="uni1F17D" unicode="N&#x20de;&#x25a0;"
d="M626 340v619h2l402 -619h88v732h-77v-619h-2l-403 619h-87v-732h77zM337 1406h992q94 0 153.5 -59.5t59.5 -152.5v-999q0 -93 -59.5 -152t-153.5 -59h-992q-94 0 -154 59t-60 152v999q0 93 60 152.5t154 59.5z" />
    <glyph glyph-name="uni1F17E" unicode="O&#x20de;&#x25a0;"
d="M833 394q-114 0 -185.5 85.5t-71.5 225.5t71.5 225.5t185.5 85.5t185.5 -86t71.5 -225t-71.5 -225t-185.5 -86zM833 324q150 0 243.5 104t93.5 277t-93.5 277.5t-243.5 104.5t-244 -104.5t-94 -277.5q0 -172 94 -276.5t244 -104.5zM337 1406h992q94 0 153.5 -59.5
t59.5 -152.5v-999q0 -93 -59.5 -152t-153.5 -59h-992q-94 0 -154 59t-60 152v999q0 93 60 152.5t154 59.5z" />
    <glyph glyph-name="uni1F17F" unicode="P&#x20de;&#x25a0;"
d="M882 1072h-265v-732h79v281h186q104 0 169.5 63t65.5 162q0 98 -65.5 162t-169.5 64zM1036 846q0 -71 -44 -114.5t-115 -43.5h-181v316h181q71 0 115 -43.5t44 -114.5zM337 1406h992q94 0 153.5 -59.5t59.5 -152.5v-999q0 -93 -59.5 -152t-153.5 -59h-992q-94 0 -154 59
t-60 152v999q0 93 60 152.5t154 59.5z" />
    <glyph glyph-name="uni1F180" unicode="Q&#x20de;&#x25a0;"
d="M1125 253l-96 132q67 49 104 131.5t37 188.5q0 173 -93.5 277.5t-243.5 104.5t-244 -104.5t-94 -277.5q0 -172 94 -276.5t244 -104.5q73 0 134 26l70 -97h88zM833 394q-114 0 -185.5 85.5t-71.5 225.5t71.5 225.5t185.5 85.5t185.5 -86t71.5 -225q0 -172 -106 -257
l-73 102h-86l98 -138q-44 -18 -90 -18zM337 1406h992q94 0 153.5 -59.5t59.5 -152.5v-999q0 -93 -59.5 -152t-153.5 -59h-992q-94 0 -154 59t-60 152v999q0 93 60 152.5t154 59.5z" />
    <glyph glyph-name="uni1F181" unicode="R&#x20de;&#x25a0;"
d="M668 703v301h183q71 0 115.5 -41.5t44.5 -109.5q0 -67 -44.5 -108.5t-116.5 -41.5h-182zM854 1072h-264v-732h78v297h180l165 -297h89l-174 306q74 17 119 73t45 135q0 98 -65.5 158t-172.5 60zM337 1406h992q94 0 153.5 -59.5t59.5 -152.5v-999q0 -93 -59.5 -152
t-153.5 -59h-992q-94 0 -154 59t-60 152v999q0 93 60 152.5t154 59.5z" />
    <glyph glyph-name="uni1F182" unicode="S&#x20de;&#x25a0;"
d="M547 537q4 -95 83 -153.5t195 -58.5q125 0 203 59t78 156q0 74 -50 121.5t-155 73.5l-117 28q-62 16 -96.5 48t-34.5 73q0 61 50 99.5t130 38.5q75 0 128 -39t57 -97h76q-2 85 -75 144.5t-185 59.5q-116 0 -188.5 -58.5t-72.5 -150.5q0 -141 181 -186l119 -30
q81 -21 117 -52t36 -79q0 -63 -55 -102t-140 -39q-83 0 -142 42t-63 102h-79zM337 1406h992q94 0 153.5 -59.5t59.5 -152.5v-999q0 -93 -59.5 -152t-153.5 -59h-992q-94 0 -154 59t-60 152v999q0 93 60 152.5t154 59.5z" />
    <glyph glyph-name="uni1F183" unicode="T&#x20de;&#x25a0;"
d="M874 326v663h241v69h-565v-69h244v-663h80zM337 1406h992q94 0 153.5 -59.5t59.5 -152.5v-999q0 -93 -59.5 -152t-153.5 -59h-992q-94 0 -154 59t-60 152v999q0 93 60 152.5t154 59.5z" />
    <glyph glyph-name="uni1F184" unicode="U&#x20de;&#x25a0;"
d="M833 377q-94 0 -152 53t-58 144v480h-79v-483q0 -120 80.5 -192.5t208.5 -72.5q127 0 207.5 73t80.5 192v483h-79v-480q0 -91 -57.5 -144t-151.5 -53zM337 1406h992q94 0 153.5 -59.5t59.5 -152.5v-999q0 -93 -59.5 -152t-153.5 -59h-992q-94 0 -154 59t-60 152v999
q0 93 60 152.5t154 59.5z" />
    <glyph glyph-name="uni1F185" unicode="V&#x20de;&#x25a0;"
d="M883 321l274 732h-90l-232 -652h-4l-232 652h-90l274 -732h100zM337 1406h992q94 0 153.5 -59.5t59.5 -152.5v-999q0 -93 -59.5 -152t-153.5 -59h-992q-94 0 -154 59t-60 152v999q0 93 60 152.5t154 59.5z" />
    <glyph glyph-name="uni1F186" unicode="W&#x20de;&#x25a0;"
d="M836 940h4l165 -619h92l188 732h-87l-148 -636h-4l-169 636h-79l-168 -636h-4l-148 636h-87l188 -732h91zM337 1406h992q94 0 153.5 -59.5t59.5 -152.5v-999q0 -93 -59.5 -152t-153.5 -59h-992q-94 0 -154 59t-60 152v999q0 93 60 152.5t154 59.5z" />
    <glyph glyph-name="uni1F187" unicode="X&#x20de;&#x25a0;"
d="M1113 1082h-92l-201 -312h-4l-201 312h-94l242 -366l-244 -366h91l201 309h4l200 -309h93l-242 364zM337 1406h992q94 0 153.5 -59.5t59.5 -152.5v-999q0 -93 -59.5 -152t-153.5 -59h-992q-94 0 -154 59t-60 152v999q0 93 60 152.5t154 59.5z" />
    <glyph glyph-name="uni1F188" unicode="Y&#x20de;&#x25a0;"
d="M794 350h78v311l279 421h-93l-223 -345h-4l-224 345h-92l279 -421v-311zM337 1406h992q94 0 153.5 -59.5t59.5 -152.5v-999q0 -93 -59.5 -152t-153.5 -59h-992q-94 0 -154 59t-60 152v999q0 93 60 152.5t154 59.5z" />
    <glyph glyph-name="uni1F189" unicode="Z&#x20de;&#x25a0;"
d="M554 350h544v69h-451v3l444 593v67h-522v-69h431v-4l-446 -593v-66zM337 1406h992q94 0 153.5 -59.5t59.5 -152.5v-999q0 -93 -59.5 -152t-153.5 -59h-992q-94 0 -154 59t-60 152v999q0 93 60 152.5t154 59.5z" />
    <glyph glyph-name="plus.uc.whitecircle" unicode="&#x2b;&#x20dd;"
d="M862 678v-232h-59v232h-221v56h221v222h59v-222h222v-56h-222zM833 23q135 0 257.5 53t211 142.5t141 213t52.5 259.5q0 181 -88.5 335t-241 244t-332.5 90t-333 -90t-241.5 -244t-88.5 -335q0 -136 52.5 -259.5t141 -213t211.5 -142.5t258 -53zM833 -41
q-148 0 -283.5 58.5t-234 156.5t-156.5 233.5t-58 283.5t58 284t156.5 234t234 156.5t283.5 58.5t283.5 -58.5t233.5 -156.5t156.5 -234t58.5 -284t-58.5 -283.5t-156.5 -233.5t-233.5 -156.5t-283.5 -58.5z" />
    <glyph glyph-name="minus.uc.whitecircle" unicode="&#x2212;&#x20dd;"
d="M1069 677h-472v56h472v-56zM833 23q135 0 257.5 53t211 142.5t141 213t52.5 259.5q0 181 -88.5 335t-241 244t-332.5 90t-333 -90t-241.5 -244t-88.5 -335q0 -136 52.5 -259.5t141 -213t211.5 -142.5t258 -53zM833 -41q-148 0 -283.5 58.5t-234 156.5t-156.5 233.5
t-58 283.5t58 284t156.5 234t234 156.5t283.5 58.5t283.5 -58.5t233.5 -156.5t156.5 -234t58.5 -284t-58.5 -283.5t-156.5 -233.5t-233.5 -156.5t-283.5 -58.5z" />
    <glyph glyph-name="multiply.uc.whitecircle" unicode="&#xd7;&#x20dd;"
d="M836 744l161 159l41 -40l-161 -159l161 -159l-41 -39l-161 158l-167 -165l-42 40l168 166l-160 158l40 40zM833 23q135 0 257.5 53t211 142.5t141 213t52.5 259.5q0 181 -88.5 335t-241 244t-332.5 90t-333 -90t-241.5 -244t-88.5 -335q0 -136 52.5 -259.5t141 -213
t211.5 -142.5t258 -53zM833 -41q-148 0 -283.5 58.5t-234 156.5t-156.5 233.5t-58 283.5t58 284t156.5 234t234 156.5t283.5 58.5t283.5 -58.5t233.5 -156.5t156.5 -234t58.5 -284t-58.5 -283.5t-156.5 -233.5t-233.5 -156.5t-283.5 -58.5z" />
    <glyph glyph-name="divide.uc.whitecircle" unicode="&#xf7;&#x20dd;"
d="M1069 679h-472v53h472v-53zM779 894q0 22 15.5 37.5t38.5 15.5t39 -15.5t16 -37.5t-16 -37t-39 -15t-38.5 15t-15.5 37zM779 516q0 22 15.5 38t38.5 16t39 -15.5t16 -37.5t-16 -37t-39 -15t-38.5 14.5t-15.5 36.5zM833 23q135 0 257.5 53t211 142.5t141 213t52.5 259.5
q0 181 -88.5 335t-241 244t-332.5 90t-333 -90t-241.5 -244t-88.5 -335q0 -136 52.5 -259.5t141 -213t211.5 -142.5t258 -53zM833 -41q-148 0 -283.5 58.5t-234 156.5t-156.5 233.5t-58 283.5t58 284t156.5 234t234 156.5t283.5 58.5t283.5 -58.5t233.5 -156.5t156.5 -234
t58.5 -284t-58.5 -283.5t-156.5 -233.5t-233.5 -156.5t-283.5 -58.5z" />
    <glyph glyph-name="equal.uc.whitecircle" unicode="&#x3d;&#x20dd;"
d="M1065 581h-464v54h464v-54zM1065 775h-464v54h464v-54zM833 23q135 0 257.5 53t211 142.5t141 213t52.5 259.5q0 181 -88.5 335t-241 244t-332.5 90t-333 -90t-241.5 -244t-88.5 -335q0 -136 52.5 -259.5t141 -213t211.5 -142.5t258 -53zM833 -41q-148 0 -283.5 58.5
t-234 156.5t-156.5 233.5t-58 283.5t58 284t156.5 234t234 156.5t283.5 58.5t283.5 -58.5t233.5 -156.5t156.5 -234t58.5 -284t-58.5 -283.5t-156.5 -233.5t-233.5 -156.5t-283.5 -58.5z" />
    <glyph glyph-name="greater.uc.whitecircle" unicode="&#x3e;&#x20dd;"
d="M1078 721v-57l-438 -262v72l366 217v5l-366 219v72zM833 23q135 0 257.5 53t211 142.5t141 213t52.5 259.5q0 181 -88.5 335t-241 244t-332.5 90t-333 -90t-241.5 -244t-88.5 -335q0 -136 52.5 -259.5t141 -213t211.5 -142.5t258 -53zM833 -41q-148 0 -283.5 58.5
t-234 156.5t-156.5 233.5t-58 283.5t58 284t156.5 234t234 156.5t283.5 58.5t283.5 -58.5t233.5 -156.5t156.5 -234t58.5 -284t-58.5 -283.5t-156.5 -233.5t-233.5 -156.5t-283.5 -58.5z" />
    <glyph glyph-name="less.uc.whitecircle" unicode="&#x3c;&#x20dd;"
d="M589 664v57l437 266v-72l-366 -219v-5l366 -217v-72zM833 23q135 0 257.5 53t211 142.5t141 213t52.5 259.5q0 181 -88.5 335t-241 244t-332.5 90t-333 -90t-241.5 -244t-88.5 -335q0 -136 52.5 -259.5t141 -213t211.5 -142.5t258 -53zM833 -41q-148 0 -283.5 58.5
t-234 156.5t-156.5 233.5t-58 283.5t58 284t156.5 234t234 156.5t283.5 58.5t283.5 -58.5t233.5 -156.5t156.5 -234t58.5 -284t-58.5 -283.5t-156.5 -233.5t-233.5 -156.5t-283.5 -58.5z" />
    <glyph glyph-name="numbersign.whitecircle" unicode="&#x30;&#x20dd;"
d="M1105 806h-117l-38 -177h112l-11 -52h-112l-43 -205h-59l43 205h-164l-42 -205h-60l43 205h-119l11 52h120l37 177h-114l11 53h115l41 197h59l-42 -197h164l41 197h59l-41 -197h117zM764 807l-38 -181h167l38 181h-167zM833 23q135 0 257.5 53t211 142.5t141 213
t52.5 259.5q0 181 -88.5 335t-241 244t-332.5 90t-333 -90t-241.5 -244t-88.5 -335q0 -136 52.5 -259.5t141 -213t211.5 -142.5t258 -53zM833 -41q-148 0 -283.5 58.5t-234 156.5t-156.5 233.5t-58 283.5t58 284t156.5 234t234 156.5t283.5 58.5t283.5 -58.5t233.5 -156.5
t156.5 -234t58.5 -284t-58.5 -283.5t-156.5 -233.5t-233.5 -156.5t-283.5 -58.5z" />
    <glyph glyph-name="uni25BC.whitecircle" unicode="&#x25bc;&#x20dd;"
d="M1096 877l-263 -430l-264 430h527zM833 23q135 0 257.5 53t211 142.5t141 213t52.5 259.5q0 181 -88.5 335t-241 244t-332.5 90t-333 -90t-241.5 -244t-88.5 -335q0 -136 52.5 -259.5t141 -213t211.5 -142.5t258 -53zM833 -41q-148 0 -283.5 58.5t-234 156.5
t-156.5 233.5t-58 283.5t58 284t156.5 234t234 156.5t283.5 58.5t283.5 -58.5t233.5 -156.5t156.5 -234t58.5 -284t-58.5 -283.5t-156.5 -233.5t-233.5 -156.5t-283.5 -58.5z" />
    <glyph glyph-name="uni25B2.whitecircle" unicode="&#x25b2;&#x20dd;"
d="M1096 522h-527l264 430zM833 23q135 0 257.5 53t211 142.5t141 213t52.5 259.5q0 181 -88.5 335t-241 244t-332.5 90t-333 -90t-241.5 -244t-88.5 -335q0 -136 52.5 -259.5t141 -213t211.5 -142.5t258 -53zM833 -41q-148 0 -283.5 58.5t-234 156.5t-156.5 233.5
t-58 283.5t58 284t156.5 234t234 156.5t283.5 58.5t283.5 -58.5t233.5 -156.5t156.5 -234t58.5 -284t-58.5 -283.5t-156.5 -233.5t-233.5 -156.5t-283.5 -58.5z" />
    <glyph glyph-name="uni25C0.whitecircle" unicode="&#x25c0;&#x20dd;"
d="M998 437l-428 263l428 264v-527zM833 23q135 0 257.5 53t211 142.5t141 213t52.5 259.5q0 181 -88.5 335t-241 244t-332.5 90t-333 -90t-241.5 -244t-88.5 -335q0 -136 52.5 -259.5t141 -213t211.5 -142.5t258 -53zM833 -41q-148 0 -283.5 58.5t-234 156.5t-156.5 233.5
t-58 283.5t58 284t156.5 234t234 156.5t283.5 58.5t283.5 -58.5t233.5 -156.5t156.5 -234t58.5 -284t-58.5 -283.5t-156.5 -233.5t-233.5 -156.5t-283.5 -58.5z" />
    <glyph glyph-name="uni25B6.whitecircle" unicode="&#x25b6;&#x20dd;"
d="M668 437v527l428 -264zM833 23q135 0 257.5 53t211 142.5t141 213t52.5 259.5q0 181 -88.5 335t-241 244t-332.5 90t-333 -90t-241.5 -244t-88.5 -335q0 -136 52.5 -259.5t141 -213t211.5 -142.5t258 -53zM833 -41q-148 0 -283.5 58.5t-234 156.5t-156.5 233.5t-58 283.5
t58 284t156.5 234t234 156.5t283.5 58.5t283.5 -58.5t233.5 -156.5t156.5 -234t58.5 -284t-58.5 -283.5t-156.5 -233.5t-233.5 -156.5t-283.5 -58.5z" />
    <glyph glyph-name="question.whitecircle" unicode="&#x3f;&#x20dd;"
d="M762 424q0 23 17.5 39.5t42.5 16.5t42.5 -16.5t17.5 -39.5t-17.5 -39.5t-42.5 -16.5q-26 0 -43 16t-17 40zM788 582v40q-1 48 20.5 82t70.5 68q53 37 74.5 65.5t21.5 66.5q0 52 -39.5 83t-103.5 31t-103.5 -38t-41.5 -94h-63q0 84 59.5 135.5t151.5 51.5q89 0 147.5 -46
t58.5 -119q0 -53 -25.5 -90t-82.5 -78q-49 -34 -66.5 -58.5t-17.5 -62.5v-37h-61zM833 23q135 0 257.5 53t211 142.5t141 213t52.5 259.5q0 181 -88.5 335t-241 244t-332.5 90t-333 -90t-241.5 -244t-88.5 -335q0 -136 52.5 -259.5t141 -213t211.5 -142.5t258 -53zM833 -41
q-148 0 -283.5 58.5t-234 156.5t-156.5 233.5t-58 283.5t58 284t156.5 234t234 156.5t283.5 58.5t283.5 -58.5t233.5 -156.5t156.5 -234t58.5 -284t-58.5 -283.5t-156.5 -233.5t-233.5 -156.5t-283.5 -58.5z" />
    <glyph glyph-name="exclam.whitecircle" unicode="&#x21;&#x20dd;"
d="M773 424q0 23 17.5 39.5t42.5 16.5t42.5 -16.5t17.5 -39.5t-17.5 -39.5t-42.5 -16.5q-26 0 -43 16t-17 40zM800 1057h66l-4 -457h-58zM833 23q135 0 257.5 53t211 142.5t141 213t52.5 259.5q0 181 -88.5 335t-241 244t-332.5 90t-333 -90t-241.5 -244t-88.5 -335
q0 -136 52.5 -259.5t141 -213t211.5 -142.5t258 -53zM833 -41q-148 0 -283.5 58.5t-234 156.5t-156.5 233.5t-58 283.5t58 284t156.5 234t234 156.5t283.5 58.5t283.5 -58.5t233.5 -156.5t156.5 -234t58.5 -284t-58.5 -283.5t-156.5 -233.5t-233.5 -156.5t-283.5 -58.5z" />
    <glyph glyph-name="uni2717.whitecircle" unicode="&#x2717;&#x20dd;"
d="M834 751l275 276l46 -45l-276 -276l276 -276l-46 -45l-275 275l-276 -275l-45 45l275 276l-275 276l45 45zM833 23q135 0 257.5 53t211 142.5t141 213t52.5 259.5q0 181 -88.5 335t-241 244t-332.5 90t-333 -90t-241.5 -244t-88.5 -335q0 -136 52.5 -259.5t141 -213
t211.5 -142.5t258 -53zM833 -41q-148 0 -283.5 58.5t-234 156.5t-156.5 233.5t-58 283.5t58 284t156.5 234t234 156.5t283.5 58.5t283.5 -58.5t233.5 -156.5t156.5 -234t58.5 -284t-58.5 -283.5t-156.5 -233.5t-233.5 -156.5t-283.5 -58.5z" />
    <glyph glyph-name="uni2713.whitecircle" unicode="&#x2713;&#x20dd;"
d="M1244 954l-533 -535l-278 281l47 47l230 -235l487 490zM833 23q135 0 257.5 53t211 142.5t141 213t52.5 259.5q0 181 -88.5 335t-241 244t-332.5 90t-333 -90t-241.5 -244t-88.5 -335q0 -136 52.5 -259.5t141 -213t211.5 -142.5t258 -53zM833 -41q-148 0 -283.5 58.5
t-234 156.5t-156.5 233.5t-58 283.5t58 284t156.5 234t234 156.5t283.5 58.5t283.5 -58.5t233.5 -156.5t156.5 -234t58.5 -284t-58.5 -283.5t-156.5 -233.5t-233.5 -156.5t-283.5 -58.5z" />
    <glyph glyph-name="zero.whitesquare" unicode="&#x30;&#x20de;"
d="M833 408q82 0 133 81.5t51 215.5t-51 216t-133 82q-83 0 -134 -81.5t-51 -216.5q0 -134 51 -215.5t134 -81.5zM833 349q-111 0 -179.5 97.5t-68.5 258.5q0 162 68.5 259.5t179.5 97.5q110 0 179 -97.5t69 -259.5q0 -161 -69 -258.5t-179 -97.5zM337 1406h992
q94 0 153.5 -59.5t59.5 -152.5v-999q0 -93 -59.5 -152t-153.5 -59h-992q-94 0 -154 59t-60 152v999q0 93 60 152.5t154 59.5zM1477 1194q0 71 -40.5 111t-111.5 40h-985q-71 0 -111.5 -40t-40.5 -111v-998q0 -71 40.5 -111.5t111.5 -40.5h985q71 0 111.5 40.5t40.5 111.5
v998z" />
    <glyph glyph-name="one.whitesquare" unicode="&#x31;&#x20de;"
d="M892 374h-65v613h-5l-175 -115v66l180 119h65v-683zM337 1406h992q94 0 153.5 -59.5t59.5 -152.5v-999q0 -93 -59.5 -152t-153.5 -59h-992q-94 0 -154 59t-60 152v999q0 93 60 152.5t154 59.5zM1477 1194q0 71 -40.5 111t-111.5 40h-985q-71 0 -111.5 -40t-40.5 -111
v-998q0 -71 40.5 -111.5t111.5 -40.5h985q71 0 111.5 40.5t40.5 111.5v998z" />
    <glyph glyph-name="two.whitesquare" unicode="&#x32;&#x20de;"
d="M675 872h-65v3q0 82 62.5 139t160.5 57q97 0 155.5 -51t58.5 -134q0 -51 -26 -96.5t-89 -114.5l-219 -241v-4h354v-56h-447v46l276 301q44 49 64 86t20 77q0 59 -40.5 95t-106.5 36q-69 0 -113.5 -40t-44.5 -100v-3zM337 1406h992q94 0 153.5 -59.5t59.5 -152.5v-999
q0 -93 -59.5 -152t-153.5 -59h-992q-94 0 -154 59t-60 152v999q0 93 60 152.5t154 59.5zM1477 1194q0 71 -40.5 111t-111.5 40h-985q-71 0 -111.5 -40t-40.5 -111v-998q0 -71 40.5 -111.5t111.5 -40.5h985q71 0 111.5 40.5t40.5 111.5v998z" />
    <glyph glyph-name="three.whitesquare" unicode="&#x33;&#x20de;"
d="M759 700v54h77q63 0 106 39t43 95q-1 57 -43 92.5t-109 35.5q-61 0 -104.5 -33t-47.5 -81h-63q3 72 63.5 120.5t152.5 48.5q95 0 155.5 -49t61.5 -125q0 -62 -40.5 -108t-96.5 -57v-4q67 -7 113.5 -54t47.5 -115q1 -88 -68 -144t-174 -56q-97 0 -161 50t-69 123h62
q4 -48 53 -83t115 -35q79 0 127.5 40.5t48.5 105.5q-1 60 -48 100t-119 40h-83zM337 1406h992q94 0 153.5 -59.5t59.5 -152.5v-999q0 -93 -59.5 -152t-153.5 -59h-992q-94 0 -154 59t-60 152v999q0 93 60 152.5t154 59.5zM1477 1194q0 71 -40.5 111t-111.5 40h-985
q-71 0 -111.5 -40t-40.5 -111v-998q0 -71 40.5 -111.5t111.5 -40.5h985q71 0 111.5 40.5t40.5 111.5v998z" />
    <glyph glyph-name="four.whitesquare" unicode="&#x34;&#x20de;"
d="M867 1057h102v-475h104v-56h-104v-152h-64v152h-346v60q29 50 82.5 132t138 208.5t87.5 130.5zM627 582h278v421h-5q-51 -73 -143.5 -214t-129.5 -203v-4zM337 1406h992q94 0 153.5 -59.5t59.5 -152.5v-999q0 -93 -59.5 -152t-153.5 -59h-992q-94 0 -154 59t-60 152v999
q0 93 60 152.5t154 59.5zM1477 1194q0 71 -40.5 111t-111.5 40h-985q-71 0 -111.5 -40t-40.5 -111v-998q0 -71 40.5 -111.5t111.5 -40.5h985q71 0 111.5 40.5t40.5 111.5v998z" />
    <glyph glyph-name="five.whitesquare" unicode="&#x35;&#x20de;"
d="M601 532h62q10 -51 57.5 -84t108.5 -33q76 0 127 49.5t51 126.5q0 74 -48.5 121t-122.5 47q-97 0 -161 -88h-60l30 386h393v-56h-336l-23 -264h5q25 34 69 55.5t95 21.5q97 0 161 -62t64 -160q0 -103 -69 -167.5t-179 -64.5q-90 0 -153.5 49t-70.5 123zM337 1406h992
q94 0 153.5 -59.5t59.5 -152.5v-999q0 -93 -59.5 -152t-153.5 -59h-992q-94 0 -154 59t-60 152v999q0 93 60 152.5t154 59.5zM1477 1194q0 71 -40.5 111t-111.5 40h-985q-71 0 -111.5 -40t-40.5 -111v-998q0 -71 40.5 -111.5t111.5 -40.5h985q71 0 111.5 40.5t40.5 111.5
v998z" />
    <glyph glyph-name="six.whitesquare" unicode="&#x36;&#x20de;"
d="M1060 920h-64q-13 40 -55 66.5t-96 26.5q-93 0 -146.5 -84t-52.5 -232v-7h4q26 56 77.5 88.5t126.5 32.5q95 0 159 -61t64 -158q0 -105 -67 -168.5t-176 -63.5q-68 0 -123 30t-86 86q-43 76 -43 217q0 180 70.5 278t194.5 98q80 0 140.5 -44.5t72.5 -104.5zM659 589
q0 -76 50 -125t126 -49q79 0 128 47t49 126q0 76 -49.5 122.5t-125.5 46.5q-77 0 -127.5 -47.5t-50.5 -120.5zM337 1406h992q94 0 153.5 -59.5t59.5 -152.5v-999q0 -93 -59.5 -152t-153.5 -59h-992q-94 0 -154 59t-60 152v999q0 93 60 152.5t154 59.5zM1477 1194
q0 71 -40.5 111t-111.5 40h-985q-71 0 -111.5 -40t-40.5 -111v-998q0 -71 40.5 -111.5t111.5 -40.5h985q71 0 111.5 40.5t40.5 111.5v998z" />
    <glyph glyph-name="seven.whitesquare" unicode="&#x37;&#x20de;"
d="M614 1057h449v-59l-296 -624h-72l300 622v4h-381v57zM337 1406h992q94 0 153.5 -59.5t59.5 -152.5v-999q0 -93 -59.5 -152t-153.5 -59h-992q-94 0 -154 59t-60 152v999q0 93 60 152.5t154 59.5zM1477 1194q0 71 -40.5 111t-111.5 40h-985q-71 0 -111.5 -40t-40.5 -111
v-998q0 -71 40.5 -111.5t111.5 -40.5h985q71 0 111.5 40.5t40.5 111.5v998z" />
    <glyph glyph-name="eight.whitesquare" unicode="&#x38;&#x20de;"
d="M834 413q81 0 133.5 42t52.5 107q0 64 -52.5 105t-133.5 41t-133.5 -41.5t-52.5 -104.5q0 -65 52.5 -107t133.5 -42zM834 758q68 0 113 37t45 93q0 57 -44.5 93.5t-113.5 36.5t-113 -36.5t-44 -93.5q0 -56 44.5 -93t112.5 -37zM834 360q-110 0 -180 56t-70 145
q0 62 42 110.5t107 61.5v4q-55 16 -88.5 58.5t-33.5 95.5q0 79 63 129.5t160 50.5q98 0 160.5 -50.5t62.5 -129.5q0 -53 -33.5 -95.5t-87.5 -58.5v-4q65 -13 107 -61.5t42 -110.5q0 -88 -70.5 -144.5t-180.5 -56.5zM337 1406h992q94 0 153.5 -59.5t59.5 -152.5v-999
q0 -93 -59.5 -152t-153.5 -59h-992q-94 0 -154 59t-60 152v999q0 93 60 152.5t154 59.5zM1477 1194q0 71 -40.5 111t-111.5 40h-985q-71 0 -111.5 -40t-40.5 -111v-998q0 -71 40.5 -111.5t111.5 -40.5h985q71 0 111.5 40.5t40.5 111.5v998z" />
    <glyph glyph-name="nine.whitesquare" unicode="&#x39;&#x20de;"
d="M589 839q0 102 68.5 166t174.5 64q114 0 182.5 -79t68.5 -241q0 -192 -68 -290.5t-196 -98.5q-81 0 -140.5 43t-71.5 104h64q13 -40 54.5 -66t94.5 -26q97 0 149.5 85.5t51.5 237.5h-4q-25 -58 -77.5 -91t-126.5 -33q-95 0 -159.5 64t-64.5 161zM1006 840q0 76 -51 125
t-125 49q-76 0 -126 -48t-50 -124q0 -77 49 -125.5t126 -48.5q76 0 126.5 48.5t50.5 123.5zM337 1406h992q94 0 153.5 -59.5t59.5 -152.5v-999q0 -93 -59.5 -152t-153.5 -59h-992q-94 0 -154 59t-60 152v999q0 93 60 152.5t154 59.5zM1477 1194q0 71 -40.5 111t-111.5 40
h-985q-71 0 -111.5 -40t-40.5 -111v-998q0 -71 40.5 -111.5t111.5 -40.5h985q71 0 111.5 40.5t40.5 111.5v998z" />
    <glyph glyph-name="plus.uc.whitesquare" unicode="&#x2b;&#x20de;"
d="M862 678v-232h-59v232h-221v56h221v222h59v-222h222v-56h-222zM337 1406h992q94 0 153.5 -59.5t59.5 -152.5v-999q0 -93 -59.5 -152t-153.5 -59h-992q-94 0 -154 59t-60 152v999q0 93 60 152.5t154 59.5zM1477 1194q0 71 -40.5 111t-111.5 40h-985q-71 0 -111.5 -40
t-40.5 -111v-998q0 -71 40.5 -111.5t111.5 -40.5h985q71 0 111.5 40.5t40.5 111.5v998z" />
    <glyph glyph-name="minus.uc.whitesquare" unicode="&#x2212;&#x20de;"
d="M1069 677h-472v56h472v-56zM337 1406h992q94 0 153.5 -59.5t59.5 -152.5v-999q0 -93 -59.5 -152t-153.5 -59h-992q-94 0 -154 59t-60 152v999q0 93 60 152.5t154 59.5zM1477 1194q0 71 -40.5 111t-111.5 40h-985q-71 0 -111.5 -40t-40.5 -111v-998q0 -71 40.5 -111.5
t111.5 -40.5h985q71 0 111.5 40.5t40.5 111.5v998z" />
    <glyph glyph-name="multiply.uc.whitesquare" unicode="&#xd7;&#x20de;"
d="M836 744l161 159l41 -40l-161 -159l161 -159l-41 -39l-161 158l-167 -165l-42 40l168 166l-160 158l40 40zM337 1406h992q94 0 153.5 -59.5t59.5 -152.5v-999q0 -93 -59.5 -152t-153.5 -59h-992q-94 0 -154 59t-60 152v999q0 93 60 152.5t154 59.5zM1477 1194
q0 71 -40.5 111t-111.5 40h-985q-71 0 -111.5 -40t-40.5 -111v-998q0 -71 40.5 -111.5t111.5 -40.5h985q71 0 111.5 40.5t40.5 111.5v998z" />
    <glyph glyph-name="divide.uc.whitesquare" unicode="&#xf7;&#x20de;"
d="M1069 679h-472v53h472v-53zM779 894q0 22 15.5 37.5t38.5 15.5t39 -15.5t16 -37.5t-16 -37t-39 -15t-38.5 15t-15.5 37zM779 516q0 22 15.5 38t38.5 16t39 -15.5t16 -37.5t-16 -37t-39 -15t-38.5 14.5t-15.5 36.5zM337 1406h992q94 0 153.5 -59.5t59.5 -152.5v-999
q0 -93 -59.5 -152t-153.5 -59h-992q-94 0 -154 59t-60 152v999q0 93 60 152.5t154 59.5zM1477 1194q0 71 -40.5 111t-111.5 40h-985q-71 0 -111.5 -40t-40.5 -111v-998q0 -71 40.5 -111.5t111.5 -40.5h985q71 0 111.5 40.5t40.5 111.5v998z" />
    <glyph glyph-name="equal.uc.whitesquare" unicode="&#x3d;&#x20de;"
d="M1065 581h-464v54h464v-54zM1065 775h-464v54h464v-54zM337 1406h992q94 0 153.5 -59.5t59.5 -152.5v-999q0 -93 -59.5 -152t-153.5 -59h-992q-94 0 -154 59t-60 152v999q0 93 60 152.5t154 59.5zM1477 1194q0 71 -40.5 111t-111.5 40h-985q-71 0 -111.5 -40t-40.5 -111
v-998q0 -71 40.5 -111.5t111.5 -40.5h985q71 0 111.5 40.5t40.5 111.5v998z" />
    <glyph glyph-name="greater.uc.whitesquare" unicode="&#x3e;&#x20de;"
d="M1078 721v-57l-438 -262v72l366 217v5l-366 219v72zM337 1406h992q94 0 153.5 -59.5t59.5 -152.5v-999q0 -93 -59.5 -152t-153.5 -59h-992q-94 0 -154 59t-60 152v999q0 93 60 152.5t154 59.5zM1477 1194q0 71 -40.5 111t-111.5 40h-985q-71 0 -111.5 -40t-40.5 -111
v-998q0 -71 40.5 -111.5t111.5 -40.5h985q71 0 111.5 40.5t40.5 111.5v998z" />
    <glyph glyph-name="less.uc.whitesquare" unicode="&#x3c;&#x20de;"
d="M589 664v57l437 266v-72l-366 -219v-5l366 -217v-72zM337 1406h992q94 0 153.5 -59.5t59.5 -152.5v-999q0 -93 -59.5 -152t-153.5 -59h-992q-94 0 -154 59t-60 152v999q0 93 60 152.5t154 59.5zM1477 1194q0 71 -40.5 111t-111.5 40h-985q-71 0 -111.5 -40t-40.5 -111
v-998q0 -71 40.5 -111.5t111.5 -40.5h985q71 0 111.5 40.5t40.5 111.5v998z" />
    <glyph glyph-name="numbersign.whitesquare" unicode="&#x23;&#x20de;"
d="M1105 806h-117l-38 -177h112l-11 -52h-112l-43 -205h-59l43 205h-164l-42 -205h-60l43 205h-119l11 52h120l37 177h-114l11 53h115l41 197h59l-42 -197h164l41 197h59l-41 -197h117zM764 807l-38 -181h167l38 181h-167zM337 1406h992q94 0 153.5 -59.5t59.5 -152.5v-999
q0 -93 -59.5 -152t-153.5 -59h-992q-94 0 -154 59t-60 152v999q0 93 60 152.5t154 59.5zM1477 1194q0 71 -40.5 111t-111.5 40h-985q-71 0 -111.5 -40t-40.5 -111v-998q0 -71 40.5 -111.5t111.5 -40.5h985q71 0 111.5 40.5t40.5 111.5v998z" />
    <glyph glyph-name="uni25BC.whitesquare" unicode="&#x25bc;&#x20de;"
d="M1097 877l-264 -430l-264 430h528zM337 1406h992q94 0 153.5 -59.5t59.5 -152.5v-999q0 -93 -59.5 -152t-153.5 -59h-992q-94 0 -154 59t-60 152v999q0 93 60 152.5t154 59.5zM1477 1194q0 71 -40.5 111t-111.5 40h-985q-71 0 -111.5 -40t-40.5 -111v-998
q0 -71 40.5 -111.5t111.5 -40.5h985q71 0 111.5 40.5t40.5 111.5v998z" />
    <glyph glyph-name="uni25B2.whitesquare" unicode="&#x25b2;&#x20de;"
d="M1096 522h-527l264 430zM337 1406h992q94 0 153.5 -59.5t59.5 -152.5v-999q0 -93 -59.5 -152t-153.5 -59h-992q-94 0 -154 59t-60 152v999q0 93 60 152.5t154 59.5zM1477 1194q0 71 -40.5 111t-111.5 40h-985q-71 0 -111.5 -40t-40.5 -111v-998q0 -71 40.5 -111.5
t111.5 -40.5h985q71 0 111.5 40.5t40.5 111.5v998z" />
    <glyph glyph-name="uni25C0.whitesquare" unicode="&#x25c0;&#x20de;"
d="M998 437l-428 263l428 264v-527zM337 1406h992q94 0 153.5 -59.5t59.5 -152.5v-999q0 -93 -59.5 -152t-153.5 -59h-992q-94 0 -154 59t-60 152v999q0 93 60 152.5t154 59.5zM1477 1194q0 71 -40.5 111t-111.5 40h-985q-71 0 -111.5 -40t-40.5 -111v-998
q0 -71 40.5 -111.5t111.5 -40.5h985q71 0 111.5 40.5t40.5 111.5v998z" />
    <glyph glyph-name="uni25B6.whitesquare" unicode="&#x25b6;&#x20de;"
d="M668 437v527l428 -264zM337 1406h992q94 0 153.5 -59.5t59.5 -152.5v-999q0 -93 -59.5 -152t-153.5 -59h-992q-94 0 -154 59t-60 152v999q0 93 60 152.5t154 59.5zM1477 1194q0 71 -40.5 111t-111.5 40h-985q-71 0 -111.5 -40t-40.5 -111v-998q0 -71 40.5 -111.5
t111.5 -40.5h985q71 0 111.5 40.5t40.5 111.5v998z" />
    <glyph glyph-name="question.whitesquare" unicode="&#x3f;&#x20de;"
d="M762 424q0 23 17.5 39.5t42.5 16.5t42.5 -16.5t17.5 -39.5t-17.5 -39.5t-42.5 -16.5q-26 0 -43 16t-17 40zM624 886q0 84 59.5 135.5t151.5 51.5q89 0 147.5 -46t58.5 -119q0 -53 -25.5 -90t-82.5 -78q-49 -34 -66.5 -58.5t-17.5 -62.5v-37h-61v40q-1 48 20.5 82t70.5 68
q53 37 74.5 65.5t21.5 66.5q0 52 -39.5 83t-103.5 31t-103.5 -38t-41.5 -94h-63zM337 1406h992q94 0 153.5 -59.5t59.5 -152.5v-999q0 -93 -59.5 -152t-153.5 -59h-992q-94 0 -154 59t-60 152v999q0 93 60 152.5t154 59.5zM1477 1194q0 71 -40.5 111t-111.5 40h-985
q-71 0 -111.5 -40t-40.5 -111v-998q0 -71 40.5 -111.5t111.5 -40.5h985q71 0 111.5 40.5t40.5 111.5v998z" />
    <glyph glyph-name="exclam.whitesquare" unicode="&#x21;&#x20de;"
d="M773 424q0 23 17.5 39.5t42.5 16.5t42.5 -16.5t17.5 -39.5t-17.5 -39.5t-42.5 -16.5q-26 0 -43 16t-17 40zM800 1057h66l-4 -457h-58zM337 1406h992q94 0 153.5 -59.5t59.5 -152.5v-999q0 -93 -59.5 -152t-153.5 -59h-992q-94 0 -154 59t-60 152v999q0 93 60 152.5
t154 59.5zM1477 1194q0 71 -40.5 111t-111.5 40h-985q-71 0 -111.5 -40t-40.5 -111v-998q0 -71 40.5 -111.5t111.5 -40.5h985q71 0 111.5 40.5t40.5 111.5v998z" />
    <glyph glyph-name="uni2717.whitesquare" unicode="&#x2717;&#x20de;"
d="M834 751l275 276l46 -45l-276 -276l276 -276l-46 -45l-275 275l-276 -275l-45 45l275 276l-275 276l45 45zM337 1406h992q94 0 153.5 -59.5t59.5 -152.5v-999q0 -93 -59.5 -152t-153.5 -59h-992q-94 0 -154 59t-60 152v999q0 93 60 152.5t154 59.5zM1477 1194
q0 71 -40.5 111t-111.5 40h-985q-71 0 -111.5 -40t-40.5 -111v-998q0 -71 40.5 -111.5t111.5 -40.5h985q71 0 111.5 40.5t40.5 111.5v998z" />
    <glyph glyph-name="uni2713.whitesquare" unicode="&#x2713;&#x20de;"
d="M1244 954l-533 -535l-278 281l47 47l230 -235l487 490zM337 1406h992q94 0 153.5 -59.5t59.5 -152.5v-999q0 -93 -59.5 -152t-153.5 -59h-992q-94 0 -154 59t-60 152v999q0 93 60 152.5t154 59.5zM1477 1194q0 71 -40.5 111t-111.5 40h-985q-71 0 -111.5 -40t-40.5 -111
v-998q0 -71 40.5 -111.5t111.5 -40.5h985q71 0 111.5 40.5t40.5 111.5v998z" />
    <glyph glyph-name="plus.uc.blackcircle" unicode="&#x2b;&#x20dd;&#x25cf;"
d="M869 673h234v69h-234v233h-72v-233h-234v-69h234v-246h72v246zM833 -41q-148 0 -283.5 58t-234 156.5t-156.5 234t-58 283.5t58 283.5t156.5 233.5t234 156.5t283.5 58.5t283.5 -58.5t233.5 -156.5t156.5 -233.5t58.5 -283.5t-58.5 -283.5t-156.5 -234t-233.5 -156.5
t-283.5 -58z" />
    <glyph glyph-name="minus.uc.blackcircle" unicode="&#x2212;&#x20dd;&#x25cf;"
d="M1087 671v69h-508v-69h508zM833 -41q-148 0 -283.5 58t-234 156.5t-156.5 234t-58 283.5t58 283.5t156.5 233.5t234 156.5t283.5 58.5t283.5 -58.5t233.5 -156.5t156.5 -233.5t58.5 -283.5t-58.5 -283.5t-156.5 -234t-233.5 -156.5t-283.5 -58z" />
    <glyph glyph-name="multiply.uc.blackcircle" unicode="&#xd7;&#x20dd;&#x25cf;"
d="M828 748l-169 166l-53 -51l169 -167l-169 -166l53 -52l169 166l168 -166l53 52l-168 166l168 167l-53 51zM833 -41q-148 0 -283.5 58t-234 156.5t-156.5 234t-58 283.5t58 283.5t156.5 233.5t234 156.5t283.5 58.5t283.5 -58.5t233.5 -156.5t156.5 -233.5t58.5 -283.5
t-58.5 -283.5t-156.5 -234t-233.5 -156.5t-283.5 -58z" />
    <glyph glyph-name="divide.uc.blackcircle" unicode="&#xf7;&#x20dd;&#x25cf;"
d="M769 909q0 -26 18.5 -43t45.5 -17t46 17.5t19 43.5t-19.5 44.5t-45.5 18.5t-45 -19t-19 -45zM1087 673v65h-508v-65h508zM769 501q0 -27 18.5 -44t45.5 -17t46 18t19 44t-19 44t-46 18q-26 0 -45 -18.5t-19 -44.5zM833 -41q-148 0 -283.5 58t-234 156.5t-156.5 234
t-58 283.5t58 283.5t156.5 233.5t234 156.5t283.5 58.5t283.5 -58.5t233.5 -156.5t156.5 -233.5t58.5 -283.5t-58.5 -283.5t-156.5 -234t-233.5 -156.5t-283.5 -58z" />
    <glyph glyph-name="equal.uc.blackcircle" unicode="&#x3d;&#x20dd;&#x25cf;"
d="M1083 775v67h-499v-67h499zM1083 568v67h-499v-67h499zM833 -41q-148 0 -283.5 58t-234 156.5t-156.5 234t-58 283.5t58 283.5t156.5 233.5t234 156.5t283.5 58.5t283.5 -58.5t233.5 -156.5t156.5 -233.5t58.5 -283.5t-58.5 -283.5t-156.5 -234t-233.5 -156.5t-283.5 -58
z" />
    <glyph glyph-name="greater.uc.blackcircle" unicode="&#x3e;&#x20dd;&#x25cf;"
d="M1093 728l-471 285v-84l392 -234v-3l-392 -231v-85l471 281v71zM833 -41q-148 0 -283.5 58t-234 156.5t-156.5 234t-58 283.5t58 283.5t156.5 233.5t234 156.5t283.5 58.5t283.5 -58.5t233.5 -156.5t156.5 -233.5t58.5 -283.5t-58.5 -283.5t-156.5 -234t-233.5 -156.5
t-283.5 -58z" />
    <glyph glyph-name="less.uc.blackcircle" unicode="&#x3c;&#x20dd;&#x25cf;"
d="M571 657l471 -281v85l-391 231v3l391 234v84l-471 -285v-71zM833 -41q-148 0 -283.5 58t-234 156.5t-156.5 234t-58 283.5t58 283.5t156.5 233.5t234 156.5t283.5 58.5t283.5 -58.5t233.5 -156.5t156.5 -233.5t58.5 -283.5t-58.5 -283.5t-156.5 -234t-233.5 -156.5
t-283.5 -58z" />
    <glyph glyph-name="numbersign.blackcircle" unicode="&#x23;&#x20dd;&#x25cf;"
d="M763 810h170l-39 -185h-170zM1125 809l12 64h-121l43 208h-71l-44 -208h-165l43 208h-71l-44 -208h-122l-13 -64h121l-38 -181h-128l-12 -65h125l-45 -215h72l46 215h165l-45 -215h72l45 215h116l13 65h-115l38 181h123zM833 -41q-148 0 -283.5 58t-234 156.5t-156.5 234
t-58 283.5t58 283.5t156.5 233.5t234 156.5t283.5 58.5t283.5 -58.5t233.5 -156.5t156.5 -233.5t58.5 -283.5t-58.5 -283.5t-156.5 -234t-233.5 -156.5t-283.5 -58z" />
    <glyph glyph-name="uni25BC.blackcircle" unicode="&#x25bc;&#x20dd;&#x25cf;"
d="M1116 896h-566l283 -463zM833 -41q-148 0 -283.5 58t-234 156.5t-156.5 234t-58 283.5t58 283.5t156.5 233.5t234 156.5t283.5 58.5t283.5 -58.5t233.5 -156.5t156.5 -233.5t58.5 -283.5t-58.5 -283.5t-156.5 -234t-233.5 -156.5t-283.5 -58z" />
    <glyph glyph-name="uni25B2.blackcircle" unicode="&#x25b2;&#x20dd;&#x25cf;"
d="M1116 507l-283 463l-283 -463h566zM833 -41q-148 0 -283.5 58t-234 156.5t-156.5 234t-58 283.5t58 283.5t156.5 233.5t234 156.5t283.5 58.5t283.5 -58.5t233.5 -156.5t156.5 -233.5t58.5 -283.5t-58.5 -283.5t-156.5 -234t-233.5 -156.5t-283.5 -58z" />
    <glyph glyph-name="uni25C0.blackcircle" unicode="&#x25c0;&#x20dd;&#x25cf;"
d="M1015 419v567l-462 -284zM833 -41q-148 0 -283.5 58t-234 156.5t-156.5 234t-58 283.5t58 283.5t156.5 233.5t234 156.5t283.5 58.5t283.5 -58.5t233.5 -156.5t156.5 -233.5t58.5 -283.5t-58.5 -283.5t-156.5 -234t-233.5 -156.5t-283.5 -58z" />
    <glyph glyph-name="uni25B6.blackcircle" unicode="&#x25b6;&#x20dd;&#x25cf;"
d="M651 419l462 283l-462 284v-567zM833 -41q-148 0 -283.5 58t-234 156.5t-156.5 234t-58 283.5t58 283.5t156.5 233.5t234 156.5t283.5 58.5t283.5 -58.5t233.5 -156.5t156.5 -233.5t58.5 -283.5t-58.5 -283.5t-156.5 -234t-233.5 -156.5t-283.5 -58z" />
    <glyph glyph-name="question.blackcircle" unicode="&#x3f;&#x20dd;&#x25cf;"
d="M751 404q0 -28 20 -47t49 -19t49.5 19.5t20.5 46.5q0 28 -20.5 47t-49.5 19t-49 -19t-20 -47zM778 572h74v41q0 40 18 66t69 61q62 44 89.5 84.5t27.5 97.5q0 77 -64.5 127t-157.5 50q-98 0 -162 -54t-65 -147v-2h75q4 62 43.5 98.5t105.5 36.5q63 0 104.5 -31t41.5 -82
q0 -39 -22.5 -69t-77.5 -69q-55 -37 -77.5 -72.5t-21.5 -87.5v-48zM833 -41q-148 0 -283.5 58t-234 156.5t-156.5 234t-58 283.5t58 283.5t156.5 233.5t234 156.5t283.5 58.5t283.5 -58.5t233.5 -156.5t156.5 -233.5t58.5 -283.5t-58.5 -283.5t-156.5 -234t-233.5 -156.5
t-283.5 -58z" />
    <glyph glyph-name="exclam.blackcircle" unicode="&#x21;&#x20dd;&#x25cf;"
d="M792 1081l4 -490h73l5 490h-82zM763 404q0 -28 20 -46.5t49 -18.5t49.5 19.5t20.5 45.5q0 28 -20.5 47t-49.5 19t-49 -19t-20 -47zM833 -41q-148 0 -283.5 58t-234 156.5t-156.5 234t-58 283.5t58 283.5t156.5 233.5t234 156.5t283.5 58.5t283.5 -58.5t233.5 -156.5
t156.5 -233.5t58.5 -283.5t-58.5 -283.5t-156.5 -234t-233.5 -156.5t-283.5 -58z" />
    <glyph glyph-name="uni2717.blackcircle" unicode="&#x2717;&#x20dd;&#x25cf;"
d="M834 759l-293 294l-53 -53l293 -293l-293 -293l53 -53l293 292l293 -292l52 53l-292 293l292 292l-52 53zM833 -41q-148 0 -283.5 58t-234 156.5t-156.5 234t-58 283.5t58 283.5t156.5 233.5t234 156.5t283.5 58.5t283.5 -58.5t233.5 -156.5t156.5 -233.5t58.5 -283.5
t-58.5 -283.5t-156.5 -234t-233.5 -156.5t-283.5 -58z" />
    <glyph glyph-name="uni2713.blackcircle" unicode="&#x2713;&#x20dd;&#x25cf;"
d="M701 399l572 573l-52 59l-520 -524l-241 247l-56 -55zM833 -41q-148 0 -283.5 58t-234 156.5t-156.5 234t-58 283.5t58 283.5t156.5 233.5t234 156.5t283.5 58.5t283.5 -58.5t233.5 -156.5t156.5 -233.5t58.5 -283.5t-58.5 -283.5t-156.5 -234t-233.5 -156.5t-283.5 -58z
" />
    <glyph glyph-name="zero.blacksquare" unicode="&#x30;&#x20de;&#x25a0;"
d="M832 394q-85 0 -136 85.5t-51 225.5q0 141 51 226.5t136 85.5t136 -85.5t51 -226.5q0 -140 -51 -225.5t-136 -85.5zM832 324q120 0 193.5 104t73.5 277t-73.5 277.5t-193.5 104.5q-121 0 -194.5 -104t-73.5 -278q0 -173 73.5 -277t194.5 -104zM337 1406h992
q94 0 153.5 -59.5t59.5 -152.5v-999q0 -93 -59.5 -152t-153.5 -59h-992q-94 0 -154 59t-60 152v999q0 93 60 152.5t154 59.5z" />
    <glyph glyph-name="one.blacksquare" unicode="&#x31;&#x20de;&#x25a0;"
d="M903 349v732h-78l-189 -127v-79l185 124h3v-650h79zM337 1406h992q94 0 153.5 -59.5t59.5 -152.5v-999q0 -93 -59.5 -152t-153.5 -59h-992q-94 0 -154 59t-60 152v999q0 93 60 152.5t154 59.5z" />
    <glyph glyph-name="two.blacksquare" unicode="&#x32;&#x20de;&#x25a0;"
d="M670 881v4q2 63 46.5 103.5t113.5 40.5q64 0 108 -36.5t44 -97.5q0 -43 -19.5 -81t-65.5 -89l-295 -322v-55h481v69h-369v4l233 254q64 70 89.5 118.5t25.5 103.5q0 88 -65.5 143.5t-166.5 55.5q-106 0 -171 -61t-67 -150v-4h78zM337 1406h992q94 0 153.5 -59.5
t59.5 -152.5v-999q0 -93 -59.5 -152t-153.5 -59h-992q-94 0 -154 59t-60 152v999q0 93 60 152.5t154 59.5z" />
    <glyph glyph-name="three.blacksquare" unicode="&#x33;&#x20de;&#x25a0;"
d="M750 694h93q73 0 122 -41t49 -103q0 -68 -50 -108.5t-132 -40.5q-70 1 -119 36.5t-57 84.5h-75q7 -82 76.5 -135t174.5 -53q113 0 188 60t74 155q-1 74 -49 123.5t-115 57.5v3q57 13 97.5 61t40.5 116q-1 79 -67.5 133t-168.5 54q-98 0 -162 -51t-72 -132h76q9 51 52 83
t105 32q71 0 114.5 -36.5t43.5 -92.5q0 -60 -42.5 -99t-108.5 -39h-88v-68zM337 1406h992q94 0 153.5 -59.5t59.5 -152.5v-999q0 -93 -59.5 -152t-153.5 -59h-992q-94 0 -154 59t-60 152v999q0 93 60 152.5t154 59.5z" />
    <glyph glyph-name="four.blacksquare" unicode="&#x34;&#x20de;&#x25a0;"
d="M864 1081q-263 -392 -326 -499v-70h366v-163h77v163h110v68h-110v501h-117zM621 580v4q101 169 280 428h3v-432h-283zM337 1406h992q94 0 153.5 -59.5t59.5 -152.5v-999q0 -93 -59.5 -152t-153.5 -59h-992q-94 0 -154 59t-60 152v999q0 93 60 152.5t154 59.5z" />
    <glyph glyph-name="five.blacksquare" unicode="&#x35;&#x20de;&#x25a0;"
d="M581 521q6 -78 76.5 -132t167.5 -54q117 0 190.5 69t73.5 181q0 104 -68.5 171t-172.5 67q-55 0 -100 -22t-69 -57h-3q1 9 11 135.5t11 135.5h350v68h-418l-33 -416h73q66 89 165 89q76 0 125.5 -48.5t49.5 -124.5q0 -79 -52 -129.5t-128 -50.5q-62 0 -112.5 33.5
t-60.5 84.5h-76zM337 1406h992q94 0 153.5 -59.5t59.5 -152.5v-999q0 -93 -59.5 -152t-153.5 -59h-992q-94 0 -154 59t-60 152v999q0 93 60 152.5t154 59.5z" />
    <glyph glyph-name="six.blacksquare" unicode="&#x36;&#x20de;&#x25a0;"
d="M1094 585q0 102 -70 169t-169 67q-150 0 -214 -131l-3 -1v7q0 153 56 241.5t150 88.5q54 0 97 -27t58 -66h77q-12 65 -77 113.5t-152 48.5q-133 0 -208.5 -106t-75.5 -297q0 -179 69 -264q69 -94 202 -94q114 0 187 70t73 181zM654 580q0 76 51 124.5t131 48.5
q77 0 128.5 -48.5t51.5 -125.5q0 -79 -51 -128t-130 -49q-76 0 -128.5 50.5t-52.5 127.5zM337 1406h992q94 0 153.5 -59.5t59.5 -152.5v-999q0 -93 -59.5 -152t-153.5 -59h-992q-94 0 -154 59t-60 152v999q0 93 60 152.5t154 59.5z" />
    <glyph glyph-name="seven.blacksquare" unicode="&#x37;&#x20de;&#x25a0;"
d="M596 1081v-69h399v-3l-322 -660h88l318 663v69h-483zM337 1406h992q94 0 153.5 -59.5t59.5 -152.5v-999q0 -93 -59.5 -152t-153.5 -59h-992q-94 0 -154 59t-60 152v999q0 93 60 152.5t154 59.5z" />
    <glyph glyph-name="eight.blacksquare" unicode="&#x38;&#x20de;&#x25a0;"
d="M833 765q-70 0 -116 38t-46 96t45.5 95t116.5 37t116.5 -37t45.5 -95t-46 -96t-116 -38zM833 400q-82 0 -136 43.5t-54 110.5q0 65 54 107t136 42t136 -42t54 -107q0 -67 -53.5 -110.5t-136.5 -43.5zM833 334q118 0 193.5 61t75.5 156q0 66 -44 117.5t-114 66.5v2
q59 18 94 63.5t35 103.5q0 85 -67.5 139t-172.5 54t-172 -54t-67 -139q0 -58 34.5 -103t93.5 -64v-2q-69 -15 -113.5 -66.5t-44.5 -117.5q0 -95 75.5 -156t193.5 -61zM337 1406h992q94 0 153.5 -59.5t59.5 -152.5v-999q0 -93 -59.5 -152t-153.5 -59h-992q-94 0 -154 59
t-60 152v999q0 93 60 152.5t154 59.5z" />
    <glyph glyph-name="nine.blacksquare" unicode="&#x39;&#x20de;&#x25a0;"
d="M560 848q0 -104 69.5 -172.5t170.5 -68.5q149 0 214 130h2q1 -155 -54 -244.5t-152 -89.5q-53 0 -95.5 26.5t-57.5 64.5h-78q13 -66 77.5 -112.5t151.5 -46.5q136 0 210 104.5t74 294.5q0 185 -73.5 273t-197.5 88q-115 0 -188 -68.5t-73 -178.5zM1000 849
q0 -77 -52.5 -125.5t-130.5 -48.5q-77 0 -127.5 49.5t-50.5 127.5t51 126.5t130 48.5q76 0 128 -50.5t52 -127.5zM337 1406h992q94 0 153.5 -59.5t59.5 -152.5v-999q0 -93 -59.5 -152t-153.5 -59h-992q-94 0 -154 59t-60 152v999q0 93 60 152.5t154 59.5z" />
    <glyph glyph-name="plus.uc.blacksquare" unicode="&#x2b;&#x20de;&#x25a0;"
d="M869 673h234v69h-234v233h-72v-233h-234v-69h234v-246h72v246zM337 1406h992q94 0 153.5 -59.5t59.5 -152.5v-999q0 -93 -59.5 -152t-153.5 -59h-992q-94 0 -154 59t-60 152v999q0 93 60 152.5t154 59.5z" />
    <glyph glyph-name="minus.uc.blacksquare" unicode="&#x2212;&#x20de;&#x25a0;"
d="M1087 671v69h-508v-69h508zM337 1406h992q94 0 153.5 -59.5t59.5 -152.5v-999q0 -93 -59.5 -152t-153.5 -59h-992q-94 0 -154 59t-60 152v999q0 93 60 152.5t154 59.5z" />
    <glyph glyph-name="multiply.uc.blacksquare" unicode="&#xd7;&#x20de;&#x25a0;"
d="M828 748l-169 166l-53 -51l169 -167l-169 -166l53 -52l169 166l168 -166l53 52l-168 166l168 167l-53 51zM337 1406h992q94 0 153.5 -59.5t59.5 -152.5v-999q0 -93 -59.5 -152t-153.5 -59h-992q-94 0 -154 59t-60 152v999q0 93 60 152.5t154 59.5z" />
    <glyph glyph-name="divide.uc.blacksquare" unicode="&#xf7;&#x20de;&#x25a0;"
d="M769 909q0 -26 18.5 -43t45.5 -17t46 17.5t19 43.5t-19.5 44.5t-45.5 18.5t-45 -19t-19 -45zM1087 673v65h-508v-65h508zM769 501q0 -27 18.5 -44t45.5 -17t46 18t19 44t-19 44t-46 18q-26 0 -45 -18.5t-19 -44.5zM337 1406h992q94 0 153.5 -59.5t59.5 -152.5v-999
q0 -93 -59.5 -152t-153.5 -59h-992q-94 0 -154 59t-60 152v999q0 93 60 152.5t154 59.5z" />
    <glyph glyph-name="equal.uc.blacksquare" unicode="&#x3d;&#x20de;&#x25a0;"
d="M1083 775v67h-499v-67h499zM1083 568v67h-499v-67h499zM337 1406h992q94 0 153.5 -59.5t59.5 -152.5v-999q0 -93 -59.5 -152t-153.5 -59h-992q-94 0 -154 59t-60 152v999q0 93 60 152.5t154 59.5z" />
    <glyph glyph-name="greater.uc.blacksquare" unicode="&#x3e;&#x20de;&#x25a0;"
d="M1093 728l-471 285v-84l392 -234v-3l-392 -231v-85l471 281v71zM337 1406h992q94 0 153.5 -59.5t59.5 -152.5v-999q0 -93 -59.5 -152t-153.5 -59h-992q-94 0 -154 59t-60 152v999q0 93 60 152.5t154 59.5z" />
    <glyph glyph-name="less.uc.blacksquare" unicode="&#x3c;&#x20de;&#x25a0;"
d="M571 657l471 -281v85q-18 9 -196.5 116t-194.5 115v3l391 234v84l-471 -285v-71zM337 1406h992q94 0 153.5 -59.5t59.5 -152.5v-999q0 -93 -59.5 -152t-153.5 -59h-992q-94 0 -154 59t-60 152v999q0 93 60 152.5t154 59.5z" />
    <glyph glyph-name="numbersign.blacksquare" unicode="&#x23;&#x20de;&#x25a0;"
d="M763 810h170l-39 -185h-170zM1125 809l12 64h-121l43 208h-71l-44 -208h-165l43 208h-71l-44 -208h-122l-13 -64h121l-38 -181h-128l-12 -65h125l-45 -215h72l46 215h165l-45 -215h72l45 215h116l13 65h-115l38 181h123zM337 1406h992q94 0 153.5 -59.5t59.5 -152.5v-999
q0 -93 -59.5 -152t-153.5 -59h-992q-94 0 -154 59t-60 152v999q0 93 60 152.5t154 59.5z" />
    <glyph glyph-name="uni25BC.blacksquare" unicode="&#x25bc;&#x20de;&#x25a0;"
d="M1116 894h-566l283 -463zM337 1406h992q94 0 153.5 -59.5t59.5 -152.5v-999q0 -93 -59.5 -152t-153.5 -59h-992q-94 0 -154 59t-60 152v999q0 93 60 152.5t154 59.5z" />
    <glyph glyph-name="uni25B2.blacksquare" unicode="&#x25b2;&#x20de;&#x25a0;"
d="M1116 507l-283 463l-283 -463h566zM337 1406h992q94 0 153.5 -59.5t59.5 -152.5v-999q0 -93 -59.5 -152t-153.5 -59h-992q-94 0 -154 59t-60 152v999q0 93 60 152.5t154 59.5z" />
    <glyph glyph-name="uni25C0.blacksquare" unicode="&#x25c0;&#x20de;&#x25a0;"
d="M1015 419v567l-462 -284zM337 1406h992q94 0 153.5 -59.5t59.5 -152.5v-999q0 -93 -59.5 -152t-153.5 -59h-992q-94 0 -154 59t-60 152v999q0 93 60 152.5t154 59.5z" />
    <glyph glyph-name="uni25B6.blacksquare" unicode="&#x25b6;&#x20de;&#x25a0;"
d="M651 419l462 283l-462 284v-567zM337 1406h992q94 0 153.5 -59.5t59.5 -152.5v-999q0 -93 -59.5 -152t-153.5 -59h-992q-94 0 -154 59t-60 152v999q0 93 60 152.5t154 59.5z" />
    <glyph glyph-name="question.blacksquare" unicode="&#x3f;&#x20de;&#x25a0;"
d="M751 404q0 -28 20 -47t49 -19t49.5 19.5t20.5 46.5q0 28 -20.5 47t-49.5 19t-49 -19t-20 -47zM834 1099q-98 0 -162 -54t-65 -147v-2h75q4 62 43.5 98.5t105.5 36.5q63 0 104.5 -31t41.5 -82q0 -39 -22.5 -69t-77.5 -69q-55 -37 -77.5 -72.5t-21.5 -87.5v-48h74v41
q0 40 18 66t69 61q62 44 89.5 84.5t27.5 97.5q0 77 -64.5 127t-157.5 50zM337 1406h992q94 0 153.5 -59.5t59.5 -152.5v-999q0 -93 -59.5 -152t-153.5 -59h-992q-94 0 -154 59t-60 152v999q0 93 60 152.5t154 59.5z" />
    <glyph glyph-name="exclam.blacksquare" unicode="&#x21;&#x20de;&#x25a0;"
d="M792 1081l4 -490h73l5 490h-82zM763 404q0 -28 20 -46.5t49 -18.5t49.5 19.5t20.5 45.5q0 28 -20.5 47t-49.5 19t-49 -19t-20 -47zM337 1406h992q94 0 153.5 -59.5t59.5 -152.5v-999q0 -93 -59.5 -152t-153.5 -59h-992q-94 0 -154 59t-60 152v999q0 93 60 152.5t154 59.5
z" />
    <glyph glyph-name="uni2717.blacksquare" unicode="&#x2717;&#x20de;&#x25a0;"
d="M488 1000l293 -293l-293 -293l53 -53l293 292l293 -292l52 53l-292 293l292 292l-52 53l-293 -293l-293 294zM337 1406h992q94 0 153.5 -59.5t59.5 -152.5v-999q0 -93 -59.5 -152t-153.5 -59h-992q-94 0 -154 59t-60 152v999q0 93 60 152.5t154 59.5z" />
    <glyph glyph-name="uni2713.blacksquare" unicode="&#x2713;&#x20de;&#x25a0;"
d="M701 399l572 573l-52 59l-520 -524l-241 247l-56 -55zM337 1406h992q94 0 153.5 -59.5t59.5 -152.5v-999q0 -93 -59.5 -152t-153.5 -59h-992q-94 0 -154 59t-60 152v999q0 93 60 152.5t154 59.5z" />
    <glyph glyph-name=".notdef" horiz-adv-x="2048"
d="M100 -494v339h1848v-339h-1848zM100 -73v339h1848v-339h-1848zM100 348v339h1848v-339h-1848zM100 769v339h1848v-339h-1848zM100 1190v339h1848v-339h-1848zM100 1611v339h1848v-339h-1848z" />
    <glyph glyph-name=".null" horiz-adv-x="0"
 />
    <glyph glyph-name="nonmarkingreturn" horiz-adv-x="0"
 />
    <glyph glyph-name="space" unicode=" " horiz-adv-x="417"
 />
    <glyph glyph-name="exclam" unicode="!" horiz-adv-x="510"
d="M214 1443h82l-3 -1017h-76zM255 -8q-28 0 -47 19.5t-19 47.5t19 47t47 19t47 -19t19 -47t-19 -47.5t-47 -19.5z" />
    <glyph glyph-name="quotedbl" unicode="&#x22;" horiz-adv-x="564"
d="M181 984h-74v459h74v-459zM457 984h-73v459h73v-459z" />
    <glyph glyph-name="numbersign" unicode="#" horiz-adv-x="1231"
d="M656 0l91 440h-403l-91 -440h-70l92 440h-267l13 67h268l87 436h-276l14 67h275l91 438h70l-91 -438h403l92 438h69l-91 -438h291l-14 -67h-290l-87 -436h298l-14 -67h-298l-92 -440h-70zM358 507h404l87 436h-404z" />
    <glyph glyph-name="dollar" unicode="$" horiz-adv-x="1192"
d="M627 -167h-64v151q-203 8 -338 121.5t-139 279.5h77q8 -133 122 -227t278 -102v656l-22 6q-226 55 -322.5 139.5t-96.5 227.5q0 158 123 263t318 114v135h64v-135q185 -9 311 -113.5t131 -252.5h-77q-5 116 -110.5 201.5t-254.5 94.5v-617l24 -6q243 -58 344.5 -146.5
t101.5 -245.5q0 -165 -130.5 -273.5t-339.5 -119.5v-151zM1020 373q0 128 -89 202t-304 123v-643q170 6 281.5 96.5t111.5 221.5zM199 1089q0 -116 83 -184.5t281 -115.5v603q-157 -6 -260.5 -92t-103.5 -211z" />
    <glyph glyph-name="percent" unicode="%" horiz-adv-x="1405"
d="M557 1108q0 -159 -68.5 -252t-185.5 -93q-116 0 -184.5 93t-68.5 252q0 160 68.5 253t184.5 93q117 0 185.5 -93t68.5 -253zM303 823q83 0 131.5 77t48.5 208q0 132 -48.5 209t-131.5 77t-131 -77t-48 -209q0 -131 48.5 -208t130.5 -77zM207 0h-84l552 741l522 702h85
l-547 -736zM1355 334q0 -159 -68 -252t-185 -93t-185 93t-68 252t68 252t185 93t185 -93t68 -252zM1102 49q83 0 131.5 76.5t48.5 208.5t-48.5 208.5t-131.5 76.5t-131.5 -76.5t-48.5 -208.5t48.5 -208.5t131.5 -76.5z" />
    <glyph glyph-name="ampersand" unicode="&#x26;" horiz-adv-x="1374"
d="M1214 0l-192 199q-94 -103 -225.5 -161.5t-267.5 -58.5q-201 0 -328 108.5t-127 278.5q0 229 276 378q5 2 54 28l48 26q-123 126 -170 204.5t-47 158.5q0 127 99 214.5t244 87.5t241 -85t96 -215q0 -105 -82 -196.5t-268 -185.5l451 -476q58 90 91 201.5t33 219.5v79h75
v-77q0 -122 -39.5 -249.5t-106.5 -224.5l246 -254h-101zM395 691q-242 -133 -242 -323q0 -138 106 -229t275 -91q116 0 238 56t198 144l-471 499q-2 -1 -52.5 -28t-51.5 -28zM520 829q166 81 242.5 162.5t76.5 169.5q0 100 -75.5 168t-185.5 68q-109 0 -188 -70.5
t-79 -168.5q0 -68 43.5 -136.5t165.5 -192.5z" />
    <glyph glyph-name="quotesingle" unicode="'" horiz-adv-x="287"
d="M181 984h-74v459h74v-459z" />
    <glyph glyph-name="parenleft" unicode="(" horiz-adv-x="581"
d="M193 571q0 255 67.5 479t199.5 393h74q-121 -157 -192 -394t-71 -478q0 -242 71 -479t192 -393h-74q-132 170 -199.5 393t-67.5 479z" />
    <glyph glyph-name="parenright" unicode=")" horiz-adv-x="581"
d="M388 571q0 -266 -71 -488t-196 -384h-74q116 152 189.5 384t73.5 488t-74 488.5t-189 383.5h74q125 -161 196 -383.5t71 -488.5z" />
    <glyph glyph-name="asterisk" unicode="*" horiz-adv-x="953"
d="M764 901l-258 153l3 -299h-64l3 299l-257 -153l-31 58l259 144l-259 144l32 58l256 -152l-3 298h64l-3 -298l257 152l33 -56l-261 -145l261 -145z" />
    <glyph glyph-name="plus" unicode="+" horiz-adv-x="1192"
d="M633 539v-504h-74v504h-453v73h453v490h74v-490h453v-73h-453z" />
    <glyph glyph-name="comma" unicode="," horiz-adv-x="496"
d="M189 -260h-67l95 445h82z" />
    <glyph glyph-name="hyphen" unicode="&#x2011;" horiz-adv-x="868"
d="M762 544h-656v72h656v-72z" />
    <glyph glyph-name="hyphen" unicode="-" horiz-adv-x="868"
d="M762 544h-656v72h656v-72z" />
    <glyph glyph-name="period" unicode="." horiz-adv-x="496"
d="M248 -8q-28 0 -47.5 19.5t-19.5 47.5q0 27 19.5 46.5t47.5 19.5q27 0 46.5 -19.5t19.5 -46.5q0 -28 -19.5 -47.5t-46.5 -19.5z" />
    <glyph glyph-name="slash" unicode="/" horiz-adv-x="581"
d="M71 -301h-71l510 1744h71z" />
    <glyph glyph-name="zero" unicode="0" horiz-adv-x="1194"
d="M598 -21q-237 0 -374.5 200t-137.5 543q0 341 137.5 541.5t374.5 200.5q236 0 373 -200t137 -542q0 -343 -137 -543t-373 -200zM598 50q200 0 315.5 181t115.5 491q0 308 -116 489.5t-315 181.5q-200 0 -316 -181.5t-116 -489.5q0 -310 116 -491t316 -181z" />
    <glyph glyph-name="one" unicode="1" horiz-adv-x="804"
d="M484 0v1354h-2q-40 -24 -195.5 -125.5t-198.5 -128.5v88q28 18 183 119t213 136h78v-1443h-78z" />
    <glyph glyph-name="two" unicode="2" horiz-adv-x="1142"
d="M124 1054q4 178 129 294t314 116q184 0 309.5 -113t125.5 -279q0 -115 -64.5 -223.5t-243.5 -295.5l-451 -477v-4h813v-72h-927v60l513 544q166 175 223.5 269.5t57.5 195.5q0 137 -103 230.5t-255 93.5q-154 0 -257 -96t-107 -243h-77z" />
    <glyph glyph-name="three" unicode="3" horiz-adv-x="1146"
d="M384 714v70h161q163 0 266 86t103 222q0 130 -100.5 215.5t-257.5 85.5q-147 0 -248.5 -84.5t-110.5 -213.5h-77q9 161 132 265t307 104q186 0 310 -104t124 -261q0 -134 -82 -226.5t-224 -118.5v-4q168 -11 268.5 -107.5t100.5 -249.5q0 -179 -138.5 -296.5
t-347.5 -117.5q-206 0 -342.5 109.5t-140.5 274.5h77q5 -134 120.5 -223.5t285.5 -89.5q175 0 290.5 96.5t115.5 244.5q0 151 -114 237t-315 86h-163z" />
    <glyph glyph-name="four" unicode="4" horiz-adv-x="1181"
d="M813 0v361h-743v73q297 460 707 1013l114 1v-1015h229v-72h-229v-361h-78zM157 435v-2h656v935h-2q-357 -475 -654 -933z" />
    <glyph glyph-name="five" unicode="5" horiz-adv-x="1171"
d="M595 -21q-123 0 -227 48t-168.5 133.5t-75.5 192.5h79q17 -131 128.5 -217t264.5 -86q179 0 297.5 116.5t118.5 292.5q0 175 -116.5 292.5t-289.5 117.5q-120 0 -220 -56.5t-159 -156.5h-80l86 787h765v-72h-697l-68 -617h3q59 86 160.5 136t218.5 50q204 0 340 -137
t136 -343q0 -208 -140.5 -344.5t-355.5 -136.5z" />
    <glyph glyph-name="six" unicode="6" horiz-adv-x="1179"
d="M616 -21q-124 0 -225.5 53t-168.5 151q-132 176 -132 501q0 360 143.5 570t389.5 210q175 0 298.5 -98t148.5 -258h-80q-23 125 -126 205t-242 80q-219 0 -339.5 -205.5t-114.5 -570.5h4q38 144 164 235.5t287 91.5q205 0 342 -136t137 -339q0 -210 -138.5 -350
t-347.5 -140zM615 51q172 0 289.5 120t117.5 296q0 173 -117 289.5t-290 116.5q-111 0 -207 -53t-152 -143t-56 -195q0 -182 120 -306.5t295 -124.5z" />
    <glyph glyph-name="seven" unicode="7" horiz-adv-x="1085"
d="M231 0l690 1368v3h-839v72h920v-76l-685 -1367h-86z" />
    <glyph glyph-name="eight" unicode="8" horiz-adv-x="1189"
d="M594 -21q-223 0 -362 116.5t-139 298.5q0 138 93.5 240.5t243.5 130.5v3q-130 29 -207 116.5t-77 206.5q0 163 125.5 268t322.5 105t322.5 -105t125.5 -268q0 -116 -77.5 -204t-204.5 -119v-3q149 -28 242.5 -130.5t93.5 -240.5q0 -183 -139 -299t-363 -116zM594 50
q189 0 305.5 98t116.5 249q0 145 -116.5 237t-305.5 92q-188 0 -304.5 -92.5t-116.5 -236.5q0 -151 116 -249t305 -98zM594 799q162 0 265.5 81t103.5 207q0 133 -101.5 219.5t-267.5 86.5q-165 0 -267.5 -87t-102.5 -219q0 -126 104.5 -207t265.5 -81z" />
    <glyph glyph-name="nine" unicode="9" horiz-adv-x="1179"
d="M557 -21q-179 0 -301 98.5t-147 257.5h80q23 -125 123 -205t245 -80q211 0 330 186t125 513q1 26 -1 77h-1h-1q-36 -140 -164 -233.5t-289 -93.5q-207 0 -343 134.5t-136 335.5q0 213 138 354t348 141q125 0 226 -53.5t168 -152.5q132 -178 132 -499q0 -360 -142 -570
t-390 -210zM564 570q170 0 292.5 116.5t122.5 274.5q0 181 -119.5 306t-295.5 125q-174 0 -291 -121.5t-117 -300.5q0 -168 116 -284t292 -116z" />
    <glyph glyph-name="colon" unicode=":" horiz-adv-x="496"
d="M248 -8q-28 0 -47.5 19.5t-19.5 47.5q0 27 19.5 46.5t47.5 19.5q27 0 46.5 -19.5t19.5 -46.5q0 -28 -19.5 -47.5t-46.5 -19.5zM248 767q-28 0 -47.5 19.5t-19.5 47.5q0 27 19.5 46.5t47.5 19.5q27 0 46.5 -19.5t19.5 -46.5q0 -28 -19.5 -47.5t-46.5 -19.5z" />
    <glyph glyph-name="semicolon" unicode=";" horiz-adv-x="496"
d="M248 767q-28 0 -47.5 19.5t-19.5 47.5q0 27 19.5 46.5t47.5 19.5q27 0 46.5 -19.5t19.5 -46.5q0 -28 -19.5 -47.5t-46.5 -19.5zM189 -260h-67l95 445h82z" />
    <glyph glyph-name="less" unicode="&#x3c;" horiz-adv-x="1192"
d="M1004 1046l-730 -501v-6l730 -494v-92l-815 554v67l815 564v-92z" />
    <glyph glyph-name="equal" unicode="=" horiz-adv-x="1192"
d="M1081 353h-969v70h969v-70zM1081 728h-969v70h969v-70z" />
    <glyph glyph-name="greater" unicode="&#x3e;" horiz-adv-x="1192"
d="M189 1046v92l815 -564v-66l-815 -555v93l730 494v6z" />
    <glyph glyph-name="question" unicode="?" horiz-adv-x="931"
d="M60 1096q10 158 119.5 261t277.5 103q169 0 280 -101t111 -253q0 -102 -50 -180t-163 -157q-102 -70 -138.5 -126.5t-36.5 -144.5v-90h-77v98q-1 98 41.5 165t152.5 145q103 73 146.5 139.5t43.5 147.5q0 125 -89 205.5t-223 80.5q-130 0 -218 -80.5t-101 -212.5h-76z
M425 -8q-28 0 -47.5 19.5t-19.5 47.5t19.5 47t47.5 19t47 -19t19 -47t-19 -47.5t-47 -19.5z" />
    <glyph glyph-name="at" unicode="@" horiz-adv-x="1741"
d="M865 947q-121 0 -198 -99.5t-77 -255.5q0 -155 76 -252t198 -97q121 0 194 98t73 261q0 160 -71.5 252.5t-194.5 92.5zM892 1432q173 0 321.5 -55.5t253 -153.5t163.5 -238.5t59 -305.5q0 -238 -85 -373t-236 -135q-94 0 -157 54.5t-76 149.5h-5q-36 -98 -105.5 -148.5
t-166.5 -50.5q-154 0 -248.5 115.5t-94.5 302.5q0 186 95 302.5t248 116.5q95 0 168 -50.5t101 -135.5h5v165h71v-552q0 -95 45.5 -150t127.5 -55q115 0 180 117t65 328q0 201 -92.5 358t-259.5 244t-381 87q-213 0 -384 -98t-267.5 -272.5t-96.5 -392.5q0 -172 56 -317
t155 -245t238.5 -155.5t303.5 -55.5q213 0 327 38v-64q-109 -37 -328 -37q-178 0 -330 60t-260 168.5t-169 265t-61 343.5q0 178 61.5 331.5t169.5 262t260 170t329 61.5z" />
    <glyph glyph-name="A" unicode="A" horiz-adv-x="1221"
d="M1115 0l-180 481h-649l-179 -481h-86l550 1443h80l549 -1443h-85zM608 1340l-296 -788h598l-297 788h-5z" />
    <glyph glyph-name="B" unicode="B" horiz-adv-x="1160"
d="M619 0h-491v1443h481q188 0 304.5 -97t116.5 -254q0 -129 -77.5 -221t-206.5 -117v-6q158 -17 259 -114t101 -249q0 -178 -130.5 -281.5t-356.5 -103.5zM207 1371v-593h371q170 0 271 83t101 225q0 130 -96 207.5t-257 77.5h-390zM207 72h405q194 0 304 84.5t110 230.5
q0 150 -115 235t-320 85h-384v-635z" />
    <glyph glyph-name="C" unicode="C" horiz-adv-x="1326"
d="M702 -21q-290 0 -462.5 203.5t-172.5 547.5q0 337 172 535.5t463 198.5q220 0 382 -138.5t185 -344.5h-79q-23 174 -162.5 291.5t-325.5 117.5q-254 0 -404 -178t-150 -482q0 -310 150.5 -493.5t403.5 -183.5q192 0 328.5 105.5t159.5 277.5h79q-25 -205 -181.5 -331
t-385.5 -126z" />
    <glyph glyph-name="D" unicode="D" horiz-adv-x="1329"
d="M128 1443h446q328 0 508 -189t180 -532q0 -344 -180 -533t-508 -189h-446v1443zM208 1370v-1297h363q294 0 452.5 168.5t158.5 479.5q0 313 -158.5 481t-452.5 168h-363z" />
    <glyph glyph-name="E" unicode="E" horiz-adv-x="1068"
d="M969 73v-73h-841v1443h841v-73h-762v-594h726v-72h-726v-631h762z" />
    <glyph glyph-name="F" unicode="F" horiz-adv-x="1033"
d="M207 0h-79v1443h830v-73h-751v-603h691v-72h-691v-695z" />
    <glyph glyph-name="G" unicode="G" horiz-adv-x="1358"
d="M1281 571q0 -276 -155.5 -434t-426.5 -158q-186 0 -330 94t-223 264.5t-79 392.5q0 331 173.5 532.5t458.5 201.5q217 0 374.5 -120t198.5 -317h-81q-43 166 -176.5 264.5t-315.5 98.5q-250 0 -400.5 -180t-150.5 -479q0 -304 152 -491t399 -187q232 0 367.5 136.5
t135.5 369.5v83h-503v72h582v-143z" />
    <glyph glyph-name="H" unicode="H" horiz-adv-x="1327"
d="M1199 0h-79v705h-913v-705h-79v1443h79v-666h913v666h79v-1443z" />
    <glyph glyph-name="I" unicode="I" horiz-adv-x="335"
d="M207 0h-79v1443h79v-1443z" />
    <glyph glyph-name="J" unicode="J" horiz-adv-x="951"
d="M41 320h78q7 -119 92 -194.5t214 -75.5q150 0 234.5 89t84.5 250v1054h80v-1058q0 -189 -106.5 -299t-291.5 -110q-165 0 -273 96.5t-112 247.5z" />
    <glyph glyph-name="K" unicode="K" horiz-adv-x="1142"
d="M207 0h-79v1443h79v-806h6l750 806h101l-594 -636l660 -807h-101l-615 751l-207 -223v-528z" />
    <glyph glyph-name="L" unicode="L" horiz-adv-x="1024"
d="M964 73v-73h-836v1443h79v-1370h757z" />
    <glyph glyph-name="M" unicode="M" horiz-adv-x="1604"
d="M1476 0h-76v1279h-4l-556 -1276h-76l-556 1276h-4v-1279h-76v1443h88l583 -1340h6l581 1340h90v-1443z" />
    <glyph glyph-name="N" unicode="N" horiz-adv-x="1341"
d="M206 0h-78v1443h82l919 -1299h6v1299h79v-1443h-75l-927 1307h-6v-1307z" />
    <glyph glyph-name="O" unicode="O" horiz-adv-x="1420"
d="M710 1464q295 0 469 -201t174 -541q0 -342 -173.5 -542.5t-469.5 -200.5t-469.5 200.5t-173.5 542.5q0 340 174 541t469 201zM710 1390q-258 0 -410 -181t-152 -487q0 -307 152.5 -488t409.5 -181t409.5 181t152.5 488q0 306 -152.5 487t-409.5 181z" />
    <glyph glyph-name="P" unicode="P" horiz-adv-x="1107"
d="M128 1443h461q210 0 336.5 -117.5t126.5 -313.5t-126.5 -313t-337.5 -117h-381v-582h-79v1443zM207 1371v-717h369q183 0 289.5 96t106.5 262q0 167 -106.5 263t-289.5 96h-369z" />
    <glyph glyph-name="Q" unicode="Q" horiz-adv-x="1420"
d="M710 -21q-296 0 -469.5 200.5t-173.5 542.5q0 340 174 541t469 201t469 -201t174 -541q0 -221 -76.5 -388t-217.5 -258l185 -253h-91l-159 217q-128 -61 -284 -61zM710 53q132 0 238 50l-196 269h91l170 -233q125 82 191.5 232t66.5 351q0 306 -152 487t-409 181
t-409.5 -181t-152.5 -487t152.5 -487.5t409.5 -181.5z" />
    <glyph glyph-name="R" unicode="R" horiz-adv-x="1147"
d="M207 1371v-683h385q181 0 283.5 91t102.5 250q0 161 -103.5 251.5t-285.5 90.5h-382zM207 616v-616h-79v1443h468q214 0 338.5 -110.5t124.5 -301.5q0 -156 -88.5 -262.5t-245.5 -137.5l371 -631h-92l-361 619q-21 -3 -51 -3h-385z" />
    <glyph glyph-name="S" unicode="S" horiz-adv-x="1137"
d="M57 385h79q9 -147 134 -240t313 -93q183 0 299.5 92.5t116.5 234.5q0 113 -81 183t-263 116l-171 42q-201 51 -294.5 136.5t-93.5 220.5q0 167 137 277t336 110q203 0 340 -106t144 -266h-79q-8 130 -122.5 214.5t-284.5 84.5q-165 0 -277.5 -88.5t-112.5 -223.5
q0 -107 81 -174t257 -111l161 -41q211 -52 307.5 -138.5t96.5 -229.5q0 -180 -139 -293t-364 -113q-222 0 -366.5 113t-153.5 293z" />
    <glyph glyph-name="T" unicode="T" horiz-adv-x="1132"
d="M606 0h-79v1370h-506v73h1090v-73h-505v-1370z" />
    <glyph glyph-name="U" unicode="U" horiz-adv-x="1334"
d="M207 1443v-939q0 -207 124 -329t336 -122t336 122t124 329v939h79v-942q0 -237 -145.5 -379.5t-393.5 -142.5t-393.5 142.5t-145.5 379.5v942h79z" />
    <glyph glyph-name="V" unicode="V" horiz-adv-x="1223"
d="M651 0h-80l-550 1443h85l503 -1338h5l503 1338h84z" />
    <glyph glyph-name="W" unicode="W" horiz-adv-x="1803"
d="M899 1295l-384 -1295h-70l-403 1443h82l356 -1306h5l379 1306h74l380 -1306h5l355 1306h83l-403 -1443h-70l-384 1295h-5z" />
    <glyph glyph-name="X" unicode="X" horiz-adv-x="1215"
d="M42 0l516 722v2l-514 719h95l469 -658h2l471 658h92l-518 -721v-2l515 -720h-95l-468 656h-2l-471 -656h-92z" />
    <glyph glyph-name="Y" unicode="Y" horiz-adv-x="1172"
d="M626 0h-79v629l-525 814h93l469 -733h5l469 733h92l-524 -814v-629z" />
    <glyph glyph-name="Z" unicode="Z" horiz-adv-x="1173"
d="M71 0v62l925 1303v5h-896v73h997v-62l-923 -1303v-5h928v-73h-1031z" />
    <glyph glyph-name="bracketleft" unicode="[" horiz-adv-x="581"
d="M202 1443h352v-65h-276v-1613h276v-66h-352v1744z" />
    <glyph glyph-name="backslash" unicode="\" horiz-adv-x="581"
d="M509 -301l-509 1744h72l509 -1744h-72z" />
    <glyph glyph-name="bracketright" unicode="]" horiz-adv-x="581"
d="M379 1443v-1744h-352v66h276v1613h-276v65h352z" />
    <glyph glyph-name="asciicircum" unicode="^" horiz-adv-x="782"
d="M388 1321l-248 -519h-80l294 603h75l293 -603h-80l-248 519h-6z" />
    <glyph glyph-name="underscore" unicode="_" horiz-adv-x="807"
d="M870 -205h-933v63h933v-63z" />
    <glyph glyph-name="grave" unicode="`" horiz-adv-x="758"
d="M553 1264h-76l-244 302h90z" />
    <glyph glyph-name="a" unicode="a" horiz-adv-x="996"
d="M439 52q154 0 262.5 97.5t108.5 236.5v154l-347 -25q-146 -11 -223.5 -71.5t-77.5 -163.5q0 -100 78 -164t199 -64zM428 -16q-152 0 -248 82.5t-96 213.5q0 133 93.5 209t274.5 90l358 25v93q0 135 -77.5 212t-215.5 77q-135 0 -218 -65t-103 -183h-75q15 146 121.5 232
t275.5 86q171 0 270.5 -95t99.5 -258v-703h-75v223h-2q-40 -106 -146.5 -172.5t-236.5 -66.5z" />
    <glyph glyph-name="b" unicode="b" horiz-adv-x="1093"
d="M592 -16q-139 0 -244 79.5t-146 214.5h-3v-278h-74v1443h77v-678h3q38 133 143 212t244 79q194 0 316 -148t122 -387q0 -240 -121.5 -388.5t-316.5 -148.5zM579 986q-165 0 -271 -131t-106 -336t105.5 -335t271.5 -130q167 0 269.5 129t102.5 338q0 208 -102.5 336.5
t-269.5 128.5z" />
    <glyph glyph-name="c" unicode="c" horiz-adv-x="994"
d="M938 726h-77q-24 114 -116 187t-223 73q-175 0 -278 -126t-103 -340q0 -215 103 -340.5t278 -125.5q131 0 222.5 69t115.5 182h77q-23 -143 -137 -232t-278 -89q-211 0 -335 144t-124 392q0 246 124.5 391t333.5 145q165 0 279 -93.5t138 -236.5z" />
    <glyph glyph-name="d" unicode="d" horiz-adv-x="1099"
d="M506 -16q-196 0 -319.5 148.5t-123.5 387.5t123 387.5t319 148.5q141 0 247 -82t142 -207h2v676h78v-1443h-73v279h-3q-37 -129 -143.5 -212t-248.5 -83zM516 986q-166 0 -270.5 -128.5t-104.5 -336.5q0 -209 104.5 -338t270.5 -129q168 0 274.5 130t106.5 336
t-106.5 336t-274.5 130z" />
    <glyph glyph-name="e" unicode="e" horiz-adv-x="1027"
d="M518 987q-161 0 -264 -114t-111 -301h742q-1 185 -102 300t-265 115zM874 291h78q-27 -136 -141 -221.5t-284 -85.5q-214 0 -339 142.5t-125 392.5q0 242 125 389.5t331 147.5q201 0 323.5 -139t122.5 -366v-44h-823v-4q0 -210 104.5 -330t281.5 -120q139 0 230.5 66
t115.5 172z" />
    <glyph glyph-name="f" unicode="f" horiz-adv-x="526"
d="M165 0v973h-145v67h145v153q0 247 240 247q50 0 84 -9v-66q-35 8 -76 8q-170 0 -170 -185v-148h237v-67h-237v-973h-78z" />
    <glyph glyph-name="g" unicode="g" horiz-adv-x="1083"
d="M512 57q167 0 272.5 129t105.5 335t-105.5 335.5t-272.5 129.5q-166 0 -268.5 -129t-102.5 -337t102.5 -335.5t268.5 -127.5zM533 -375q-164 0 -276.5 75.5t-134.5 189.5h80q27 -87 116 -142t219 -55q161 0 257 86.5t96 229.5v267h-3q-36 -125 -140.5 -207t-244.5 -82
q-197 0 -318 147.5t-121 386.5q0 240 121.5 387.5t318.5 147.5q140 0 245 -83t144 -212h2v279h73v-1028q0 -176 -117.5 -281.5t-316.5 -105.5z" />
    <glyph glyph-name="h" unicode="h" horiz-adv-x="1053"
d="M125 0v1443h77v-629h3q35 109 132 175.5t227 66.5q171 0 275.5 -104.5t104.5 -278.5v-673h-77v663q0 149 -87 236t-233 87q-153 0 -249 -102t-96 -264v-620h-77z" />
    <glyph glyph-name="i" unicode="i" horiz-adv-x="326"
d="M124 0v1040h78v-1040h-78zM163 1296q-25 0 -43 18t-18 43t18 42.5t43 17.5t43 -17.5t18 -42.5t-18 -43t-43 -18z" />
    <glyph glyph-name="j" unicode="j" horiz-adv-x="326"
d="M202 1040v-1125q0 -140 -67 -203t-203 -63h-31v68h27q103 0 149.5 45.5t46.5 149.5v1128h78zM163 1296q-26 0 -44 18t-18 43t18 42.5t44 17.5q25 0 43 -17.5t18 -42.5t-18 -43t-43 -18z" />
    <glyph glyph-name="k" unicode="k" horiz-adv-x="908"
d="M203 507l585 533h101l-487 -448l492 -592h-95l-456 544l-141 -126v-418h-77v1443h77v-936h1z" />
    <glyph glyph-name="l" unicode="l" horiz-adv-x="326"
d="M124 0v1443h78v-1443h-78z" />
    <glyph glyph-name="m" unicode="m" horiz-adv-x="1590"
d="M115 0v1040h73v-226h2q31 108 113 175t201 67t203.5 -70t108.5 -177h3q28 105 117.5 176t212.5 71q151 0 242 -96.5t91 -257.5v-702h-78v684q0 140 -73 221t-200 81q-131 0 -212.5 -94.5t-81.5 -244.5v-647h-77v687q0 134 -76 216.5t-196 82.5q-131 0 -213 -100t-82 -265
v-621h-78z" />
    <glyph glyph-name="n" unicode="n" horiz-adv-x="1039"
d="M115 0v1040h73v-226h2q36 109 132.5 175.5t227.5 66.5q172 0 276 -103.5t104 -278.5v-674h-78v664q0 150 -87 236t-233 86q-151 0 -245 -101.5t-94 -263.5v-621h-78z" />
    <glyph glyph-name="o" unicode="o" horiz-adv-x="1053"
d="M526 -16q-209 0 -336 145t-127 391t127 391t336 145t336.5 -145t127.5 -391t-127.5 -391t-336.5 -145zM526 54q175 0 280.5 126t105.5 340q0 215 -105.5 340.5t-280.5 125.5t-280 -125.5t-105 -340.5t105 -340.5t280 -125.5z" />
    <glyph glyph-name="p" unicode="p" horiz-adv-x="1083"
d="M579 1056q196 0 318.5 -148t122.5 -388t-122 -388t-318 -148q-140 0 -244.5 82t-140.5 207h-2v-614h-78v1381h73v-279h3q37 129 142 212t246 83zM570 54q166 0 268.5 128.5t102.5 336.5q0 209 -102.5 338t-268.5 129q-167 0 -272.5 -129.5t-105.5 -336.5t105.5 -336.5
t272.5 -129.5z" />
    <glyph glyph-name="q" unicode="q" horiz-adv-x="1089"
d="M506 1056q142 0 248.5 -83t143.5 -212h3v279h73v-1381h-78v616h-2q-36 -126 -142 -208.5t-247 -82.5q-196 0 -319 148.5t-123 387.5t123 387.5t320 148.5zM515 54q168 0 274.5 130t106.5 336t-106.5 336t-274.5 130q-166 0 -270 -129t-104 -338q0 -208 104 -336.5
t270 -128.5z" />
    <glyph glyph-name="r" unicode="r" horiz-adv-x="594"
d="M115 0v1040h73v-205h2q32 107 104 164t175 57q57 0 97 -17v-78q-42 21 -108 21q-121 0 -193 -93t-72 -241v-648h-78z" />
    <glyph glyph-name="s" unicode="s" horiz-adv-x="893"
d="M91 774q0 123 100 202.5t255 79.5q158 0 258.5 -84.5t114.5 -229.5h-75q-16 116 -95.5 181.5t-203.5 65.5q-121 0 -199.5 -60t-78.5 -152q0 -76 56 -122.5t181 -75.5l144 -34q155 -37 221.5 -99.5t66.5 -171.5q0 -128 -107 -209t-275 -81q-163 0 -274 86.5t-123 222.5h77
q14 -108 103 -175t219 -67q133 0 217.5 61t84.5 157q0 82 -53.5 130t-179.5 78l-150 35q-146 34 -215 98t-69 164z" />
    <glyph glyph-name="t" unicode="t" horiz-adv-x="535"
d="M173 1313h77v-273h209v-67h-209v-734q0 -92 36 -132t115 -40q3 0 36.5 0.5t35.5 0.5v-68q-14 -2 -83 -2q-115 0 -166 55.5t-51 183.5v736h-155v67h155v273z" />
    <glyph glyph-name="u" unicode="u" horiz-adv-x="1039"
d="M924 1040v-1040h-73v226h-3q-35 -106 -135.5 -174t-228.5 -68q-169 0 -272 102.5t-103 276.5v677h77v-665q0 -151 85 -236t229 -85q150 0 248 99.5t98 262.5v624h78z" />
    <glyph glyph-name="v" unicode="v" horiz-adv-x="889"
d="M882 1040l-391 -1040h-93l-392 1040h83l354 -962h3l354 962h82z" />
    <glyph glyph-name="w" unicode="w" horiz-adv-x="1384"
d="M1376 1040l-303 -1040h-90l-290 940h-3l-288 -940h-92l-302 1040h81l267 -954h2l290 954h88l289 -954h3l266 954h82z" />
    <glyph glyph-name="x" unicode="x" horiz-adv-x="868"
d="M435 467h-3l-333 -467h-90l381 528l-379 512h92l331 -453h3l331 453h91l-380 -510l378 -530h-90z" />
    <glyph glyph-name="y" unicode="y" horiz-adv-x="891"
d="M173 -359q-30 0 -53 7v69q24 -8 55 -8q69 0 112.5 43t83.5 149l33 85l-398 1054h84l354 -965h3l354 965h83l-410 -1090q-70 -186 -130 -247.5t-171 -61.5z" />
    <glyph glyph-name="z" unicode="z" horiz-adv-x="898"
d="M64 0v64l678 906v3h-677v67h768v-64l-679 -906v-3h680v-67h-770z" />
    <glyph glyph-name="braceleft" unicode="{" horiz-adv-x="581"
d="M102 586q114 -11 166 -65t52 -164v-341q0 -134 51 -192t158 -58h25v-67h-29q-149 0 -214.5 73t-65.5 238v305q0 124 -48.5 174t-169.5 50v112q121 0 169.5 50.5t48.5 175.5v262q0 163 65 233.5t215 70.5h29v-67h-25q-111 0 -160 -54t-49 -187v-299q0 -110 -52 -164.5
t-166 -65.5v-20z" />
    <glyph glyph-name="bar" unicode="|" horiz-adv-x="581"
d="M325 -301h-69v1744h69v-1744z" />
    <glyph glyph-name="braceright" unicode="}" horiz-adv-x="581"
d="M478 586v20q-114 11 -165.5 65.5t-51.5 164.5v299q0 133 -49.5 187t-160.5 54h-24v67h29q149 0 214.5 -70.5t65.5 -233.5v-262q0 -125 48.5 -175.5t169.5 -50.5v-112q-121 0 -169.5 -49.5t-48.5 -173.5v-304q0 -166 -66 -239.5t-214 -73.5h-29v67h24q108 0 159 58t51 192
v340q0 110 51.5 164.5t165.5 65.5z" />
    <glyph glyph-name="asciitilde" unicode="~" horiz-adv-x="1192"
d="M563 668q-68 64 -108 87.5t-81 23.5q-73 0 -117.5 -59.5t-47.5 -160.5h-73q-1 133 64.5 213t174.5 80q56 0 106 -26.5t127 -97.5q65 -60 110.5 -85t88.5 -25q73 0 122.5 64.5t53.5 164.5h74q0 -130 -71 -216.5t-179 -86.5q-64 0 -114.5 25.5t-129.5 98.5z" />
    <glyph glyph-name="nonbreakingspace" unicode="&#xa0;" horiz-adv-x="386"
 />
    <glyph glyph-name="exclamdown" unicode="&#xa1;" horiz-adv-x="510"
d="M214 -338l3 1017h76l3 -1017h-82zM255 983q-28 0 -47 19.5t-19 46.5q0 28 19 47.5t47 19.5t47 -19.5t19 -47.5q0 -27 -19 -46.5t-47 -19.5z" />
    <glyph glyph-name="cent" unicode="&#xa2;" horiz-adv-x="1192"
d="M1083 478q-21 -142 -141.5 -233t-285.5 -100v-213h-77v213q-209 14 -340 162.5t-131 391.5q0 241 131.5 390t339.5 162v199h77v-198q165 -10 286.5 -104t142.5 -238h-79q-24 124 -133.5 198.5t-255.5 74.5q-187 0 -309 -132t-122 -352q0 -221 121.5 -353.5t309.5 -132.5
q148 0 257 70.5t131 194.5h78z" />
    <glyph glyph-name="sterling" unicode="&#xa3;" horiz-adv-x="1192"
d="M218 70h913v-70h-1065v71q76 19 137.5 49t111.5 73t78 103t28 132q0 100 -57 254h-264v67h239q-26 68 -40 110.5t-27 106.5t-13 121q0 177 122 282t339 105q102 0 188.5 -17.5t131.5 -41.5v-74q-45 25 -130.5 43t-185.5 18q-184 0 -284.5 -86t-100.5 -230
q0 -56 13.5 -120t27.5 -105t41 -112h469v-67h-444q53 -150 53 -253q0 -73 -25.5 -135t-69 -104t-89 -70t-97.5 -46v-4z" />
    <glyph glyph-name="currency" unicode="&#xa4;" horiz-adv-x="1192"
d="M282 655q0 -131 92 -223t223 -92q129 0 221.5 93t92.5 222q0 131 -92 223.5t-222 92.5t-222.5 -92.5t-92.5 -223.5zM1055 1064l-166 -166q87 -106 87 -243q0 -136 -88 -242l167 -167l-50 -50l-167 167q-106 -87 -241 -87q-136 0 -241 87l-168 -167l-51 50l168 168
q-87 106 -87 241q0 136 87 242l-168 167l51 50l166 -167q106 88 243 88t241 -87l167 166z" />
    <glyph glyph-name="yen" unicode="&#xa5;" horiz-adv-x="1192"
d="M976 363h-339v-363h-80v363h-341v66h341v208h-341v65h308l-492 741h93l470 -711h4l469 711h92l-490 -741h306v-65h-339v-208h339v-66z" />
    <glyph glyph-name="brokenbar" unicode="&#xa6;" horiz-adv-x="581"
d="M325 743h-69v700h69v-700zM325 -301h-69v694h69v-694z" />
    <glyph glyph-name="section" unicode="&#xa7;" horiz-adv-x="953"
d="M425 354l78 -17q128 2 210 67.5t82 167.5q0 87 -64 141.5t-201 85.5l-78 17q-128 -1 -210.5 -67.5t-82.5 -167.5q0 -86 64.5 -141t201.5 -86zM482 -240q-161 0 -268 74.5t-120 195.5h78q14 -91 100 -146t213 -55t209.5 60t82.5 152q0 81 -61 132.5t-194 82.5l-113 27
q-170 40 -249.5 109t-79.5 178q0 103 70.5 175.5t194.5 95.5v6q-124 37 -183.5 101t-59.5 160q0 125 104 205t265 80q160 0 265.5 -73t119.5 -194h-77q-14 89 -98.5 143.5t-210.5 54.5q-127 0 -208.5 -59.5t-81.5 -152.5q0 -81 60.5 -132.5t192.5 -82.5l113 -27
q170 -40 249 -109t79 -176q0 -106 -74 -180t-200 -97v-6q129 -32 191 -95t62 -162q0 -124 -104.5 -204.5t-266.5 -80.5z" />
    <glyph glyph-name="dieresis" unicode="&#xa8;" horiz-adv-x="758"
d="M230 1267q-28 0 -47.5 19.5t-19.5 46.5q0 28 19.5 47t47.5 19q27 0 46.5 -19t19.5 -47q0 -27 -19.5 -46.5t-46.5 -19.5zM528 1267q-27 0 -47 19.5t-20 46.5t20 46.5t47 19.5t47 -19.5t20 -46.5t-20 -46.5t-47 -19.5z" />
    <glyph glyph-name="copyright" unicode="&#xa9;" horiz-adv-x="1732"
d="M866 -145q-213 0 -389.5 100.5t-278.5 277.5t-102 393q0 217 102 394t278.5 277t389.5 100q214 0 390.5 -100t278 -277t101.5 -394q0 -216 -101.5 -393t-278 -277.5t-390.5 -100.5zM866 -78q146 0 276 54t223.5 146.5t148 223.5t54.5 280q0 199 -92.5 360.5t-253.5 252.5
t-356 91q-145 0 -275 -53.5t-224 -146t-148.5 -224t-54.5 -280.5q0 -148 55 -279.5t148.5 -224t223.5 -146.5t275 -54zM1218 795h-68q-24 89 -99 145.5t-187 56.5q-143 0 -233.5 -98t-90.5 -267q0 -170 90 -270t234 -100q116 0 190 52.5t94 139.5h69q-22 -115 -115 -184.5
t-237 -69.5q-174 0 -284 117t-110 315q0 196 109.5 311.5t283.5 115.5q141 0 237 -76.5t117 -187.5z" />
    <glyph glyph-name="ordfeminine" unicode="&#xaa;" horiz-adv-x="684"
d="M302 786q101 0 171 61.5t70 150.5v97l-224 -16q-196 -15 -196 -149q0 -63 50.5 -103.5t128.5 -40.5zM288 727q-104 0 -169 56t-65 146q0 91 65 142.5t191 60.5l233 16v61q0 87 -50.5 135t-141.5 48q-84 0 -137.5 -40.5t-66.5 -114.5h-65q8 98 82 157t188 59
q119 0 189 -64.5t70 -173.5v-479h-67v146h-1q-27 -69 -97.5 -112t-157.5 -43z" />
    <glyph glyph-name="guillemotleft" unicode="&#xab;" horiz-adv-x="1185"
d="M252 571v-8l366 -408h-95l-370 410v5l370 409h95zM666 571v-8l366 -408h-95l-370 410v5l370 409h95z" />
    <glyph glyph-name="logicalnot" unicode="&#xac;" horiz-adv-x="1192"
d="M1076 707v-537h-70v468h-890v69h960z" />
    <glyph glyph-name="registered" unicode="&#xae;" horiz-adv-x="1095"
d="M548 651q-178 0 -302.5 123.5t-124.5 300.5q0 178 124 301t303 123t302.5 -123t123.5 -301q0 -177 -124 -300.5t-302 -123.5zM548 708q154 0 260.5 106.5t106.5 260.5q0 155 -106.5 261.5t-260.5 106.5t-261 -106.5t-107 -261.5q0 -154 107 -260.5t261 -106.5zM439 864
h-51v449h177q66 0 106.5 -38t40.5 -99q0 -106 -106 -131l128 -181h-61l-123 176h-111v-176zM439 1266v-183h112q106 0 106 93q0 42 -28 66t-78 24h-112z" />
    <glyph glyph-name="macron" unicode="&#xaf;" horiz-adv-x="856"
d="M674 1377v-60h-492v60h492z" />
    <glyph glyph-name="degree" unicode="&#xb0;" horiz-adv-x="724"
d="M362 927q-111 0 -189.5 78.5t-78.5 188.5q0 111 78.5 189t189.5 78q110 0 188.5 -78t78.5 -189q0 -110 -78.5 -188.5t-188.5 -78.5zM362 991q84 0 144 59.5t60 143.5q0 85 -59.5 144.5t-144.5 59.5q-84 0 -144.5 -60t-60.5 -144q0 -83 60.5 -143t144.5 -60z" />
    <glyph glyph-name="plusminus" unicode="&#xb1;" horiz-adv-x="1192"
d="M1086 113h-980v69h980v-69zM631 682v-350h-70v350h-455v66h455v332h70v-332h455v-66h-455z" />
    <glyph glyph-name="two.sups" unicode="&#xb2;" horiz-adv-x="565"
d="M63 1591q1 87 62.5 143t156.5 56q93 0 153.5 -52.5t60.5 -133.5q0 -51 -29.5 -100t-106.5 -128l-193 -202v-2h348v-61h-449v52l245 251q65 69 88.5 107.5t23.5 78.5q0 56 -40.5 92.5t-103.5 36.5q-62 0 -103.5 -39t-42.5 -99v-2h-70v2z" />
    <glyph glyph-name="three.sups" unicode="&#xb3;" horiz-adv-x="572"
d="M198 1427v57h78q65 0 106 35t41 90q0 51 -41 86t-103 35q-61 0 -102 -34.5t-45 -88.5h-69q4 81 64.5 132t154.5 51q92 0 152 -49t60 -124q0 -61 -37.5 -103.5t-102.5 -53.5v-3q78 -5 123 -49.5t45 -113.5q0 -85 -67.5 -140t-172.5 -55q-102 0 -166.5 53t-66.5 136h71
q2 -55 47 -91t115 -36q72 0 118.5 38.5t46.5 96.5q0 61 -45 96t-125 35h-79z" />
    <glyph glyph-name="acute" unicode="&#xb4;" horiz-adv-x="758"
d="M281 1264h-76l230 302h90z" />
    <glyph glyph-name="mugreek" unicode="&#x3bc;" horiz-adv-x="1155"
d="M115 -341v1381h78v-656q0 -155 82 -242.5t227 -87.5q153 0 248.5 102t95.5 264v620h77v-836q0 -76 25.5 -110t81.5 -34q34 0 63 9l4 -68q-27 -10 -79 -10q-80 0 -121 42t-47 132q-1 2 -2 29t-1 28h-1q-40 -109 -133 -173.5t-213 -64.5q-115 0 -198 53t-107 142h-2v-520
h-78z" />
    <glyph glyph-name="mugreek" unicode="&#xb5;" horiz-adv-x="1155"
d="M115 -341v1381h78v-656q0 -155 82 -242.5t227 -87.5q153 0 248.5 102t95.5 264v620h77v-836q0 -76 25.5 -110t81.5 -34q34 0 63 9l4 -68q-27 -10 -79 -10q-80 0 -121 42t-47 132q-1 2 -2 29t-1 28h-1q-40 -109 -133 -173.5t-213 -64.5q-115 0 -198 53t-107 142h-2v-520
h-78z" />
    <glyph glyph-name="paragraph" unicode="&#xb6;" horiz-adv-x="1165"
d="M742 -162h-79v737h-20q-208 0 -341 122.5t-133 308.5q0 196 130.5 316.5t344.5 120.5h98v-1605zM917 -162v1605h79v-1605h-79z" />
    <glyph glyph-name="periodcentered" unicode="&#xb7;" horiz-adv-x="496"
d="M248 527q-29 0 -50 20.5t-21 50.5q0 29 21 49.5t50 20.5t49.5 -20.5t20.5 -49.5q0 -30 -20.5 -50.5t-49.5 -20.5z" />
    <glyph glyph-name="cedilla" unicode="&#xb8;" horiz-adv-x="758"
d="M265 -192v41l65 158h64v-7l-59 -138q97 0 152.5 -40.5t55.5 -114.5q0 -76 -62 -122.5t-159 -47.5q-79 0 -128 15v57q45 -15 122 -15q70 0 115.5 32t45.5 80q0 50 -41 76t-118 26h-53z" />
    <glyph glyph-name="one.sups" unicode="&#xb9;" horiz-adv-x="434"
d="M237 1111v598h-3l-178 -118v70l178 118h74v-668h-71z" />
    <glyph glyph-name="ordmasculine" unicode="&#xba;" horiz-adv-x="722"
d="M361 727q-145 0 -232 98.5t-87 264.5t87 264.5t232 98.5t232 -98.5t87 -264.5t-87 -264.5t-232 -98.5zM361 787q114 0 181.5 81.5t67.5 221.5t-67.5 221t-181.5 81t-181.5 -81t-67.5 -221t67.5 -221.5t181.5 -81.5z" />
    <glyph glyph-name="guillemotright" unicode="&#xbb;" horiz-adv-x="1185"
d="M518 571l-365 408h95l370 -409v-5l-370 -410h-95l365 408v8zM932 571l-365 408h94l371 -409v-5l-371 -410h-94l365 408v8z" />
    <glyph glyph-name="onequarter" unicode="&#xbc;" horiz-adv-x="1394"
d="M240 775v598h-3l-178 -118v70l178 118h74v-668h-71zM174 1h-85l552 741l523 702h85l-548 -736zM1185 0v150h-339v65q115 184 306 453h105v-457h99v-61h-99v-150h-72zM916 211v-1h271v399h-2q-158 -220 -269 -398z" />
    <glyph glyph-name="onehalf" unicode="&#xbd;" horiz-adv-x="1409"
d="M240 775v598h-3l-178 -118v70l178 118h74v-668h-71zM174 1h-85l552 741l523 702h85l-548 -736zM912 480q1 87 62.5 143t156.5 56q93 0 153.5 -52.5t60.5 -133.5q0 -51 -29.5 -100t-106.5 -128l-193 -202v-2h348v-61h-449v52l245 251q65 69 88.5 107.5t23.5 78.5
q0 56 -40.5 92.5t-103.5 36.5q-62 0 -103.5 -39t-42.5 -99v-2h-70v2z" />
    <glyph glyph-name="threequarters" unicode="&#xbe;" horiz-adv-x="1460"
d="M191 1091v57h78q65 0 106 35t41 90q0 51 -41 86t-103 35q-61 0 -102 -34.5t-45 -88.5h-69q4 81 64.5 132t154.5 51q92 0 152 -49t60 -124q0 -61 -37.5 -103.5t-102.5 -53.5v-3q78 -5 123 -49.5t45 -113.5q0 -85 -67.5 -140t-172.5 -55q-102 0 -166.5 53t-66.5 136h71
q2 -55 47 -91t115 -36q72 0 118.5 38.5t46.5 96.5q0 61 -45 96t-125 35h-79zM270 1h-85l552 741l523 702h85l-548 -736zM1252 0v150h-339v65q115 184 306 453h105v-457h99v-61h-99v-150h-72zM983 211v-1h271v399h-2q-158 -220 -269 -398z" />
    <glyph glyph-name="questiondown" unicode="&#xbf;" horiz-adv-x="931"
d="M871 2q-9 -158 -119 -261.5t-278 -103.5q-169 0 -280 101.5t-111 253.5q0 101 50.5 179.5t162.5 156.5q102 71 138 127t36 144v90h78v-98q0 -98 -42 -164.5t-151 -145.5q-103 -74 -147 -139.5t-44 -146.5q0 -125 89 -206t223 -81q130 0 218.5 80.5t100.5 213.5h76z
M501 983q-28 0 -47 19.5t-19 46.5q0 28 19 47.5t47 19.5t47.5 -19.5t19.5 -47.5q0 -27 -19.5 -46.5t-47.5 -19.5z" />
    <glyph glyph-name="Agrave" unicode="&#xc0;" horiz-adv-x="1221"
d="M1115 0l-180 481h-649l-179 -481h-86l550 1443h80l549 -1443h-85zM608 1340l-296 -788h598l-297 788h-5zM576 1556l-292 287h95l276 -287h-79z" />
    <glyph glyph-name="Aacute" unicode="&#xc1;" horiz-adv-x="1221"
d="M1115 0l-180 481h-649l-179 -481h-86l550 1443h80l549 -1443h-85zM608 1340l-296 -788h598l-297 788h-5zM646 1556h-79l276 287h95z" />
    <glyph glyph-name="Acircumflex" unicode="&#xc2;" horiz-adv-x="1221"
d="M1115 0l-180 481h-649l-179 -481h-86l550 1443h80l549 -1443h-85zM608 1340l-296 -788h598l-297 788h-5zM579 1839h64l270 -289h-83l-217 236h-4l-217 -236h-83z" />
    <glyph glyph-name="Atilde" unicode="&#xc3;" horiz-adv-x="1221"
d="M1115 0l-180 481h-649l-179 -481h-86l550 1443h80l549 -1443h-85zM608 1340l-296 -788h598l-297 788h-5zM747 1561q-36 0 -68.5 17t-56 41t-45.5 48t-48.5 41t-53.5 17q-47 0 -69.5 -41.5t-21.5 -113.5h-62q0 99 40 156.5t114 57.5q37 0 69.5 -17t56 -41t45.5 -48
t47.5 -41t52.5 -17q91 0 91 155h62q0 -98 -40 -156t-113 -58z" />
    <glyph glyph-name="Adieresis" unicode="&#xc4;" horiz-adv-x="1221"
d="M1115 0l-180 481h-649l-179 -481h-86l550 1443h80l549 -1443h-85zM608 1340l-296 -788h598l-297 788h-5zM462 1568q-28 0 -47.5 19.5t-19.5 46.5q0 28 19.5 47t47.5 19q27 0 46.5 -19t19.5 -47q0 -27 -19.5 -46.5t-46.5 -19.5zM760 1568q-27 0 -47 19.5t-20 46.5t20 46.5
t47 19.5t47 -19.5t20 -46.5t-20 -46.5t-47 -19.5z" />
    <glyph glyph-name="Aring" unicode="&#xc5;" horiz-adv-x="1221"
d="M1115 0l-180 481h-649l-179 -481h-86l550 1443h80l549 -1443h-85zM608 1340l-296 -788h598l-297 788h-5zM611 1509q-70 0 -120 50.5t-50 120.5t50 120t120 50t120 -50t50 -120t-50 -120.5t-120 -50.5zM611 1559q51 0 85.5 35t34.5 86t-34.5 86t-85.5 35t-85.5 -35
t-34.5 -86t34.5 -86t85.5 -35z" />
    <glyph glyph-name="AE" unicode="&#xc6;" horiz-adv-x="1900"
d="M815 1373l-441 -881h625v881h-184zM999 0v422h-659l-210 -422h-84l722 1443h1021v-73h-712v-597h676v-72h-676v-628h712v-73h-790z" />
    <glyph glyph-name="Ccedilla" unicode="&#xc7;" horiz-adv-x="1326"
d="M1269 981h-79q-23 174 -162.5 291.5t-325.5 117.5q-254 0 -404 -178t-150 -482q0 -310 150.5 -493.5t403.5 -183.5q192 0 328.5 105.5t159.5 277.5h79q-24 -198 -172 -323t-367 -133l-50 -118q97 0 152.5 -40.5t55.5 -114.5q0 -76 -62 -122.5t-159 -47.5q-79 0 -128 15
v57q45 -15 122 -15q70 0 115.5 32t45.5 80q0 50 -41 76t-118 26h-53v41l54 131q-274 14 -435.5 216t-161.5 534q0 337 172 535.5t463 198.5q220 0 382 -138.5t185 -344.5z" />
    <glyph glyph-name="Egrave" unicode="&#xc8;" horiz-adv-x="1068"
d="M969 73v-73h-841v1443h841v-73h-762v-594h726v-72h-726v-631h762zM513 1556l-292 287h95l276 -287h-79z" />
    <glyph glyph-name="Eacute" unicode="&#xc9;" horiz-adv-x="1068"
d="M969 73v-73h-841v1443h841v-73h-762v-594h726v-72h-726v-631h762zM583 1556h-79l276 287h95z" />
    <glyph glyph-name="Ecircumflex" unicode="&#xca;" horiz-adv-x="1068"
d="M969 73v-73h-841v1443h841v-73h-762v-594h726v-72h-726v-631h762zM516 1839h64l270 -289h-83l-217 236h-4l-217 -236h-83z" />
    <glyph glyph-name="Edieresis" unicode="&#xcb;" horiz-adv-x="1068"
d="M969 73v-73h-841v1443h841v-73h-762v-594h726v-72h-726v-631h762zM399 1568q-28 0 -47.5 19.5t-19.5 46.5q0 28 19.5 47t47.5 19q27 0 46.5 -19t19.5 -47q0 -27 -19.5 -46.5t-46.5 -19.5zM697 1568q-27 0 -47 19.5t-20 46.5t20 46.5t47 19.5t47 -19.5t20 -46.5t-20 -46.5
t-47 -19.5z" />
    <glyph glyph-name="Igrave" unicode="&#xcc;" horiz-adv-x="335"
d="M207 0h-79v1443h79v-1443zM132 1556l-292 287h95l276 -287h-79z" />
    <glyph glyph-name="Iacute" unicode="&#xcd;" horiz-adv-x="335"
d="M207 0h-79v1443h79v-1443zM202 1556h-79l276 287h95z" />
    <glyph glyph-name="Icircumflex" unicode="&#xce;" horiz-adv-x="335"
d="M207 0h-79v1443h79v-1443zM135 1839h64l270 -289h-83l-217 236h-4l-217 -236h-83z" />
    <glyph glyph-name="Idieresis" unicode="&#xcf;" horiz-adv-x="335"
d="M207 0h-79v1443h79v-1443zM18 1568q-28 0 -47.5 19.5t-19.5 46.5q0 28 19.5 47t47.5 19q27 0 46.5 -19t19.5 -47q0 -27 -19.5 -46.5t-46.5 -19.5zM316 1568q-27 0 -47 19.5t-20 46.5t20 46.5t47 19.5t47 -19.5t20 -46.5t-20 -46.5t-47 -19.5z" />
    <glyph glyph-name="Eth" unicode="&#xd0;" horiz-adv-x="1350"
d="M226 73h363q294 0 452.5 168.5t158.5 479.5q0 313 -158.5 481t-452.5 168h-363v-592h358v-73h-358v-632zM146 1443h446q328 0 508 -189t180 -532q0 -344 -180 -533t-508 -189h-446v705h-123v73h123v665z" />
    <glyph glyph-name="Ntilde" unicode="&#xd1;" horiz-adv-x="1341"
d="M206 0h-78v1443h82l919 -1299h6v1299h79v-1443h-75l-927 1307h-6v-1307zM807 1561q-36 0 -68.5 17t-56 41t-45.5 48t-48.5 41t-53.5 17q-47 0 -69.5 -41.5t-21.5 -113.5h-62q0 99 40 156.5t114 57.5q37 0 69.5 -17t56 -41t45.5 -48t47.5 -41t52.5 -17q91 0 91 155h62
q0 -98 -40 -156t-113 -58z" />
    <glyph glyph-name="Ograve" unicode="&#xd2;" horiz-adv-x="1420"
d="M710 1464q295 0 469 -201t174 -541q0 -342 -173.5 -542.5t-469.5 -200.5t-469.5 200.5t-173.5 542.5q0 340 174 541t469 201zM710 1390q-258 0 -410 -181t-152 -487q0 -307 152.5 -488t409.5 -181t409.5 181t152.5 488q0 306 -152.5 487t-409.5 181zM675 1556l-292 287
h95l276 -287h-79z" />
    <glyph glyph-name="Oacute" unicode="&#xd3;" horiz-adv-x="1420"
d="M710 1464q295 0 469 -201t174 -541q0 -342 -173.5 -542.5t-469.5 -200.5t-469.5 200.5t-173.5 542.5q0 340 174 541t469 201zM710 1390q-258 0 -410 -181t-152 -487q0 -307 152.5 -488t409.5 -181t409.5 181t152.5 488q0 306 -152.5 487t-409.5 181zM745 1556h-79
l276 287h95z" />
    <glyph glyph-name="Ocircumflex" unicode="&#xd4;" horiz-adv-x="1420"
d="M710 1464q295 0 469 -201t174 -541q0 -342 -173.5 -542.5t-469.5 -200.5t-469.5 200.5t-173.5 542.5q0 340 174 541t469 201zM710 1390q-258 0 -410 -181t-152 -487q0 -307 152.5 -488t409.5 -181t409.5 181t152.5 488q0 306 -152.5 487t-409.5 181zM678 1839h64
l270 -289h-83l-217 236h-4l-217 -236h-83z" />
    <glyph glyph-name="Otilde" unicode="&#xd5;" horiz-adv-x="1420"
d="M710 1464q295 0 469 -201t174 -541q0 -342 -173.5 -542.5t-469.5 -200.5t-469.5 200.5t-173.5 542.5q0 340 174 541t469 201zM710 1390q-258 0 -410 -181t-152 -487q0 -307 152.5 -488t409.5 -181t409.5 181t152.5 488q0 306 -152.5 487t-409.5 181zM846 1561
q-36 0 -68.5 17t-56 41t-45.5 48t-48.5 41t-53.5 17q-46 0 -69 -41.5t-22 -113.5h-62q0 99 40 156.5t114 57.5q37 0 69.5 -17t56 -41t45.5 -48t47.5 -41t52.5 -17q91 0 91 155h62q0 -98 -40 -156t-113 -58z" />
    <glyph glyph-name="Odieresis" unicode="&#xd6;" horiz-adv-x="1420"
d="M710 1464q295 0 469 -201t174 -541q0 -342 -173.5 -542.5t-469.5 -200.5t-469.5 200.5t-173.5 542.5q0 340 174 541t469 201zM710 1390q-258 0 -410 -181t-152 -487q0 -307 152.5 -488t409.5 -181t409.5 181t152.5 488q0 306 -152.5 487t-409.5 181zM561 1568
q-28 0 -47.5 19.5t-19.5 46.5q0 28 19.5 47t47.5 19q27 0 46.5 -19t19.5 -47q0 -27 -19.5 -46.5t-46.5 -19.5zM859 1568q-27 0 -47 19.5t-20 46.5t20 46.5t47 19.5t47 -19.5t20 -46.5t-20 -46.5t-47 -19.5z" />
    <glyph glyph-name="multiply" unicode="&#xd7;" horiz-adv-x="1192"
d="M597 530l-322 -322l-50 49l322 322l-322 323l50 50l321 -323l322 321l50 -48l-321 -323l321 -321l-50 -50z" />
    <glyph glyph-name="Oslash" unicode="&#xd8;" horiz-adv-x="1420"
d="M1136 1189l-784 -1008q143 -128 358 -128q257 0 409.5 181t152.5 488q0 287 -136 467zM308 226l787 1010q-149 154 -385 154q-258 0 -410 -181t-152 -487q0 -316 160 -496zM1338 1449l-151 -195q166 -200 166 -532q0 -342 -173.5 -542.5t-469.5 -200.5q-243 0 -407 139
l-157 -202l-51 37l162 208q-190 201 -190 561q0 340 174 541t469 201q265 0 434 -164l144 184z" />
    <glyph glyph-name="Ugrave" unicode="&#xd9;" horiz-adv-x="1332"
d="M207 1443v-939q0 -207 124 -329t336 -122t336 122t124 329v939h79v-942q0 -237 -145.5 -379.5t-393.5 -142.5t-393.5 142.5t-145.5 379.5v942h79zM631 1556l-292 287h95l276 -287h-79z" />
    <glyph glyph-name="Uacute" unicode="&#xda;" horiz-adv-x="1332"
d="M207 1443v-939q0 -207 124 -329t336 -122t336 122t124 329v939h79v-942q0 -237 -145.5 -379.5t-393.5 -142.5t-393.5 142.5t-145.5 379.5v942h79zM701 1556h-79l276 287h95z" />
    <glyph glyph-name="Ucircumflex" unicode="&#xdb;" horiz-adv-x="1332"
d="M207 1443v-939q0 -207 124 -329t336 -122t336 122t124 329v939h79v-942q0 -237 -145.5 -379.5t-393.5 -142.5t-393.5 142.5t-145.5 379.5v942h79zM634 1839h64l270 -289h-83l-217 236h-4l-217 -236h-83z" />
    <glyph glyph-name="Udieresis" unicode="&#xdc;" horiz-adv-x="1332"
d="M207 1443v-939q0 -207 124 -329t336 -122t336 122t124 329v939h79v-942q0 -237 -145.5 -379.5t-393.5 -142.5t-393.5 142.5t-145.5 379.5v942h79zM517 1568q-28 0 -47.5 19.5t-19.5 46.5q0 28 19.5 47t47.5 19q27 0 46.5 -19t19.5 -47q0 -27 -19.5 -46.5t-46.5 -19.5z
M815 1568q-27 0 -47 19.5t-20 46.5t20 46.5t47 19.5t47 -19.5t20 -46.5t-20 -46.5t-47 -19.5z" />
    <glyph glyph-name="Yacute" unicode="&#xdd;" horiz-adv-x="1172"
d="M626 0h-79v629l-525 814h93l469 -733h5l469 733h92l-524 -814v-629zM621 1556h-79l276 287h95z" />
    <glyph glyph-name="Thorn" unicode="&#xde;" horiz-adv-x="1209"
d="M163 1443h80v-285h404q197 0 318.5 -108.5t121.5 -295.5t-120.5 -294.5t-320.5 -107.5h-403v-352h-80v1443zM243 1085v-661h390q175 0 275 88t100 242q0 153 -100.5 242t-274.5 89h-390z" />
    <glyph glyph-name="germandbls" unicode="&#xdf;" horiz-adv-x="1056"
d="M206 0h-77v1076q0 173 98.5 276t270.5 103q164 0 267.5 -97.5t103.5 -246.5q0 -123 -72 -222t-177 -125v-3q159 -15 261.5 -119.5t102.5 -254.5q0 -172 -122.5 -288.5t-308.5 -116.5q-82 0 -166 16v72q63 -18 161 -18q151 0 255 97t104 239t-112.5 236t-290.5 94h-95v74
h92q121 0 206.5 94.5t85.5 220.5q0 119 -82.5 199t-211.5 80q-136 0 -214.5 -86.5t-78.5 -228.5v-1071z" />
    <glyph glyph-name="agrave" unicode="&#xe0;" horiz-adv-x="996"
d="M439 52q154 0 262.5 97.5t108.5 236.5v154l-347 -25q-146 -11 -223.5 -71.5t-77.5 -163.5q0 -100 78 -164t199 -64zM428 -16q-152 0 -248 82.5t-96 213.5q0 133 93.5 209t274.5 90l358 25v93q0 135 -77.5 212t-215.5 77q-135 0 -218 -65t-103 -183h-75q15 146 121.5 232
t275.5 86q171 0 270.5 -95t99.5 -258v-703h-75v223h-2q-40 -106 -146.5 -172.5t-236.5 -66.5zM565 1210h-76l-244 302h90z" />
    <glyph glyph-name="aacute" unicode="&#xe1;" horiz-adv-x="996"
d="M439 52q154 0 262.5 97.5t108.5 236.5v154l-347 -25q-146 -11 -223.5 -71.5t-77.5 -163.5q0 -100 78 -164t199 -64zM428 -16q-152 0 -248 82.5t-96 213.5q0 133 93.5 209t274.5 90l358 25v93q0 135 -77.5 212t-215.5 77q-135 0 -218 -65t-103 -183h-75q15 146 121.5 232
t275.5 86q171 0 270.5 -95t99.5 -258v-703h-75v223h-2q-40 -106 -146.5 -172.5t-236.5 -66.5zM536 1210h-76l230 302h90z" />
    <glyph glyph-name="acircumflex" unicode="&#xe2;" horiz-adv-x="996"
d="M439 52q154 0 262.5 97.5t108.5 236.5v154l-347 -25q-146 -11 -223.5 -71.5t-77.5 -163.5q0 -100 78 -164t199 -64zM428 -16q-152 0 -248 82.5t-96 213.5q0 133 93.5 209t274.5 90l358 25v93q0 135 -77.5 212t-215.5 77q-135 0 -218 -65t-103 -183h-75q15 146 121.5 232
t275.5 86q171 0 270.5 -95t99.5 -258v-703h-75v223h-2q-40 -106 -146.5 -172.5t-236.5 -66.5zM547 1512l266 -302h-80l-217 247h-3l-217 -247h-81l267 302h65z" />
    <glyph glyph-name="atilde" unicode="&#xe3;" horiz-adv-x="996"
d="M439 52q154 0 262.5 97.5t108.5 236.5v154l-347 -25q-146 -11 -223.5 -71.5t-77.5 -163.5q0 -100 78 -164t199 -64zM428 -16q-152 0 -248 82.5t-96 213.5q0 133 93.5 209t274.5 90l358 25v93q0 135 -77.5 212t-215.5 77q-135 0 -218 -65t-103 -183h-75q15 146 121.5 232
t275.5 86q171 0 270.5 -95t99.5 -258v-703h-75v223h-2q-40 -106 -146.5 -172.5t-236.5 -66.5zM651 1212q-36 0 -68.5 17t-56 41t-45.5 48t-48.5 41t-53.5 17q-47 0 -69.5 -41.5t-21.5 -113.5h-62q0 99 40 156.5t114 57.5q37 0 69.5 -17t56 -41t45.5 -48t47.5 -41t52.5 -17
q91 0 91 155h62q0 -98 -40 -156t-113 -58z" />
    <glyph glyph-name="adieresis" unicode="&#xe4;" horiz-adv-x="996"
d="M439 52q154 0 262.5 97.5t108.5 236.5v154l-347 -25q-146 -11 -223.5 -71.5t-77.5 -163.5q0 -100 78 -164t199 -64zM428 -16q-152 0 -248 82.5t-96 213.5q0 133 93.5 209t274.5 90l358 25v93q0 135 -77.5 212t-215.5 77q-135 0 -218 -65t-103 -183h-75q15 146 121.5 232
t275.5 86q171 0 270.5 -95t99.5 -258v-703h-75v223h-2q-40 -106 -146.5 -172.5t-236.5 -66.5zM365 1213q-28 0 -47.5 19.5t-19.5 46.5q0 28 19.5 47t47.5 19q27 0 46.5 -19t19.5 -47q0 -27 -19.5 -46.5t-46.5 -19.5zM663 1213q-27 0 -47 19.5t-20 46.5t20 46.5t47 19.5
t47 -19.5t20 -46.5t-20 -46.5t-47 -19.5z" />
    <glyph glyph-name="aring" unicode="&#xe5;" horiz-adv-x="996"
d="M439 52q154 0 262.5 97.5t108.5 236.5v154l-347 -25q-146 -11 -223.5 -71.5t-77.5 -163.5q0 -100 78 -164t199 -64zM428 -16q-152 0 -248 82.5t-96 213.5q0 133 93.5 209t274.5 90l358 25v93q0 135 -77.5 212t-215.5 77q-135 0 -218 -65t-103 -183h-75q15 146 121.5 232
t275.5 86q171 0 270.5 -95t99.5 -258v-703h-75v223h-2q-40 -106 -146.5 -172.5t-236.5 -66.5zM514 1194q-70 0 -120 50.5t-50 120.5t50 120.5t120 50.5t120 -50.5t50 -120.5q0 -71 -50 -121t-120 -50zM514 1244q51 0 85.5 35t34.5 86t-34.5 86t-85.5 35t-85.5 -35t-34.5 -86
t34.5 -86t85.5 -35z" />
    <glyph glyph-name="ae" unicode="&#xe6;" horiz-adv-x="1768"
d="M1273 -16q-149 0 -256 75.5t-156 217.5h-5q-44 -136 -156 -214.5t-263 -78.5q-159 0 -256.5 81t-97.5 212q0 127 93.5 199.5t274.5 84.5l359 22v122q0 131 -80.5 206t-219.5 75q-132 0 -216.5 -66.5t-101.5 -181.5h-75q14 144 120.5 231t270.5 87q149 0 247 -73.5
t111 -202.5h6q45 125 149 200.5t250 75.5q199 0 316.5 -135.5t117.5 -362.5v-45h-818v-8q0 -204 105.5 -328t280.5 -124q135 0 224.5 66t113.5 172h78q-26 -135 -138.5 -221t-277.5 -86zM1267 987q-163 0 -266.5 -113t-112.5 -296h738q-1 184 -99 296.5t-260 112.5zM439 53
q155 0 263 98t108 238v129l-348 -22q-148 -10 -224.5 -65.5t-76.5 -152.5q0 -99 77 -162t201 -63z" />
    <glyph glyph-name="ccedilla" unicode="&#xe7;" horiz-adv-x="994"
d="M938 726h-77q-24 114 -116 187t-223 73q-175 0 -278 -126t-103 -340q0 -215 103 -340.5t278 -125.5q131 0 222.5 69t115.5 182h77q-23 -136 -128 -224t-258 -96l-52 -123q97 0 152.5 -40.5t55.5 -114.5q0 -76 -62 -122.5t-159 -47.5q-79 0 -128 15v57q45 -15 122 -15
q70 0 115.5 32t45.5 80q0 50 -41 76t-118 26h-53v41l56 136q-195 14 -308.5 156.5t-113.5 378.5q0 246 124.5 391t333.5 145q165 0 279 -93.5t138 -236.5z" />
    <glyph glyph-name="egrave" unicode="&#xe8;" horiz-adv-x="1027"
d="M518 987q-161 0 -264 -114t-111 -301h742q-1 185 -102 300t-265 115zM874 291h78q-27 -136 -141 -221.5t-284 -85.5q-214 0 -339 142.5t-125 392.5q0 242 125 389.5t331 147.5q201 0 323.5 -139t122.5 -366v-44h-823v-4q0 -210 104.5 -330t281.5 -120q139 0 230.5 66
t115.5 172zM570 1210h-76l-244 302h90z" />
    <glyph glyph-name="eacute" unicode="&#xe9;" horiz-adv-x="1027"
d="M518 987q-161 0 -264 -114t-111 -301h742q-1 185 -102 300t-265 115zM874 291h78q-27 -136 -141 -221.5t-284 -85.5q-214 0 -339 142.5t-125 392.5q0 242 125 389.5t331 147.5q201 0 323.5 -139t122.5 -366v-44h-823v-4q0 -210 104.5 -330t281.5 -120q139 0 230.5 66
t115.5 172zM541 1210h-76l230 302h90z" />
    <glyph glyph-name="ecircumflex" unicode="&#xea;" horiz-adv-x="1027"
d="M518 987q-161 0 -264 -114t-111 -301h742q-1 185 -102 300t-265 115zM874 291h78q-27 -136 -141 -221.5t-284 -85.5q-214 0 -339 142.5t-125 392.5q0 242 125 389.5t331 147.5q201 0 323.5 -139t122.5 -366v-44h-823v-4q0 -210 104.5 -330t281.5 -120q139 0 230.5 66
t115.5 172zM552 1512l266 -302h-80l-217 247h-3l-217 -247h-81l267 302h65z" />
    <glyph glyph-name="edieresis" unicode="&#xeb;" horiz-adv-x="1027"
d="M518 987q-161 0 -264 -114t-111 -301h742q-1 185 -102 300t-265 115zM874 291h78q-27 -136 -141 -221.5t-284 -85.5q-214 0 -339 142.5t-125 392.5q0 242 125 389.5t331 147.5q201 0 323.5 -139t122.5 -366v-44h-823v-4q0 -210 104.5 -330t281.5 -120q139 0 230.5 66
t115.5 172zM370 1213q-28 0 -47.5 19.5t-19.5 46.5q0 28 19.5 47t47.5 19q27 0 46.5 -19t19.5 -47q0 -27 -19.5 -46.5t-46.5 -19.5zM668 1213q-27 0 -47 19.5t-20 46.5t20 46.5t47 19.5t47 -19.5t20 -46.5t-20 -46.5t-47 -19.5z" />
    <glyph glyph-name="igrave" unicode="&#xec;" horiz-adv-x="326"
d="M124 0v1040h78v-1040h-78zM215 1210h-76l-244 302h90z" />
    <glyph glyph-name="iacute" unicode="&#xed;" horiz-adv-x="326"
d="M124 0v1040h78v-1040h-78zM186 1210h-76l230 302h90z" />
    <glyph glyph-name="icircumflex" unicode="&#xee;" horiz-adv-x="326"
d="M124 0v1040h78v-1040h-78zM197 1512l266 -302h-80l-217 247h-3l-217 -247h-81l267 302h65z" />
    <glyph glyph-name="idieresis" unicode="&#xef;" horiz-adv-x="326"
d="M124 0v1040h78v-1040h-78zM15 1213q-28 0 -47.5 19.5t-19.5 46.5q0 28 19.5 47t47.5 19q27 0 46.5 -19t19.5 -47q0 -27 -19.5 -46.5t-46.5 -19.5zM313 1213q-27 0 -47 19.5t-20 46.5t20 46.5t47 19.5t47 -19.5t20 -46.5t-20 -46.5t-47 -19.5z" />
    <glyph glyph-name="eth" unicode="&#xf0;" horiz-adv-x="1054"
d="M529 -16q-206 0 -333.5 146t-127.5 384q0 221 126 362t324 141q118 0 214.5 -57.5t145.5 -159.5h7q-27 127 -83 239t-132 191l-280 -113l-19 56l256 104q-73 70 -225 161h107q116 -66 186 -137l259 105l19 -56l-235 -94q240 -272 240 -716q0 -255 -121.5 -405.5
t-327.5 -150.5zM525 947q-166 0 -272 -121t-106 -311q0 -205 106 -333t276 -128q167 0 270.5 125.5t103.5 326.5q0 202 -102.5 321.5t-275.5 119.5z" />
    <glyph glyph-name="ntilde" unicode="&#xf1;" horiz-adv-x="1039"
d="M115 0v1040h73v-226h2q36 109 132.5 175.5t227.5 66.5q172 0 276 -103.5t104 -278.5v-674h-78v664q0 150 -87 236t-233 86q-151 0 -245 -101.5t-94 -263.5v-621h-78zM661 1212q-36 0 -68.5 17t-56 41t-45.5 48t-48.5 41t-53.5 17q-47 0 -69.5 -41.5t-21.5 -113.5h-62
q0 99 40 156.5t114 57.5q37 0 69.5 -17t56 -41t45.5 -48t47.5 -41t52.5 -17q91 0 91 155h62q0 -98 -40 -156t-113 -58z" />
    <glyph glyph-name="ograve" unicode="&#xf2;" horiz-adv-x="1052"
d="M526 -16q-209 0 -336 145t-127 391t127 391t336 145t336.5 -145t127.5 -391t-127.5 -391t-336.5 -145zM526 54q175 0 280.5 126t105.5 340q0 215 -105.5 340.5t-280.5 125.5t-280 -125.5t-105 -340.5t105 -340.5t280 -125.5zM577 1210h-76l-244 302h90z" />
    <glyph glyph-name="oacute" unicode="&#xf3;" horiz-adv-x="1052"
d="M526 -16q-209 0 -336 145t-127 391t127 391t336 145t336.5 -145t127.5 -391t-127.5 -391t-336.5 -145zM526 54q175 0 280.5 126t105.5 340q0 215 -105.5 340.5t-280.5 125.5t-280 -125.5t-105 -340.5t105 -340.5t280 -125.5zM548 1210h-76l230 302h90z" />
    <glyph glyph-name="ocircumflex" unicode="&#xf4;" horiz-adv-x="1052"
d="M526 -16q-209 0 -336 145t-127 391t127 391t336 145t336.5 -145t127.5 -391t-127.5 -391t-336.5 -145zM526 54q175 0 280.5 126t105.5 340q0 215 -105.5 340.5t-280.5 125.5t-280 -125.5t-105 -340.5t105 -340.5t280 -125.5zM559 1512l266 -302h-80l-217 247h-3
l-217 -247h-81l267 302h65z" />
    <glyph glyph-name="otilde" unicode="&#xf5;" horiz-adv-x="1052"
d="M526 -16q-209 0 -336 145t-127 391t127 391t336 145t336.5 -145t127.5 -391t-127.5 -391t-336.5 -145zM526 54q175 0 280.5 126t105.5 340q0 215 -105.5 340.5t-280.5 125.5t-280 -125.5t-105 -340.5t105 -340.5t280 -125.5zM662 1212q-36 0 -68.5 17t-56 41t-45.5 48
t-48.5 41t-53.5 17q-46 0 -69 -41.5t-22 -113.5h-62q0 99 40 156.5t114 57.5q37 0 69.5 -17t56 -41t45.5 -48t47.5 -41t52.5 -17q91 0 91 155h62q0 -98 -40 -156t-113 -58z" />
    <glyph glyph-name="odieresis" unicode="&#xf6;" horiz-adv-x="1052"
d="M526 -16q-209 0 -336 145t-127 391t127 391t336 145t336.5 -145t127.5 -391t-127.5 -391t-336.5 -145zM526 54q175 0 280.5 126t105.5 340q0 215 -105.5 340.5t-280.5 125.5t-280 -125.5t-105 -340.5t105 -340.5t280 -125.5zM377 1213q-28 0 -47.5 19.5t-19.5 46.5
q0 28 19.5 47t47.5 19q27 0 46.5 -19t19.5 -47q0 -27 -19.5 -46.5t-46.5 -19.5zM675 1213q-27 0 -47 19.5t-20 46.5t20 46.5t47 19.5t47 -19.5t20 -46.5t-20 -46.5t-47 -19.5z" />
    <glyph glyph-name="divide" unicode="&#xf7;" horiz-adv-x="1192"
d="M597 832q-35 0 -59 24t-24 59t24 58.5t59 23.5t58.5 -23.5t23.5 -58.5t-23.5 -59t-58.5 -24zM597 138q-35 0 -59 24t-24 58q0 35 24 59t59 24t58.5 -24t23.5 -59q0 -34 -23.5 -58t-58.5 -24zM1086 541h-980v69h980v-69z" />
    <glyph glyph-name="oslash" unicode="&#xf8;" horiz-adv-x="1052"
d="M814 851l-514 -723q94 -74 226 -74q175 0 280.5 126t105.5 340q0 205 -98 331zM255 169l517 727q-99 90 -246 90q-175 0 -280 -125.5t-105 -340.5q0 -223 114 -351zM963 1061l-104 -146q131 -147 131 -395q0 -246 -127.5 -391t-336.5 -145q-158 0 -269 84l-105 -148
l-50 34l109 153q-148 146 -148 413q0 246 127 391t336 145q171 0 289 -99l98 137z" />
    <glyph glyph-name="ugrave" unicode="&#xf9;" horiz-adv-x="1039"
d="M924 1040v-1040h-73v226h-3q-35 -106 -135.5 -174t-228.5 -68q-169 0 -272 102.5t-103 276.5v677h77v-665q0 -151 85 -236t229 -85q150 0 248 99.5t98 262.5v624h78zM567 1210h-76l-244 302h90z" />
    <glyph glyph-name="uacute" unicode="&#xfa;" horiz-adv-x="1039"
d="M924 1040v-1040h-73v226h-3q-35 -106 -135.5 -174t-228.5 -68q-169 0 -272 102.5t-103 276.5v677h77v-665q0 -151 85 -236t229 -85q150 0 248 99.5t98 262.5v624h78zM538 1210h-76l230 302h90z" />
    <glyph glyph-name="ucircumflex" unicode="&#xfb;" horiz-adv-x="1039"
d="M924 1040v-1040h-73v226h-3q-35 -106 -135.5 -174t-228.5 -68q-169 0 -272 102.5t-103 276.5v677h77v-665q0 -151 85 -236t229 -85q150 0 248 99.5t98 262.5v624h78zM549 1512l266 -302h-80l-217 247h-3l-217 -247h-81l267 302h65z" />
    <glyph glyph-name="udieresis" unicode="&#xfc;" horiz-adv-x="1039"
d="M924 1040v-1040h-73v226h-3q-35 -106 -135.5 -174t-228.5 -68q-169 0 -272 102.5t-103 276.5v677h77v-665q0 -151 85 -236t229 -85q150 0 248 99.5t98 262.5v624h78zM367 1213q-28 0 -47.5 19.5t-19.5 46.5q0 28 19.5 47t47.5 19q27 0 46.5 -19t19.5 -47
q0 -27 -19.5 -46.5t-46.5 -19.5zM665 1213q-27 0 -47 19.5t-20 46.5t20 46.5t47 19.5t47 -19.5t20 -46.5t-20 -46.5t-47 -19.5z" />
    <glyph glyph-name="yacute" unicode="&#xfd;" horiz-adv-x="891"
d="M173 -359q-30 0 -53 7v69q24 -8 55 -8q69 0 112.5 43t83.5 149l33 85l-398 1054h84l354 -965h3l354 965h83l-410 -1090q-70 -186 -130 -247.5t-171 -61.5zM467 1210h-76l230 302h90z" />
    <glyph glyph-name="thorn" unicode="&#xfe;" horiz-adv-x="1091"
d="M591 1056q196 0 317 -148t121 -388t-121.5 -388t-316.5 -148q-134 0 -236.5 72t-145.5 196h-7v-623h-77v1814h73v-666h8q45 128 148 203.5t237 75.5zM578 54q168 0 270 128t102 337q0 210 -102 338.5t-270 128.5t-272.5 -129.5t-104.5 -336.5t105 -336.5t272 -129.5z" />
    <glyph glyph-name="ydieresis" unicode="&#xff;" horiz-adv-x="891"
d="M173 -359q-30 0 -53 7v69q24 -8 55 -8q69 0 112.5 43t83.5 149l33 85l-398 1054h84l354 -965h3l354 965h83l-410 -1090q-70 -186 -130 -247.5t-171 -61.5zM296 1213q-28 0 -47.5 19.5t-19.5 46.5q0 28 19.5 47t47.5 19q27 0 46.5 -19t19.5 -47q0 -27 -19.5 -46.5
t-46.5 -19.5zM594 1213q-27 0 -47 19.5t-20 46.5t20 46.5t47 19.5t47 -19.5t20 -46.5t-20 -46.5t-47 -19.5z" />
    <glyph glyph-name="Amacron" unicode="&#x100;" horiz-adv-x="1221"
d="M1115 0l-180 481h-649l-179 -481h-86l550 1443h80l549 -1443h-85zM608 1340l-296 -788h598l-297 788h-5zM901 1679v-59h-580v59h580z" />
    <glyph glyph-name="amacron" unicode="&#x101;" horiz-adv-x="996"
d="M439 52q154 0 262.5 97.5t108.5 236.5v154l-347 -25q-146 -11 -223.5 -71.5t-77.5 -163.5q0 -100 78 -164t199 -64zM428 -16q-152 0 -248 82.5t-96 213.5q0 133 93.5 209t274.5 90l358 25v93q0 135 -77.5 212t-215.5 77q-135 0 -218 -65t-103 -183h-75q15 146 121.5 232
t275.5 86q171 0 270.5 -95t99.5 -258v-703h-75v223h-2q-40 -106 -146.5 -172.5t-236.5 -66.5zM755 1323v-60h-492v60h492z" />
    <glyph glyph-name="Abreve" unicode="&#x102;" horiz-adv-x="1221"
d="M1115 0l-180 481h-649l-179 -481h-86l550 1443h80l549 -1443h-85zM608 1340l-296 -788h598l-297 788h-5zM339 1788h64q2 -79 59.5 -129t148.5 -50t148.5 50t59.5 129h64q-3 -105 -78 -171t-194 -66t-194 66t-78 171z" />
    <glyph glyph-name="abreve" unicode="&#x103;" horiz-adv-x="996"
d="M439 52q154 0 262.5 97.5t108.5 236.5v154l-347 -25q-146 -11 -223.5 -71.5t-77.5 -163.5q0 -100 78 -164t199 -64zM428 -16q-152 0 -248 82.5t-96 213.5q0 133 93.5 209t274.5 90l358 25v93q0 135 -77.5 212t-215.5 77q-135 0 -218 -65t-103 -183h-75q15 146 121.5 232
t275.5 86q171 0 270.5 -95t99.5 -258v-703h-75v223h-2q-40 -106 -146.5 -172.5t-236.5 -66.5zM242 1460h63q0 -89 57 -142.5t152 -53.5t152 53.5t57 142.5h63q0 -117 -75 -185t-197 -68t-197 68t-75 185z" />
    <glyph glyph-name="Aogonek" unicode="&#x104;" horiz-adv-x="1221"
d="M608 1340l-296 -788h598l-297 788h-5zM1182 -383q-26 -11 -83 -11q-87 0 -143.5 48t-56.5 124q0 72 53 133.5t157 103.5l-174 466h-649l-179 -481h-86l550 1443h80l549 -1442l-7 -3q-110 -40 -167.5 -93t-57.5 -115q0 -54 40 -87.5t101 -33.5q43 0 73 8v-60z" />
    <glyph glyph-name="aogonek" unicode="&#x105;" horiz-adv-x="996"
d="M439 52q154 0 262.5 97.5t108.5 236.5v154l-347 -26q-146 -11 -223.5 -71t-77.5 -163q0 -100 78 -164t199 -64zM886 -369q-27 -11 -81 -11q-85 0 -139.5 46.5t-54.5 120.5q0 143 202 231v205h-2q-40 -106 -146.5 -172.5t-236.5 -66.5q-152 0 -248 82.5t-96 213.5
q0 133 94 208.5t274 89.5l358 26v92q0 135 -77.5 211.5t-215.5 76.5q-133 0 -217 -64.5t-103 -181.5h-74q13 144 121 230t274 86q170 0 270 -95t100 -257v-703l-8 -3q-200 -84 -200 -197q0 -52 38 -84.5t97 -32.5q41 0 71 8v-59z" />
    <glyph glyph-name="Cacute" unicode="&#x106;" horiz-adv-x="1326"
d="M702 -21q-290 0 -462.5 203.5t-172.5 547.5q0 337 172 535.5t463 198.5q220 0 382 -138.5t185 -344.5h-79q-23 174 -162.5 291.5t-325.5 117.5q-254 0 -404 -178t-150 -482q0 -310 150.5 -493.5t403.5 -183.5q192 0 328.5 105.5t159.5 277.5h79q-25 -205 -181.5 -331
t-385.5 -126zM737 1557h-79l276 287h95z" />
    <glyph glyph-name="cacute" unicode="&#x107;" horiz-adv-x="994"
d="M938 726h-77q-24 114 -116 187t-223 73q-175 0 -278 -126t-103 -340q0 -215 103 -340.5t278 -125.5q131 0 222.5 69t115.5 182h77q-23 -143 -137 -232t-278 -89q-211 0 -335 144t-124 392q0 246 124.5 391t333.5 145q165 0 279 -93.5t138 -236.5zM543 1210h-76l230 302
h90z" />
    <glyph glyph-name="Ccircumflex" unicode="&#x108;" horiz-adv-x="1326"
d="M702 -21q-290 0 -462.5 203.5t-172.5 547.5q0 337 172 535.5t463 198.5q220 0 382 -138.5t185 -344.5h-79q-23 174 -162.5 291.5t-325.5 117.5q-254 0 -404 -178t-150 -482q0 -310 150.5 -493.5t403.5 -183.5q192 0 328.5 105.5t159.5 277.5h79q-25 -205 -181.5 -331
t-385.5 -126zM670 1840h64l270 -289h-83l-217 236h-4l-217 -236h-83z" />
    <glyph glyph-name="ccircumflex" unicode="&#x109;" horiz-adv-x="994"
d="M938 726h-77q-24 114 -116 187t-223 73q-175 0 -278 -126t-103 -340q0 -215 103 -340.5t278 -125.5q131 0 222.5 69t115.5 182h77q-23 -143 -137 -232t-278 -89q-211 0 -335 144t-124 392q0 246 124.5 391t333.5 145q165 0 279 -93.5t138 -236.5zM554 1512l266 -302h-80
l-217 247h-3l-217 -247h-81l267 302h65z" />
    <glyph glyph-name="Cdotaccent" unicode="&#x10a;" horiz-adv-x="1326"
d="M702 -21q-290 0 -462.5 203.5t-172.5 547.5q0 337 172 535.5t463 198.5q220 0 382 -138.5t185 -344.5h-79q-23 174 -162.5 291.5t-325.5 117.5q-254 0 -404 -178t-150 -482q0 -310 150.5 -493.5t403.5 -183.5q192 0 328.5 105.5t159.5 277.5h79q-25 -205 -181.5 -331
t-385.5 -126zM702 1564q-32 0 -54.5 22.5t-22.5 53.5t22.5 53.5t54.5 22.5t54.5 -22.5t22.5 -53.5t-22.5 -53.5t-54.5 -22.5z" />
    <glyph glyph-name="cdotaccent" unicode="&#x10b;" horiz-adv-x="994"
d="M938 726h-77q-24 114 -116 187t-223 73q-175 0 -278 -126t-103 -340q0 -215 103 -340.5t278 -125.5q131 0 222.5 69t115.5 182h77q-23 -143 -137 -232t-278 -89q-211 0 -335 144t-124 392q0 246 124.5 391t333.5 145q165 0 279 -93.5t138 -236.5zM521 1213q-32 0 -55 23
t-23 54t23 54t55 23t55 -23t23 -54t-23 -54t-55 -23z" />
    <glyph glyph-name="Ccaron" unicode="&#x10c;" horiz-adv-x="1326"
d="M702 -21q-290 0 -462.5 203.5t-172.5 547.5q0 337 172 535.5t463 198.5q220 0 382 -138.5t185 -344.5h-79q-23 174 -162.5 291.5t-325.5 117.5q-254 0 -404 -178t-150 -482q0 -310 150.5 -493.5t403.5 -183.5q192 0 328.5 105.5t159.5 277.5h79q-25 -205 -181.5 -331
t-385.5 -126zM670 1554l-270 289h83l217 -236h4l217 236h83l-270 -289h-64z" />
    <glyph glyph-name="ccaron" unicode="&#x10d;" horiz-adv-x="994"
d="M938 726h-77q-24 114 -116 187t-223 73q-175 0 -278 -126t-103 -340q0 -215 103 -340.5t278 -125.5q131 0 222.5 69t115.5 182h77q-23 -143 -137 -232t-278 -89q-211 0 -335 144t-124 392q0 246 124.5 391t333.5 145q165 0 279 -93.5t138 -236.5zM554 1210h-65l-267 302
h81l217 -248h3l217 248h80z" />
    <glyph glyph-name="Dcaron" unicode="&#x10e;" horiz-adv-x="1329"
d="M128 1443h446q328 0 508 -189t180 -532q0 -344 -180 -533t-508 -189h-446v1443zM208 1370v-1297h363q294 0 452.5 168.5t158.5 479.5q0 313 -158.5 481t-452.5 168h-363zM520 1553l-270 289h83l217 -236h4l217 236h83l-270 -289h-64z" />
    <glyph glyph-name="dcaron" unicode="&#x10f;" horiz-adv-x="1198"
d="M1154 1443h67l-14 -373h-53v373zM506 -16q-196 0 -319.5 148.5t-123.5 387.5t123 387.5t319 148.5q141 0 247 -82t142 -207h2v676h78v-1443h-73v279h-3q-37 -129 -143.5 -212t-248.5 -83zM516 986q-166 0 -270.5 -128.5t-104.5 -336.5q0 -209 104.5 -338t270.5 -129
q168 0 274.5 130t106.5 336t-106.5 336t-274.5 130z" />
    <glyph glyph-name="Dcroat" unicode="&#x110;" horiz-adv-x="1347"
d="M226 73h363q294 0 452.5 168.5t158.5 479.5q0 313 -158.5 481t-452.5 168h-363v-592h358v-73h-358v-632zM146 1443h446q328 0 508 -189t180 -532q0 -344 -180 -533t-508 -189h-446v705h-123v73h123v665z" />
    <glyph glyph-name="dcroat" unicode="&#x111;" horiz-adv-x="1120"
d="M516 56q168 0 274.5 129.5t106.5 334.5t-106.5 334.5t-274.5 129.5q-166 0 -270.5 -128.5t-104.5 -334.5q0 -207 104.5 -336t270.5 -129zM1107 1294v-60h-133v-1234h-73v279h-3q-37 -129 -143.5 -211t-248.5 -82q-195 0 -319 148.5t-124 385.5q0 238 123.5 386t318.5 148
q141 0 247.5 -81t141.5 -206h2v467h-268v60h268v149h78v-149h133z" />
    <glyph glyph-name="Emacron" unicode="&#x112;" horiz-adv-x="1068"
d="M969 73v-73h-841v1443h841v-73h-762v-594h726v-72h-726v-631h762zM838 1679v-59h-580v59h580z" />
    <glyph glyph-name="emacron" unicode="&#x113;" horiz-adv-x="1027"
d="M518 987q-161 0 -264 -114t-111 -301h742q-1 185 -102 300t-265 115zM874 291h78q-27 -136 -141 -221.5t-284 -85.5q-214 0 -339 142.5t-125 392.5q0 242 125 389.5t331 147.5q201 0 323.5 -139t122.5 -366v-44h-823v-4q0 -210 104.5 -330t281.5 -120q139 0 230.5 66
t115.5 172zM760 1323v-60h-492v60h492z" />
    <glyph glyph-name="Ebreve" unicode="&#x114;" horiz-adv-x="1068"
d="M969 73v-73h-841v1443h841v-73h-762v-594h726v-72h-726v-631h762zM276 1788h64q2 -79 59.5 -129t148.5 -50t148.5 50t59.5 129h64q-3 -105 -78 -171t-194 -66t-194 66t-78 171z" />
    <glyph glyph-name="ebreve" unicode="&#x115;" horiz-adv-x="1027"
d="M518 987q-161 0 -264 -114t-111 -301h742q-1 185 -102 300t-265 115zM874 291h78q-27 -136 -141 -221.5t-284 -85.5q-214 0 -339 142.5t-125 392.5q0 242 125 389.5t331 147.5q201 0 323.5 -139t122.5 -366v-44h-823v-4q0 -210 104.5 -330t281.5 -120q139 0 230.5 66
t115.5 172zM247 1460h63q0 -89 57 -142.5t152 -53.5t152 53.5t57 142.5h63q0 -117 -75 -185t-197 -68t-197 68t-75 185z" />
    <glyph glyph-name="Edotaccent" unicode="&#x116;" horiz-adv-x="1068"
d="M969 73v-73h-841v1443h841v-73h-762v-594h726v-72h-726v-631h762zM548 1563q-32 0 -54.5 22.5t-22.5 53.5t22.5 53.5t54.5 22.5t54.5 -22.5t22.5 -53.5t-22.5 -53.5t-54.5 -22.5z" />
    <glyph glyph-name="edotaccent" unicode="&#x117;" horiz-adv-x="1027"
d="M518 987q-161 0 -264 -114t-111 -301h742q-1 185 -102 300t-265 115zM874 291h78q-27 -136 -141 -221.5t-284 -85.5q-214 0 -339 142.5t-125 392.5q0 242 125 389.5t331 147.5q201 0 323.5 -139t122.5 -366v-44h-823v-4q0 -210 104.5 -330t281.5 -120q139 0 230.5 66
t115.5 172zM519 1213q-32 0 -55 23t-23 54t23 54t55 23t55 -23t23 -54t-23 -54t-55 -23z" />
    <glyph glyph-name="Eogonek" unicode="&#x118;" horiz-adv-x="1068"
d="M128 0v1443h841v-73h-762v-594h726v-72h-726v-631h762v-68l-14 -5q-108 -38 -168.5 -93.5t-60.5 -116.5q0 -54 39.5 -87.5t100.5 -33.5q43 0 73 8v-60q-26 -11 -83 -11q-87 0 -143.5 48t-56.5 124q0 65 46 122.5t126 95.5v4h-700z" />
    <glyph glyph-name="eogonek" unicode="&#x119;" horiz-adv-x="1027"
d="M699 -380q-85 0 -140 46.5t-55 119.5q0 120 142 215v3q-55 -20 -119 -20q-214 0 -339 142.5t-125 392.5q0 242 125 389.5t331 147.5q201 0 323.5 -139t122.5 -366v-44h-823v-4q0 -210 104.5 -330t281.5 -120q139 0 230.5 66t115.5 172h78q-32 -158 -186 -256
q-193 -119 -193 -236q0 -52 38.5 -84.5t97.5 -32.5q41 0 71 8v-59q-29 -11 -81 -11zM518 987q-161 0 -264 -114t-111 -301h742q-1 185 -102 300t-265 115z" />
    <glyph glyph-name="Ecaron" unicode="&#x11a;" horiz-adv-x="1068"
d="M969 73v-73h-841v1443h841v-73h-762v-594h726v-72h-726v-631h762zM516 1553l-270 289h83l217 -236h4l217 236h83l-270 -289h-64z" />
    <glyph glyph-name="ecaron" unicode="&#x11b;" horiz-adv-x="1027"
d="M518 987q-161 0 -264 -114t-111 -301h742q-1 185 -102 300t-265 115zM874 291h78q-27 -136 -141 -221.5t-284 -85.5q-214 0 -339 142.5t-125 392.5q0 242 125 389.5t331 147.5q201 0 323.5 -139t122.5 -366v-44h-823v-4q0 -210 104.5 -330t281.5 -120q139 0 230.5 66
t115.5 172zM552 1210h-65l-267 302h81l217 -248h3l217 248h80z" />
    <glyph glyph-name="Gcircumflex" unicode="&#x11c;" horiz-adv-x="1358"
d="M1281 571q0 -276 -155.5 -434t-426.5 -158q-186 0 -330 94t-223 264.5t-79 392.5q0 331 173.5 532.5t458.5 201.5q217 0 374.5 -120t198.5 -317h-81q-43 166 -176.5 264.5t-315.5 98.5q-250 0 -400.5 -180t-150.5 -479q0 -304 152 -491t399 -187q232 0 367.5 136.5
t135.5 369.5v83h-503v72h582v-143zM667 1839h64l270 -289h-83l-217 236h-4l-217 -236h-83z" />
    <glyph glyph-name="gcircumflex" unicode="&#x11d;" horiz-adv-x="1083"
d="M512 57q167 0 272.5 129t105.5 335t-105.5 335.5t-272.5 129.5q-166 0 -268.5 -129t-102.5 -337t102.5 -335.5t268.5 -127.5zM533 -375q-164 0 -276.5 75.5t-134.5 189.5h80q27 -87 116 -142t219 -55q161 0 257 86.5t96 229.5v267h-3q-36 -125 -140.5 -207t-244.5 -82
q-197 0 -318 147.5t-121 386.5q0 240 121.5 387.5t318.5 147.5q140 0 245 -83t144 -212h2v279h73v-1028q0 -176 -117.5 -281.5t-316.5 -105.5zM572 1512l266 -302h-80l-217 247h-3l-217 -247h-81l267 302h65z" />
    <glyph glyph-name="Gbreve" unicode="&#x11e;" horiz-adv-x="1358"
d="M1281 571q0 -276 -155.5 -434t-426.5 -158q-186 0 -330 94t-223 264.5t-79 392.5q0 331 173.5 532.5t458.5 201.5q217 0 374.5 -120t198.5 -317h-81q-43 166 -176.5 264.5t-315.5 98.5q-250 0 -400.5 -180t-150.5 -479q0 -304 152 -491t399 -187q232 0 367.5 136.5
t135.5 369.5v83h-503v72h582v-143zM427 1788h64q2 -79 59.5 -129t148.5 -50t148.5 50t59.5 129h64q-3 -105 -78 -171t-194 -66t-194 66t-78 171z" />
    <glyph glyph-name="gbreve" unicode="&#x11f;" horiz-adv-x="1083"
d="M512 57q167 0 272.5 129t105.5 335t-105.5 335.5t-272.5 129.5q-166 0 -268.5 -129t-102.5 -337t102.5 -335.5t268.5 -127.5zM533 -375q-164 0 -276.5 75.5t-134.5 189.5h80q27 -87 116 -142t219 -55q161 0 257 86.5t96 229.5v267h-3q-36 -125 -140.5 -207t-244.5 -82
q-197 0 -318 147.5t-121 386.5q0 240 121.5 387.5t318.5 147.5q140 0 245 -83t144 -212h2v279h73v-1028q0 -176 -117.5 -281.5t-316.5 -105.5zM267 1460h63q0 -89 57 -142.5t152 -53.5t152 53.5t57 142.5h63q0 -117 -75 -185t-197 -68t-197 68t-75 185z" />
    <glyph glyph-name="Gdotaccent" unicode="&#x120;" horiz-adv-x="1358"
d="M1281 571q0 -276 -155.5 -434t-426.5 -158q-186 0 -330 94t-223 264.5t-79 392.5q0 331 173.5 532.5t458.5 201.5q217 0 374.5 -120t198.5 -317h-81q-43 166 -176.5 264.5t-315.5 98.5q-250 0 -400.5 -180t-150.5 -479q0 -304 152 -491t399 -187q232 0 367.5 136.5
t135.5 369.5v83h-503v72h582v-143zM699 1563q-32 0 -54.5 22.5t-22.5 53.5t22.5 53.5t54.5 22.5t54.5 -22.5t22.5 -53.5t-22.5 -53.5t-54.5 -22.5z" />
    <glyph glyph-name="gdotaccent" unicode="&#x121;" horiz-adv-x="1083"
d="M512 57q167 0 272.5 129t105.5 335t-105.5 335.5t-272.5 129.5q-166 0 -268.5 -129t-102.5 -337t102.5 -335.5t268.5 -127.5zM533 -375q-164 0 -276.5 75.5t-134.5 189.5h80q27 -87 116 -142t219 -55q161 0 257 86.5t96 229.5v267h-3q-36 -125 -140.5 -207t-244.5 -82
q-197 0 -318 147.5t-121 386.5q0 240 121.5 387.5t318.5 147.5q140 0 245 -83t144 -212h2v279h73v-1028q0 -176 -117.5 -281.5t-316.5 -105.5zM539 1213q-32 0 -55 23t-23 54t23 54t55 23t55 -23t23 -54t-23 -54t-55 -23z" />
    <glyph glyph-name="Gcommaaccent" unicode="&#x122;" horiz-adv-x="1358"
d="M1281 571q0 -276 -155.5 -434t-426.5 -158q-186 0 -330 94t-223 264.5t-79 392.5q0 331 173.5 532.5t458.5 201.5q217 0 374.5 -120t198.5 -317h-81q-43 166 -176.5 264.5t-315.5 98.5q-250 0 -400.5 -180t-150.5 -479q0 -304 152 -491t399 -187q232 0 367.5 136.5
t135.5 369.5v83h-503v72h582v-143zM638 -478h-63l104 341h78z" />
    <glyph glyph-name="gcommaaccent" unicode="&#x123;" horiz-adv-x="1083"
d="M512 57q167 0 272.5 129t105.5 335t-105.5 335.5t-272.5 129.5q-166 0 -268.5 -129t-102.5 -337t102.5 -335.5t268.5 -127.5zM533 -375q-164 0 -276.5 75.5t-134.5 189.5h80q27 -87 116 -142t219 -55q161 0 257 86.5t96 229.5v267h-3q-36 -125 -140.5 -207t-244.5 -82
q-197 0 -318 147.5t-121 386.5q0 240 121.5 387.5t318.5 147.5q140 0 245 -83t144 -212h2v279h73v-1028q0 -176 -117.5 -281.5t-316.5 -105.5zM600 1518h63l-104 -341h-78z" />
    <glyph glyph-name="Hcircumflex" unicode="&#x124;" horiz-adv-x="1327"
d="M1199 0h-79v705h-913v-705h-79v1443h79v-666h913v666h79v-1443zM631 1839h64l270 -289h-83l-217 236h-4l-217 -236h-83z" />
    <glyph glyph-name="hcircumflex" unicode="&#x125;" horiz-adv-x="1053"
d="M125 0v1443h77v-629h3q35 109 132 175.5t227 66.5q171 0 275.5 -104.5t104.5 -278.5v-673h-77v663q0 149 -87 236t-233 87q-153 0 -249 -102t-96 -264v-620h-77zM132 1839h64l270 -289h-83l-217 236h-4l-217 -236h-83z" />
    <glyph glyph-name="Hbar" unicode="&#x126;" horiz-adv-x="1360"
d="M1137 777v345h-913v-345h913zM1342 1189v-67h-126v-1122h-79v705h-913v-705h-79v1122h-127v67h127v254h79v-254h913v254h79v-254h126z" />
    <glyph glyph-name="hbar" unicode="&#x127;" horiz-adv-x="1069"
d="M218 814h3q35 109 132 175.5t227 66.5q171 0 275.5 -104.5t104.5 -278.5v-673h-78v663q0 149 -86.5 236t-232.5 87q-153 0 -249 -102t-96 -264v-620h-77v1234h-128v60h128v149h77v-149h274v-60h-274v-420z" />
    <glyph glyph-name="Itilde" unicode="&#x128;" horiz-adv-x="335"
d="M207 0h-79v1443h79v-1443zM303 1561q-36 0 -68.5 17t-56 41t-45.5 48t-48.5 41t-53.5 17q-47 0 -69.5 -41.5t-21.5 -113.5h-62q0 99 40 156.5t114 57.5q37 0 69.5 -17t56 -41t45.5 -48t47.5 -41t52.5 -17q91 0 91 155h62q0 -98 -40 -156t-113 -58z" />
    <glyph glyph-name="itilde" unicode="&#x129;" horiz-adv-x="326"
d="M124 0v1040h78v-1040h-78zM300 1212q-36 0 -68.5 17t-56 41t-45.5 48t-48.5 41t-53.5 17q-46 0 -69 -41.5t-22 -113.5h-62q0 99 40 156.5t114 57.5q37 0 69.5 -17t56 -41t45.5 -48t47.5 -41t52.5 -17q91 0 91 155h62q0 -98 -40 -156t-113 -58z" />
    <glyph glyph-name="Imacron" unicode="&#x12a;" horiz-adv-x="335"
d="M207 0h-79v1443h79v-1443zM457 1679v-59h-580v59h580z" />
    <glyph glyph-name="imacron" unicode="&#x12b;" horiz-adv-x="326"
d="M124 0v1040h78v-1040h-78zM368 1323v-60h-418v60h418z" />
    <glyph glyph-name="Ibreve" unicode="&#x12c;" horiz-adv-x="335"
d="M207 0h-79v1443h79v-1443zM-105 1788h64q2 -79 59.5 -129t148.5 -50t148.5 50t59.5 129h64q-3 -105 -78 -171t-194 -66t-194 66t-78 171z" />
    <glyph glyph-name="ibreve" unicode="&#x12d;" horiz-adv-x="326"
d="M124 0v1040h78v-1040h-78zM-108 1460h63q0 -89 57 -142.5t152 -53.5t152 53.5t57 142.5h63q0 -117 -75 -185t-197 -68t-197 68t-75 185z" />
    <glyph glyph-name="Iogonek" unicode="&#x12e;" horiz-adv-x="335"
d="M128 12v1431h79v-1442l-6 -3q-165 -90 -165 -208q0 -54 39.5 -87.5t100.5 -33.5q43 0 73 8v-60q-27 -11 -83 -11q-87 0 -143.5 48t-56.5 124q0 69 42.5 130.5t119.5 103.5z" />
    <glyph glyph-name="iogonek" unicode="&#x12f;" horiz-adv-x="326"
d="M163 1294q-26 0 -44 17.5t-18 42.5t18 43t44 18q25 0 43 -18t18 -43t-18 -42.5t-43 -17.5zM124 11v1029h78v-1038l-8 -4q-158 -86 -158 -199q0 -53 38.5 -85t97.5 -32q40 0 72 8v-59q-29 -11 -82 -11q-85 0 -139.5 46.5t-54.5 120.5q0 66 41 125t115 99z" />
    <glyph glyph-name="Idotaccent" unicode="&#x130;" horiz-adv-x="335"
d="M207 0h-79v1443h79v-1443zM167 1563q-32 0 -54.5 22.5t-22.5 53.5t22.5 53.5t54.5 22.5t54.5 -22.5t22.5 -53.5t-22.5 -53.5t-54.5 -22.5z" />
    <glyph glyph-name="dotlessi" unicode="&#x131;" horiz-adv-x="326"
d="M124 0v1040h78v-1040h-78z" />
    <glyph glyph-name="IJ" unicode="&#x132;" horiz-adv-x="1286"
d="M207 0h-79v1443h79v-1443zM376 320h78q7 -119 92 -194.5t214 -75.5q150 0 234.5 89t84.5 250v1054h80v-1058q0 -189 -106.5 -299t-291.5 -110q-165 0 -273 96.5t-112 247.5z" />
    <glyph glyph-name="ij" unicode="&#x133;" horiz-adv-x="673"
d="M124 0v1040h78v-1040h-78zM163 1296q-25 0 -43 18t-18 43t18 42.5t43 17.5t43 -17.5t18 -42.5t-18 -43t-43 -18zM538 1040v-1125q0 -140 -67 -203t-203 -63h-31v68h27q103 0 149.5 45.5t46.5 149.5v1128h78zM499 1296q-26 0 -44 18t-18 43t18 42.5t44 17.5q25 0 43 -17.5
t18 -42.5t-18 -43t-43 -18z" />
    <glyph glyph-name="Jcircumflex" unicode="&#x134;" horiz-adv-x="951"
d="M41 320h78q7 -119 92 -194.5t214 -75.5q150 0 234.5 89t84.5 250v1054h80v-1058q0 -189 -106.5 -299t-291.5 -110q-165 0 -273 96.5t-112 247.5zM752 1839h64l270 -289h-83l-217 236h-4l-217 -236h-83z" />
    <glyph glyph-name="jcircumflex" unicode="&#x135;" horiz-adv-x="326"
d="M202 1040v-1125q0 -137 -65.5 -201.5t-204.5 -64.5h-31v68h27q104 0 150 45.5t46 149.5v1128h78zM196 1512l266 -302h-80l-217 247h-3l-217 -247h-81l267 302h65z" />
    <glyph glyph-name="Kcommaaccent" unicode="&#x136;" horiz-adv-x="1142"
d="M207 0h-79v1443h79v-806h6l750 806h101l-594 -636l660 -807h-101l-615 751l-207 -223v-528zM483 -478h-63l104 341h78z" />
    <glyph glyph-name="kcommaaccent" unicode="&#x137;" horiz-adv-x="908"
d="M203 507l585 533h101l-487 -448l492 -592h-95l-456 544l-141 -126v-418h-77v1443h77v-936h1zM410 -478h-63l104 341h78z" />
    <glyph glyph-name="Lacute" unicode="&#x139;" horiz-adv-x="1024"
d="M964 73v-73h-836v1443h79v-1370h757zM202 1556h-79l276 287h95z" />
    <glyph glyph-name="lacute" unicode="&#x13a;" horiz-adv-x="326"
d="M124 0v1443h78v-1443h-78zM198 1556h-79l276 287h95z" />
    <glyph glyph-name="Lcommaaccent" unicode="&#x13b;" horiz-adv-x="1024"
d="M964 73v-73h-836v1443h79v-1370h757zM485 -478h-63l104 341h78z" />
    <glyph glyph-name="lcommaaccent" unicode="&#x13c;" horiz-adv-x="326"
d="M124 0v1443h78v-1443h-78zM102 -478h-63l104 341h78z" />
    <glyph glyph-name="Lcaron" unicode="&#x13d;" horiz-adv-x="1024"
d="M586 1443h77l-19 -453h-58v453zM964 73v-73h-836v1443h79v-1370h757z" />
    <glyph glyph-name="lcaron" unicode="&#x13e;" horiz-adv-x="405"
d="M361 1445h67l-15 -373h-52v373zM124 0v1443h78v-1443h-78z" />
    <glyph glyph-name="Lslash" unicode="&#x141;" horiz-adv-x="1044"
d="M228 73h757v-73h-836v715l-127 -67v69l127 67v659h79v-617l390 206v-68l-390 -207v-684z" />
    <glyph glyph-name="lslash" unicode="&#x142;" horiz-adv-x="333"
d="M321 891v-70l-115 -66v-755h-78v710l-114 -66v71l114 65v663h78v-618z" />
    <glyph glyph-name="Nacute" unicode="&#x143;" horiz-adv-x="1341"
d="M206 0h-78v1443h82l919 -1299h6v1299h79v-1443h-75l-927 1307h-6v-1307zM706 1556h-79l276 287h95z" />
    <glyph glyph-name="nacute" unicode="&#x144;" horiz-adv-x="1039"
d="M115 0v1040h73v-226h2q36 109 132.5 175.5t227.5 66.5q172 0 276 -103.5t104 -278.5v-674h-78v664q0 150 -87 236t-233 86q-151 0 -245 -101.5t-94 -263.5v-621h-78zM547 1210h-76l230 302h90z" />
    <glyph glyph-name="Ncommaaccent" unicode="&#x145;" horiz-adv-x="1341"
d="M206 0h-78v1443h82l919 -1299h6v1299h79v-1443h-75l-927 1307h-6v-1307zM610 -478h-63l104 341h78z" />
    <glyph glyph-name="ncommaaccent" unicode="&#x146;" horiz-adv-x="1039"
d="M115 0v1040h73v-226h2q36 109 132.5 175.5t227.5 66.5q172 0 276 -103.5t104 -278.5v-674h-78v664q0 150 -87 236t-233 86q-151 0 -245 -101.5t-94 -263.5v-621h-78zM453 -478h-63l104 341h78z" />
    <glyph glyph-name="Ncaron" unicode="&#x147;" horiz-adv-x="1341"
d="M206 0h-78v1443h82l919 -1299h6v1299h79v-1443h-75l-927 1307h-6v-1307zM639 1553l-270 289h83l217 -236h4l217 236h83l-270 -289h-64z" />
    <glyph glyph-name="ncaron" unicode="&#x148;" horiz-adv-x="1039"
d="M115 0v1040h73v-226h2q36 109 132.5 175.5t227.5 66.5q172 0 276 -103.5t104 -278.5v-674h-78v664q0 150 -87 236t-233 86q-151 0 -245 -101.5t-94 -263.5v-621h-78zM558 1210h-65l-267 302h81l217 -248h3l217 248h80z" />
    <glyph glyph-name="Omacron" unicode="&#x14c;" horiz-adv-x="1420"
d="M710 1464q295 0 469 -201t174 -541q0 -342 -173.5 -542.5t-469.5 -200.5t-469.5 200.5t-173.5 542.5q0 340 174 541t469 201zM710 1390q-258 0 -410 -181t-152 -487q0 -307 152.5 -488t409.5 -181t409.5 181t152.5 488q0 306 -152.5 487t-409.5 181zM1000 1679v-59h-580
v59h580z" />
    <glyph glyph-name="omacron" unicode="&#x14d;" horiz-adv-x="1052"
d="M526 -16q-209 0 -336 145t-127 391t127 391t336 145t336.5 -145t127.5 -391t-127.5 -391t-336.5 -145zM526 54q175 0 280.5 126t105.5 340q0 215 -105.5 340.5t-280.5 125.5t-280 -125.5t-105 -340.5t105 -340.5t280 -125.5zM767 1323v-60h-492v60h492z" />
    <glyph glyph-name="Obreve" unicode="&#x14e;" horiz-adv-x="1420"
d="M710 1464q295 0 469 -201t174 -541q0 -342 -173.5 -542.5t-469.5 -200.5t-469.5 200.5t-173.5 542.5q0 340 174 541t469 201zM710 1390q-258 0 -410 -181t-152 -487q0 -307 152.5 -488t409.5 -181t409.5 181t152.5 488q0 306 -152.5 487t-409.5 181zM438 1788h64
q2 -79 59.5 -129t148.5 -50t148.5 50t59.5 129h64q-3 -105 -78 -171t-194 -66t-194 66t-78 171z" />
    <glyph glyph-name="obreve" unicode="&#x14f;" horiz-adv-x="1052"
d="M526 -16q-209 0 -336 145t-127 391t127 391t336 145t336.5 -145t127.5 -391t-127.5 -391t-336.5 -145zM526 54q175 0 280.5 126t105.5 340q0 215 -105.5 340.5t-280.5 125.5t-280 -125.5t-105 -340.5t105 -340.5t280 -125.5zM254 1460h63q0 -89 57 -142.5t152 -53.5
t152 53.5t57 142.5h63q0 -117 -75 -185t-197 -68t-197 68t-75 185z" />
    <glyph glyph-name="Ohungarumlaut" unicode="&#x150;" horiz-adv-x="1420"
d="M710 1464q295 0 469 -201t174 -541q0 -342 -173.5 -542.5t-469.5 -200.5t-469.5 200.5t-173.5 542.5q0 340 174 541t469 201zM710 1390q-258 0 -410 -181t-152 -487q0 -307 152.5 -488t409.5 -181t409.5 181t152.5 488q0 306 -152.5 487t-409.5 181zM895 1556h-79
l276 287h95zM626 1556h-80l277 287h94z" />
    <glyph glyph-name="ohungarumlaut" unicode="&#x151;" horiz-adv-x="1052"
d="M526 -16q-209 0 -336 145t-127 391t127 391t336 145t336.5 -145t127.5 -391t-127.5 -391t-336.5 -145zM526 54q175 0 280.5 126t105.5 340q0 215 -105.5 340.5t-280.5 125.5t-280 -125.5t-105 -340.5t105 -340.5t280 -125.5zM612 1210l226 302h89l-243 -302h-72z
M368 1210l226 302h89l-243 -302h-72z" />
    <glyph glyph-name="OE" unicode="&#x152;" horiz-adv-x="2178"
d="M716 1390q-260 0 -414 -181t-154 -487t154 -487.5t414 -181.5t414 181t154 488q0 305 -154 486.5t-414 181.5zM1285 0v372q-67 -188 -215.5 -290.5t-353.5 -102.5q-300 0 -474.5 200t-174.5 543t174.5 542.5t474.5 199.5q205 0 353 -101.5t216 -289.5v370h815v-73h-735
v-594h698v-72h-698v-631h735v-73h-815z" />
    <glyph glyph-name="oe" unicode="&#x153;" horiz-adv-x="1876"
d="M1378 -16q-161 0 -278 94t-147 240h-5q-33 -153 -146.5 -245t-275.5 -92q-211 0 -337 145.5t-126 390.5q0 246 126 391.5t337 145.5q161 0 274.5 -92t147.5 -243h5q30 148 144 242.5t272 94.5q201 0 323 -138.5t122 -365.5v-45h-823v-5q0 -201 106 -325t281 -124
q137 0 228.5 66.5t116.5 171.5h78q-26 -135 -140.5 -221t-282.5 -86zM1735 572q-2 184 -103.5 299.5t-263.5 115.5q-160 0 -264 -114.5t-112 -300.5h743zM141 517q0 -214 105 -340t280 -126t280.5 126.5t105.5 339.5q0 214 -105.5 340.5t-280.5 126.5t-280 -126.5
t-105 -340.5z" />
    <glyph glyph-name="Racute" unicode="&#x154;" horiz-adv-x="1147"
d="M207 1371v-683h385q181 0 283.5 91t102.5 250q0 161 -103.5 251.5t-285.5 90.5h-382zM207 616v-616h-79v1443h468q214 0 338.5 -110.5t124.5 -301.5q0 -156 -88.5 -262.5t-245.5 -137.5l371 -631h-92l-361 619q-21 -3 -51 -3h-385zM530 1556h-79l276 287h95z" />
    <glyph glyph-name="racute" unicode="&#x155;" horiz-adv-x="594"
d="M115 0v1040h73v-205h2q32 107 104 164t175 57q57 0 97 -17v-78q-42 21 -108 21q-121 0 -193 -93t-72 -241v-648h-78zM353 1210h-76l230 302h90z" />
    <glyph glyph-name="Rcommaaccent" unicode="&#x156;" horiz-adv-x="1147"
d="M207 1371v-683h385q181 0 283.5 91t102.5 250q0 161 -103.5 251.5t-285.5 90.5h-382zM207 616v-616h-79v1443h468q214 0 338.5 -110.5t124.5 -301.5q0 -156 -88.5 -262.5t-245.5 -137.5l371 -631h-92l-361 619q-21 -3 -51 -3h-385zM434 -478h-63l104 341h78z" />
    <glyph glyph-name="rcommaaccent" unicode="&#x157;" horiz-adv-x="594"
d="M115 0v1040h73v-205h2q32 107 104 164t175 57q57 0 97 -17v-78q-42 21 -108 21q-121 0 -193 -93t-72 -241v-648h-78zM93 -478h-63l104 341h78z" />
    <glyph glyph-name="Rcaron" unicode="&#x158;" horiz-adv-x="1147"
d="M207 1371v-683h385q181 0 283.5 91t102.5 250q0 161 -103.5 251.5t-285.5 90.5h-382zM207 616v-616h-79v1443h468q214 0 338.5 -110.5t124.5 -301.5q0 -156 -88.5 -262.5t-245.5 -137.5l371 -631h-92l-361 619q-21 -3 -51 -3h-385zM463 1553l-270 289h83l217 -236h4
l217 236h83l-270 -289h-64z" />
    <glyph glyph-name="rcaron" unicode="&#x159;" horiz-adv-x="594"
d="M115 0v1040h73v-205h2q32 107 104 164t175 57q57 0 97 -17v-78q-42 21 -108 21q-121 0 -193 -93t-72 -241v-648h-78zM364 1210h-65l-267 302h81l217 -248h3l217 248h80z" />
    <glyph glyph-name="Sacute" unicode="&#x15a;" horiz-adv-x="1137"
d="M57 385h79q9 -147 134 -240t313 -93q183 0 299.5 92.5t116.5 234.5q0 113 -81 183t-263 116l-171 42q-201 51 -294.5 136.5t-93.5 220.5q0 167 137 277t336 110q203 0 340 -106t144 -266h-79q-8 130 -122.5 214.5t-284.5 84.5q-165 0 -277.5 -88.5t-112.5 -223.5
q0 -107 81 -174t257 -111l161 -41q211 -52 307.5 -138.5t96.5 -229.5q0 -180 -139 -293t-364 -113q-222 0 -366.5 113t-153.5 293zM604 1556h-79l276 287h95z" />
    <glyph glyph-name="sacute" unicode="&#x15b;" horiz-adv-x="893"
d="M91 774q0 123 100 202.5t255 79.5q158 0 258.5 -84.5t114.5 -229.5h-75q-16 116 -95.5 181.5t-203.5 65.5q-121 0 -199.5 -60t-78.5 -152q0 -76 56 -122.5t181 -75.5l144 -34q155 -37 221.5 -99.5t66.5 -171.5q0 -128 -107 -209t-275 -81q-163 0 -274 86.5t-123 222.5h77
q14 -108 103 -175t219 -67q133 0 217.5 61t84.5 157q0 82 -53.5 130t-179.5 78l-150 35q-146 34 -215 98t-69 164zM471 1210h-76l230 302h90z" />
    <glyph glyph-name="Scircumflex" unicode="&#x15c;" horiz-adv-x="1137"
d="M57 385h79q9 -147 134 -240t313 -93q183 0 299.5 92.5t116.5 234.5q0 113 -81 183t-263 116l-171 42q-201 51 -294.5 136.5t-93.5 220.5q0 167 137 277t336 110q203 0 340 -106t144 -266h-79q-8 130 -122.5 214.5t-284.5 84.5q-165 0 -277.5 -88.5t-112.5 -223.5
q0 -107 81 -174t257 -111l161 -41q211 -52 307.5 -138.5t96.5 -229.5q0 -180 -139 -293t-364 -113q-222 0 -366.5 113t-153.5 293zM537 1839h64l270 -289h-83l-217 236h-4l-217 -236h-83z" />
    <glyph glyph-name="scircumflex" unicode="&#x15d;" horiz-adv-x="893"
d="M91 774q0 123 100 202.5t255 79.5q158 0 258.5 -84.5t114.5 -229.5h-75q-16 116 -95.5 181.5t-203.5 65.5q-121 0 -199.5 -60t-78.5 -152q0 -76 56 -122.5t181 -75.5l144 -34q155 -37 221.5 -99.5t66.5 -171.5q0 -128 -107 -209t-275 -81q-163 0 -274 86.5t-123 222.5h77
q14 -108 103 -175t219 -67q133 0 217.5 61t84.5 157q0 82 -53.5 130t-179.5 78l-150 35q-146 34 -215 98t-69 164zM482 1512l266 -302h-80l-217 247h-3l-217 -247h-81l267 302h65z" />
    <glyph glyph-name="Scedilla" unicode="&#x15e;" horiz-adv-x="1137"
d="M515 794l161 -41q211 -52 307.5 -138.5t96.5 -229.5q0 -174 -130 -286t-344 -119l-50 -118q97 0 152.5 -40.5t55.5 -114.5q0 -76 -62 -122.5t-159 -47.5q-79 0 -128 15v57q45 -15 122 -15q70 0 115.5 32t45.5 80q0 50 -41 76t-118 26h-53v41l54 131q-208 10 -341.5 121.5
t-141.5 283.5h79q9 -147 134 -240t313 -93q183 0 299.5 92.5t116.5 234.5q0 113 -81 183t-263 116l-171 42q-201 51 -294.5 136.5t-93.5 220.5q0 167 137 277t336 110q203 0 340 -106t144 -266h-79q-8 130 -122.5 214.5t-284.5 84.5q-165 0 -277.5 -88.5t-112.5 -223.5
q0 -107 81 -174t257 -111z" />
    <glyph glyph-name="scedilla" unicode="&#x15f;" horiz-adv-x="893"
d="M404 579l144 -34q155 -37 221.5 -99.5t66.5 -171.5q0 -122 -99 -202t-257 -87l-52 -123q97 0 152.5 -40.5t55.5 -114.5q0 -76 -62 -122.5t-159 -47.5q-79 0 -128 15v57q45 -15 122 -15q70 0 115.5 32t45.5 80q0 50 -41 76t-118 26h-53v41l56 136q-149 11 -247.5 96
t-109.5 212h77q14 -108 103 -175t219 -67q133 0 217.5 61t84.5 157q0 82 -53.5 130t-179.5 78l-150 35q-146 34 -215 98t-69 164q0 123 100 202.5t255 79.5q158 0 258.5 -84.5t114.5 -229.5h-75q-16 116 -95.5 181.5t-203.5 65.5q-121 0 -199.5 -60t-78.5 -152
q0 -76 56 -122.5t181 -75.5z" />
    <glyph glyph-name="Scaron" unicode="&#x160;" horiz-adv-x="1137"
d="M57 385h79q9 -147 134 -240t313 -93q183 0 299.5 92.5t116.5 234.5q0 113 -81 183t-263 116l-171 42q-201 51 -294.5 136.5t-93.5 220.5q0 167 137 277t336 110q203 0 340 -106t144 -266h-79q-8 130 -122.5 214.5t-284.5 84.5q-165 0 -277.5 -88.5t-112.5 -223.5
q0 -107 81 -174t257 -111l161 -41q211 -52 307.5 -138.5t96.5 -229.5q0 -180 -139 -293t-364 -113q-222 0 -366.5 113t-153.5 293zM537 1553l-270 289h83l217 -236h4l217 236h83l-270 -289h-64z" />
    <glyph glyph-name="scaron" unicode="&#x161;" horiz-adv-x="893"
d="M91 774q0 123 100 202.5t255 79.5q158 0 258.5 -84.5t114.5 -229.5h-75q-16 116 -95.5 181.5t-203.5 65.5q-121 0 -199.5 -60t-78.5 -152q0 -76 56 -122.5t181 -75.5l144 -34q155 -37 221.5 -99.5t66.5 -171.5q0 -128 -107 -209t-275 -81q-163 0 -274 86.5t-123 222.5h77
q14 -108 103 -175t219 -67q133 0 217.5 61t84.5 157q0 82 -53.5 130t-179.5 78l-150 35q-146 34 -215 98t-69 164zM482 1210h-65l-267 302h81l217 -248h3l217 248h80z" />
    <glyph glyph-name="Tcedilla" unicode="&#x162;" horiz-adv-x="1132"
d="M606 7v-7l-59 -138q97 0 152.5 -40.5t55.5 -114.5q0 -76 -62 -122.5t-159 -47.5q-79 0 -128 15v57q45 -15 122 -15q70 0 115.5 32t45.5 80q0 50 -41 76t-118 26h-53v41l62 151h-12v1370h-506v73h1090v-73h-505v-1363z" />
    <glyph glyph-name="tcedilla" unicode="&#x163;" horiz-adv-x="535"
d="M380 -2l-58 -136q97 0 152.5 -40.5t55.5 -114.5q0 -76 -62 -122.5t-159 -47.5q-79 0 -128 15v57q45 -15 122 -15q70 0 115.5 32t45.5 80q0 50 -41 76t-118 26h-53v41l64 156q-74 16 -108.5 71.5t-34.5 160.5v736h-155v67h155v273h77v-273h209v-67h-209v-734
q0 -92 36 -132t115 -40q3 0 36.5 0.5t35.5 0.5v-68q-14 -2 -83 -2h-10z" />
    <glyph glyph-name="Tcaron" unicode="&#x164;" horiz-adv-x="1132"
d="M606 0h-79v1370h-506v73h1090v-73h-505v-1370zM534 1553l-270 289h83l217 -236h4l217 236h83l-270 -289h-64z" />
    <glyph glyph-name="tcaron" unicode="&#x165;" horiz-adv-x="637"
d="M388 1565h68l-15 -373h-53v373zM173 1313h77v-273h209v-67h-209v-734q0 -92 36 -132t115 -40q3 0 36.5 0.5t35.5 0.5v-68q-14 -2 -83 -2q-115 0 -166 55.5t-51 183.5v736h-155v67h155v273z" />
    <glyph glyph-name="Tbar" unicode="&#x166;" horiz-adv-x="1132"
d="M1111 1370h-505v-588h301v-67h-301v-715h-79v715h-302v67h302v588h-506v73h1090v-73z" />
    <glyph glyph-name="tbar" unicode="&#x167;" horiz-adv-x="536"
d="M250 576v-337q0 -92 36 -132t115 -40q3 0 36.5 0.5t35.5 0.5v-68q-14 -2 -83 -2q-115 0 -166 55.5t-51 183.5v339h-155v67h155v330h-155v67h155v273h77v-273h209v-67h-209v-330h216v-67h-216z" />
    <glyph glyph-name="Utilde" unicode="&#x168;" horiz-adv-x="1332"
d="M207 1443v-939q0 -207 124 -329t336 -122t336 122t124 329v939h79v-942q0 -237 -145.5 -379.5t-393.5 -142.5t-393.5 142.5t-145.5 379.5v942h79zM802 1561q-36 0 -68.5 17t-56 41t-45.5 48t-48.5 41t-53.5 17q-46 0 -69 -41.5t-22 -113.5h-62q0 99 40 156.5t114 57.5
q37 0 69.5 -17t56 -41t45.5 -48t47.5 -41t52.5 -17q91 0 91 155h62q0 -98 -40 -156t-113 -58z" />
    <glyph glyph-name="utilde" unicode="&#x169;" horiz-adv-x="1039"
d="M924 1040v-1040h-73v226h-3q-35 -106 -135.5 -174t-228.5 -68q-169 0 -272 102.5t-103 276.5v677h77v-665q0 -151 85 -236t229 -85q150 0 248 99.5t98 262.5v624h78zM652 1212q-36 0 -68.5 17t-56 41t-45.5 48t-48.5 41t-53.5 17q-46 0 -69 -41.5t-22 -113.5h-62
q0 99 40 156.5t114 57.5q37 0 69.5 -17t56 -41t45.5 -48t47.5 -41t52.5 -17q91 0 91 155h62q0 -98 -40 -156t-113 -58z" />
    <glyph glyph-name="Umacron" unicode="&#x16a;" horiz-adv-x="1332"
d="M207 1443v-939q0 -207 124 -329t336 -122t336 122t124 329v939h79v-942q0 -237 -145.5 -379.5t-393.5 -142.5t-393.5 142.5t-145.5 379.5v942h79zM956 1679v-59h-580v59h580z" />
    <glyph glyph-name="umacron" unicode="&#x16b;" horiz-adv-x="1039"
d="M924 1040v-1040h-73v226h-3q-35 -106 -135.5 -174t-228.5 -68q-169 0 -272 102.5t-103 276.5v677h77v-665q0 -151 85 -236t229 -85q150 0 248 99.5t98 262.5v624h78zM757 1323v-60h-492v60h492z" />
    <glyph glyph-name="Ubreve" unicode="&#x16c;" horiz-adv-x="1332"
d="M207 1443v-939q0 -207 124 -329t336 -122t336 122t124 329v939h79v-942q0 -237 -145.5 -379.5t-393.5 -142.5t-393.5 142.5t-145.5 379.5v942h79zM394 1788h64q2 -79 59.5 -129t148.5 -50t148.5 50t59.5 129h64q-3 -105 -78 -171t-194 -66t-194 66t-78 171z" />
    <glyph glyph-name="ubreve" unicode="&#x16d;" horiz-adv-x="1039"
d="M924 1040v-1040h-73v226h-3q-35 -106 -135.5 -174t-228.5 -68q-169 0 -272 102.5t-103 276.5v677h77v-665q0 -151 85 -236t229 -85q150 0 248 99.5t98 262.5v624h78zM244 1460h63q0 -89 57 -142.5t152 -53.5t152 53.5t57 142.5h63q0 -117 -75 -185t-197 -68t-197 68
t-75 185z" />
    <glyph glyph-name="Uring" unicode="&#x16e;" horiz-adv-x="1332"
d="M207 1443v-939q0 -207 124 -329t336 -122t336 122t124 329v939h79v-942q0 -237 -145.5 -379.5t-393.5 -142.5t-393.5 142.5t-145.5 379.5v942h79zM666 1509q-70 0 -120 50.5t-50 120.5t50 120t120 50t120 -50t50 -120t-50 -120.5t-120 -50.5zM666 1559q51 0 85.5 35
t34.5 86t-34.5 86t-85.5 35t-85.5 -35t-34.5 -86t34.5 -86t85.5 -35z" />
    <glyph glyph-name="uring" unicode="&#x16f;" horiz-adv-x="1039"
d="M924 1040v-1040h-73v226h-3q-35 -106 -135.5 -174t-228.5 -68q-169 0 -272 102.5t-103 276.5v677h77v-665q0 -151 85 -236t229 -85q150 0 248 99.5t98 262.5v624h78zM516 1194q-70 0 -120 50.5t-50 120.5t50 120.5t120 50.5t120 -50.5t50 -120.5q0 -71 -50 -121t-120 -50
zM516 1244q51 0 85.5 35t34.5 86t-34.5 86t-85.5 35t-85.5 -35t-34.5 -86t34.5 -86t85.5 -35z" />
    <glyph glyph-name="Uhungarumlaut" unicode="&#x170;" horiz-adv-x="1332"
d="M207 1443v-939q0 -207 124 -329t336 -122t336 122t124 329v939h79v-942q0 -237 -145.5 -379.5t-393.5 -142.5t-393.5 142.5t-145.5 379.5v942h79zM851 1556h-79l276 287h95zM582 1556h-80l277 287h94z" />
    <glyph glyph-name="uhungarumlaut" unicode="&#x171;" horiz-adv-x="1039"
d="M924 1040v-1040h-73v226h-3q-35 -106 -135.5 -174t-228.5 -68q-169 0 -272 102.5t-103 276.5v677h77v-665q0 -151 85 -236t229 -85q150 0 248 99.5t98 262.5v624h78zM602 1210l226 302h89l-243 -302h-72zM358 1210l226 302h89l-243 -302h-72z" />
    <glyph glyph-name="Uogonek" unicode="&#x172;" horiz-adv-x="1334"
d="M891 -394q-87 0 -143 48.5t-56 123.5q0 129 150 230v4q-82 -33 -175 -33q-247 0 -393 141.5t-146 380.5v942h79v-939q0 -208 124.5 -329.5t335.5 -121.5t335.5 121.5t124.5 329.5v939h79v-942q0 -288 -236 -456q-105 -71 -157 -132.5t-52 -122.5q0 -54 40 -87.5
t101 -33.5q43 0 73 8v-60q-29 -11 -84 -11z" />
    <glyph glyph-name="uogonek" unicode="&#x173;" horiz-adv-x="1039"
d="M922 -369q-28 -11 -81 -11q-85 0 -139.5 46.5t-54.5 120.5q0 73 54 132.5t150 99.5v207h-3q-35 -106 -135.5 -174t-228.5 -68q-169 0 -272 102.5t-103 276.5v677h77v-665q0 -151 85 -236t229 -85q150 0 248 99.5t98 262.5v624h78v-1041l-7 -3q-201 -84 -201 -197
q0 -52 38 -84.5t97 -32.5q41 0 71 8v-59z" />
    <glyph glyph-name="Wcircumflex" unicode="&#x174;" horiz-adv-x="1803"
d="M899 1295l-384 -1295h-70l-403 1443h82l356 -1306h5l379 1306h74l380 -1306h5l355 1306h83l-403 -1443h-70l-384 1295h-5zM869 1839h64l270 -289h-83l-217 236h-4l-217 -236h-83z" />
    <glyph glyph-name="wcircumflex" unicode="&#x175;" horiz-adv-x="1384"
d="M1376 1040l-303 -1040h-90l-290 940h-3l-288 -940h-92l-302 1040h81l267 -954h2l290 954h88l289 -954h3l266 954h82zM725 1512l266 -302h-80l-217 247h-3l-217 -247h-81l267 302h65z" />
    <glyph glyph-name="Ycircumflex" unicode="&#x176;" horiz-adv-x="1172"
d="M626 0h-79v629l-525 814h93l469 -733h5l469 733h92l-524 -814v-629zM554 1839h64l270 -289h-83l-217 236h-4l-217 -236h-83z" />
    <glyph glyph-name="ycircumflex" unicode="&#x177;" horiz-adv-x="891"
d="M173 -359q-30 0 -53 7v69q24 -8 55 -8q69 0 112.5 43t83.5 149l33 85l-398 1054h84l354 -965h3l354 965h83l-410 -1090q-70 -186 -130 -247.5t-171 -61.5zM478 1512l266 -302h-80l-217 247h-3l-217 -247h-81l267 302h65z" />
    <glyph glyph-name="Ydieresis" unicode="&#x178;" horiz-adv-x="1172"
d="M626 0h-79v629l-525 814h93l469 -733h5l469 733h92l-524 -814v-629zM437 1568q-28 0 -47.5 19.5t-19.5 46.5q0 28 19.5 47t47.5 19q27 0 46.5 -19t19.5 -47q0 -27 -19.5 -46.5t-46.5 -19.5zM735 1568q-27 0 -47 19.5t-20 46.5t20 46.5t47 19.5t47 -19.5t20 -46.5
t-20 -46.5t-47 -19.5z" />
    <glyph glyph-name="Zacute" unicode="&#x179;" horiz-adv-x="1173"
d="M71 0v62l925 1303v5h-896v73h997v-62l-923 -1303v-5h928v-73h-1031zM622 1556h-79l276 287h95z" />
    <glyph glyph-name="zacute" unicode="&#x17a;" horiz-adv-x="898"
d="M64 0v64l678 906v3h-677v67h768v-64l-679 -906v-3h680v-67h-770zM471 1210h-76l230 302h90z" />
    <glyph glyph-name="Zdotaccent" unicode="&#x17b;" horiz-adv-x="1173"
d="M71 0v62l925 1303v5h-896v73h997v-62l-923 -1303v-5h928v-73h-1031zM587 1563q-32 0 -54.5 22.5t-22.5 53.5t22.5 53.5t54.5 22.5t54.5 -22.5t22.5 -53.5t-22.5 -53.5t-54.5 -22.5z" />
    <glyph glyph-name="zdotaccent" unicode="&#x17c;" horiz-adv-x="898"
d="M64 0v64l678 906v3h-677v67h768v-64l-679 -906v-3h680v-67h-770zM449 1213q-32 0 -55 23t-23 54t23 54t55 23t55 -23t23 -54t-23 -54t-55 -23z" />
    <glyph glyph-name="Zcaron" unicode="&#x17d;" horiz-adv-x="1173"
d="M71 0v62l925 1303v5h-896v73h997v-62l-923 -1303v-5h928v-73h-1031zM555 1553l-270 289h83l217 -236h4l217 236h83l-270 -289h-64z" />
    <glyph glyph-name="zcaron" unicode="&#x17e;" horiz-adv-x="898"
d="M64 0v64l678 906v3h-677v67h768v-64l-679 -906v-3h680v-67h-770zM482 1210h-65l-267 302h81l217 -248h3l217 248h80z" />
    <glyph glyph-name="uni04D8" unicode="&#x4d8;" horiz-adv-x="1375"
d="M675 -24q-280 0 -441.5 187.5t-163.5 514.5v49h1144v18q1 293 -150.5 470t-410.5 177q-163 0 -289.5 -75.5t-183.5 -211.5h-81q58 165 208.5 263.5t345.5 98.5q297 0 470.5 -200t173.5 -540q0 -341 -169.5 -546t-452.5 -205zM676 51q226 0 373 166t163 438h-1057
q5 -277 146 -440.5t375 -163.5z" />
    <glyph glyph-name="uni04D8" unicode="&#x18f;" horiz-adv-x="1375"
d="M675 -24q-280 0 -441.5 187.5t-163.5 514.5v49h1144v18q1 293 -150.5 470t-410.5 177q-163 0 -289.5 -75.5t-183.5 -211.5h-81q58 165 208.5 263.5t345.5 98.5q297 0 470.5 -200t173.5 -540q0 -341 -169.5 -546t-452.5 -205zM676 51q226 0 373 166t163 438h-1057
q5 -277 146 -440.5t375 -163.5z" />
    <glyph glyph-name="florin" unicode="&#x192;" horiz-adv-x="1192"
d="M1149 1429v-74q-60 38 -166 38q-122 0 -190.5 -67t-92.5 -213l-48 -289h416v-68h-427l-72 -429q-30 -178 -115.5 -262.5t-236.5 -84.5q-45 0 -95.5 10.5t-78.5 26.5v76q29 -18 77.5 -30t91.5 -12q121 0 187 68t92 217l70 420h-396v68h408l49 296q30 176 117 260t238 84
q47 0 96.5 -10t75.5 -25z" />
    <glyph glyph-name="Ohorn" unicode="&#x1a0;" horiz-adv-x="1420"
d="M710 -21q-296 0 -469.5 200.5t-173.5 542.5q0 340 174 541t469 201q62 0 176.5 -12.5t210.5 -12.5q104 0 142.5 26.5t38.5 97.5v116h73v-136q0 -88 -54 -128t-174 -40h-89v-5q150 -79 234.5 -251t84.5 -397q0 -342 -173.5 -542.5t-469.5 -200.5zM710 53q257 0 409.5 181
t152.5 488t-152.5 487.5t-409.5 180.5q-258 0 -410 -181t-152 -487q0 -307 152.5 -488t409.5 -181z" />
    <glyph glyph-name="ohorn" unicode="&#x1a1;" horiz-adv-x="1066"
d="M526 54q176 0 281 126.5t105 339.5t-105.5 339.5t-280.5 126.5t-280 -126t-105 -340t105 -340t280 -126zM990 520q0 -244 -127 -390t-337 -146t-336.5 146t-126.5 390t126.5 390t336.5 146q61 0 149.5 -11t133.5 -11q68 0 94.5 22.5t26.5 78.5v123h73v-145
q0 -139 -158 -139h-66v-3q98 -54 154.5 -173.5t56.5 -277.5z" />
    <glyph glyph-name="Uhorn" unicode="&#x1af;" horiz-adv-x="1474"
d="M667 -21q-247 0 -393 141.5t-146 380.5v942h79v-939q0 -204 126 -327.5t334 -123.5t334 123.5t126 327.5v939h137q114 0 114 102v157h74v-173q0 -71 -45 -110t-127 -39h-74v-879q0 -239 -146.5 -380.5t-392.5 -141.5z" />
    <glyph glyph-name="uhorn" unicode="&#x1b0;" horiz-adv-x="1152"
d="M848 226q-35 -106 -135.5 -174t-228.5 -68q-169 0 -272 102.5t-103 276.5v677h77v-665q0 -151 85 -236t229 -85q150 0 248 99.5t98 262.5v624h125q110 0 110 98v127h73v-143q0 -69 -43 -107t-123 -38h-64v-977h-73v226h-3z" />
    <glyph glyph-name="uni01C4" unicode="&#x1c4;" horiz-adv-x="2505"
d="M128 1443h446q328 0 508 -189t180 -532q0 -344 -180 -533t-508 -189h-446v1443zM208 1370v-1297h363q294 0 452.5 168.5t158.5 479.5q0 313 -158.5 481t-452.5 168h-363zM1403 0v62l925 1303v5h-896v73h997v-62l-923 -1303v-5h928v-73h-1031zM1887 1553l-270 289h83
l217 -236h4l217 236h83l-270 -289h-64z" />
    <glyph glyph-name="uni01C5" unicode="&#x1c5;" horiz-adv-x="2260"
d="M128 1443h446q328 0 508 -189t180 -532q0 -344 -180 -533t-508 -189h-446v1443zM208 1370v-1297h363q294 0 452.5 168.5t158.5 479.5q0 313 -158.5 481t-452.5 168h-363zM1396 0v64l678 906v3h-677v67h768v-64l-679 -906v-3h680v-67h-770zM1814 1210h-65l-267 302h81
l217 -248h3l217 248h80z" />
    <glyph glyph-name="uni01C6" unicode="&#x1c6;" horiz-adv-x="2064"
d="M506 -16q-196 0 -319.5 148.5t-123.5 387.5t123 387.5t319 148.5q141 0 247 -82t142 -207h2v676h78v-1443h-73v279h-3q-37 -129 -143.5 -212t-248.5 -83zM516 986q-166 0 -270.5 -128.5t-104.5 -336.5q0 -209 104.5 -338t270.5 -129q168 0 274.5 130t106.5 336
t-106.5 336t-274.5 130zM1200 0v64l678 906v3h-677v67h768v-64l-679 -906v-3h680v-67h-770zM1618 1210h-65l-267 302h81l217 -248h3l217 248h80z" />
    <glyph glyph-name="uni01C7" unicode="&#x1c7;" horiz-adv-x="1968"
d="M964 73v-73h-836v1443h79v-1370h757zM1058 320h78q7 -119 92 -194.5t214 -75.5q150 0 234.5 89t84.5 250v1054h80v-1058q0 -189 -106.5 -299t-291.5 -110q-165 0 -273 96.5t-112 247.5z" />
    <glyph glyph-name="uni01C8" unicode="&#x1c8;" horiz-adv-x="1354"
d="M964 73v-73h-836v1443h79v-1370h757zM1219 1040v-1125q0 -140 -67 -203t-203 -63h-31v68h27q103 0 149.5 45.5t46.5 149.5v1128h78zM1180 1296q-26 0 -44 18t-18 43t18 42.5t44 17.5q25 0 43 -17.5t18 -42.5t-18 -43t-43 -18z" />
    <glyph glyph-name="uni01C9" unicode="&#x1c9;" horiz-adv-x="673"
d="M124 0v1443h78v-1443h-78zM538 1040v-1125q0 -140 -67 -203t-203 -63h-31v68h27q103 0 149.5 45.5t46.5 149.5v1128h78zM499 1296q-26 0 -44 18t-18 43t18 42.5t44 17.5q25 0 43 -17.5t18 -42.5t-18 -43t-43 -18z" />
    <glyph glyph-name="uni01CA" unicode="&#x1ca;" horiz-adv-x="2293"
d="M206 0h-78v1443h82l919 -1299h6v1299h79v-1443h-75l-927 1307h-6v-1307zM1382 320h78q7 -119 92 -194.5t214 -75.5q150 0 234.5 89t84.5 250v1054h80v-1058q0 -189 -106.5 -299t-291.5 -110q-165 0 -273 96.5t-112 247.5z" />
    <glyph glyph-name="uni01CB" unicode="&#x1cb;" horiz-adv-x="1678"
d="M206 0h-78v1443h82l919 -1299h6v1299h79v-1443h-75l-927 1307h-6v-1307zM1543 1040v-1125q0 -140 -67 -203t-203 -63h-31v68h27q103 0 149.5 45.5t46.5 149.5v1128h78zM1504 1296q-26 0 -44 18t-18 43t18 42.5t44 17.5q25 0 43 -17.5t18 -42.5t-18 -43t-43 -18z" />
    <glyph glyph-name="uni01CC" unicode="&#x1cc;" horiz-adv-x="1410"
d="M115 0v1040h73v-226h2q36 109 132.5 175.5t227.5 66.5q172 0 276 -103.5t104 -278.5v-674h-78v664q0 150 -87 236t-233 86q-151 0 -245 -101.5t-94 -263.5v-621h-78zM1276 1040v-1125q0 -140 -67 -203t-203 -63h-31v68h27q103 0 149.5 45.5t46.5 149.5v1128h78z
M1237 1296q-26 0 -44 18t-18 43t18 42.5t44 17.5q25 0 43 -17.5t18 -42.5t-18 -43t-43 -18z" />
    <glyph glyph-name="Acaron" unicode="&#x1cd;" horiz-adv-x="1221"
d="M1115 0l-180 481h-649l-179 -481h-86l550 1443h80l549 -1443h-85zM608 1340l-296 -788h598l-297 788h-5zM579 1553l-270 289h83l217 -236h4l217 236h83l-270 -289h-64z" />
    <glyph glyph-name="acaron" unicode="&#x1ce;" horiz-adv-x="996"
d="M439 52q154 0 262.5 97.5t108.5 236.5v154l-347 -25q-146 -11 -223.5 -71.5t-77.5 -163.5q0 -100 78 -164t199 -64zM428 -16q-152 0 -248 82.5t-96 213.5q0 133 93.5 209t274.5 90l358 25v93q0 135 -77.5 212t-215.5 77q-135 0 -218 -65t-103 -183h-75q15 146 121.5 232
t275.5 86q171 0 270.5 -95t99.5 -258v-703h-75v223h-2q-40 -106 -146.5 -172.5t-236.5 -66.5zM547 1210h-65l-267 302h81l217 -248h3l217 248h80z" />
    <glyph glyph-name="Icaron" unicode="&#x1cf;" horiz-adv-x="335"
d="M207 0h-79v1443h79v-1443zM135 1553l-270 289h83l217 -236h4l217 236h83l-270 -289h-64z" />
    <glyph glyph-name="icaron" unicode="&#x1d0;" horiz-adv-x="326"
d="M124 0v1040h78v-1040h-78zM197 1210h-65l-267 302h81l217 -248h3l217 248h80z" />
    <glyph glyph-name="Ocaron" unicode="&#x1d1;" horiz-adv-x="1420"
d="M710 1464q295 0 469 -201t174 -541q0 -342 -173.5 -542.5t-469.5 -200.5t-469.5 200.5t-173.5 542.5q0 340 174 541t469 201zM710 1390q-258 0 -410 -181t-152 -487q0 -307 152.5 -488t409.5 -181t409.5 181t152.5 488q0 306 -152.5 487t-409.5 181zM678 1553l-270 289
h83l217 -236h4l217 236h83l-270 -289h-64z" />
    <glyph glyph-name="ocaron" unicode="&#x1d2;" horiz-adv-x="1052"
d="M526 -16q-209 0 -336 145t-127 391t127 391t336 145t336.5 -145t127.5 -391t-127.5 -391t-336.5 -145zM526 54q175 0 280.5 126t105.5 340q0 215 -105.5 340.5t-280.5 125.5t-280 -125.5t-105 -340.5t105 -340.5t280 -125.5zM559 1210h-65l-267 302h81l217 -248h3
l217 248h80z" />
    <glyph glyph-name="Ucaron" unicode="&#x1d3;" horiz-adv-x="1332"
d="M207 1443v-939q0 -207 124 -329t336 -122t336 122t124 329v939h79v-942q0 -237 -145.5 -379.5t-393.5 -142.5t-393.5 142.5t-145.5 379.5v942h79zM634 1553l-270 289h83l217 -236h4l217 236h83l-270 -289h-64z" />
    <glyph glyph-name="ucaron" unicode="&#x1d4;" horiz-adv-x="1039"
d="M924 1040v-1040h-73v226h-3q-35 -106 -135.5 -174t-228.5 -68q-169 0 -272 102.5t-103 276.5v677h77v-665q0 -151 85 -236t229 -85q150 0 248 99.5t98 262.5v624h78zM549 1210h-65l-267 302h81l217 -248h3l217 248h80z" />
    <glyph glyph-name="Udieresismacron" unicode="&#x1d5;" horiz-adv-x="1332"
d="M207 1443v-939q0 -207 124 -329t336 -122t336 122t124 329v939h79v-942q0 -237 -145.5 -379.5t-393.5 -142.5t-393.5 142.5t-145.5 379.5v942h79zM519 1684q27 0 46 -19t19 -46t-19 -46t-46 -19q-26 0 -45.5 19t-19.5 46t19.5 46t45.5 19zM376 1919h580v-60h-580v60z
M813 1684q26 0 45.5 -19t19.5 -46t-19.5 -46t-45.5 -19q-27 0 -46 19t-19 46t19 46t46 19z" />
    <glyph glyph-name="udieresismacron" unicode="&#x1d6;" horiz-adv-x="1039"
d="M924 1040v-1040h-73v226h-3q-35 -106 -135.5 -174t-228.5 -68q-169 0 -272 102.5t-103 276.5v677h77v-665q0 -151 85 -236t229 -85q150 0 248 99.5t98 262.5v624h78zM366 1199q-28 0 -48 19.5t-20 47.5t20 47t48 19q27 0 47 -19.5t20 -46.5q0 -28 -20 -47.5t-47 -19.5z
M666 1199q-27 0 -47 19.5t-20 47.5q0 27 20 46.5t47 19.5q28 0 48 -19t20 -47t-20 -47.5t-48 -19.5zM757 1597v-60h-492v60h492z" />
    <glyph glyph-name="Udieresisacute" unicode="&#x1d7;" horiz-adv-x="1332"
d="M207 1443v-939q0 -207 124 -329t336 -122t336 122t124 329v939h79v-942q0 -237 -145.5 -379.5t-393.5 -142.5t-393.5 142.5t-145.5 379.5v942h79zM613 1771l202 206h87l-212 -206h-77zM519 1554q-26 0 -45.5 19t-19.5 46t19.5 46t45.5 19q27 0 46 -19t19 -46t-19 -46
t-46 -19zM813 1554q-27 0 -46 19t-19 46t19 46t46 19q26 0 45.5 -19t19.5 -46t-19.5 -46t-45.5 -19z" />
    <glyph glyph-name="udieresisacute" unicode="&#x1d8;" horiz-adv-x="1039"
d="M924 1040v-1040h-73v226h-3q-35 -106 -135.5 -174t-228.5 -68q-169 0 -272 102.5t-103 276.5v677h77v-665q0 -151 85 -236t229 -85q150 0 248 99.5t98 262.5v624h78zM455 1471l243 306h82l-254 -306h-71zM367 1199q-28 0 -47.5 19.5t-19.5 46.5q0 28 19.5 47t47.5 19
q27 0 46.5 -19t19.5 -47q0 -27 -19.5 -46.5t-46.5 -19.5zM665 1199q-27 0 -47 19.5t-20 46.5t20 46.5t47 19.5t47 -19.5t20 -46.5t-20 -46.5t-47 -19.5z" />
    <glyph glyph-name="Udieresiscaron" unicode="&#x1d9;" horiz-adv-x="1332"
d="M207 1443v-939q0 -207 124 -329t336 -122t336 122t124 329v939h79v-942q0 -237 -145.5 -379.5t-393.5 -142.5t-393.5 142.5t-145.5 379.5v942h79zM631 1767l-265 210h91l207 -163h4l207 163h91l-265 -210h-70zM519 1684q27 0 46 -19t19 -46t-19 -46t-46 -19
q-26 0 -45.5 19t-19.5 46t19.5 46t45.5 19zM813 1684q26 0 45.5 -19t19.5 -46t-19.5 -46t-45.5 -19q-27 0 -46 19t-19 46t19 46t46 19z" />
    <glyph glyph-name="udieresiscaron" unicode="&#x1da;" horiz-adv-x="1039"
d="M924 1040v-1040h-73v226h-3q-35 -106 -135.5 -174t-228.5 -68q-169 0 -272 102.5t-103 276.5v677h77v-665q0 -151 85 -236t229 -85q150 0 248 99.5t98 262.5v624h78zM366 1199q-28 0 -48 19.5t-20 47.5t20 47t48 19q27 0 47 -19.5t20 -46.5q0 -28 -20 -47.5t-47 -19.5z
M666 1199q-27 0 -47 19.5t-20 47.5q0 27 20 46.5t47 19.5q28 0 48 -19t20 -47t-20 -47.5t-48 -19.5zM549 1469h-66l-266 290h81l216 -236h4l216 236h81z" />
    <glyph glyph-name="Udieresisgrave" unicode="&#x1db;" horiz-adv-x="1332"
d="M207 1443v-939q0 -207 124 -329t336 -122t336 122t124 329v939h79v-942q0 -237 -145.5 -379.5t-393.5 -142.5t-393.5 142.5t-145.5 379.5v942h79zM716 1771h-76l-213 206h87zM519 1554q-26 0 -45.5 19t-19.5 46t19.5 46t45.5 19q27 0 46 -19t19 -46t-19 -46t-46 -19z
M813 1554q-27 0 -46 19t-19 46t19 46t46 19q26 0 45.5 -19t19.5 -46t-19.5 -46t-45.5 -19z" />
    <glyph glyph-name="udieresisgrave" unicode="&#x1dc;" horiz-adv-x="1039"
d="M924 1040v-1040h-73v226h-3q-35 -106 -135.5 -174t-228.5 -68q-169 0 -272 102.5t-103 276.5v677h77v-665q0 -151 85 -236t229 -85q150 0 248 99.5t98 262.5v624h78zM577 1471h-71l-254 306h82zM367 1199q-28 0 -47.5 19.5t-19.5 46.5q0 28 19.5 47t47.5 19
q27 0 46.5 -19t19.5 -47q0 -27 -19.5 -46.5t-46.5 -19.5zM665 1199q-27 0 -47 19.5t-20 46.5t20 46.5t47 19.5t47 -19.5t20 -46.5t-20 -46.5t-47 -19.5z" />
    <glyph glyph-name="uni04D9" unicode="&#x4d9;" horiz-adv-x="1046"
d="M515 53q166 0 268.5 116t111.5 314h-744q2 -198 100 -314t264 -116zM173 791h-80q49 127 155 196t255 69q217 0 344 -144.5t127 -390.5q0 -245 -124.5 -391t-335.5 -146q-205 0 -323.5 139t-118.5 380l2 45h822v3q0 195 -109.5 315.5t-283.5 120.5q-237 0 -330 -196z" />
    <glyph glyph-name="uni04D9" unicode="&#x259;" horiz-adv-x="1046"
d="M515 53q166 0 268.5 116t111.5 314h-744q2 -198 100 -314t264 -116zM173 791h-80q49 127 155 196t255 69q217 0 344 -144.5t127 -390.5q0 -245 -124.5 -391t-335.5 -146q-205 0 -323.5 139t-118.5 380l2 45h822v3q0 195 -109.5 315.5t-283.5 120.5q-237 0 -330 -196z" />
    <glyph glyph-name="uni04D9" unicode="&#x1dd;" horiz-adv-x="1046"
d="M515 53q166 0 268.5 116t111.5 314h-744q2 -198 100 -314t264 -116zM173 791h-80q49 127 155 196t255 69q217 0 344 -144.5t127 -390.5q0 -245 -124.5 -391t-335.5 -146q-205 0 -323.5 139t-118.5 380l2 45h822v3q0 195 -109.5 315.5t-283.5 120.5q-237 0 -330 -196z" />
    <glyph glyph-name="Adieresismacron" unicode="&#x1de;" horiz-adv-x="1221"
d="M1115 0l-180 481h-649l-179 -481h-86l550 1443h80l549 -1443h-85zM608 1340l-296 -788h598l-297 788h-5zM464 1684q27 0 46 -19t19 -46t-19 -46t-46 -19q-26 0 -45.5 19t-19.5 46t19.5 46t45.5 19zM321 1919h580v-60h-580v60zM758 1684q26 0 45.5 -19t19.5 -46t-19.5 -46
t-45.5 -19q-27 0 -46 19t-19 46t19 46t46 19z" />
    <glyph glyph-name="adieresismacron" unicode="&#x1df;" horiz-adv-x="996"
d="M439 52q154 0 262.5 97.5t108.5 236.5v154l-347 -25q-146 -11 -223.5 -71.5t-77.5 -163.5q0 -100 78 -164t199 -64zM428 -16q-152 0 -248 82.5t-96 213.5q0 133 93.5 209t274.5 90l358 25v93q0 135 -77.5 212t-215.5 77q-135 0 -218 -65t-103 -183h-75q15 146 121.5 232
t275.5 86q171 0 270.5 -95t99.5 -258v-703h-75v223h-2q-40 -106 -146.5 -172.5t-236.5 -66.5zM364 1199q-28 0 -48 19.5t-20 47.5t20 47t48 19q27 0 47 -19.5t20 -46.5q0 -28 -20 -47.5t-47 -19.5zM664 1199q-27 0 -47 19.5t-20 47.5q0 27 20 46.5t47 19.5q28 0 48 -19
t20 -47t-20 -47.5t-48 -19.5zM755 1597v-60h-492v60h492z" />
    <glyph glyph-name="Adotmacron" unicode="&#x1e0;" horiz-adv-x="1221"
d="M1115 0l-180 481h-649l-179 -481h-86l550 1443h80l549 -1443h-85zM608 1340l-296 -788h598l-297 788h-5zM611 1560q-31 0 -53.5 22t-22.5 53t22.5 53t53.5 22t53.5 -22t22.5 -53t-22.5 -53t-53.5 -22zM901 1919v-60h-580v60h580z" />
    </font>
</defs>
</svg>
